<svg xmlns="http://www.w3.org/2000/svg" viewBox="0 0 250.37 341.13"><defs><style>.cls-1{font-size:55.45px;fill:#fff;font-family:KyoboHandwriting2019, "Kyobo Handwriting 2019";}.cls-2{letter-spacing:-0.03em;}.cls-3{letter-spacing:-0.02em;}.cls-4{letter-spacing:-0.01em;}.cls-10,.cls-11,.cls-12,.cls-13,.cls-14,.cls-15,.cls-16,.cls-17,.cls-18,.cls-5,.cls-6,.cls-7,.cls-8,.cls-9{fill:none;stroke-linecap:round;stroke-linejoin:round;stroke-width:4.37px;}.cls-5{stroke:#9101db;}.cls-6{stroke:#fdcf1d;}.cls-7{stroke:#cc13aa;}.cls-8{stroke:#fd9941;}.cls-9{stroke:#de209f;}.cls-10{stroke:#b10bc0;}.cls-11{stroke:#fd7455;}.cls-12{stroke:#ef1e8d;}.cls-13{stroke:#fdb82b;}.cls-14{stroke:#f92184;}.cls-15{stroke:#fd4170;}.cls-16{stroke:#fd635c;}.cls-17{stroke:#fd5067;}.cls-18{stroke:#a709c8;}</style></defs><g id="레이어_2" data-name="레이어 2"><g id="레이어_1-2" data-name="레이어 1"><text class="cls-1" transform="translate(0 323.44)">In<tspan class="cls-2" x="59.61" y="0">s</tspan><tspan class="cls-3" x="80.18" y="0">t</tspan><tspan x="102.48" y="0">ag</tspan><tspan class="cls-4" x="155.82" y="0">r</tspan><tspan x="177.89" y="0">am</tspan></text><path class="cls-5" d="M207.84,43.32C204.5,46.66,239.94,67.6,236,71.51c-1.58,1.58-21.23-20.59-23.74-18.08-3.22,3.22,27,21.86,24.4,24.4-2.36,2.37-22.46-18.47-23.92-17-.22.21,2,1.49,1.75,1.75"/><path class="cls-5" d="M207,8.78c-2,2,22.18,20.09,21.14,21.13-2,2-17.87-21.21-20.41-18.68-1.69,1.69,22.87,20.21,21.54,21.54C224.64,37.4,181.88-5.93,178-2.07c-6.23,6.22,61.34,50.9,56.12,56.12C229.85,58.34,180.8-6.65,173.43.73c-6.32,6.32,67,55.57,61.28,61.28-6.13,6.13-55.1-65.64-61.4-59.34-8.8,8.81,68,57.49,62.74,62.74C232.16,69.31,171.43-8.21,164-.73c-3.32,3.31,35.86,31.6,33.73,33.73S166.34-2,163.3,1C160.66,3.65,196,27,192.63,30.35c-4.8,4.8-38.76-34.6-41.2-32.16-3.15,3.14,29.87,25.1,27.48,27.49"/><path class="cls-6" d="M67.49,197.79C65.28,200,96.29,221.4,93.7,224c-4.59,4.58-36.33-35.21-40.23-31.3-3.12,3.11,32.55,28.62,30.58,30.59"/><path class="cls-6" d="M13.08,144.25c-2.73,2.73,25.85,19.47,22.66,22.67-1.51,1.51-20.47-19.64-22.88-17.23C9.38,153.17,42,173.35,39.27,176.1c-2.31,2.31-25.69-10.84-27.11-9.41C6.55,172.3,75.09,216.31,68.43,223,64,227.43,20.57,177,16,181.57c-5,5,39.53,35.14,37.34,37.33-2.63,2.64-25.46-23-27.85-20.59-1,1,17.4,15.21,16.31,16.31"/><path class="cls-7" d="M214.48,120c-2.59,2.58,24.43,18.37,21.4,21.4-1.44,1.45-19.71-18.67-22-16.36-3,3,25.25,20.47,22.86,22.86-2,2-22.63-7.38-23.86-6.15-2.32,2.32,25.8,20.29,23,23-1.69,1.69-20.8-13.22-22.54-11.48-2.79,2.79,21.17,18.72,19.94,19.94-1.65,1.65-16.66-13.42-18.16-11.92-1.12,1.12,19.47,17,18.24,18.25"/><path class="cls-8" d="M120,198.19c-2.6,2.6,27.09,24.42,25.76,25.76-2.19,2.18-19.44-23.25-22.21-20.49-1.67,1.67,22.57,19.94,21.26,21.25-3.8,3.8-40-30-43.21-26.8-2.65,2.65,26.17,21.73,24,24-1.85,1.85-24.85-23.81-28-20.63-2.33,2.33,22.82,18.6,20.71,20.71S99.53,201.2,97.47,203.26c-3.14,3.14,21.85,18.1,20,20-1.35,1.36-22.48-25.72-25.08-23.11s29.35,26,27.66,27.65"/><path class="cls-9" d="M64.58-2C61.88.7,92.51,23.16,91.12,24.55,88.88,26.79,71.21.68,68.38,3.52c-1.6,1.6,21.54,19,20.28,20.28-3.32,3.33-35.82-25-38.59-22.18C47.89,3.8,71.61,19.5,69.78,21.33,68.41,22.69,50.6,4.83,48.24,7.18,46.44,9,65.18,20.86,63.55,22.49c-1.38,1.39-13.23-14-14.65-12.6-2.4,2.4,15.75,12.9,14.33,14.33C62.19,25.26,44,7,42,9s22.6,20.11,21.36,21.35-19-20.45-20.8-18.64C40.92,13.35,64,28.93,61.93,31"/><path class="cls-7" d="M95.11-2.77C92.51-.17,122.24,21.68,120.9,23,118.71,25.2,101.43-.27,98.66,2.49c-1.67,1.67,22.51,19.89,21.2,21.2C116.08,27.47,80-6,76.87-2.89c-2.63,2.63,26,21.57,23.78,23.78C98.83,22.71,76.14-2.49,73,.64,70.72,2.94,95.41,18.89,93.33,21S75.09.76,73.08,2.77C70,5.85,94.41,20.42,92.57,22.26,91.26,23.57,71-2.84,68.49-.32S97.26,25.14,95.61,26.8"/><path class="cls-10" d="M214.06,89.45c-2.63,2.64,24.91,18.74,21.82,21.82-1.44,1.45-19.7-18.65-22-16.35-3,3,25.14,20.39,22.76,22.77-2,2-22.54-7.27-23.75-6-2.34,2.34,26,20.46,23.24,23.24-1.9,1.9-20.78-19.14-22.73-17.19-.27.26.21,0,.1.1"/><path class="cls-10" d="M123.28-2.73C120.68-.13,150.38,21.7,149,23c-2.18,2.18-19.41-23.21-22.17-20.45C125.21,4.24,149.29,22.39,148,23.69,144.21,27.46,108.18-6,105-2.85,102.41-.22,131,18.69,128.78,20.89,126.94,22.73,104-2.8,100.86.36,98.53,2.68,123.57,18.87,121.47,21,119.53,22.91,103.94.36,102,2.35c-3.14,3.13,21.79,18,19.92,19.92"/><path class="cls-11" d="M13.06,72.29c-2.64,2.64,25,18.81,21.91,21.9-1.46,1.46-19.78-18.74-22.09-16.43-3,3,25.34,20.55,22.95,22.95-2,2-22.71-7.46-23.93-6.23C9.57,96.81,37.74,114.81,35,117.57,32.9,119.65,14.54,94,12.4,96.08c-2.69,2.7,20.35,18,19.17,19.17"/><path class="cls-8" d="M13.07,98.44c-2.65,2.64,25,18.81,21.91,21.91-1.46,1.45-19.78-18.75-22.1-16.44-3,3,25.36,20.56,23,23-2,2-22.71-7.64-23.94-6.41-.17.17,1.41,1,1.22,1.23"/><path class="cls-12" d="M209.41,171.09c-2.11,2.11,22.86,20.69,21.78,21.77-1.71,1.71-15.34-17.93-17.5-15.77-1.24,1.24,16.2,14.24,15.22,15.22-2.13,2.12-24.83-12-26.61-10.21s18.64,15.48,17.06,17.06c-1.05,1.05-15.41-11.64-17.22-9.83C200.5,191,217.3,201.52,215.82,203c-1.19,1.19-11.47-11.85-12.69-10.63-2.21,2.2,14.25,11.61,12.93,12.93-.91.9-14.47-17.77-16.22-16s21.85,19.46,20.66,20.66"/><path class="cls-13" d="M13.62,123.19c-2.57,2.58,24.31,18.28,21.29,21.3-1.45,1.44-19.72-18.68-22-16.38-3,3,25.21,20.45,22.82,22.83-2.06,2.07-22.53-10.81-23.8-9.53-2.07,2.06,23,18,20.49,20.5"/><path class="cls-13" d="M88.59,198.21c-2.59,2.58,27,24.31,25.63,25.64-2.17,2.17-19.32-23.1-22.06-20.35-1.67,1.66,22.45,19.84,21.15,21.15-3.8,3.79-40-29.94-43.18-26.77-2.65,2.65,26.21,21.76,24,24-1.6,1.6-19-23.52-21.71-20.78-2.35,2.35,23,18.73,20.86,20.85"/><path class="cls-11" d="M140.23,198.17c-.22.23,6.48,6.25,6.36,6.36s-2.55-1.39-2.83-1.11c-1.67,1.67,22.54,19.92,21.23,21.23-3.77,3.77-39.82-29.71-43-26.56-2.63,2.63,26,21.56,23.78,23.77-1.56,1.55-18.18-23.22-20.86-20.55-2.32,2.32,22.73,18.52,20.62,20.62"/><path class="cls-14" d="M27.11,17.86c-2,2,22.25,20.14,21.2,21.19C46.68,40.68,33.63,22,31.57,24,30.39,25.21,46.76,37.37,45.83,38.3,43.69,40.43,20.9,26.2,19.12,28c-1.95,1.95,19.27,16,17.64,17.64-1,1.05-14.13-13.35-15.93-11.55S36.88,47,35.32,48.56"/><path class="cls-14" d="M199.71,191.79c-1.86,1.86,17.06,12.7,14.88,14.87-1.18,1.18-16.48-14.57-18.36-12.7-2.16,2.17,17.85,14.42,16.13,16.13-2.41,2.41-26.05-13.18-27.53-11.69-1.76,1.76,19.46,15.29,17.37,17.38"/><path class="cls-15" d="M181.13,196.89C179,199,204,217.62,202.94,218.71c-1.75,1.75-15.73-18.45-17.95-16.24-1.29,1.3,16.94,14.9,15.92,15.92-3,3-32.47-22.44-35-19.93-2.34,2.34,23.13,19.2,21.17,21.16"/><path class="cls-15" d="M17,32.7c-1.79,1.79,24.13,19.92,22,22-2.59,2.59-22.38-17.2-24.58-15S36.41,59,35.1,60.35C33,62.44,20,41.25,17.78,43.51,16,45.24,38.13,61.38,36.89,62.62,34.63,64.88,15.46,44.71,14.17,46c-1.61,1.62,22.24,17.93,20.08,20.09"/><path class="cls-12" d="M37.52,8.79c-2,2,22.24,20.14,21.19,21.19-1.65,1.64-14.84-17.28-16.92-15.2C40.59,16,57.32,28.42,56.38,29.37c-2.31,2.31-26.17-14.91-28.1-13s18.35,15.25,16.8,16.8"/><path class="cls-16" d="M13.59,59.72C11,62.32,38.07,78.13,35,81.17c-1.47,1.47-20-19-22.3-16.65C9.68,67.58,38.23,85.2,35.82,87.61s-22.46-19.7-24-18.21C9.68,71.58,36.1,88.45,33.51,91"/><path class="cls-16" d="M152.63,198.14c-2.64,2.64,27.45,24.74,26.09,26.09-2.22,2.22-19.76-23.66-22.57-20.85-1.66,1.66,22.45,19.83,21.14,21.14-3.29,3.29-32.81-28.82-35.56-26.07-2.6,2.6,25.67,21.31,23.49,23.49"/><path class="cls-17" d="M12,46.2C9.75,48.39,40.57,69.67,38,72.25c-2.89,2.89-24.56-19.89-27-17.42s24.79,21.81,23.3,23.3c-2.4,2.4-17.3-22-19.91-19.43-1.9,1.9,22.39,19.67,21,21-2.62,2.62-21.77-24.34-23.26-22.84-.15.15,1.29.89,1.09,1.09"/><path class="cls-9" d="M214,162c-2.23,2.24,20.9,15.66,18.28,18.28-1.23,1.23-17.09-15.36-19.05-13.4-2.44,2.44,20.2,16.35,18.27,18.28S212.21,170.6,211,171.82c-.14.13,1.13.8,1,1"/><path class="cls-17" d="M164.4,198.14c-.23.23,6.54,6.31,6.42,6.42s-2.61-1.46-2.9-1.18c-1.55,1.56,20.85,18.4,19.63,19.62-3.1,3.1-30.53-27.49-33.11-24.91s25.51,21.18,23.34,23.35"/><path class="cls-7" d="M155,96.26c-3.07,3.06,29.31,22.13,25.72,25.72-1.48,1.47-19.85-19.31-22.2-17-.35.35,2.13,1.58,1.86,1.85"/><path class="cls-7" d="M155.27,62.65C153.41,64.51,175.9,81.38,175,82.34c-1.82,1.82-16.34-19.24-18.65-16.93C154.75,67,177.06,83.73,175.84,85c-4.35,4.35-45-35.85-48.61-32.21-5.89,5.89,58.05,48.17,53.11,53.11-4,4-50.41-56.91-57.36-50C117,61.83,185.86,108,180.49,113.39,174.76,119.11,129,52.15,123.08,58c-8.25,8.25,63.47,53.61,58.54,58.54-3.6,3.6-59.95-67.83-66.86-60.92-3.14,3.14,34.09,30.08,32.08,32.09S117.49,55.12,114.65,58c-2.44,2.44,30.29,24.17,27.23,27.24-4,4-29.27-31.71-31.29-29.7-3.11,3.11,29.62,24.89,27.26,27.25"/><path class="cls-16" d="M69,112.49c-6.48,6.47,63.93,48.77,56.35,56.35-4,4-50.17-57.31-56.57-50.92-6.69,6.69,56.9,46.35,51.62,51.63-5.5,5.5-48-48.37-51.4-45-4.31,4.3,48.25,38,43.14,43.14"/><path class="cls-17" d="M69.94,103.61c-2.53,2.52,29.15,23.19,26.17,26.17-2.21,2.21-23.59-20.13-25.76-18-4.86,4.86,62.87,49.53,56.21,56.2"/><path class="cls-17" d="M109.12,140.78c-2.9,2.9,29.73,26.74,28.23,28.23-2.58,2.58-22.66-27.77-25.92-24.51-1.92,1.92,26.28,23.27,24.77,24.78"/><path class="cls-12" d="M96.27,59.59C94.06,61.8,120,81,118.84,82.16c-1.79,1.8-16.12-18.95-18.4-16.68-1.26,1.26,16.43,14.44,15.43,15.43-2.51,2.51-28.45-16.25-30.55-14.15-1.88,1.88,18.6,15.44,17,17-1.07,1.08-15.67-12-17.52-10.13C83.18,75.29,100,85.82,98.48,87.31c-1.19,1.18-11.2-12-12.42-10.81C83.86,78.7,100.31,88.1,99,89.42"/><path class="cls-12" d="M158.76,121.78c-2,2,18.68,13.95,16.32,16.32-1.15,1.15-16.13-14.14-18-12.31-2.25,2.25,18.49,15,16.72,16.73-2.07,2.07-23.41-8.26-24.69-7-1.66,1.66,18.31,14.38,16.34,16.35-1.49,1.49-15.62-16-17.16-14.45-2.13,2.13,15.67,13.81,14.74,14.74"/><path class="cls-14" d="M79.73,72.79C77.68,74.84,102,93,101,94.05c-1.63,1.63-14.71-17.11-16.77-15C83,80.19,99.54,92.45,98.6,93.38c-2.11,2.12-24.67-11.79-26.44-10-2,2,20,16.6,18.3,18.3C89.38,102.73,76,87.45,74.13,89.32s16.58,13.38,15,15"/><path class="cls-14" d="M144.41,136.2c-2,2.05,22.3,20.2,21.24,21.25-1.64,1.65-14.84-17.29-16.92-15.21-1.19,1.19,15.28,13.42,14.35,14.35-2.53,2.53-28.57-16.37-30.67-14.27s19.81,16.46,18.13,18.14c-1.19,1.18-15.21-16.32-17.25-14.27-1.81,1.8,17,13.69,15.33,15.33"/><path class="cls-11" d="M70.76,128c-4.54,4.53,44.19,33.58,38.88,38.89-2.47,2.47-31.9-34.12-35.84-30.19-3.64,3.65,30.63,24.86,27.75,27.74C99,167,79.12,143,77.57,144.52S94,157.39,92.22,159.16"/><path class="cls-15" d="M128.7,143.3c-2,2,21.64,19.62,20.62,20.63-1.63,1.64-14.78-17.22-16.86-15.14-1.34,1.34,17.69,15.57,16.63,16.62-3.28,3.28-34.35-26.22-37.09-23.48s26.3,21.83,24.07,24.06"/><path class="cls-15" d="M73.56,90.89C71.43,93,93.41,105.73,90.91,108.23c-1.25,1.25-17.28-15.57-19.26-13.59-2.66,2.66,22.1,17.89,20,20S70.26,99.06,68.92,100.39C66.6,102.71,94.77,120.71,92,123.47"/><path class="cls-9" d="M107.86,55c-2.52,2.51,26.38,23.8,25.09,25.09-2.08,2.08-18.54-22.08-21.17-19.45-1.52,1.52,20.34,17.94,19.14,19.14-2.93,2.93-30.55-23.66-33-21.21-2.06,2.06,20.38,16.92,18.66,18.65"/><path class="cls-9" d="M159.51,107.52c-2.43,2.42,22.77,17.1,19.93,19.93-1.3,1.3-17.94-16.42-20-14.35-2.59,2.59,21.47,17.38,19.42,19.43s-19.64-15-20.88-13.77c-1.8,1.8,19.95,15.67,17.81,17.81"/><path class="cls-10" d="M172.94,47.25c-2.09,2.08,19.34,14.45,16.9,16.89-1.26,1.25-17.37-15.69-19.36-13.7-2.25,2.25,18.55,15,16.78,16.78-1.58,1.58-17.16-8.46-18.13-7.49-.76.76,8.13,6.33,7.23,7.23"/><path class="cls-18" d="M214.48,63.74c-2.59,2.58,24.43,18.37,21.4,21.4-1.45,1.45-19.71-18.67-22-16.36-3,3,25.15,20.39,22.77,22.77-2,2-22.53-7.26-23.75-6-2.25,2.25,25,19.66,22.34,22.33-2,2-19.76-23-21.83-20.89-2.73,2.73,20.57,18.2,19.38,19.39"/><path class="cls-18" d="M148.8-2.73c-2.46,2.45,25.86,23.34,24.6,24.6-2.06,2.06-18.4-21.9-21-19.29-1.66,1.66,22.39,19.78,21.09,21.08C169.71,27.43,133.7-6,130.56-2.85,127.93-.22,156.51,18.69,154.3,20.9,152.54,22.66,131.13-2.68,128.09.36,125.76,2.68,150.8,18.87,148.7,21"/><path class="cls-18" d="M184.69,40.34c-.95.94,12.71,11.75,12.23,12.23-.87.87-8.25-8.74-9.35-7.63-.76.76,8.9,7.71,8.31,8.31-2,2-23.23-12.3-24.92-10.61-2.08,2.07,20.51,17,18.77,18.77"/></g></g></svg>