<svg xmlns="http://www.w3.org/2000/svg" viewBox="0 0 1310.25 770.06"><defs><style>.cls-1{opacity:0.4;}.cls-2{fill:#0173c0;}.cls-15,.cls-16,.cls-17,.cls-18,.cls-19,.cls-22,.cls-23,.cls-25,.cls-28,.cls-3,.cls-32,.cls-4{fill:none;stroke-linecap:round;stroke-linejoin:round;}.cls-3{stroke:#f7fafc;}.cls-25,.cls-3,.cls-4{stroke-width:3.75px;}.cls-4{stroke:#0173c0;}.cls-5{font-size:55.45px;fill:#fff;font-family:KyoboHandwriting2019, "Kyobo Handwriting 2019";}.cls-6{letter-spacing:-0.03em;}.cls-7{letter-spacing:0em;}.cls-8{letter-spacing:-0.03em;}.cls-9{opacity:0.6;}.cls-10{fill:#a159fe;}.cls-11{fill:#fe7162;}.cls-12{fill:#f14e1e;}.cls-13{fill:#0ace82;}.cls-14{fill:#1abbfd;}.cls-15{stroke:#a159fe;}.cls-15,.cls-16,.cls-17,.cls-18,.cls-19{stroke-width:3.75px;}.cls-16{stroke:#fe7162;}.cls-17{stroke:#f14e1e;}.cls-18{stroke:#0ace82;}.cls-19{stroke:#1abbfd;}.cls-20{fill:#fed242;}.cls-21{fill:#3672a3;}.cls-22{stroke:#fed242;}.cls-22,.cls-23{stroke-width:3.75px;}.cls-23{stroke:#3672a3;}.cls-24{fill:#764abc;}.cls-25{stroke:#764abc;}.cls-26{letter-spacing:-0.02em;}.cls-27{fill:#61dafb;}.cls-28{stroke:#61dafb;stroke-width:3.02px;}.cls-29{letter-spacing:-0.01em;}.cls-30{opacity:0.3;}.cls-31{fill:#fede00;}.cls-32{stroke:#fede00;stroke-width:5px;}.cls-33{letter-spacing:-0.01em;}</style></defs><g id="레이어_2" data-name="레이어 2"><g id="레이어_1-2" data-name="레이어 1"><g class="cls-1"><path class="cls-2" d="M490.26,653.84c-35.81,0-71.62-.06-107.42.1-3.75,0-4.65-.91-4.64-4.64q.18-107.86,0-215.73c0-3.74.9-4.64,4.64-4.63q107.88.18,215.75,0c3.75,0,4.64.9,4.64,4.63q-.18,107.87,0,215.73c0,3.74-.9,4.65-4.64,4.64C562.48,653.78,526.37,653.84,490.26,653.84ZM520,623c0,2.1-.09,4.43-.06,6.28.07,4.36,1.29,6.15,5.09,7.29,13.33,4,26.78,5,40.34,1.62,10.64-2.68,19.56-8.54,22.3-19.41,4.6-18.32.1-29.42-14.71-38.49-1.53-.94-3.05-1.9-4.62-2.77-6.29-3.46-12.92-6.3-18.84-10.43-2.7-1.89-5.36-3.84-5.66-7.62-.49-6.12,3.8-11,10.83-11.84,9.29-1.14,18.23,0,26.53,4.62,2.42,1.34,3.87,1.41,3.84-2,0-5.24,0-10.49.13-15.73.08-2.3-1-3.16-3-3.71-14.17-4-28.37-4.87-42.43.19-11.51,4.15-18.76,12.2-20.13,24.65s2.49,22.83,13.29,29.84c4.63,3,9.68,5.38,14.53,8,4.59,2.51,9.48,4.52,13.42,8.1,6.68,6.06,5,14.59-3.44,17.72a23.3,23.3,0,0,1-7.48,1.34c-9.74.31-18.69-2-26.56-7.95-.8-.6-1.65-1.71-2.71-1.17s-.66,1.88-.68,2.89C520,617.28,520,620.13,520,623Zm-32.49-28.45c0-14.22.07-28.45-.06-42.67,0-3.05.75-4.26,4-4.11,5.22.25,10.47.07,15.71.07,9.35,0,9.35,0,9.35-9.44,0-10.79,0-10.79-10.66-10.79-22.31,0-44.62.06-66.93-.07-3.28,0-4.56.77-4.31,4.23a107.57,107.57,0,0,1,0,12.57c-.12,2.79.92,3.61,3.63,3.55,6.89-.16,13.79.21,20.66-.15,4.08-.22,4.93,1.13,4.9,5-.17,27.54,0,55.09-.2,82.64,0,4.26,1.25,5.32,5.23,5a99.89,99.89,0,0,1,14.37,0c3.75.27,4.4-1.23,4.36-4.57C487.4,622.07,487.49,608.29,487.49,594.52Z"/></g><path class="cls-3" d="M520.1,612.22c0,.28,3.12.25,3.1.38-.06.44-7.78,5.14-7.89,6-.63,5.18,67.2,3.22,66.59,8.18-.59,4.76-63.85-3.56-64.35.54-.56,4.56,64.8,4.95,64.44,7.91-.58,4.7-54.61-2.85-55.19,1.86-.23,1.86,25.82,1.34,25.6,3.14"/><path class="cls-3" d="M568.53,548.66c-.06.45,19.18,1.84,19.11,2.35s-6.41.52-6.44.81,3.53.21,3.5.43"/><path class="cls-3" d="M557.8,527.67c-.16,1.24,19,.87,18.81,2.31-.46,3.69-45,10-45.27,12.41-.44,3.63,56,2.53,55.5,6.82-.49,4-62-7.31-62.65-1.94-.15,1.25,23.24.91,23,2.82-.18,1.49-24-.83-24.23,1-.12,1,20.71.92,20.51,2.52-.14,1.18-26.5-1.58-26.68-.09-.21,1.73,32.29,2.23,32.08,3.94-.28,2.23-27.31,4.59-27.58,6.72-.19,1.55,36,1.67,35.65,4.37-.28,2.32-27.55,7.64-27.82,9.81-.34,2.75,49.52,1.31,49,6-.46,3.72-52.32-8-52.83-3.84-.35,2.82,62.67,4.25,62.25,7.65-.58,4.7-53-5.79-53.51-2s48,2.06,47.49,5.83c-.11.95-14.9,12.72-15.09,14.22s27,1.17,26.69,3.28c-.29,2.4-32.36,3.55-32.65,5.88-.21,1.73,20.61.78,20.4,2.5-.26,2.1-30.86-.15-31.18,2.47s35,1.56,34.65,4.26"/><path class="cls-3" d="M456.5,548.13c-.14,1.1,33.72,2.86,33.56,4.13-.19,1.56-25.19-1.34-25.33-.21s22.83,1.62,22.69,2.79-16,3.84-16.18,5.11c-.12,1,19.58.28,19.32,2.37-.24,1.92-25.65,3.13-25.83,4.59s22.67,1.68,22.53,2.76c-.18,1.5-28.39,11.31-28.59,12.93-.22,1.82,24.85,1.55,24.67,3S466,583,465.85,584.26s15.22.75,15.08,1.85-12.52,13.45-12.68,14.71c-.18,1.5,14.29.13,14.1,1.73-.15,1.22-19.57,3.41-19.72,4.64-.22,1.8,29.63,2,29.43,3.62-.18,1.47-29.13,3-29.38,5-.2,1.65,29.56,2.31,29.4,3.61-.3,2.39-27.08,1.32-27.27,2.9-.17,1.34,16.69.2,16.47,2-.07.58-11.54,6.41-11.68,7.55s25.49,1.14,25.25,3.1-37.87-.34-38.09,1.42c-.14,1.17,26.44,2,26.29,3.23-.2,1.63-25.4-3.33-25.64-1.39-.07.62,12.57.86,12.49,1.54"/><path class="cls-3" d="M503.54,527.69c-.08.64,7.36.14,7.27.89-.68,5.52-69.05,5.85-69.49,9.44-.59,4.82,76,3.54,75.28,9.24-.63,5.07-78.69-10.84-79.53-4-.31,2.55,50.4,2.25,49.92,6.13-.37,3-49.13-6.25-49.59-2.5,0,.4,6.21.1,6.13.75"/><path class="cls-4" d="M575.51,529.79c-.18,1.46,29.19,2,29,3.56-.16,1.27-29.24-5.6-29.49-3.58s20.78,1.19,20.62,2.53c-.09.67-12.53,9.58-12.69,10.92-.14,1.07,23.58,2,23.47,2.88-.23,1.87-26-1.46-26.25.51-.18,1.48,27.5,2.22,27.36,3.36-.16,1.31-20.68.83-20.9,2.61-.1.81,20.67,1.1,20.5,2.52"/><path class="cls-4" d="M558.87,547.57c-.16,1.31,10.75-.09,10.58,1.3-.21,1.73-26.06,9.72-26.33,11.88-.37,3.07,55,1.71,54.39,6.67-.44,3.63-42.27,4.13-42.49,5.92-.33,2.75,48.06,2.42,47.64,5.85-.19,1.47-18.15,15.71-18.29,16.84-.12,1,22.18,1.42,22,2.7s-13.66,14.34-13.9,16.23c-.16,1.3,9.08-.15,8.92,1.1-.08.71-12.93,8.4-13.06,9.47s14,.38,13.88,1.7-16.76,2.62-17,4.15c-.14,1.17,14.78.45,14.61,1.8-.19,1.54-19.1-2.24-19.24-1.17s25,.89,24.76,3c-.33,2.7-32.17-4.11-32.41-2.17-.18,1.47,32.17,2.61,32,3.93-.44,3.58-55.52-.42-56,3.12-.37,3,48.07,3,47.72,5.85"/><path class="cls-4" d="M517,611.75c-.38,3.08,46.63,2.4,46.22,5.68-.23,1.91-24.53-.6-24.78,1.42-.14,1.19,9.74.17,9.62,1.18"/><path class="cls-4" d="M516.4,529.23c-.24,1.95,16.1,1,16,2s-20.3,2.61-20.53,4.45c-.11,1,14.63.88,14.52,1.78-.13,1.06-12.37,6-12.48,6.91-.07.51,15.47,1.57,15.43,1.9-.45,3.64-41.87,2.68-42.32,6.33-.3,2.46,33.72,1.71,33.43,4.11-.26,2.07-39.7,3.74-39.93,5.65-.33,2.63,41.32,3.32,41.11,5-.34,2.78-31.28,4.44-31.56,6.72-.24,1.95,30.58,1.64,30.32,3.72-.17,1.38-28-4.89-28.17-3.3-.36,2.86,38.63,2.91,38.4,4.72-.27,2.2-43.06,4.3-43.29,6.17-.35,2.9,62.64,3.23,62.1,7.62-.48,3.9-63.38.74-63.89,4.9-.61,5,78.68,2.87,77.86,9.55-.75,6.06-75.51,3-75.91,6.24-.23,1.85,31.44,1.57,31.16,3.83-.23,1.92-31.47,2.79-31.64,4.19-.25,2.06,39.66,3.4,39.49,4.84s-35.6-1.21-35.85.88c-.3,2.39,24.63.39,24.31,3-.27,2.16-46.88,5.92-47.28,9.17-1,8.21,119.36,8,118.55,14.56"/><path class="cls-4" d="M447.36,547.1c-.05.41,18.45,1.79,18.39,2.26-.15,1.23-19.83-2.25-19.94-1.36s17.84,1.26,17.72,2.18"/><path class="cls-4" d="M592.54,429.08c-.07.55,5.65,0,5.58.68-1.41,11.46-144.63-7.35-145.54.11-1.16,9.46,153.8,7.51,152.43,18.71-1.6,13-201.7-36.83-203.85-19.27C400,439.14,604.29,439,602.45,454c-1.67,13.61-219.24-40-221.31-23.19-1.11,9,222.44,12.26,220.62,27.08-1.23,10-225-37.33-226.6-24.63-2,16.25,234.93,12.62,233,28.6-2.21,18-226-35-228.13-17.91-1.39,11.33,232,8.55,229.6,28.19-2.2,17.88-224.86-31.38-226.91-14.63-1.4,11.4,222.05,7.44,219.65,27-2,15.95-223.81-43.13-226-25.11C374.9,470.94,610.22,474,608.51,487.9,606,508.24,380.23,448,378.25,464.15c-2.05,16.69,222.51,10.7,220.5,27.08-1.22,9.94-216.22-26.53-218.16-10.72-1.56,12.68,228.65,9,226.34,27.79-2.06,16.79-229.07-34.7-231.06-18.48-1.94,15.76,222.34,11.46,220.43,27.06-1.83,14.85-217.84-38.64-220.11-20.1-2.25,18.29,228.18,9.66,226,27.75s-215.34-44.78-217.6-26.4C382.63,513.81,610.43,515,609.12,525.7,606.6,546.18,381.87,494,379.89,510c-1.54,12.54,157.11,6.3,155.53,19.1C533.88,541.68,375.81,517.46,375,524c-.35,2.86,66.73,5.23,66.37,8.15s-65.27.23-65.63,3.21c-.49,3.92,60,4.73,59.64,7.33-.53,4.34-51.34-3.4-51.85.72-.83,6.75,79,4.74,78.42,9.62-.51,4.19-84.54-.47-85.37,6.28-.54,4.43,84.94,4.46,84.22,10.34-.44,3.59-82.64-14.11-83.34-8.48-.43,3.51,81,5.64,80.52,9.89-.57,4.65-72.91-4.73-73.46-.18-.65,5.23,86.6,3.67,85.76,10.53-.82,6.67-85.09-14.77-85.76-9.31-.88,7.2,86.77,7.09,86.33,10.6-.79,6.44-97.37-5.18-98.05.4-.78,6.29,98,8.5,97.59,12-1,7.82-97.29-8.9-97.88-4.07-.47,3.85,90.37,4.78,89.61,11-.74,6.06-76.13,1.05-76.93,7.54s77.21,2.59,76.38,9.37c-.46,3.69-78.2-.46-78.88,5.11-.72,5.81,79.93,4.84,79.32,9.74-.77,6.33-88.39-16.17-89.28-8.87-.85,6.88,96.75,6.53,96.11,11.81-.48,3.88-93.7-10-94.25-5.49-1.68,13.68,181.25,8.32,179.56,22-.9,7.33-178.2-27.38-179.13-19.76-.84,6.86,169.69,8.57,168.21,20.66-1.74,14.17-169.89-21.92-170.8-14.53-1.07,8.67,121.34,8.59,120.57,14.8-1.2,9.77-118.65-11-119.69-2.57-.1.83,18,1.45,17.87,2.19"/><text class="cls-5" transform="translate(363.34 752.37)"><tspan class="cls-6">T</tspan><tspan class="cls-7" x="31.5" y="0">ypeScri</tspan><tspan class="cls-8" x="205.62" y="0">p</tspan><tspan x="231.35" y="0">t</tspan></text><g class="cls-9"><path class="cls-10" d="M1235.32,544.69q0,16.3,0,32.61c0,.54,0,1.08-.06,1.62l-40.11,0a37.19,37.19,0,0,1-16.8-5.48c-12.44-8-18.58-19.55-17.86-34.33a37.34,37.34,0,0,1,32.19-34.83l2.41-.3,40.22,0,0,.06q0,15.91,0,31.81c0,.56-.2,1.17.2,1.69A44.54,44.54,0,0,0,1235.32,544.69Z"/><path class="cls-11" d="M1235.28,429c1.44,0,2.88-.05,4.32-.05,11,0,22.08,0,33.12,0a37.48,37.48,0,0,1,4.06,74.75c-.44,0-.88.14-1.33.22a59.08,59.08,0,0,0-6.91.21c-.41-.4-.94-.2-1.4-.2q-9.54,0-19.06,0c-4.28,0-8.56,0-12.84.05l0-.06Q1235.28,466.47,1235.28,429Z"/><path class="cls-12" d="M1235.28,429q0,37.46,0,74.92L1195,504c-2.47-.47-5-.72-7.42-1.4a37.53,37.53,0,0,1,4.93-73.24,33.39,33.39,0,0,1,5-.34q18.46,0,36.93,0C1234.74,429,1235,429,1235.28,429Z"/><path class="cls-13" d="M1195.1,578.89l40.11,0c0,.45.06.9.06,1.35q0,17.87,0,35.72a37.45,37.45,0,0,1-30.26,37.2c-20.42,4.25-41-10.08-44.16-30.7a37.43,37.43,0,0,1,29.85-42.9C1192.15,579.29,1193.63,579.12,1195.1,578.89Z"/><path class="cls-14" d="M1268.54,504.14a59.08,59.08,0,0,1,6.91-.21,39,39,0,0,1,12.13,3.06c13,6.06,20.66,16.14,22.36,30.42,2.29,19.29-10.94,36.92-29.89,40.81-19.79,4.06-40-9.19-44-29-.3-1.5-.51-3-.77-4.52a44.54,44.54,0,0,1,.16-7.21C1237,520.41,1251.23,506,1268.54,504.14Z"/></g><path class="cls-15" d="M1229.85,504c-.07.4,5.46.42,5.36.95-.86,4.91-49.63,3.47-50,5.45-1.21,6.86,56.66,5.19,55.84,9.84-.59,3.35-83,1.85-84,7.73-1.92,10.85,75.68,3.05,73.92,13-1.58,9-61.59-16.54-63.07-8.14-.84,4.74,70.2,11.45,70,12.35-2,11.42-77.52-8.52-78.62-2.27-1.26,7.11,81.59,3.85,79.79,14.07-1.14,6.5-75.75-16.41-76.93-9.71-1.48,8.42,67.07,10.94,66.92,11.8-.24,1.34-58.44,2.65-58.82,4.81-.06.3,63.35,10.64,63.26,11.16-.55,3.09-58.83-9.55-59.3-6.88-.91,5.19,68.7,7.48,67.9,12-.73,4.16-58.49-7.83-59.13-4.21-.39,2.21,23.7,3.08,23.51,4.15"/><path class="cls-16" d="M1272.4,429.31c-.22,1.22,8.78-.17,8.48,1.5-.68,3.88-38.76,5.81-39,7.37-1.52,8.6,71.17,6.55,70.14,12.37-.58,3.27-81.11,2.32-82.13,8.07-2,11.09,77.36,3.11,75.56,13.32-1.6,9.07-62.34-16.77-63.84-8.27-.83,4.74,70.3,11.46,70.14,12.36-2,11.27-76.48-8.24-77.56-2.08-1.16,6.57,75.79,3.63,74.12,13.07-1.07,6.05-70.5-15-71.6-8.77-1.33,7.54,59.29,9.66,59.15,10.43-.23,1.32-57.26,2.9-57.63,5,0,.22,45,7.54,44.9,7.92-.41,2.32-44.26-6.29-44.61-4.29-.58,3.26,44.57,4.95,44.07,7.77-.58,3.33-46.89-5-47.4-2.08-.12.67,12,1.79,12,2.11"/><path class="cls-17" d="M1229.59,429c-.07.41,5.76.44,5.66,1-.87,4.91-49.69,3.46-50,5.43-1.21,6.87,56.7,5.21,55.88,9.86-.59,3.34-82.95,1.86-84,7.74-1.91,10.84,75.64,3,73.88,13-1.58,9-61.54-16.52-63-8.13-.83,4.74,70.09,11.43,69.93,12.34-2,11.41-77.48-8.51-78.58-2.27-1.25,7.11,81.58,3.86,79.78,14.07-1.15,6.5-75.72-16.4-76.91-9.71-1.48,8.42,67,10.94,66.9,11.8-.24,1.34-58.26,2.68-58.64,4.84-.06.3,63.2,10.61,63.11,11.13-.55,3.09-58.81-9.54-59.28-6.88-.91,5.16,68.23,7.44,67.45,11.9-.73,4.14-58.26-7.88-58.9-4.27-.4,2.3,24.39,3.16,24.2,4.26"/><path class="cls-18" d="M1229.76,579c-.07.4,5.56.42,5.47,1-.87,4.91-49.6,3.48-49.94,5.45-1.21,6.86,56.61,5.2,55.79,9.84-.59,3.35-82.94,1.87-84,7.74-1.91,10.84,75.61,3,73.85,13-1.58,8.95-61.51-16.5-63-8.12-.83,4.72,69.9,11.4,69.74,12.3-2,11.39-77.28-8.46-78.38-2.23-1.2,6.83,78.59,3.74,76.86,13.55-1.1,6.26-72.84-15.63-74-9.18-1.39,7.89,62.42,10.17,62.27,11-.21,1.23-53.74,3.65-54.09,5.64,0,.23,46.72,7.83,46.65,8.23-.39,2.22-42.44-5.89-42.78-4-.61,3.47,47.17,5.22,46.64,8.22-.46,2.64-37.15-2.7-37.56-.41s23.28,3,23.1,4.07"/><path class="cls-19" d="M1272.78,504.32c-.21,1.19,8.31-.2,8,1.42-.49,2.8-26.85,8.36-27,9.49-1.27,7.16,59.15,5.42,58.29,10.27-.57,3.26-80.59,2.45-81.6,8.16-1.94,11,76.74,3.09,75,13.22-1.59,9-62.11-16.7-63.61-8.23-.83,4.73,70.09,11.43,69.94,12.33-2,11.15-75.67-8-76.74-1.94-1.15,6.5,75,3.6,73.33,12.93-1,5.89-68.67-14.51-69.74-8.44-1.29,7.33,57.42,9.36,57.29,10.1-.18,1-43.33,5.87-43.61,7.5,0,.15,30.91,5.17,30.86,5.44-.2,1.15-22.11-1.35-22.29-.36-.25,1.46,21.93,2.58,21.71,3.83-.3,1.72-24-5.57-24.22-4.07-.38,2.17,23.36,3,23.18,4.09"/><text class="cls-5" transform="translate(1162.84 752.37)">Figma</text><g class="cls-1"><path class="cls-20" d="M903.32,595.52q-19.77,0-39.52,0c-.81,0-1,.2-1,1,.06,1.94.06,3.89,0,5.83,0,.7.2.86.88.86q18.84,0,37.68,0c5.1,0,10.21,0,15.31,0,.76,0,.91.22.9.93,0,3.76-.09,7.53,0,11.28q.18,7.2.14,14.38a15.41,15.41,0,0,1-3.18,9.13c-3.16,4.31-7.54,7-12.34,9.11a64.39,64.39,0,0,1-13.05,3.89A68.11,68.11,0,0,1,882,653c-2.56.26-5.13.47-7.7.68-5.5.44-11,.29-16.49.26-1.86,0-3.74-.12-5.59-.31-3.07-.32-6.15-.61-9.2-1.1a87.06,87.06,0,0,1-10.13-2.22,51.87,51.87,0,0,1-6.54-2.33,39.56,39.56,0,0,1-8.75-5.12,27,27,0,0,1-6.3-7,20.38,20.38,0,0,1-2.86-8,7.77,7.77,0,0,1-.08-3.59,2.55,2.55,0,0,0,0-.83c0-17.05-.1-34.11.06-51.16a26.39,26.39,0,0,1,5.6-16.38,27.78,27.78,0,0,1,13.86-9.21,38.67,38.67,0,0,1,8.4-1.71c1-.1,2.09-.12,3.13-.12,18.36,0,36.72,0,55.08,0a31.81,31.81,0,0,0,15.3-3.69,25.93,25.93,0,0,0,8-6.72,33.51,33.51,0,0,0,6.35-14.56,38.66,38.66,0,0,0,.72-7.68c0-8.43,0-16.86,0-25.29,0-.78.22-.95,1-.95,5.83,0,11.65.11,17.47,0a23.74,23.74,0,0,1,11.79,2.84,28.89,28.89,0,0,1,8.42,6.74,43.48,43.48,0,0,1,7.82,13.73,70.86,70.86,0,0,1,3.32,13c.45,2.73.74,5.47,1,8.22a119.5,119.5,0,0,1,.44,15.13c-.1,3.29-.38,6.57-.76,9.84a72.33,72.33,0,0,1-3.08,14.36,44.73,44.73,0,0,1-5,10.64,36.48,36.48,0,0,1-5.19,6.46,30.4,30.4,0,0,1-15.76,8.2,31.45,31.45,0,0,1-5.73.49Q921.95,595.5,903.32,595.52ZM894,636.62c5.37-.25,9.78-4,9.83-10a9.82,9.82,0,0,0-19.64-.18A9.86,9.86,0,0,0,894,636.62Z"/><path class="cls-21" d="M822.84,487.36h39c1.56,0,1.35.1,1.35-1.39,0-1.76,0-3.51,0-5.27,0-1.15,0-1.15-1.15-1.15h-52c-.33,0-.67,0-1,0s-.67-.19-.66-.64,0-.61,0-.92c0-7.82.06-15.64,0-23.46a17.49,17.49,0,0,1,1-6.74,19,19,0,0,1,5.39-7.36c5.78-5,12.77-7.29,20-8.95a96.77,96.77,0,0,1,10.72-1.69,155.22,155.22,0,0,1,20.9-.79c3.78.08,7.56.32,11.33.75a99.37,99.37,0,0,1,12,2c6.49,1.56,12.66,3.86,18,7.9a23.47,23.47,0,0,1,9.32,13.71,16.09,16.09,0,0,1,.44,3.53c0,17.25,0,34.5,0,51.75a31,31,0,0,1-3.38,14.82,25.52,25.52,0,0,1-12.43,11.29,39.6,39.6,0,0,1-10.66,3,53.5,53.5,0,0,1-7.7.2c-3.58,0-7.15,0-10.72,0h-13c-3.46,0-6.92,0-10.39,0-5.43,0-10.86-.11-16.29,0a38.2,38.2,0,0,0-14.51,2.66,26.26,26.26,0,0,0-12.74,11.32,36.92,36.92,0,0,0-4.46,14,24.68,24.68,0,0,0-.21,3.23q0,13.4,0,26.78c0,1.06-.05,1.1-1.05,1.1-5.76,0-11.53,0-17.29,0A25.07,25.07,0,0,1,767,591.65a35.29,35.29,0,0,1-10.35-13.21,63.17,63.17,0,0,1-5-16,107.8,107.8,0,0,1-1.37-10.77c-.3-3.61-.48-7.24-.44-10.85a96.32,96.32,0,0,1,2.79-23.91A47.35,47.35,0,0,1,761,499.3a30.69,30.69,0,0,1,24.65-11.95C798.05,487.39,810.45,487.36,822.84,487.36Zm9.09-41.09a9.87,9.87,0,1,0,9.91,9.81A9.82,9.82,0,0,0,831.93,446.27Z"/></g><path class="cls-22" d="M898.42,618.48c-.28,1.62,22.67,3.48,22.58,4-.28,1.59-18.14,13.13-18.45,14.87-.23,1.31,5.22-1,4.89.87"/><path class="cls-22" d="M911.63,603.24c-.12.66,6,.73,5.89,1-1.08,6.12-51.09-6.44-51.94-1.61-1,5.76,47.28,7.3,47.1,8.31"/><path class="cls-22" d="M938.77,485.59c-.32,1.81,19.6,2.39,19.42,3.42-.12.66-30.32.91-30.94,4.43-.09.5,37.56,2.88,36.92,6.51-1,5.39-40-7.66-40.22-6.28-1.06,6,37.71,5.24,37.47,6.61-.5,2.84-36-7.09-36.24-6-.41,2.35,49,3.27,48.1,8.48,0,.12-53.62-4.53-54.85,2.47s51.14,1.86,49.92,8.8c-.61,3.42-38.69,11.51-39.1,13.84,0,.21,44.68,6.78,44.5,7.84-.77,4.34-56-7.07-57.5,1.23-.07.35,67.81,3.93,66.44,11.71-1.69,9.57-71.7-12.25-72.39-8.33-1.31,7.4,59.92,4.38,58.86,10.38,0,0-55.1-12.49-55.88-8.09-1.7,9.61,62,9.25,61.71,10.88-3.3,18.76-146-9.93-147-4.16-.15.86,142.8,11.36,140.44,24.76-2,11.67-155.47-34-159.61-10.54-.42,2.37,149.9,19.88,148.78,26.23-2.34,13.28-150.42-17.61-152.27-7.15-1.72,9.8,72.36,9.25,71.76,12.66-1.41,8-66.29,5.85-66.32,6-.87,5,110.25,9,108.48,19.12-.85,4.77-115-19.73-116.56-10.69-1.82,10.34,76.51,7.61,75.51,13.31-1.07,6-67-17.85-68.09-11.6-.86,4.91,76,5.32,74.66,13.16-1.54,8.78-76.79-23.76-78.68-13-1.38,7.82,74.9,9,74.18,13.08-1.46,8.3-65.6,4.73-66.31,8.78-.55,3.12,92,14.3,91.68,16.17-1.41,8-87-7.49-87.45-4.78-.21,1.18,56.12,2.61,54.87,9.68-.88,5-39.59-6.31-39.86-4.75-.23,1.29,26.06,1.77,25.58,4.51"/><path class="cls-23" d="M915.18,503.78c0,.07,5.12.74,5.09.9-.35,2-17.4,2.76-17.51,3.37-.23,1.32,19.35,2.19,19.14,3.38-.16.91-19,2.86-19.21,3.85s7.92.21,7.71,1.36c-.55,3.12-41.18,7.24-41.85,11s30.32,4.62,30.2,5.33c-.27,1.53-32.71-1.52-33.16,1.06-.2,1.08,25.55,3.6,25.39,4.48-.83,4.73-36.63-3.71-36.83-2.55,0,.06,16.21,2.24,16.1,2.84"/><path class="cls-23" d="M923,498.51a7.76,7.76,0,0,0,1.44.26c0,.06-3.92.68-3.95.9s8.38,1.38,8.37,1.48c-.07.37-11.8-.09-12,.91,0,.09,7,1.2,7,1.23"/><path class="cls-23" d="M861.74,480.28c-.87,5,59.41,8.88,59.14,10.43-1.47,8.29-122.18-11.33-123.79-2.24-1.47,8.35,100.92,5.7,98.86,17.43-.36,2-122.93-32.82-125.52-18.1-2,11.27,129.64,7.62,127,22.4,0,.12-134.69-22.63-136.11-14.6-.31,1.75,116,2.6,112.95,19.92-.49,2.82-114.65-11.61-116.76.35-.37,2.12,99,8.47,97.48,17.19-2.08,11.79-111.13-3.32-112,1.57-.1.55,69.07,7.62,68.29,12-1.43,8.11-58.87,2.51-59.85,8.05-.73,4.18,48.35,7.86,48.24,8.51-.59,3.31-44.4,2.8-45.14,7-.93,5.24,54.31,3,53.19,9.38-.55,3.09-45.44.56-46,3.46-.86,4.89,42.32,4.6,41.83,7.37-.43,2.42-29,1.48-29.54,4.44,0,.11,4.69.12,4.57.81"/><path class="cls-23" d="M843.44,449c-1.59,9,71.09,8.23,70.35,12.41-1.62,9.17-76.58-6.24-77.85,1C834.3,471.73,913,474.37,912.72,476c0,0-72.12-10.38-72.14-10.29-1.67,9.47,75.56,6.84,74.45,13.12-1.65,9.35-80-23.06-81.68-13.29-1.61,9.11,91.56,11.07,90.69,16"/><path class="cls-23" d="M868.34,428.86c-.62,3.51,32.51,3.66,32.16,5.67-.25,1.4-65.12-9.31-66.44-1.84-.17,1,78.65,6.54,77.4,13.65-2,11.09-82-16.57-82.51-13.73-2.1,11.91,80.24,11.32,79.75,14.06-1.09,6.23-78.91-16-79.33-13.6-.83,4.71,93,5.65,91.16,16.07,0,.26-111.56-22.55-114.13-8-2.7,15.28,109.1,3.68,106.44,18.77-1.42,8-96.41-1.9-97.37,3.56-.08.43,100.18,15.45,99.8,17.6-1.41,8-103.49-22.72-106.19-7.36,0,.19,40.15,2.65,39.4,6.94-1,5.36-40.33-4.93-40.72-2.74-.16.93,2.47-.34,2.34.41,0,0,3.16.69,3.11.94-.15.85.71,0,.69.12"/><text class="cls-5" transform="translate(779.67 752.37)">Python</text><g class="cls-9"><path class="cls-24" d="M179,502.92l-.55-.16c-4.54-1.57-9.12-3-13.77-4.18a.74.74,0,0,1-.64-.73c-.19-1.55-.37-3.11-.63-4.65a72.62,72.62,0,0,0-3.08-11.89,76.83,76.83,0,0,0-9.71-19.43,48.68,48.68,0,0,0-12.14-12.32A35.08,35.08,0,0,0,124,443.69a33.08,33.08,0,0,0-8.14-.36,58.36,58.36,0,0,0-25.72,8.29A39.67,39.67,0,0,0,79,461.69a80.59,80.59,0,0,0-14.53,31.49,81.83,81.83,0,0,0-1.54,9.05c-.29,2.71-.51,5.43-.62,8.15-.12,3.06-.18,6.13-.11,9.2.06,2.69.31,5.39.53,8.08a92.72,92.72,0,0,0,1.58,10.87A109.85,109.85,0,0,0,70.8,559.8a119.36,119.36,0,0,0,6.85,13.72c.09.14.18.28.26.43a.6.6,0,0,0,.7.36c.82-.07,1.64-.15,2.46-.15a16.79,16.79,0,1,1-16.55,20.12,16.35,16.35,0,0,1,1.58-11.09,1.57,1.57,0,0,0,0-1.77,143,143,0,0,1-12.9-29.36,122.33,122.33,0,0,1-3.94-16.67c-.45-2.78-.79-5.59-1.06-8.39-.24-2.52-.31-5.06-.48-7.58a78.65,78.65,0,0,1,.09-9.34c.15-3.25.49-6.49.94-9.72a116.65,116.65,0,0,1,5.38-22.1,82,82,0,0,1,8.55-17.84,71.42,71.42,0,0,1,20.88-21.31A61.32,61.32,0,0,1,104,430.33,58.77,58.77,0,0,1,117.68,429a51.6,51.6,0,0,1,12.83,2,57.49,57.49,0,0,1,23.43,13.48,70.38,70.38,0,0,1,13.67,17.69,91.53,91.53,0,0,1,9.27,25.48c.73,3.44,1.26,6.92,1.69,10.42.18,1.5.3,3,.44,4.53A3.76,3.76,0,0,1,179,502.92Z"/><path class="cls-24" d="M134.21,644.72c4.62-3.53,9.13-7,13.37-10.75.62.26,1.19.51,1.77.74a77.1,77.1,0,0,0,16.46,4.66,65.39,65.39,0,0,0,13.25,1A48.6,48.6,0,0,0,198.11,636a42.63,42.63,0,0,0,17.09-14.6,43.68,43.68,0,0,0,6.14-12.24A39.74,39.74,0,0,0,222.83,594a47.48,47.48,0,0,0-2.5-11.42,77.08,77.08,0,0,0-12.94-23.14,87.55,87.55,0,0,0-18.67-17.12,117,117,0,0,0-31.82-15.51,111.87,111.87,0,0,0-15.13-3.54,87,87,0,0,0-9.11-1.07c-2.7-.14-5.4-.33-8.1-.38-2,0-4,.1-6,.16-.1,0-.2,0-.29,0a1,1,0,0,0-1,.7,15.29,15.29,0,0,1-2.53,3.87,16.31,16.31,0,0,1-10.41,5.6,16.79,16.79,0,1,1,12.07-25.37c.63,1,.63,1,1.82.92.29,0,.58,0,.87,0,3.45.05,6.9,0,10.35.17,2.77.11,5.53.4,8.29.67a122.83,122.83,0,0,1,15.82,2.63,120.66,120.66,0,0,1,41,17.67,114.78,114.78,0,0,1,22.86,20.48,87.53,87.53,0,0,1,10.42,14.85,73.45,73.45,0,0,1,7.93,22,57.88,57.88,0,0,1,1,8.39c.08,2,.18,4,.1,5.94a47.41,47.41,0,0,1-15.45,34.81,67.29,67.29,0,0,1-30.94,16.65,74.12,74.12,0,0,1-10,1.7,72.81,72.81,0,0,1-10.85.28,89.1,89.1,0,0,1-29.1-6.43c-1.83-.73-3.64-1.54-5.46-2.32Z"/><path class="cls-24" d="M34.94,534.7c.22,1,.45,1.9.66,2.83.88,3.86,1.88,7.68,3.06,11.46,0,.11.08.23.11.34a.61.61,0,0,1-.25.76c-.55.43-1.1.86-1.63,1.31a74.55,74.55,0,0,0-17.4,20.76,50.93,50.93,0,0,0-5.84,15.89,42.93,42.93,0,0,0-.65,6.1c-.35,11.23,3.42,21,10.28,29.73a36.68,36.68,0,0,0,13,10.24,48,48,0,0,0,13.85,4.23,56.68,56.68,0,0,0,7.12.72c2.41,0,4.83.18,7.24.09a79.76,79.76,0,0,0,21.1-3.65,95,95,0,0,0,16.5-7,144.34,144.34,0,0,0,18.16-11.34A99.72,99.72,0,0,0,144.59,592a96.12,96.12,0,0,0,5.6-9.55c.37-.73.36-.72-.16-1.31a16.63,16.63,0,0,1-4.26-9.25A16.78,16.78,0,1,1,166,586.22a2.88,2.88,0,0,1-.64.12c-.86,0-1.24.47-1.59,1.18A119.41,119.41,0,0,1,139.33,621a114.48,114.48,0,0,1-23.93,17.56,125.27,125.27,0,0,1-34.19,12.71c-2.94.64-5.91,1.17-8.89,1.61a75.65,75.65,0,0,1-13.29.63,71.65,71.65,0,0,1-27.08-6,55.21,55.21,0,0,1-18-12.51,47.82,47.82,0,0,1-9.77-15.86A63.52,63.52,0,0,1,.68,605.72a64.83,64.83,0,0,1-.57-13.28,66.82,66.82,0,0,1,5.38-22.69A77.7,77.7,0,0,1,20.2,547.51a99.24,99.24,0,0,1,14.08-12.46l.41-.29S34.78,534.73,34.94,534.7Z"/></g><path class="cls-25" d="M178.92,501.91c0-.11-1.43.68-1.49.49-.37-1.14-2.43-9.33-2.75-10.33-.17-.52-5.05,2.18-5.2,1.69-.42-1.28,4.92-11.54,4.74-12.11-.28-.86-14.5,5.21-14.65,4.76-.47-1.46,18.57-13.1,17.88-15.23-.14-.43-17.49,7.39-18,5.85-.21-.64,16.38-4.41,16-5.44-.12-.37-12.89,6-13.4,4.36-.32-1,5.4-9.83,5-10.9-.58-1.79-6.86,3.86-7.34,2.38-.34-1.07,6.31-11.08,5.79-12.69-.25-.77-13.78,4.55-13.8,4.48-.2-.62,5.27-11.2,4.69-13-.13-.4-21.06,7.48-21.25,6.9-.69-2.14,15.22-5.74,15.21-5.77s-12.48,5.08-12.78,4.15c-.9-2.76,18.93-11.39,18.59-12.46-.77-2.37-22.24,7.8-22.41,7.28-.08-.23-2.51-10.35-2.61-10.65-2.1-6.46-60,28.05-62.52,20.31-.63-1.94,49.63-18.78,47.53-25.25-1.49-4.6-41.09,16.88-42.12,13.69-1.82-5.59,40.64-15.17,40.14-16.71-.19-.59-19.24,8.5-19.9,6.47"/><path class="cls-25" d="M97.26,602.29c-.34-1-23.38,7.63-23.39,7.6-.15-.46,31-14.44,29.72-18.37-.75-2.31-29.67,12.82-30.61,10s27.87-16.07,27.07-18.53c-.89-2.74-32.54,15.39-34,11-.3-.94,29.62-16.51,29.56-16.69-1.13-3.47-29.08,10.19-29.29,9.52s23.65-9.48,23-11.34c-.1-.31-27.53,12.4-28.54,9.27-.52-1.6,21.62-7.79,20.91-10s-9.34,4.6-9.8,3.19,5.5-8.92,5-10.56c-.07-.22-17,6.45-17.24,5.61-.43-1.33,13-12.17,12.75-12.86-.44-1.38-20.87,7-20.95,6.8-.55-1.69,10.4-13.33,10.35-13.49s-.73,1.93-1.22.4c0,0,12.35-3.4,12-4.55-.6-1.87-12.88,4.94-13.1,4.26-.36-1.11,9.95-1.95,9.5-3.33-.1-.3-11.35,4.7-11.65,3.79-.46-1.42,12.8-12.69,12.28-14.31-.19-.58-23.42,9.84-24.07,7.83-.38-1.16,25.74-12.6,25.19-14.31-.1-.31-23.7,7.82-23.74,7.71-.65-2,9.27-12.64,8.67-14.49-.13-.39-8.48,4.51-9,2.92-.25-.77,15.75-12.61,15.4-13.7-.14-.42-7.41,4.63-8.06,2.62-.26-.79,12.4-12.32,12.15-13.1-.55-1.67-12.39,6.2-13,4.24-.17-.53,6.44-8.11,6.2-8.84-.06-.2-12.88,5.16-13.17,4.28s18.6-6.57,18.28-7.56-14.29,6.19-14.74,4.79c-.18-.54,18.22-6.19,17.42-8.65-.38-1.2-24.57,10.23-25.23,8.2-1-2.92,29.16-12.41,28.17-15.47-.19-.58-17.45,7.62-18,5.86-.75-2.28,22.48-6,21.55-8.87-.68-2.08-27.85,9.38-27.95,9.08-1.34-4.13,27.27-13.28,26.4-16-.69-2.12-17.83,8.47-18.62,6.05-.19-.58,25-9.19,23.74-13-.3-.92-27.16,9.88-27.48,8.92-1.38-4.26,38.9-16.5,37.09-22.08-1-3-32,10.5-32.06,10.42C54.27,465.14,90,451.33,89.86,451c-1.06-3.26-20.58,10.68-21.75,7.07"/><path class="cls-25" d="M117.84,527c-.19-.58-21.79,8.29-22.15,7.19-.44-1.35,22.52-7.26,21.94-9-.81-2.51-26,10.77-26.7,8.68-.8-2.46,20.11-8.39,20-8.64-.29-.89-21.5,8.91-22.07,7.17"/><path class="cls-25" d="M182.67,640.38c-.84-2.57-29.95,14.49-31.35,10.18-.43-1.33,3.37-11,3-12.19-.28-.85-13.85,5.39-14.11,4.58-.35-1.08,7.75-7.56,7.59-8-.06-.2-4.08,1.44-4.11,1.33"/><path class="cls-25" d="M212.45,643.9c-.7-2.16-34.78,11.38-34.8,11.31-.26-.77,55.89-19.44,53.7-26.16-1.75-5.39-66.45,29-68.63,22.3s76-27.68,74-33.78c-.59-1.82-22.39,10.48-23.33,7.58-.27-.83,25.65-15.24,25.6-15.4-.7-2.17-18.83,6.58-19,6.16s17.8-8,17.34-9.49c-.08-.22-21.61,9.51-22.34,7.26-.5-1.55,20.92-7.64,20.23-9.76-.62-1.91-6.66,3.48-7,2.28-.64-2,11.49-10.12,10.74-12.43-.07-.22-17.27,6.57-17.55,5.71-.5-1.53,15.89-13,15.63-13.8-.45-1.37-20.92,7.05-21,6.82-.58-1.78,11.45-13.66,11.39-13.83s-.89,2-1.39.46c0,0,12.52-3.44,12.14-4.61-.62-1.89-13.05,5-13.27,4.31-.37-1.12,10.12-2,9.66-3.37-.1-.31-11.52,4.76-11.82,3.84-.44-1.35,11.72-12.43,11.22-14-.2-.6-23.72,10-24.39,7.92-.36-1.09,24.33-12.23,23.8-13.85-.1-.32-24,7.94-24.08,7.82-.52-1.59,4.16-11.4,3.68-12.87-.13-.4-8.86,4.69-9.4,3-.19-.59,10.49-11.18,10.22-12-.14-.44-8,4.92-8.71,2.83-.17-.54,5.59-10.38,5.42-10.91-.6-1.82-13.62,6.78-14.31,4.65-.11-.35,1-6.63.88-7.11-.07-.23-14.91,5.95-15.24,4.95-.26-.82,18.92-6.65,18.59-7.66-.41-1.28-16.46,7.13-17,5.51-.17-.5,17-5.95,16.25-8.26-.45-1.4-27,11.4-27.78,9s23.42-11.15,22.6-13.66c-.23-.7-20.55,9-21.23,6.9-.76-2.34,23.06-6.13,22.11-9-.82-2.52-31.25,10.55-31.36,10.19-1-3,18.59-11.28,18-13.22C181.16,517,160.14,530,159.16,527c-.14-.45,18.85-8.14,17.88-11.1-.37-1.16-31.92,11.72-32.32,10.5-.74-2.29,18.15-12.61,17.18-15.61-1.28-3.94-39.33,12.9-39.37,12.79-.22-.68,11.57-14.05,11.53-14.19-1.76-5.4-39.28,19.38-41.23,13.39-1-3.13,21.07-14.81,20.21-17.44-1.14-3.53-24.72,12.24-26,8.43,0-.07,26.37-13.62,25.34-16.78-.43-1.33-20.4,9-21.09,6.86-.46-1.42,11.31-4.6,11.14-5.14-.31-.94-10.33,4.12-10.55,3.43"/><path class="cls-25" d="M170.93,583.68c-.32-1-24.46,10.49-25.21,8.19-.07-.23,25.94-11.09,25.42-12.68-1-3-27.72,10.8-28.25,9.18-1.68-5.17,40-7.9,38.34-12.86-.17-.5-27,12.83-28.19,9.16-.89-2.73,19.87-6,19.07-8.45-1.33-4.11-22.74,11.83-24.05,7.81-.8-2.47,38.47-15.6,38-17.12s-30.31,12-30.94,10.05c-.81-2.51,19.47-13.8,18.86-15.68-1.34-4.14-26.91,9.12-27,8.78-1.4-4.3,30.33-10.3,29.66-12.38-1.23-3.77-33.82,12.22-34.18,11.11-1.26-3.89,26.54-13,26.32-13.64-.16-.5-24.66,10-25.23,8.2-.33-1,17.09-6.88,16.3-9.33-.45-1.37-12.55,5.27-12.9,4.19"/><path class="cls-25" d="M73.11,638.63c-.9-2.77-32.43,15.67-33.94,11-.41-1.27,2-10.66,1.68-11.77-.24-.73-10.68,4.23-10.91,3.54-.33-1-.43-9.93-.58-10.38-.32-1-16.5,5.94-16.67,5.42C12.26,635.16,28.63,624,28,622.07c-.14-.44-18,7.63-18.53,6-.22-.67,16.88-4.54,16.53-5.6-.12-.38-13.39,6.18-13.92,4.53-.3-.92,4.56-9.62,4.23-10.63-.56-1.73-6.37,3.64-6.84,2.22-.37-1.14,7.53-11.38,7-13.09-.23-.69-12.31,4.07-12.33,4-.25-.78,10.09-12.28,9.37-14.49-.11-.35-18.84,6.66-19,6.17C-6.12,599.3,8.11,596,8.1,596s-10.2,4.18-10.45,3.39c-1-3.23,22.68-12.41,22.28-13.65-.63-1.92-19,6.64-19.17,6.23s11-14.52,10.85-15c-.46-1.42-5.1,3.54-5.65,1.84C5.71,578,22,566.53,21.21,564c-.7-2.15-18.72,7.73-19.21,6.24C0,564,44.2,547.57,43.65,545.86c-.24-.72-23.7,10.46-24.51,8C19,553.52,44,541.25,43,538.16c-.25-.76-22.75,8.63-23.11,7.51-.13-.4,18.26-9.83,17.9-10.92-.09-.28-8.95,2.94-9,2.92"/><path class="cls-25" d="M114.27,640.17c-.93-2.88-42.1,13.78-42.13,13.69-.32-1,71.91-22.64,69.13-31.17-2.25-7-85.1,37.22-87.91,28.56-2.92-9,102-33.94,99.41-42-1-3.09-36.36,17.24-38,12.33-.44-1.38,44.7-21.32,44.61-21.58-1.08-3.34-28,9.82-28.24,9.18-.28-.87,29.69-10.95,28.94-13.26-.11-.33-29.22,13.23-30.32,9.85-.73-2.27,31.11-9.86,30.1-13-.91-2.82-13.66,6.4-14.24,4.63-.88-2.73,21.31-7.19,20.27-10.4-.12-.34-24.22,9.32-24.65,8"/><text class="cls-5" transform="translate(47.05 752.37)"><tspan class="cls-26">R</tspan><tspan x="27.67" y="0">edux</tspan></text><g class="cls-9"><path class="cls-27" d="M670.91,136.88a22.53,22.53,0,1,0-22.48-22.53A22.42,22.42,0,0,0,670.91,136.88Z"/><path class="cls-27" d="M796,106.19c-2.13-6-6.15-10.76-10.95-14.82A81.56,81.56,0,0,0,765,79.28a151.57,151.57,0,0,0-19.38-6.94c-.86-.25-1.17-.63-.91-1.55.43-1.52.76-3.06,1.11-4.61a135.69,135.69,0,0,0,3.21-24.41,69.4,69.4,0,0,0-.64-11.7,41.21,41.21,0,0,0-5.14-16A25,25,0,0,0,732,3.81c-5.45-2.49-11.18-2.33-16.83-1.45-8.06,1.25-15.18,5-22,9.33A135.55,135.55,0,0,0,671.85,28.8c-.67.66-1.07.68-1.75,0-1.61-1.58-3.3-3.09-5-4.6A114.46,114.46,0,0,0,643.51,8.58c-7.74-4.22-15.79-7.15-24.86-6.69a23.8,23.8,0,0,0-13.73,5c-4.51,3.47-7.3,8.15-9.13,13.44A56.58,56.58,0,0,0,593,35.52a93.8,93.8,0,0,0,.59,15.9,135.67,135.67,0,0,0,3.53,19.16c.27,1.06,0,1.55-1.06,1.84-3.81,1-7.57,2.29-11.27,3.67a103.84,103.84,0,0,0-22.9,11.43c-5.68,3.92-10.71,8.47-14.15,14.56a24.42,24.42,0,0,0-3.08,15.57c.95,7,4.66,12.53,9.55,17.33a68.85,68.85,0,0,0,17.91,12.23A142.05,142.05,0,0,0,594.87,156c3,.89,2.66.37,2,3.45-2.56,11.12-4.39,22.32-3.77,33.8a50.74,50.74,0,0,0,3.72,17.72c3,6.81,7.6,11.95,14.72,14.59,1.46.54,3,.81,4.46,1.24h9.49a.43.43,0,0,1,.29-.1,26.75,26.75,0,0,0,9.77-2.17,86,86,0,0,0,19.27-10.89,154.46,154.46,0,0,0,15.07-12.67c1-.92,1.27-.91,2.25,0,2.54,2.38,5.13,4.71,7.79,6.95,7.41,6.21,15.27,11.73,24.17,15.62,3.23,1.42,6.51,2.78,10.11,3a16.56,16.56,0,0,1,2.33.23H726a5.94,5.94,0,0,1,.72-.21,23.93,23.93,0,0,0,15.19-9.81,35.37,35.37,0,0,0,5.86-14.24,67.76,67.76,0,0,0,1.16-17.24c-.21-3.34-.44-6.66-.85-10a147.27,147.27,0,0,0-3.23-17c-.37-1.52-.35-1.55,1.2-2,3.66-1.07,7.29-2.23,10.86-3.55a104.53,104.53,0,0,0,23-11.44c5.29-3.63,10-7.83,13.45-13.33C797.64,121.11,798.72,113.85,796,106.19ZM679.36,36.78c8.25-7.81,17-15,27.23-20.06a37.77,37.77,0,0,1,11.95-3.85c7.66-1,13.18,1.65,16.46,9.12a37.91,37.91,0,0,1,2.87,13.62,34.58,34.58,0,0,1,.21,3.76,128.17,128.17,0,0,1-4,28.83c-.2.8-.54,1-1.37.86a259.42,259.42,0,0,0-25.82-4.32c-1.74-.21-3.5-.36-5.25-.5a3,3,0,0,1-2.41-1.33c-4.52-6.39-9.36-12.54-14.43-18.52-1.76-2.08-3.59-4.1-5.44-6.11C678.84,37.71,678.77,37.34,679.36,36.78Zm-60.72,91.7c.12-.28.12-.74.47-.78s.43.42.58.69q6.27,11.85,13.41,23.2c.16.26.49.5.3.86s-.38.15-.79.17c-2.72-.41-5.64-.78-8.54-1.29-3.92-.68-7.83-1.48-11.75-2.2-.84-.16-1.14-.46-.83-1.37C613.63,141.24,615.94,134.79,618.64,128.48Zm-1.25-31.22c-2.14-5.29-4-10.67-5.84-16.09-.34-1-.14-1.36.9-1.58,6.63-1.43,13.32-2.54,20-3.44.31,0,.69-.17.9.14s-.1.54-.24.77q-7.27,11.52-13.62,23.57a7.31,7.31,0,0,1-.46.68C618.46,99.82,617.91,98.54,617.39,97.26Zm13.29,28.33c-1.82-3.39-3.49-6.85-5.25-10.27a1.91,1.91,0,0,1,0-1.92,308.27,308.27,0,0,1,19.13-33.71c.93-1.42,1.89-2.81,2.8-4.22a1.83,1.83,0,0,1,1.47-.92c2.89-.35,5.8-.45,8.7-.55,4.49-.14,9-.45,13.47-.23,4.5-.22,9,.13,13.47.22,2.91.05,5.8.38,8.71.56a1.68,1.68,0,0,1,1.37.87q8.25,12.19,15.32,25.11c2.29,4.19,4.42,8.47,6.58,12.73a2.23,2.23,0,0,1,0,2.21A317.66,317.66,0,0,1,695,152.7a3.23,3.23,0,0,1-2.78,1.62c-3.3.15-6.6.3-9.9.47-5.68.29-11.36.3-17,.17-5.49-.12-11-.26-16.46-.78a1.81,1.81,0,0,1-1.46-.92A308.19,308.19,0,0,1,630.68,125.59Zm78.09,26.12c4.84-7.65,9.34-15.49,13.58-23.49.11-.21.16-.54.46-.53s.32.35.41.57c2.72,6.41,5.1,13,7.26,19.57.26.78.07,1.11-.72,1.27-5.31,1.08-10.63,2.12-16,2.88l-4.41.63c-.32,0-.62.08-.78-.14S708.63,151.94,708.77,151.71ZM722.83,101c-.34,0-.4-.36-.52-.6Q716,88.52,708.84,77.13c-.16-.26-.5-.52-.28-.86s.53-.14,1-.16c3.08.48,6.35.94,9.6,1.51,3.5.61,7,1.33,10.48,2,.86.16,1.12.47.82,1.38-2.15,6.55-4.5,13-7.19,19.37C723.16,100.6,723.15,101,722.83,101ZM670.08,46.34c.42-.49.8-1.1,1.53-.3C675.89,50.82,680,55.72,684,60.8c.36.45.68.92,1,1.37s.25.79-.38.79c-1.58,0-3.16,0-4.74-.05-6-.26-11.91-.28-17.86,0-.79,0-1.58,0-2.37,0v0c-.68,0-1.37,0-2,0-.3,0-.71.13-.86-.25s.18-.52.35-.73c1.77-2.26,3.51-4.55,5.34-6.75C665,52.23,667.53,49.3,670.08,46.34ZM605.85,25c1.1-3.62,2.73-7,5.78-9.39a12.43,12.43,0,0,1,8.08-2.87,34.36,34.36,0,0,1,15.13,3.78,92.71,92.71,0,0,1,19.69,13.1q4.13,3.46,8,7.18c.55.52.62.89.06,1.5q-8,8.69-15.08,18.13c-1.67,2.2-3.34,4.4-4.92,6.67a2.65,2.65,0,0,1-2.16,1.17c-3.72.31-7.42.8-11.13,1.28-6.59.88-13.13,2-19.63,3.45-1.55.33-1.55.35-1.94-1.23a130.18,130.18,0,0,1-3.61-21.64C603.61,39,603.74,31.86,605.85,25ZM602,141.4q-.66,1.93-1.23,3.9c-.2.66-.54.81-1.21.61a131.8,131.8,0,0,1-22.34-8.47c-6.16-3.09-12-6.68-16.69-11.85a18.88,18.88,0,0,1-4.72-8.34,11.29,11.29,0,0,1-.27-2.89c-.06-4.42,2.05-7.91,4.85-11.06a50.19,50.19,0,0,1,13.68-10.36,127.16,127.16,0,0,1,25.29-10.07c.85-.25,1.22-.08,1.48.76a251.7,251.7,0,0,0,9.74,25.78c.58,1.32,1.16,2.63,1.79,3.93a2.25,2.25,0,0,1,0,2A269.73,269.73,0,0,0,602,141.4Zm60.61,50.53c-8.36,7.95-17.23,15.22-27.69,20.3a35.73,35.73,0,0,1-11.9,3.68c-7.34.76-12.66-1.6-16-9a37.76,37.76,0,0,1-2.92-13.5,33.92,33.92,0,0,1-.21-3.86,127.45,127.45,0,0,1,4-28.95c.22-.87.62-1.06,1.46-.87q10.15,2.26,20.48,3.61c3.45.45,6.92.82,10.38,1.19a3.2,3.2,0,0,1,2.59,1.4c4.49,6.37,9.32,12.49,14.36,18.43,1.76,2.08,3.6,4.11,5.44,6.12C663.08,191,663.21,191.35,662.6,191.93Zm9.08-9.31c-.49.57-.89.58-1.4,0-4.58-5.14-9-10.38-13.19-15.89-.16-.22-.48-.43-.34-.73s.57-.23.87-.24c.68,0,1.37,0,2,0,5.7.39,11.41.19,17.12.22,2.47,0,4.94-.32,7.42-.21.34,0,.78-.16,1,.23s-.21.57-.39.82q-5,6.56-10.44,12.72C673.46,180.56,672.56,181.58,671.68,182.62Zm64.42,21.2c-1.21,3.79-2.93,7.27-6.25,9.71a13.15,13.15,0,0,1-7.34,2.48c-5.64.25-10.77-1.55-15.74-3.92a94,94,0,0,1-19.15-12.75c-2.85-2.36-5.55-4.89-8.26-7.4-.53-.49-.58-.85-.06-1.42a260.32,260.32,0,0,0,20-24.8,2.68,2.68,0,0,1,2.13-1.21c6.7-.57,13.35-1.48,20-2.63,3.68-.64,7.35-1.38,11-2.16,1-.21,1.49-.07,1.75,1a132.11,132.11,0,0,1,3.52,21c.17,2.4.32,4.79.44,6.64C737.93,194,737.64,199,736.1,203.82Zm50.35-90c0,5-2.1,8.47-4.88,11.59a50.4,50.4,0,0,1-13.68,10.36,126.11,126.11,0,0,1-25.18,10c-.94.28-1.33.12-1.63-.84A245.05,245.05,0,0,0,732,120.8q-1.15-2.67-2.38-5.31a2.45,2.45,0,0,1,0-2.25,263.78,263.78,0,0,0,10.44-26.32c.39-1.16.77-2.32,1.11-3.49.2-.66.55-.81,1.21-.62a143,143,0,0,1,19.23,7,71.71,71.71,0,0,1,14.74,8.66,31,31,0,0,1,8.06,8.74A12.92,12.92,0,0,1,786.45,113.84Z"/></g><path class="cls-28" d="M682.66,133.44c-.32-1-4.49,1.54-4.51,1.47-.55-1.7,17.68-13.29,17.23-14.66-1.5-4.62-30.12,14.43-31.48,10.23-.37-1.13,33.85-11.7,33.78-11.91-.88-2.7-34.77,13.66-35.46,11.52s33.6-16.79,32.55-20-48.3,17.36-48.79,15.85c-1.08-3.33,50.87-17.73,50-20.48-1.1-3.36-49.51,21-51,16.56-1.84-5.67,45.28-18.56,45.28-18.56-.6-1.85-40.78,18.18-42.23,13.72-.1-.29,40.33-14.26,38.65-19.43-1.21-3.71-38.81,16.56-40,13s29.74-15.66,29.74-15.66c-.14-.41-18.27,10.12-19.5,6.34-.37-1.15,29.46-7.78,28.84-9.7-.73-2.24-31.27,10.16-31.27,10.16-.18-.57,13.44-8.8,13.27-9.33,0-.11-9.74,3.48-9.84,3.2"/><path class="cls-28" d="M633.08,65.93c-.33-1-77.11,27.43-77.8,25.29-.85-2.6,52.12-23.5,52-23.9-.34-1-14.55,4.72-14.55,4.72-.09-.28,17.32-9.55,17.28-9.67-.37-1.14-16.06,6.68-16.49,5.35s10.89-6.95,10.67-7.63c-.06-.18-4.69,2.95-5.11,1.66-.35-1.1,1-8.79.64-10-.05-.16-9.42,4-9.7,3.15-.1-.33,7.2-8.53,7.09-8.86-.31-1-8.19,2.66-8.19,2.66-.48-1.48,13.84-8,13.36-9.49-.12-.36-7.44,3.59-7.78,2.53-.08-.26,5.74-9.21,5.58-9.68-.47-1.44-1.79,1.27-2,.65S603.32,21.58,603,20.6c-.6-1.84-3.06,2-3.36,1.09s16.82-5.42,16.09-7.66c-.15-.46-19,7.93-19.5,6.33"/><path class="cls-28" d="M673.3,27.85c-.13-.41-11.12,4.28-11.32,3.67-.13-.4-1.1-4-1.13-4.12s-12.4,4.82-12.63,4.11c0,0,9.67-5.9,9.53-6.33-.53-1.62-4.94,2.71-5.26,1.71-.18-.55,7-3.17,6.73-4-.45-1.38-4.36,1.9-4.5,1.46-.05-.15-.36-1.26-.42-1.47,0,0-3.76,2.72-4.2,1.37,0-.08,4-1.63,4-1.78-.36-1.11-8.12,4.26-8.6,2.79,0,0,11.2-5.27,10.72-6.76,0,0-14,4.63-14,4.55-.17-.53,7.37-6.45,7.05-7.43-.24-.73-5.53,2.3-5.67,1.85,0-.15-5.4-5.47-5.63-6.15,0,0-9.09,5-9.7,3.15-.36-1.11,7.23-11.11,7.12-11.45-.31-1-30.74,14.56-32.08,10.42C603,12.59,624.51.63,624.29,0c0,0-16.69,5.42-16.69,5.42"/><path class="cls-28" d="M594.9,146.91c-.31-.94-16.74,6.86-17.15,5.57,0,0,21.29-7.77,21-8.79-.19-.6-13.05,6.55-13.73,4.47-.29-.89,5.71-3.73,5.55-4.21,0-.09-10.24,4-10.44,3.39-.13-.42-8-8.42-8-8.7-.26-.79-3.11,2.5-3.55,1.15-.31-1,7.83-7.76,7.83-7.77-.58-1.78-10.89,5.45-11.45,3.72,0-.06-6.29-3.87-6.39-4.18-.33-1-6.12,3.17-6.47,2.1-.12-.37,10.06-4.67,10.06-4.67-.4-1.25-16.86,6.3-17.1,5.56-.4-1.24,13.83-6.82,13.81-6.9-.48-1.48-5.08,1.82-5.13,1.67-.6-1.83,11.58-7.79,11.16-9.07,0-.13-23.93,8.09-24,7.81-.66-2,17.72-7.69,17.29-9-.09-.28-16.42,5.34-16.42,5.34-.88-2.71,15.24-16.11,15.24-16.11-.34-1.06-11.73,5.24-12.15,3.94-.63-1.94,20.87-12.55,19.88-15.58s-14.58,6.48-15.09,4.91c-.1-.29,18.1-5.24,17.9-5.86-.67-2.07-17.71,9.31-18.76,6.1s34.68-9,33.54-12.55c-1-3.16-26.49,11.7-27.4,8.9-.83-2.53,21.09-6.54,20.95-7-1.18-3.63-25.87,9-26.06,8.47"/><path class="cls-28" d="M622.36,99.51c-.26-.79-10.54,4.56-10.87,3.53-.19-.59,1.41-10.92,1.17-11.66S609,93,608.87,92.61c-.37-1.13,9.33-3.48,9-4.5-.1-.29-20.12,6.54-20.12,6.54S612,82.76,611.49,81.2c0,0-10.27,3.44-10.3,3.35-.38-1.16,14-4.93,14-5.13-.42-1.29-15.72,5.23-15.76,5.12"/><path class="cls-28" d="M618.94,217.11c-.55-1.69-17.74,8.14-18.44,6s16.5-12.21,15.93-14c-.43-1.33-14.55,6-14.92,4.85-.08-.23,2-1,1.85-1.35-.18-.55-7.09,3.44-7.42,2.41-.75-2.31,17.23-12.24,17.23-12.24-.32-1-23.25,8.36-23.49,7.63-.43-1.31,18.38-6.11,18.22-6.6-.38-1.16-8.22,3.1-8.34,2.71-.25-.74-.22-5.54-.32-5.85-.28-.84-2.11,1.1-2.23.73-.49-1.52,5.87-10.68,5.66-11.31-.11-.34-10.36,3.72-10.46,3.4,0,0,11.56-10.51,11-12.34-.49-1.51-7.76,4-8.2,2.67-.31-1,14.76-3.43,14.26-5-.15-.44-19.27,7.93-19.76,6.42,0-.12,14.68-8.3,14.63-8.47s-5.67,2.26-5.79,1.89c-.05-.14,8.59-2.57,8.38-3.19-.38-1.19-14.46,5.09-14.57,4.74s13.26-13.36,12.94-14.35c0,0-12.14,4.84-12.4,4-.63-1.92,14.35-5.74,14-7-.29-.89-13.08,5.57-13.47,4.37-.14-.43,19.57-6,18.9-8.11-.18-.53-22,7.14-22,7.14"/><path class="cls-28" d="M635.16,151.17c-.84-2.6-23.4,7.6-23.4,7.6s8.46-7.67,8.06-8.88c-.11-.35-21.45,7.46-21.59,7-.6-1.84,15-16.07,14.86-16.56-.32-1-10.66,4.18-10.87,3.53-.54-1.65,19.6-9.4,19.22-10.56-.17-.55-23.19,9.46-23.75,7.72-.43-1.3,20.46-10,20.18-10.87-.43-1.32-17.93,6.76-18.2,5.92-.57-1.75,14.11-5,13.82-5.83-.34-1-3.77,1.36-3.81,1.24"/><path class="cls-28" d="M667.21,183.53c-.51-1.57-13.15,4.53-13.22,4.3-.22-.66,10.09-5.46,9.63-6.88-.22-.68-7.86,3.62-8.17,2.65s9.1-12.89,8.81-13.76c-.35-1.08-10.17,3.36-10.18,3.31-.14-.43,9.6-3.83,9.23-5-.49-1.5-18.95,6.69-19.11,6.21s11-6.56,10.75-7.2c-.3-.94-8,3.69-8.35,2.71"/><path class="cls-28" d="M694.11,153.07c-.15-.46-46.43,17.27-47.07,15.29-1.55-4.78,43.17-15.26,43.17-15.26-1.38-4.25-48.52,15.84-48.54,15.77-.25-.76,7.62-11.19,7.22-12.41-1-3.13-25.33,11.36-26.25,8.53-.06-.19,23.45-18.27,23.21-19s-15.92,6.42-16.29,5.29c-.15-.48,4.06-12,3.8-12.8s-.18,1.41-.58.18c-.34-1-5.13-8.88-5.38-9.66s-11.95,5.1-12.31,4c-.56-1.73,14.72-6.35,14-8.41-.23-.72-8.68,3.46-8.87,2.88-.3-.92,11.27-2.63,10.8-4.08-.53-1.62-25.41,9.84-25.88,8.4-1-3,25.7-9.1,24.58-12.56-.53-1.6-28.44,9.24-28.44,9.24-.67-2.06,21.74-17.16,21.74-17.16-.1-.31-5.25,3.23-5.7,1.85,0,0,8.86-3.82,8.51-4.9s-16.82,6.67-17.17,5.58c-1.4-4.28,27.15-17.19,26.18-20.18-.54-1.67-7.78,2.53-7.78,2.53s13.42-4.39,13.38-4.5c-.26-.82-18.49,8-19.09,6.2-.67-2,29.21-14.3,28.08-17.77-.54-1.65-23.48,9.13-23.92,7.78S643.16,77.58,643,77.12c-.22-.68-5.16,2.94-5.53,1.8"/><path class="cls-28" d="M679.7,63.84c-.51-1.58-52.3,20.8-53.42,17.36-.13-.42,31.87-20.28,31.68-20.84,0,0-106.24,42.27-108.52,35.26-1.57-4.85,123.67-32.87,118.8-47.84,0,0-20.6,8.07-21,6.83-.93-2.88,24.4-6.19,23.73-8.25-.17-.51-22.46,7.68-22.57,7.33"/><path class="cls-28" d="M727,98.9c-.18-.56-13.64,5.5-13.95,4.53-.16-.48-.25-7.65-.34-7.92-.14-.43-10.56,5-11,3.58-.17-.5,16.93-13.77,16.89-13.9s-13.37,4.56-13.43,4.36c-.27-.84,5.84-8.69,5.84-8.69-.42-1.3-10.95,4.49-11.22,3.64-.09-.26,16-8.2,15.45-9.76-.16-.5-14.3,4.86-14.37,4.67"/><path class="cls-28" d="M729.48,69.58c-.53-1.62-25.14,11-26,8.44s21-11,20.58-12.2c-.73-2.23-22.84,8.81-23.26,7.55,0-.06-1.38-6.82-1.47-7.1-.37-1.13-16.71,9.25-17.83,5.8-.27-.84,15.9-8.55,15.58-9.53-.77-2.37-34,11-34,11S698.19,55.86,696.92,52c-.12-.36-21.39,7.49-21.55,7-.27-.82,10.75-7.24,10.37-8.43-.24-.72-8.51,3.06-8.6,2.8-.37-1.15,4.93-10.83,4.69-11.57-1.05-3.22-27.16,11.56-28,9.09-.23-.7,29.35-13.74,29.35-13.74l-30,9.73c-.16-.49,38.9-21.19,38.83-21.4-1.24-3.82-25.43,8.63-25.54,8.29,0,0,47.54-12.63,45.6-18.62-.19-.58-34.58,11.54-34.67,11.27"/><path class="cls-28" d="M728.4,148.77c-1.46-4.5-49.84,23.55-52,16.89-.17-.51,30.52-10.37,29.77-12.68-1.75-5.39-33.86,16.28-35.41,11.51,0,0,43.39-17.24,42.33-20.5-.33-1-20.92,8.17-21.32,6.93-.08-.26,21.26-6.3,20.45-8.78-.05-.18-11.12,4.55-11.39,3.7,0,0,19.58-6.31,18.84-8.58-.1-.32-18.4,7.2-18.76,6.09s19-11.61,18.29-13.78c-.3-.94-11.16,3.63-11.16,3.63"/><path class="cls-28" d="M739.52,146.15c-2.34-7.21-67,22.72-67.31,21.87-1.68-5.18,77.84-17.85,75.51-25-.07-.22-14.32,5-14.42,4.69-.55-1.69,10.9-7.9,10.44-9.31-.29-.9-16.73,5.8-16.83,5.47-.54-1.65,4.48-12.68,4.36-13-.36-1.09-3,2.29-3.37,1.1s6.81-6.91,6.4-8.17c-.06-.19-20.59,9.44-21.4,7-.24-.75,16.78-8.09,16.16-10-.4-1.24-14.56,7.47-15.36,5-.22-.66,16-9.19,15.36-11.29-.13-.4-19.79,7.18-20,6.51-.95-2.91,32.12-16.76,30.87-20.59,0,0-29.2,11.84-29.89,9.71-.75-2.32,23.58-10.83,23.42-11.33,0,0-26,11.55-26.92,8.75-.57-1.75,37.2-14.25,36.37-16.81-.07-.21-18.11,6.63-18.33,6-.05-.17,10.92-7.21,10.55-8.36-.13-.41-14.88,5.25-15,4.88-.34-1.07,25.56-8.87,25-10.52-.39-1.19-20.31,7.63-20.61,6.69-.63-1.94,15.34-3,14.7-5-.08-.25-10.66,5-11.1,3.61"/><path class="cls-28" d="M640.06,222.25c0-.12-6,2.95-6.31,2.05-.19-.6,25.43-11.51,24.24-15.16-1.85-5.68-48.88,16.42-49,15.93-1.9-5.87,60.46-22.07,60-23.47-1.61-4.95-30.86,13.8-32,10.39"/><path class="cls-28" d="M727.57,214.14c-.19-.56-25.48,10.13-26,8.46-.41-1.28,15.42-9.71,15.4-9.78s-22.9,8.75-23.29,7.57c-.51-1.59,18.88-8.34,18.51-9.44,0-.09-24.74,8.79-25,8.11-.12-.39,21-10,20.63-11.32s-13.66,4.44-13.66,4.44c-.15-.47-2.28-4.34-2.31-4.42-.51-1.57-15.12,5.29-15.23,5,0-.1,9.8-11.29,9.18-13.19-.21-.66-17,6-17.17,5.57s18.35-5.71,18.07-6.54-16.29,6.28-16.58,5.39c-.06-.2,8.63-3.9,8.26-5.05s-12.48,4.65-12.65,4.11c0,0,8-9.94,7.85-10.48-.3-.91-11.43,7.14-12.44,4-1.41-4.35,33.09-20,32.47-21.93-.08-.25-20.66,9.15-21.37,7,0,0,32.88-12.29,31.41-16.81-.8-2.45-17.5,7-17.89,5.81-.09-.27,18.47-4.25,17.86-6.15-.3-.92-17.78,5.78-17.78,5.78"/><path class="cls-28" d="M764.32,149.57c-.52-1.59-23.36,11.44-24.49,8-1.51-4.65,36.63-13.19,36.35-14.08-.88-2.69-62.83,20.42-62.83,20.42-1.39-4.28,67.57-18,65.63-23.93-.74-2.29-76.37,24.87-76.39,24.83-3.84-11.83,93.08-20.73,89.61-31.4-1.2-3.7-113.71,44.11-115.82,37.63-3.26-10.06,113.67-42.13,112.61-45.38-.61-1.88-12.13,5-12.43,4,0,0,20.3-7.71,19.41-10.45-.22-.68-16.71,5.59-16.76,5.44-.5-1.52,18.14-14.68,17.6-16.34-.08-.26-3.89,2.74-4.32,1.41-.18-.55-.58-10.91-.68-11.23,0-.12-11.14,3.89-11.22,3.64-.2-.6,1.25-5.48,1.16-5.77-.21-.63-5.57,2.29-5.71,1.85,0,0,8.06-7.11,7.73-8.13,0-.15-8.56,4.71-9.13,3-.19-.61.74-6.65.51-7.34-.32-1-8.5,3.21-8.63,2.81s5.05-5.51,4.89-6c-.69-2.1-11.94,5.15-12.31,4-.25-.76,11.14-7.55,10.8-8.61,0,0-27,9.38-27.21,8.84s12.92-9.14,12.31-11c-1.14-3.5-27.73,10.23-28.08,9.13-.66-2,18.38-12.34,18.18-13-.78-2.4-25,9.06-25.27,8.21C719,77.48,749.9,62.15,749.4,60.6c-.27-.83-20.58,7.36-20.77,6.75-.59-1.81,19.81-16.66,19.81-16.66-.12-.37-6.44,3.86-7,2.26-.11-.36,7-6.79,6.72-7.58-.39-1.18-8.38,3.87-8.72,2.83-.48-1.46,16.43-9.49,15.85-11.29,0,0-10,4.25-10.31,3.35l-1.09-3.42c-.2-.62-12,4.07-12,3.9-.42-1.29,15-4,14.52-5.51-.23-.73-7.28,3.81-7.7,2.5-.71-2.17,14.75-11.11,14.17-12.9,0-.15-16.63,5.4-16.63,5.4-.52-1.61,10.45-8,10-9.55-.29-.91-9.94,4.67-10.36,3.37-.64-2,14.82-3.2,14.24-5,0-.14-18.47,7.56-18.93,6.15-.5-1.56,9.75-6.58,9.75-6.6-.13-.38-3,1.78-3.26,1.06s4.84-4.74,4.66-5.29c-.34-1.05-14.88,6.12-15.26,4.95-.23-.69,16.06-7.22,15.66-8.45,0-.1-15.31,5-15.31,5-.55-1.68,10.11-11.14,9.49-13.06C736.05.14,682.68,27,680.75,21c-.11-.35,40.31-19.12,40-20.17,0-.12-14.69,6.2-15.11,4.91"/><path class="cls-28" d="M734.57,223.34c-.33-1-4.51,1.55-4.53,1.47-.58-1.76,18.59-13.53,18.12-14.95-1.73-5.33-35.28,16.84-36.86,12-.42-1.31,39.39-13.46,39.31-13.71-1-3.14-40.54,15.93-41.35,13.44s41.86-18.7,40.59-22.62c-.29-.9-18.21,6.39-18.35,6C731,203.44,753,195,752.57,193.82c-.29-.89-19.17,7.54-19.56,6.36-.68-2.09,15.64-8.93,15.64-8.93-.16-.49-11,4.88-11.38,3.69,0-.1,12.56-8.83,11.94-10.74-.34-1.06-12.9,5.31-13.23,4.29-.42-1.29,8.59-8.78,8.59-8.78-.05-.15-.8,1.79-1.25.4-.14-.43,11.22-3.15,11-3.88s-13.67,4.44-13.67,4.44c-.1-.33,5.11-7.28,5-7.58,0-.1-9.21,3.3-9.3,3-.6-1.84,10.52-11.26,10.39-11.67-.3-.92-7.58,3.65-7.93,2.58C738.2,165.14,750,158,750,158s-16,6.09-16.29,5.29c-.08-.25,11.4-4.26,10.9-5.79-.43-1.33-10.37,3.38-10.37,3.38"/><text class="cls-5" transform="translate(605.88 321.66)"><tspan class="cls-26">R</tspan><tspan class="cls-29" x="27.67" y="0">e</tspan><tspan x="54.9" y="0">act</tspan></text><g class="cls-30"><path class="cls-31" d="M411.13,225q-111.47,0-222.93,0c-1.64,0-2-.37-2-2q.07-111.46,0-222.93,111.11,0,222.23,0c2.21,0,2.73.52,2.72,2.73Q411.09,113.84,411.13,225Zm-52-122.81a36.7,36.7,0,0,0-9.58.73c-11.08,2.41-19.27,8.46-22.07,19.77s-.44,21.79,8.67,30c5.37,4.82,11.89,7.62,18.41,10.44,4.69,2,9.55,3.75,13.67,6.87,6.52,4.93,5.53,13.63-1.89,17.05a21.1,21.1,0,0,1-12,1.33c-7.11-1-12.15-5.09-15.9-11-.78-1.21-1.31-1.54-2.68-.71-4.68,2.85-9.42,5.59-14.21,8.26-1.25.7-1.21,1.22-.58,2.32A36.74,36.74,0,0,0,332.7,200c11.22,7.35,23.59,8.84,36.42,6.21,21.29-4.37,27.85-21.35,23.09-38.53-2.21-8-8-13-14.85-17.15-6.09-3.67-12.74-6.16-19.18-9.08a28.48,28.48,0,0,1-7.89-4.68c-2.94-2.73-3.58-6.17-2.56-9.86s3.68-5.53,7.28-6.13c6.63-1.11,11.57,1.48,14.95,7.15.74,1.25,1.27,1.6,2.63.68q6.65-4.47,13.47-8.65c1.32-.8,1.17-1.39.49-2.5C380.27,107.25,371,102.35,359.13,102.15Zm-50.39,39.42c0-12.08,0-24.16,0-36.23,0-1.61-.33-2.12-2-2.09-5.64.12-11.27.13-16.91,0-1.83,0-2.28.44-2.28,2.27q.1,34.14,0,68.29a38.73,38.73,0,0,1-.39,5.9c-.55,3.56-2,6.57-5.68,7.95a12.94,12.94,0,0,1-15.27-4.41,39.47,39.47,0,0,1-2.85-4.41c-.56-1-1-1.14-2-.51q-7.35,4.56-14.82,8.95c-1.07.63-1,1.17-.48,2.07,3.18,6,7.51,10.82,13.57,13.93,8.86,4.54,18.21,5.05,27.75,2.81,10.39-2.43,17-8.93,19.88-19.2a44.16,44.16,0,0,0,1.45-11.95Z"/></g><path class="cls-32" d="M383.21,109.75c-1.33,3.88,22.81,7.48,22.69,7.81-.39,1.14-21,8.06-21.1,8.32-.24.7,21.93,4.85,21.1,7.26-.27.8-23.48-6.87-24-5.39-1.18,3.43,24.7,6.18,24,8.26-.11.31-26.24-9-27.26-6.09-1.14,3.31,28.47,5.87,27.26,9.38-.33,1-27.42-10.17-27.81-9-1.2,3.47,28.22,8.39,27.81,9.58"/><path class="cls-32" d="M361.75,122.46s.2-.31.09,0c-.41,1.19-9.14,7.88-9.26,8.24-1.38,4,53.32,18.36,53.32,18.36-.36,1-51.65-21.89-53.38-16.89-2.66,7.74,53.77,17.23,53.38,18.38-.71,2-9.45,15.19-9.62,15.68-.25.73,9.71,3.09,9.64,3.31s-7.27,4.42-7.43,4.87c-.48,1.4,7.77,1.57,7.43,2.56-.08.24-7.37-2.23-7.38-2.21s7.46,2.3,7.38,2.54c0,0-6.94,5.66-7.26,6.58-.48,1.4,7.29,2.44,7.27,2.51-.1.29-11.8,9.15-12.14,10.15-.82,2.35,13,1.75,12.15,4.18-.55,1.6-19.1,1.73-19.38,2.56-.15.44,19.82,5.43,19.39,6.67-.95,2.77-29.11-4.8-30-2.27-1.6,4.62,30.52,8.76,30,10.32-1.27,3.71-47-11.16-47.75-9-.83,2.41,42.92,8,40.84,14.06"/><path class="cls-32" d="M344.1,179.84c-.15.45,16.79,4.15,16.29,5.61,0,.1-10.93-.35-11.1.17-.49,1.41,3.57.33,3.3,1.13"/><path class="cls-32" d="M314,106.8c-.29.84,13.39,2.62,12.78,4.4-.24.7-12.5-2.11-12.78-1.29,0,.1,12,1.25,11.09,3.82,0,0-11,14.18-11.13,14.47s7.63,1.19,7.19,2.47c-.19.54-7.18,8.79-7.18,8.8-.54,1.54,10.64,3.66,10.64,3.66S314.45,157.52,314,158.9c-1.19,3.45,55.6,11.71,53.31,18.36-.21.61-53.09.34-53.33,1,0,0,7.32.55,6.72,2.31-.16.47-6.84.46-6.86.52s4.23-.31,3.69,1.27c-.15.41-4.33,3.63-4.38,3.79-.53,1.54,4.15.33,3.81,1.31,0,.09-3.9-.75-4-.53-.21.61,4.73,1.57,4.71,1.62s-7.31,5.73-7.41,6c-3.62,10.5,85.31,21.27,82.81,28.52-3.54,10.3-89.21-28.9-93-18-1.4,4.06,53.29,15,52.26,18,0,0-50.78-23.92-52.94-17.64-2.3,6.67,51.22,17.64,51.22,17.64s-69.46-20.09-71.55-14c-2,5.73,41,13.11,40.67,14"/><path class="cls-32" d="M269.15,181.5c-.38,1.11,9.94,1.25,9.27,3.19-.2.59-5.36,1.46-5.52,1.94s.15-.42,0,0"/><path class="cls-32" d="M372.26,1.86c-1.33,3.87,34.81,8.33,33.69,11.6-.72,2.1-79.33-19.51-82.06-11.57-3.06,8.89,83.88,22.93,82.05,28.25C402.18,41.05,290.7-12.44,285.76,1.89c-.46,1.35,120.17,41.38,120.17,41.38-6.64,19.28-165-61.95-172.1-41.38-4.4,12.79,173.75,54.43,172.09,59.26C401.22,74.78,191.4,3.44,191.4,3.44c-9.31,27,222,52,214.51,73.87C404.37,81.8,192.64,5.49,191.4,9.09,183.57,31.84,414.62,57.66,405.92,83c-1.38,4-214.51-63.49-214.51-63.49-7.6,22.07,214.51,73.87,214.51,73.87-2.25,6.53-207.18-94-214.51-72.73-5.48,15.93,214.52,73.86,214.52,73.86-3.55,10.29-211.22-71-214.51-61.5-3.87,11.26,218.31,62.84,214.52,73.86,0,0-213.81-57.65-214.5-55.65-5.39,15.64,148.44,51.11,148.44,51.11S195,50.67,191.45,61.07c-.07.18,137.75,47.43,137.75,47.43-1.08,3.14-133-51.83-137.75-38.13-3.15,9.17,94.78,21.6,91.38,31.46C280.2,109.48,194.44,63,191.45,71.7,188.59,80,283.9,98.54,282.37,103c0,0-90-22.07-90.91-19.27-1.17,3.37,95.22,18.73,90.89,31.29-2.78,8.08-90.5-20.41-90.89-19.27l90.92,31.3c-.05.12-89.37-17-90.93-12.49-.13.39,94.45,21.09,90.93,31.31-.7,2-90.34-26.09-90.93-24.37-3.31,9.62,92.92,25.5,90.93,31.3-1.21,3.52-88.58-19.53-90.93-12.7-2.93,8.51,91.68,29.07,90.91,31.3-1.27,3.68-88.5-22.06-90.91-15s62.49,21.52,62.49,21.52c-1.54,4.48-61.91-22.19-62.49-20.49-3.07,8.89,63.41,15.35,61.42,21.15-1.44,4.18-61.43-9.3-61.43-9.3-.55,1.6,51.53,10,49.16,16.93-1.21,3.5-47.19-12.89-49.16-7.16,0,0,62.74,11.87,59.74,20.57-2.18,6.34-57.92-10.05-59.75-4.73-1,2.93,84.6,21.08,82.13,28.28-2.22,6.45-80.51-16.77-82.14-12-1.76,5.13,36.15,8.71,35,12"/><text class="cls-5" transform="translate(268.93 323.44)">JS</text><g class="cls-9"><path class="cls-27" d="M1043.21,136.88a22.53,22.53,0,1,0-22.48-22.53A22.41,22.41,0,0,0,1043.21,136.88Z"/><path class="cls-27" d="M1168.33,106.19c-2.13-6-6.14-10.76-10.95-14.82a81.56,81.56,0,0,0-20.06-12.09,151.57,151.57,0,0,0-19.38-6.94c-.86-.25-1.17-.63-.91-1.55.43-1.52.76-3.06,1.11-4.61a135.69,135.69,0,0,0,3.21-24.41,69.4,69.4,0,0,0-.64-11.7,41.21,41.21,0,0,0-5.14-16,25,25,0,0,0-11.3-10.26c-5.45-2.49-11.18-2.33-16.83-1.45-8.06,1.25-15.18,5-22,9.33a135.55,135.55,0,0,0-21.31,17.11c-.67.66-1.07.68-1.75,0-1.61-1.58-3.3-3.09-5-4.6a114.46,114.46,0,0,0-21.61-15.63C1008.07,4.36,1000,1.43,991,1.89a23.83,23.83,0,0,0-13.74,5c-4.51,3.47-7.3,8.15-9.13,13.44a56.58,56.58,0,0,0-2.75,15.21,93.8,93.8,0,0,0,.59,15.9,135.67,135.67,0,0,0,3.53,19.16c.28,1.06,0,1.55-1.06,1.84-3.81,1-7.57,2.29-11.27,3.67a104.06,104.06,0,0,0-22.9,11.43c-5.68,3.92-10.71,8.47-14.14,14.56A24.3,24.3,0,0,0,917,117.65c.94,7,4.65,12.53,9.54,17.33a69.07,69.07,0,0,0,17.92,12.23,141.58,141.58,0,0,0,22.7,8.76c3,.89,2.67.37,2,3.45-2.56,11.12-4.39,22.32-3.77,33.8a50.74,50.74,0,0,0,3.72,17.72c2.95,6.81,7.6,11.95,14.73,14.59,1.45.54,3,.81,4.45,1.24h9.49a.43.43,0,0,1,.29-.1,26.75,26.75,0,0,0,9.77-2.17,86,86,0,0,0,19.27-10.89,154.46,154.46,0,0,0,15.07-12.67c1-.92,1.27-.91,2.25,0,2.55,2.38,5.13,4.71,7.8,6.95,7.4,6.21,15.26,11.73,24.16,15.62,3.23,1.42,6.51,2.78,10.11,3a16.56,16.56,0,0,1,2.33.23h9.49a5.94,5.94,0,0,1,.72-.21,23.93,23.93,0,0,0,15.19-9.81,35.37,35.37,0,0,0,5.86-14.24,67.76,67.76,0,0,0,1.16-17.24c-.2-3.34-.44-6.66-.85-10a147.27,147.27,0,0,0-3.23-17c-.37-1.52-.35-1.55,1.2-2,3.66-1.07,7.29-2.23,10.86-3.55a104.31,104.31,0,0,0,23-11.44c5.3-3.63,10-7.83,13.45-13.33C1169.94,121.11,1171,113.85,1168.33,106.19ZM1051.66,36.78c8.25-7.81,17-15,27.23-20.06a37.85,37.85,0,0,1,11.95-3.85c7.66-1,13.18,1.65,16.46,9.12a37.91,37.91,0,0,1,2.87,13.62,34.58,34.58,0,0,1,.21,3.76,128.17,128.17,0,0,1-4,28.83c-.2.8-.54,1-1.37.86a258.93,258.93,0,0,0-25.82-4.32c-1.74-.21-3.5-.36-5.25-.5a3,3,0,0,1-2.41-1.33c-4.52-6.39-9.36-12.54-14.43-18.52-1.76-2.08-3.59-4.1-5.44-6.11C1051.14,37.71,1051.07,37.34,1051.66,36.78Zm-60.72,91.7c.12-.28.13-.74.47-.78s.44.42.58.69q6.27,11.85,13.41,23.2c.16.26.49.5.3.86s-.38.15-.79.17c-2.72-.41-5.64-.78-8.54-1.29-3.92-.68-7.83-1.48-11.75-2.2-.84-.16-1.13-.46-.83-1.37C985.93,141.24,988.25,134.79,990.94,128.48Zm-1.25-31.22c-2.14-5.29-4-10.67-5.84-16.09-.34-1-.14-1.36.9-1.58,6.63-1.43,13.32-2.54,20-3.44.31,0,.69-.17.9.14s-.1.54-.24.77q-7.28,11.52-13.62,23.57a7.31,7.31,0,0,1-.46.68C990.76,99.82,990.21,98.54,989.69,97.26ZM1003,125.59c-1.82-3.39-3.49-6.85-5.25-10.27a1.93,1.93,0,0,1,0-1.92,308.27,308.27,0,0,1,19.13-33.71c.93-1.42,1.89-2.81,2.81-4.22a1.8,1.8,0,0,1,1.46-.92c2.89-.35,5.8-.45,8.7-.55,4.49-.14,9-.45,13.47-.23,4.5-.22,9,.13,13.47.22,2.91.05,5.81.38,8.71.56a1.68,1.68,0,0,1,1.37.87q8.25,12.19,15.32,25.11c2.29,4.19,4.42,8.47,6.59,12.73a2.26,2.26,0,0,1,0,2.21,317.66,317.66,0,0,1-21.46,37.23,3.23,3.23,0,0,1-2.78,1.62c-3.3.15-6.6.3-9.9.47-5.68.29-11.36.3-17,.17-5.49-.12-11-.26-16.46-.78a1.83,1.83,0,0,1-1.46-.92A310.53,310.53,0,0,1,1003,125.59Zm78.09,26.12c4.84-7.65,9.34-15.49,13.58-23.49.11-.21.16-.54.46-.53s.32.35.41.57c2.72,6.41,5.1,13,7.27,19.57.25.78.06,1.11-.73,1.27-5.31,1.08-10.63,2.12-16,2.88l-4.41.63c-.32,0-.62.08-.78-.14S1080.93,151.94,1081.07,151.71ZM1095.13,101c-.34,0-.4-.36-.52-.6q-6.28-11.91-13.47-23.3c-.16-.26-.5-.52-.28-.86s.53-.14,1-.16c3.08.48,6.35.94,9.6,1.51,3.5.61,7,1.33,10.48,2,.86.16,1.12.47.82,1.38-2.15,6.55-4.5,13-7.19,19.37C1095.46,100.6,1095.45,101,1095.13,101Zm-52.75-54.69c.42-.49.8-1.1,1.53-.3,4.28,4.78,8.43,9.68,12.36,14.76.36.45.69.92,1,1.37s.26.79-.38.79c-1.58,0-3.16,0-4.74-.05-6-.26-11.91-.28-17.86,0-.79,0-1.58,0-2.37,0v0c-.68,0-1.37,0-2,0-.3,0-.71.13-.86-.25s.18-.52.35-.73c1.77-2.26,3.51-4.55,5.34-6.75C1037.25,52.23,1039.83,49.3,1042.38,46.34ZM978.15,25c1.1-3.62,2.73-7,5.78-9.39A12.43,12.43,0,0,1,992,12.69a34.22,34.22,0,0,1,15.13,3.78,92.71,92.71,0,0,1,19.69,13.1q4.13,3.46,8,7.18c.55.52.62.89.06,1.5q-8,8.69-15.08,18.13c-1.67,2.2-3.34,4.4-4.92,6.67a2.65,2.65,0,0,1-2.16,1.17c-3.72.31-7.42.8-11.12,1.28-6.6.88-13.14,2-19.64,3.45-1.55.33-1.54.35-1.94-1.23a130.18,130.18,0,0,1-3.61-21.64C975.91,39,976,31.86,978.15,25ZM974.29,141.4q-.66,1.93-1.23,3.9c-.2.66-.54.81-1.21.61a131.8,131.8,0,0,1-22.34-8.47c-6.16-3.09-12-6.68-16.69-11.85a18.88,18.88,0,0,1-4.72-8.34,11.29,11.29,0,0,1-.27-2.89c-.06-4.42,2-7.91,4.85-11.06a50.09,50.09,0,0,1,13.69-10.36,126.84,126.84,0,0,1,25.28-10.07c.85-.25,1.22-.08,1.48.76a251.7,251.7,0,0,0,9.74,25.78c.58,1.32,1.17,2.63,1.79,3.93a2.25,2.25,0,0,1,0,2A269.73,269.73,0,0,0,974.29,141.4Zm60.62,50.53c-8.37,7.95-17.24,15.22-27.7,20.3a35.66,35.66,0,0,1-11.9,3.68c-7.34.76-12.66-1.6-16-9a37.75,37.75,0,0,1-2.91-13.5,32,32,0,0,1-.22-3.86,127.45,127.45,0,0,1,4-28.95c.22-.87.62-1.06,1.46-.88q10.15,2.28,20.48,3.62c3.45.45,6.92.82,10.38,1.19a3.2,3.2,0,0,1,2.59,1.4c4.49,6.37,9.32,12.48,14.36,18.43,1.76,2.08,3.6,4.11,5.44,6.12C1035.38,191,1035.51,191.35,1034.91,191.93Zm9.07-9.31c-.48.57-.89.58-1.4,0-4.58-5.14-9-10.38-13.19-15.89-.16-.22-.48-.43-.34-.73s.57-.23.87-.24c.68,0,1.37,0,2,0,5.7.39,11.41.19,17.12.22,2.47,0,4.94-.32,7.42-.21.34,0,.78-.16,1,.23s-.21.57-.39.82q-5,6.56-10.44,12.72C1045.76,180.56,1044.86,181.58,1044,182.62Zm64.42,21.2c-1.21,3.79-2.93,7.27-6.25,9.71a13.15,13.15,0,0,1-7.34,2.48c-5.64.25-10.77-1.55-15.74-3.92a94,94,0,0,1-19.15-12.75c-2.85-2.37-5.55-4.89-8.26-7.4-.53-.49-.58-.85-.06-1.42a260.32,260.32,0,0,0,20-24.8,2.69,2.69,0,0,1,2.14-1.21c6.69-.57,13.34-1.48,20-2.63,3.68-.64,7.35-1.38,11-2.16,1-.21,1.49-.07,1.75,1a132.11,132.11,0,0,1,3.52,21c.17,2.4.32,4.79.44,6.64C1110.23,194,1109.94,199,1108.4,203.82Zm50.35-90c0,5-2.1,8.47-4.88,11.59a50.4,50.4,0,0,1-13.68,10.36,125.64,125.64,0,0,1-25.18,10c-.94.28-1.33.12-1.63-.84a245.05,245.05,0,0,0-9.06-24.19q-1.15-2.67-2.38-5.31a2.45,2.45,0,0,1,0-2.25,263.78,263.78,0,0,0,10.44-26.32c.39-1.16.77-2.32,1.12-3.49.19-.66.54-.81,1.2-.62a143,143,0,0,1,19.23,7,71.71,71.71,0,0,1,14.74,8.66,31,31,0,0,1,8.06,8.74A12.92,12.92,0,0,1,1158.75,113.84Z"/></g><path class="cls-28" d="M1055,133.44c-.33-1-4.5,1.54-4.52,1.47-.55-1.7,17.68-13.29,17.23-14.66-1.5-4.62-30.12,14.43-31.48,10.23-.37-1.13,33.85-11.7,33.78-11.91-.88-2.7-34.76,13.66-35.46,11.52s33.6-16.79,32.55-20-48.3,17.36-48.79,15.85c-1.08-3.33,50.87-17.73,50-20.48-1.1-3.36-49.51,21-51,16.56-1.84-5.67,45.28-18.56,45.28-18.56-.6-1.85-40.78,18.18-42.23,13.72-.1-.29,40.33-14.26,38.65-19.43-1.21-3.71-38.81,16.56-40,13s29.74-15.66,29.74-15.66c-.14-.41-18.27,10.12-19.5,6.34-.37-1.15,29.46-7.78,28.84-9.7-.73-2.24-31.26,10.16-31.26,10.16-.19-.57,13.43-8.8,13.26-9.33,0-.11-9.74,3.48-9.84,3.2"/><path class="cls-28" d="M1005.38,65.93c-.33-1-77.11,27.43-77.8,25.28-.85-2.59,52.12-23.49,52-23.89C979.23,66.29,965,72,965,72c-.09-.28,17.32-9.55,17.28-9.67-.37-1.14-16.06,6.68-16.49,5.35s10.89-6.95,10.67-7.63c-.06-.18-4.69,2.95-5.11,1.66-.35-1.1,1-8.79.64-10,0-.16-9.42,4-9.7,3.15-.1-.33,7.2-8.53,7.09-8.86-.31-1-8.19,2.66-8.19,2.66-.48-1.48,13.84-8,13.36-9.49-.12-.36-7.43,3.59-7.78,2.53-.08-.26,5.74-9.21,5.58-9.68-.47-1.44-1.79,1.27-2,.65s5.25-11.14,4.93-12.12c-.6-1.84-3.06,2-3.36,1.09S988.77,16.27,988,14c-.15-.46-19,7.93-19.5,6.33"/><path class="cls-28" d="M1045.6,27.85c-.13-.41-11.12,4.28-11.31,3.67-.14-.4-1.11-4-1.14-4.12s-12.4,4.82-12.63,4.11c0,0,9.67-5.9,9.53-6.33-.53-1.62-4.94,2.71-5.26,1.71-.18-.55,7-3.17,6.73-4-.45-1.38-4.36,1.9-4.5,1.46,0-.15-.35-1.26-.42-1.47,0,0-3.76,2.72-4.2,1.37,0-.08,4-1.63,4-1.78-.36-1.12-8.12,4.26-8.6,2.79,0,0,11.2-5.27,10.72-6.76,0,0-14,4.63-14,4.55-.17-.53,7.37-6.45,7-7.43-.24-.73-5.53,2.3-5.67,1.85-.05-.15-5.4-5.47-5.63-6.15,0,0-9.09,5-9.7,3.15-.36-1.11,7.23-11.11,7.12-11.45-.31-1-30.74,14.56-32.08,10.42-.27-.83,21.24-12.79,21-13.46,0,0-16.69,5.42-16.69,5.42"/><path class="cls-28" d="M967.2,146.91c-.31-.94-16.74,6.86-17.15,5.57,0,0,21.29-7.77,21-8.79-.19-.6-13,6.55-13.73,4.47-.29-.89,5.71-3.73,5.55-4.21,0-.09-10.24,4-10.43,3.39-.14-.42-8-8.42-8-8.7-.26-.79-3.11,2.5-3.55,1.15-.31-1,7.83-7.76,7.83-7.77-.58-1.78-10.89,5.45-11.45,3.72,0-.06-6.29-3.87-6.39-4.18-.33-1-6.12,3.17-6.47,2.1-.12-.37,10.06-4.67,10.06-4.67-.4-1.25-16.86,6.3-17.1,5.56-.4-1.24,13.83-6.82,13.81-6.9-.48-1.48-5.08,1.82-5.13,1.67-.6-1.83,11.58-7.79,11.16-9.07,0-.13-23.93,8.09-24,7.81-.66-2,17.72-7.69,17.29-9-.09-.28-16.42,5.34-16.42,5.34-.88-2.72,15.24-16.11,15.24-16.11-.34-1.06-11.73,5.24-12.15,3.94-.63-1.94,20.87-12.55,19.88-15.58s-14.58,6.48-15.09,4.91c-.1-.29,18.1-5.24,17.9-5.86-.67-2.07-17.71,9.31-18.76,6.1s34.68-9,33.54-12.55c-1-3.16-26.49,11.7-27.4,8.9-.83-2.53,21.09-6.54,21-7-1.18-3.64-25.87,9-26.06,8.47"/><path class="cls-28" d="M994.66,99.51c-.26-.79-10.54,4.56-10.87,3.53-.19-.59,1.41-10.92,1.17-11.66s-3.65,1.65-3.79,1.23c-.37-1.13,9.33-3.48,9-4.5-.1-.29-20.11,6.54-20.11,6.54S984.3,82.76,983.8,81.2c0,0-10.28,3.44-10.31,3.35-.38-1.16,14-4.93,14-5.13-.42-1.29-15.72,5.23-15.76,5.12"/><path class="cls-28" d="M991.24,217.11c-.55-1.69-17.74,8.14-18.44,6s16.5-12.21,15.93-14c-.43-1.33-14.55,6-14.92,4.85-.08-.23,2-1,1.85-1.35-.18-.55-7.09,3.44-7.42,2.41-.75-2.31,17.23-12.24,17.23-12.24-.32-1-23.25,8.36-23.49,7.63-.43-1.31,18.38-6.11,18.22-6.6-.38-1.16-8.22,3.1-8.34,2.71-.25-.74-.22-5.54-.32-5.85-.28-.84-2.1,1.1-2.23.73-.49-1.52,5.87-10.68,5.66-11.31-.11-.34-10.36,3.72-10.46,3.4,0,0,11.56-10.51,11-12.34-.49-1.51-7.76,4-8.2,2.67-.31-1,14.77-3.43,14.26-5-.15-.44-19.26,7.93-19.76,6.42,0-.12,14.68-8.3,14.63-8.47s-5.67,2.26-5.79,1.89c0-.14,8.59-2.57,8.39-3.19-.39-1.19-14.47,5.09-14.58,4.74s13.27-13.36,13-14.35c0,0-12.15,4.84-12.41,4-.62-1.92,14.35-5.74,13.95-7-.29-.89-13.08,5.57-13.47,4.37-.14-.43,19.57-6,18.9-8.11-.17-.53-22,7.14-22,7.14"/><path class="cls-28" d="M1007.46,151.17c-.84-2.6-23.4,7.6-23.4,7.6s8.46-7.67,8.06-8.88c-.11-.35-21.45,7.46-21.59,7-.6-1.84,15-16.07,14.86-16.56-.32-1-10.66,4.18-10.87,3.53-.54-1.65,19.6-9.4,19.23-10.56-.18-.55-23.2,9.46-23.76,7.72-.43-1.3,20.46-10,20.18-10.87-.43-1.32-17.93,6.76-18.2,5.92-.57-1.75,14.11-5,13.82-5.83-.34-1-3.77,1.36-3.81,1.24"/><path class="cls-28" d="M1039.51,183.53c-.51-1.57-13.15,4.53-13.22,4.3-.21-.66,10.09-5.46,9.63-6.88-.22-.68-7.86,3.62-8.17,2.65s9.1-12.89,8.82-13.76c-.36-1.08-10.18,3.36-10.19,3.31-.14-.43,9.6-3.83,9.23-5-.49-1.5-18.95,6.69-19.11,6.21s11-6.56,10.75-7.2c-.3-.94-8,3.69-8.35,2.71"/><path class="cls-28" d="M1066.41,153.07c-.14-.46-46.43,17.27-47.07,15.29-1.55-4.78,43.18-15.26,43.18-15.26-1.39-4.25-48.53,15.84-48.55,15.77-.25-.76,7.62-11.19,7.22-12.41-1-3.13-25.33,11.36-26.25,8.53-.06-.19,23.45-18.27,23.21-19s-15.92,6.42-16.28,5.29c-.16-.48,4-12,3.79-12.8s-.18,1.41-.58.18c-.34-1-5.13-8.88-5.38-9.66s-12,5.1-12.31,4c-.56-1.73,14.72-6.35,14.05-8.41-.23-.72-8.68,3.46-8.87,2.88-.29-.92,11.27-2.63,10.8-4.08-.53-1.62-25.41,9.84-25.88,8.4-1-3,25.7-9.1,24.58-12.56-.53-1.6-28.44,9.24-28.44,9.24-.67-2.06,21.74-17.17,21.74-17.17-.1-.3-5.25,3.24-5.7,1.86,0,0,8.86-3.82,8.51-4.9s-16.82,6.67-17.17,5.58c-1.39-4.28,27.15-17.19,26.18-20.18-.54-1.67-7.78,2.53-7.78,2.53s13.42-4.39,13.38-4.5c-.26-.82-18.49,8-19.09,6.2-.67-2,29.21-14.3,28.08-17.77-.54-1.65-23.48,9.13-23.92,7.78s17.6-10.31,17.45-10.77c-.22-.68-5.16,2.94-5.53,1.8"/><path class="cls-28" d="M1052,63.84c-.51-1.58-52.3,20.8-53.42,17.36-.13-.42,31.87-20.28,31.68-20.84,0,0-106.24,42.27-108.52,35.26-1.57-4.85,123.67-32.87,118.8-47.84,0,0-20.6,8.07-21,6.83-.93-2.88,24.4-6.19,23.73-8.25-.17-.51-22.46,7.68-22.57,7.33"/><path class="cls-28" d="M1099.34,98.9c-.18-.56-13.64,5.5-13.95,4.53-.16-.48-.25-7.65-.34-7.92-.14-.43-10.56,5-11,3.58-.17-.5,16.94-13.77,16.89-13.9s-13.37,4.56-13.43,4.36c-.27-.84,5.84-8.69,5.84-8.69-.42-1.3-10.95,4.49-11.22,3.64-.09-.26,16-8.2,15.45-9.76-.16-.5-14.3,4.86-14.37,4.67"/><path class="cls-28" d="M1101.78,69.58c-.53-1.62-25.14,11-26,8.44s21-11,20.58-12.2c-.73-2.23-22.84,8.81-23.25,7.55,0-.06-1.39-6.82-1.48-7.1-.37-1.13-16.71,9.25-17.83,5.8-.27-.84,15.9-8.55,15.58-9.53-.77-2.37-34,11-34,11s35-17.72,33.78-21.63c-.12-.36-21.39,7.49-21.55,7-.27-.82,10.75-7.24,10.37-8.43-.24-.72-8.51,3.06-8.6,2.8-.37-1.15,4.93-10.83,4.69-11.57-1.05-3.22-27.16,11.56-28,9.09-.23-.7,29.35-13.74,29.35-13.74l-30,9.73c-.16-.49,38.9-21.19,38.83-21.4-1.23-3.82-25.43,8.63-25.54,8.29,0,0,47.55-12.63,45.6-18.62-.19-.58-34.58,11.54-34.67,11.27"/><path class="cls-28" d="M1100.7,148.77c-1.46-4.5-49.84,23.55-52,16.89-.17-.51,30.52-10.37,29.77-12.68-1.75-5.39-33.86,16.28-35.41,11.51,0,0,43.39-17.24,42.33-20.5-.33-1-20.92,8.17-21.32,6.93-.08-.26,21.26-6.3,20.45-8.78,0-.18-11.12,4.55-11.39,3.7,0,0,19.58-6.31,18.84-8.58-.1-.32-18.4,7.2-18.76,6.09s19-11.61,18.29-13.78c-.3-.94-11.16,3.63-11.16,3.63"/><path class="cls-28" d="M1111.82,146.15c-2.34-7.21-67,22.72-67.3,21.87-1.69-5.18,77.83-17.85,75.5-25-.07-.22-14.32,5-14.42,4.69-.55-1.69,10.9-7.9,10.44-9.31-.29-.9-16.72,5.8-16.83,5.47-.54-1.65,4.48-12.68,4.36-13-.36-1.09-3,2.29-3.37,1.1s6.81-6.91,6.4-8.17c-.06-.19-20.59,9.44-21.4,7-.24-.75,16.78-8.09,16.16-10-.4-1.24-14.56,7.47-15.36,5-.21-.66,16-9.19,15.36-11.29-.13-.4-19.79,7.18-20,6.51-.95-2.91,32.12-16.76,30.87-20.59,0,0-29.2,11.84-29.89,9.71-.75-2.32,23.58-10.83,23.42-11.33,0,0-26,11.55-26.92,8.75-.57-1.75,37.2-14.25,36.37-16.81-.07-.21-18.11,6.63-18.33,6,0-.17,10.92-7.21,10.55-8.36-.13-.41-14.88,5.25-15,4.88-.35-1.07,25.55-8.87,25-10.52-.39-1.19-20.3,7.63-20.61,6.69-.63-1.94,15.34-3,14.71-5-.09-.25-10.67,5-11.11,3.61"/><path class="cls-28" d="M1012.36,222.25c0-.12-6,2.95-6.31,2.05-.19-.6,25.43-11.51,24.24-15.16-1.85-5.68-48.87,16.42-49,15.93-1.9-5.87,60.46-22.07,60-23.47-1.61-4.95-30.86,13.8-32,10.39"/><path class="cls-28" d="M1099.87,214.14c-.18-.56-25.48,10.13-26,8.46-.41-1.28,15.42-9.71,15.4-9.78s-22.9,8.75-23.28,7.57c-.52-1.59,18.87-8.34,18.51-9.45,0-.08-24.75,8.8-25,8.12-.12-.39,21-10,20.63-11.32s-13.66,4.44-13.66,4.44c-.15-.47-2.28-4.34-2.31-4.42-.51-1.57-15.12,5.29-15.23,5,0-.1,9.8-11.29,9.18-13.19-.21-.66-17,6-17.17,5.57s18.35-5.71,18.07-6.54-16.29,6.28-16.58,5.39c-.06-.2,8.63-3.9,8.26-5.05s-12.47,4.65-12.65,4.11c0,0,8-9.94,7.85-10.48-.3-.91-11.43,7.14-12.44,4-1.41-4.35,33.09-20,32.47-21.93-.08-.25-20.66,9.15-21.37,7,0,0,32.88-12.29,31.41-16.81-.79-2.45-17.5,7-17.89,5.81-.09-.27,18.47-4.25,17.86-6.15-.3-.92-17.78,5.78-17.78,5.78"/><path class="cls-28" d="M1136.62,149.57c-.52-1.59-23.36,11.44-24.49,8-1.51-4.65,36.64-13.19,36.35-14.08-.88-2.69-62.83,20.42-62.83,20.42-1.39-4.28,67.57-18,65.63-23.93-.74-2.29-76.37,24.87-76.38,24.83-3.85-11.83,93.07-20.73,89.6-31.4-1.2-3.7-113.71,44.11-115.82,37.63-3.26-10.06,113.67-42.13,112.61-45.38-.61-1.88-12.13,5-12.43,4,0,0,20.3-7.71,19.41-10.46-.22-.67-16.71,5.6-16.76,5.45-.5-1.52,18.14-14.68,17.6-16.34-.08-.26-3.89,2.74-4.32,1.41-.18-.55-.58-10.91-.68-11.23,0-.12-11.14,3.89-11.22,3.64-.2-.6,1.25-5.48,1.16-5.77-.21-.63-5.57,2.29-5.71,1.85,0,0,8.06-7.11,7.73-8.13,0-.15-8.56,4.71-9.13,3-.19-.61.74-6.65.52-7.34-.33-1-8.51,3.21-8.64,2.81s5-5.51,4.89-6c-.69-2.1-11.94,5.15-12.31,4-.25-.76,11.14-7.55,10.8-8.61,0,0-27,9.38-27.21,8.84s12.92-9.14,12.31-11c-1.14-3.5-27.73,10.23-28.08,9.13-.66-2,18.39-12.34,18.18-13-.78-2.4-25,9.06-25.27,8.21-.83-2.57,30.07-17.9,29.57-19.45-.27-.83-20.57,7.36-20.77,6.75-.59-1.81,19.81-16.66,19.81-16.66-.12-.37-6.44,3.86-7,2.26-.11-.36,7-6.79,6.72-7.58-.39-1.18-8.38,3.87-8.72,2.83-.47-1.46,16.44-9.49,15.85-11.29,0,0-10,4.25-10.31,3.35l-1.09-3.42c-.2-.62-12,4.07-12,3.9-.42-1.29,15-4,14.52-5.52-.23-.72-7.28,3.82-7.7,2.51-.71-2.17,14.75-11.11,14.17-12.9,0-.15-16.63,5.4-16.63,5.4-.52-1.61,10.45-8,10-9.55-.29-.91-9.93,4.67-10.36,3.37-.64-2,14.82-3.2,14.24-5,0-.14-18.47,7.56-18.92,6.15-.51-1.56,9.74-6.58,9.74-6.6-.13-.38-3,1.78-3.26,1.06s4.84-4.74,4.66-5.29c-.34-1.05-14.88,6.12-15.26,4.95-.23-.69,16.06-7.22,15.66-8.45,0-.1-15.31,5-15.31,5-.55-1.68,10.12-11.14,9.49-13.06C1108.35.14,1055,27,1053.05,21c-.11-.35,40.31-19.12,40-20.17,0-.12-14.69,6.2-15.11,4.91"/><path class="cls-28" d="M1106.87,223.34c-.33-1-4.51,1.55-4.53,1.47-.58-1.76,18.59-13.53,18.13-14.95-1.74-5.33-35.29,16.84-36.87,12-.42-1.31,39.39-13.46,39.31-13.71-1-3.14-40.54,15.93-41.35,13.44s41.86-18.7,40.59-22.62c-.29-.9-18.21,6.38-18.35,6-.47-1.47,21.47-9.88,21.07-11.09-.29-.89-19.17,7.54-19.56,6.36-.68-2.09,15.64-8.93,15.64-8.93-.16-.49-11,4.88-11.38,3.69,0-.1,12.56-8.83,11.94-10.74-.34-1.06-12.9,5.31-13.23,4.29-.42-1.3,8.59-8.78,8.59-8.78,0-.15-.8,1.79-1.25.4-.14-.43,11.22-3.15,11-3.88s-13.67,4.44-13.67,4.44c-.1-.33,5.12-7.28,5-7.58,0-.1-9.21,3.3-9.3,3-.6-1.84,10.52-11.26,10.39-11.67-.3-.92-7.58,3.65-7.93,2.58-.61-1.89,11.18-9.08,11.18-9.08s-16,6.09-16.28,5.29c-.09-.25,11.39-4.26,10.89-5.79-.43-1.33-10.37,3.38-10.37,3.38"/><text class="cls-5" transform="translate(889.65 321.66)"><tspan class="cls-26">R</tspan><tspan class="cls-29" x="27.67" y="0">e</tspan><tspan x="54.9" y="0">act N</tspan><tspan class="cls-8" x="185.71" y="0">a</tspan><tspan x="210.89" y="0">ti</tspan><tspan class="cls-33" x="248.6" y="0">v</tspan><tspan x="279.48" y="0">e</tspan></text></g></g></svg>