<svg xmlns="http://www.w3.org/2000/svg" viewBox="0 0 1870.63 341.13"><defs><style>.cls-1{opacity:0.6;}.cls-2{fill:#61dafb;}.cls-10,.cls-19,.cls-20,.cls-21,.cls-22,.cls-23,.cls-26,.cls-27,.cls-3,.cls-30,.cls-32,.cls-9{fill:none;stroke-linecap:round;stroke-linejoin:round;}.cls-3{stroke:#61dafb;stroke-width:3.02px;}.cls-4{font-size:55.45px;fill:#fff;font-family:KyoboHandwriting2019, "Kyobo Handwriting 2019";}.cls-5{letter-spacing:-0.02em;}.cls-6{letter-spacing:-0.01em;}.cls-7{opacity:0.4;}.cls-8{fill:#0173c0;}.cls-9{stroke:#f7fafc;}.cls-10,.cls-32,.cls-9{stroke-width:3.75px;}.cls-10{stroke:#0173c0;}.cls-11{letter-spacing:-0.03em;}.cls-12{letter-spacing:0em;}.cls-13{letter-spacing:-0.03em;}.cls-14{fill:#a159fe;}.cls-15{fill:#fe7162;}.cls-16{fill:#f14e1e;}.cls-17{fill:#0ace82;}.cls-18{fill:#1abbfd;}.cls-19{stroke:#a159fe;}.cls-19,.cls-20,.cls-21,.cls-22,.cls-23{stroke-width:3.75px;}.cls-20{stroke:#fe7162;}.cls-21{stroke:#f14e1e;}.cls-22{stroke:#0ace82;}.cls-23{stroke:#1abbfd;}.cls-24{fill:#fed242;}.cls-25{fill:#3672a3;}.cls-26{stroke:#fed242;}.cls-26,.cls-27{stroke-width:3.75px;}.cls-27{stroke:#3672a3;}.cls-28{opacity:0.3;}.cls-29{fill:#fede00;}.cls-30{stroke:#fede00;stroke-width:5px;}.cls-31{fill:#764abc;}.cls-32{stroke:#764abc;}</style></defs><g id="레이어_2" data-name="레이어 2"><g id="레이어_1-2" data-name="레이어 1"><g class="cls-1"><path class="cls-2" d="M126.44,135.1A22.52,22.52,0,1,0,104,112.58,22.39,22.39,0,0,0,126.44,135.1Z"/><path class="cls-2" d="M251.55,104.42c-2.12-6-6.14-10.76-10.94-14.83a81.28,81.28,0,0,0-20.07-12.08,150.94,150.94,0,0,0-19.37-7c-.87-.24-1.17-.62-.91-1.54.43-1.52.76-3.07,1.11-4.61A135.68,135.68,0,0,0,204.57,40a68.42,68.42,0,0,0-.63-11.71,41.22,41.22,0,0,0-5.14-16A24.87,24.87,0,0,0,187.5,2C182.05-.45,176.32-.29,170.66.58c-8.06,1.25-15.17,5-22,9.34A135.36,135.36,0,0,0,127.38,27c-.68.65-1.07.67-1.75,0-1.61-1.59-3.31-3.09-5-4.6A113.7,113.7,0,0,0,99,6.81C91.29,2.59,83.25-.35,74.18.11a23.87,23.87,0,0,0-13.73,5c-4.51,3.47-7.3,8.16-9.14,13.45a56.82,56.82,0,0,0-2.74,15.21,92.62,92.62,0,0,0,.59,15.89A132.63,132.63,0,0,0,52.69,68.8c.27,1.07,0,1.55-1.06,1.85-3.82,1-7.57,2.29-11.28,3.67a103.19,103.19,0,0,0-22.9,11.43c-5.68,3.91-10.7,8.46-14.14,14.55A24.3,24.3,0,0,0,.23,115.87c1,7,4.66,12.53,9.55,17.33a68.85,68.85,0,0,0,17.91,12.23A141.73,141.73,0,0,0,50.4,154.2c3,.89,2.66.37,2,3.45C49.8,168.77,48,180,48.59,191.45a50.9,50.9,0,0,0,3.71,17.71c3,6.82,7.61,12,14.73,14.59,1.46.54,3,.81,4.45,1.25H81a.39.39,0,0,1,.29-.11A26.74,26.74,0,0,0,91,222.73a85.72,85.72,0,0,0,19.26-10.9,150.68,150.68,0,0,0,15.08-12.67c1-.91,1.27-.91,2.24,0,2.55,2.37,5.13,4.71,7.8,7,7.41,6.21,15.27,11.72,24.16,15.62,3.24,1.42,6.52,2.78,10.12,3A15.32,15.32,0,0,1,172,225h9.49c.24-.07.47-.17.71-.22A23.85,23.85,0,0,0,197.42,215a35.21,35.21,0,0,0,5.87-14.23,68.3,68.3,0,0,0,1.16-17.25c-.21-3.33-.44-6.65-.86-10a147.24,147.24,0,0,0-3.22-17c-.38-1.51-.35-1.54,1.2-2,3.66-1.07,7.28-2.24,10.86-3.56a104.31,104.31,0,0,0,23-11.44c5.29-3.62,10-7.82,13.45-13.32C253.16,119.34,254.25,112.08,251.55,104.42ZM134.89,35c8.25-7.8,17-15,27.22-20a37.57,37.57,0,0,1,12-3.85c7.65-1,13.18,1.64,16.46,9.12a38.08,38.08,0,0,1,2.87,13.62,37,37,0,0,1,.21,3.76,127.61,127.61,0,0,1-4,28.83c-.19.79-.54,1-1.37.85A261.66,261.66,0,0,0,162.42,63c-1.75-.21-3.5-.35-5.26-.5a3,3,0,0,1-2.4-1.32c-4.53-6.39-9.36-12.55-14.43-18.52-1.76-2.08-3.6-4.11-5.44-6.11C134.36,35.94,134.3,35.56,134.89,35ZM74.16,126.71c.12-.29.13-.74.48-.78s.43.42.57.69q6.29,11.85,13.42,23.2c.16.25.48.5.29.85s-.37.16-.78.17c-2.72-.4-5.64-.78-8.54-1.28-3.93-.69-7.83-1.48-11.75-2.21-.85-.15-1.14-.45-.84-1.37C69.15,139.47,71.47,133,74.16,126.71ZM72.92,95.48c-2.15-5.29-4-10.67-5.85-16.08-.34-1-.13-1.36.9-1.58,6.64-1.43,13.33-2.55,20-3.45.31,0,.69-.16.91.15s-.1.53-.25.76Q81.42,86.8,75.07,98.86c-.08.15-.2.29-.47.68C74,98.05,73.44,96.77,72.92,95.48ZM86.2,123.82c-1.81-3.39-3.49-6.85-5.25-10.27a2,2,0,0,1,0-1.92,309.42,309.42,0,0,1,19.14-33.72c.92-1.41,1.89-2.8,2.8-4.22a1.88,1.88,0,0,1,1.46-.92c2.9-.35,5.81-.45,8.71-.54,4.49-.15,9-.46,13.47-.23,4.49-.23,9,.12,13.47.21,2.9.06,5.8.38,8.7.56a1.68,1.68,0,0,1,1.38.88q8.25,12.18,15.31,25.1c2.3,4.2,4.43,8.47,6.59,12.73a2.23,2.23,0,0,1,0,2.22,318.35,318.35,0,0,1-21.46,37.22,3.25,3.25,0,0,1-2.78,1.63q-5,.21-9.9.46c-5.67.29-11.35.3-17,.18-5.49-.12-11-.27-16.45-.79a1.82,1.82,0,0,1-1.47-.91A314.38,314.38,0,0,1,86.2,123.82Zm78.1,26.11c4.84-7.64,9.34-15.48,13.57-23.48.11-.21.16-.54.47-.53s.32.34.41.56c2.72,6.42,5.1,13,7.26,19.58.26.78.07,1.1-.72,1.26-5.31,1.09-10.63,2.12-16,2.89l-4.42.63c-.31,0-.61.07-.77-.14S164.15,150.16,164.3,149.93Zm14.06-50.67c-.35,0-.4-.37-.53-.61q-6.29-11.9-13.46-23.3c-.16-.25-.5-.51-.28-.85s.52-.15,1-.17c3.08.48,6.35,1,9.61,1.51,3.5.62,7,1.34,10.47,2,.86.16,1.13.48.83,1.38-2.16,6.55-4.5,13-7.19,19.38C178.69,98.83,178.68,99.22,178.36,99.26Zm-52.75-54.7c.42-.48.8-1.1,1.52-.29C131.42,49.05,135.57,54,139.5,59c.35.45.68.93,1,1.38s.26.78-.38.78c-1.58,0-3.16,0-4.74,0-5.95-.26-11.9-.27-17.86,0-.78,0-1.58,0-2.37,0v0c-.68,0-1.36,0-2,0-.31,0-.71.13-.87-.24s.19-.52.36-.74c1.77-2.25,3.5-4.54,5.34-6.75C120.47,50.46,123.05,47.52,125.61,44.56ZM61.37,23.18c1.1-3.62,2.73-7,5.79-9.4a12.5,12.5,0,0,1,8.08-2.87A34.23,34.23,0,0,1,90.37,14.7a92.15,92.15,0,0,1,19.68,13.1c2.76,2.3,5.42,4.7,8,7.17.56.53.62.9.06,1.51-5.33,5.78-10.34,11.84-15.08,18.12-1.66,2.21-3.34,4.41-4.91,6.68A2.63,2.63,0,0,1,96,62.44c-3.73.32-7.43.8-11.13,1.29-6.59.87-13.13,2.05-19.63,3.44-1.55.34-1.55.36-1.94-1.22A130.15,130.15,0,0,1,59.67,44.3C59.13,37.19,59.27,30.09,61.37,23.18ZM57.52,139.62c-.44,1.29-.85,2.59-1.24,3.9-.2.66-.54.81-1.2.62a131.83,131.83,0,0,1-22.34-8.48c-6.17-3.08-12-6.67-16.69-11.84a19.08,19.08,0,0,1-4.73-8.35,11.66,11.66,0,0,1-.27-2.89c-.05-4.41,2-7.91,4.86-11.06A50,50,0,0,1,29.59,91.17,126.87,126.87,0,0,1,54.87,81.09c.85-.25,1.22-.08,1.49.77a252.58,252.58,0,0,0,9.74,25.78c.57,1.31,1.16,2.63,1.78,3.92a2.24,2.24,0,0,1,0,2.06A266,266,0,0,0,57.52,139.62Zm60.61,50.54c-8.37,8-17.23,15.21-27.7,20.29a35.69,35.69,0,0,1-11.89,3.69c-7.35.75-12.67-1.61-16-9.06a37.45,37.45,0,0,1-2.92-13.5,31.55,31.55,0,0,1-.21-3.86,127,127,0,0,1,4-28.95c.21-.87.61-1.06,1.46-.87q10.16,2.28,20.48,3.61c3.45.46,6.91.83,10.37,1.19a3.25,3.25,0,0,1,2.6,1.4c4.49,6.38,9.32,12.49,14.36,18.44,1.76,2.08,3.59,4.1,5.44,6.11C118.6,189.21,118.74,189.58,118.13,190.16Zm9.07-9.31c-.48.57-.88.58-1.39,0-4.58-5.15-9-10.39-13.19-15.89-.16-.22-.48-.43-.34-.74s.56-.23.87-.23c.68,0,1.36,0,2,0,5.71.39,11.42.19,17.12.21,2.48,0,4.94-.31,7.42-.2.34,0,.79-.16,1,.22s-.2.58-.38.82q-5,6.57-10.44,12.72C129,178.78,128.08,179.81,127.2,180.85Zm64.42,21.2c-1.2,3.79-2.93,7.27-6.24,9.7a13.08,13.08,0,0,1-7.35,2.48c-5.63.26-10.77-1.54-15.73-3.92a93.63,93.63,0,0,1-19.15-12.75c-2.85-2.36-5.56-4.88-8.26-7.4-.53-.49-.59-.85-.07-1.42a258.88,258.88,0,0,0,20-24.8,2.67,2.67,0,0,1,2.13-1.2c6.7-.57,13.35-1.48,20-2.63,3.68-.64,7.34-1.38,11-2.16,1-.22,1.48-.07,1.74,1a130.8,130.8,0,0,1,3.52,21c.17,2.39.32,4.79.45,6.64C193.45,192.19,193.17,197.21,191.62,202.05Zm50.35-90c0,5-2.09,8.46-4.87,11.59A50.56,50.56,0,0,1,223.42,134a126.14,126.14,0,0,1-25.18,10.05c-.94.27-1.33.11-1.63-.84a246.25,246.25,0,0,0-9.07-24.2c-.77-1.78-1.55-3.55-2.38-5.3a2.47,2.47,0,0,1,0-2.26,263.84,263.84,0,0,0,10.45-26.32c.38-1.15.76-2.31,1.11-3.48.2-.67.54-.82,1.2-.62a141.12,141.12,0,0,1,19.23,7,71.71,71.71,0,0,1,14.74,8.66,31.08,31.08,0,0,1,8.06,8.73A12.83,12.83,0,0,1,242,112.07Z"/></g><path class="cls-3" d="M138.19,131.66c-.33-1-4.49,1.55-4.51,1.47-.56-1.69,17.67-13.29,17.23-14.65-1.5-4.62-30.12,14.43-31.49,10.23-.36-1.13,33.85-11.71,33.78-11.92-.87-2.69-34.76,13.67-35.46,11.53s33.6-16.79,32.56-20-48.3,17.36-48.79,15.85c-1.08-3.33,50.86-17.74,50-20.48-1.09-3.36-49.51,21-50.95,16.56-1.85-5.68,45.28-18.57,45.28-18.57-.6-1.85-40.79,18.19-42.24,13.72-.09-.28,40.33-14.26,38.65-19.42-1.2-3.72-38.81,16.56-40,13S132,93.3,132,93.3c-.13-.42-18.27,10.11-19.49,6.33-.38-1.14,29.46-7.77,28.84-9.69-.73-2.24-31.27,10.16-31.27,10.16-.19-.58,13.44-8.8,13.26-9.33,0-.11-9.74,3.48-9.83,3.19"/><path class="cls-3" d="M88.61,64.16c-.33-1-77.11,27.43-77.81,25.28-.84-2.6,52.12-23.5,52-23.9-.33-1-14.54,4.73-14.54,4.73-.09-.29,17.31-9.56,17.28-9.68C65.16,59.46,49.47,67.27,49,66s10.89-7,10.67-7.63c-.06-.18-4.69,3-5.11,1.66-.36-1.1,1-8.8.64-10-.05-.15-9.42,4-9.7,3.15-.11-.32,7.2-8.53,7.09-8.86-.32-1-8.19,2.67-8.19,2.67-.48-1.49,13.84-8,13.35-9.49C57.67,37.08,50.36,41,50,40c-.09-.27,5.73-9.21,5.58-9.69-.47-1.44-1.8,1.27-2,.65s5.25-11.14,4.93-12.11c-.59-1.84-3.06,2-3.36,1.09-.34-1.07,16.82-5.43,16.1-7.67-.15-.46-19,7.94-19.5,6.34"/><path class="cls-3" d="M128.83,26.07c-.13-.4-11.12,4.28-11.32,3.68-.13-.41-1.1-4-1.14-4.12s-12.39,4.82-12.63,4.1c0,0,9.67-5.9,9.53-6.33-.52-1.61-4.93,2.71-5.26,1.71-.18-.55,7-3.16,6.73-4-.45-1.38-4.35,1.9-4.49,1.46,0-.15-.36-1.26-.43-1.46,0,0-3.75,2.71-4.19,1.36,0-.07,4-1.63,4-1.78-.36-1.11-8.13,4.27-8.6,2.8,0,0,11.2-5.28,10.72-6.76,0,0-14,4.62-14,4.55-.18-.53,7.36-6.45,7-7.43-.23-.73-5.52,2.3-5.67,1.84,0-.14-5.4-5.47-5.62-6.15,0,0-9.1,5-9.7,3.16C83.39,11.57,91,1.56,90.87,1.22,90.56.27,60.14,15.79,58.79,11.64c-.27-.83,21.25-12.78,21-13.46,0,0-16.69,5.43-16.69,5.43"/><path class="cls-3" d="M50.42,145.14c-.3-.95-16.73,6.86-17.15,5.57,0,0,21.3-7.78,21-8.79-.2-.61-13.06,6.55-13.73,4.46-.29-.89,5.71-3.72,5.55-4.21,0-.08-10.25,4-10.44,3.4-.14-.43-8-8.42-8-8.7-.26-.8-3.1,2.5-3.54,1.15-.32-1,7.83-7.76,7.82-7.78C31.28,128.46,21,135.69,20.4,134c0-.05-6.28-3.87-6.38-4.18-.33-1-6.13,3.17-6.48,2.1-.12-.37,10.07-4.66,10.07-4.66C17.2,126,.75,133.52.51,132.77c-.4-1.23,13.83-6.81,13.8-6.89-.48-1.49-5.08,1.81-5.12,1.66-.6-1.83,11.57-7.78,11.16-9.06-.05-.13-23.94,8.08-24,7.8-.66-2,17.72-7.68,17.29-9-.09-.27-16.43,5.34-16.43,5.34-.88-2.71,15.24-16.11,15.24-16.11-.34-1-11.72,5.24-12.14,4-.64-2,20.86-12.55,19.88-15.58s-14.59,6.48-15.1,4.9C5,99.49,23.17,94.53,23,93.92c-.67-2.07-17.72,9.31-18.76,6.1s34.68-9,33.53-12.56c-1-3.15-26.49,11.7-27.4,8.91-.82-2.54,21.09-6.55,21-7-1.18-3.63-25.88,9-26.06,8.47"/><path class="cls-3" d="M77.89,97.74C77.63,97,67.35,102.3,67,101.27c-.2-.59,1.4-10.92,1.16-11.66s-3.65,1.64-3.78,1.23c-.37-1.13,9.32-3.48,9-4.5-.09-.29-20.11,6.54-20.11,6.54S67.53,81,67,79.43c0,0-10.27,3.44-10.3,3.35-.38-1.16,14-4.94,14-5.13-.42-1.3-15.73,5.23-15.77,5.12"/><path class="cls-3" d="M74.47,215.34c-.55-1.7-17.75,8.14-18.44,6s16.49-12.21,15.93-14c-.44-1.33-14.56,6-14.93,4.85-.07-.22,2-1,1.86-1.34-.18-.55-7.09,3.43-7.42,2.41C50.71,211,68.7,201.05,68.7,201.05c-.33-1-23.26,8.37-23.5,7.64-.42-1.31,18.38-6.11,18.22-6.6-.37-1.16-8.21,3.09-8.34,2.71-.24-.75-.22-5.54-.32-5.85-.27-.85-2.1,1.1-2.22.72-.49-1.51,5.86-10.67,5.66-11.31-.11-.34-10.36,3.73-10.47,3.4,0,0,11.57-10.51,11-12.33-.5-1.52-7.77,4-8.21,2.67-.31-.95,14.77-3.44,14.26-5-.14-.44-19.26,7.92-19.75,6.41,0-.11,14.68-8.29,14.62-8.46s-5.67,2.25-5.79,1.88c0-.13,8.59-2.56,8.39-3.18-.39-1.2-14.46,5.08-14.57,4.73s13.26-13.35,12.94-14.34c0,0-12.15,4.84-12.41,4-.62-1.91,14.36-5.74,14-7-.29-.89-13.07,5.57-13.46,4.38-.14-.43,19.57-6,18.89-8.11-.17-.53-22,7.14-22,7.14"/><path class="cls-3" d="M90.69,149.39c-.84-2.59-23.4,7.61-23.4,7.61s8.45-7.67,8.06-8.88c-.12-.36-21.45,7.46-21.6,7-.6-1.83,15-16.07,14.86-16.55-.31-1-10.66,4.18-10.87,3.53-.53-1.65,19.61-9.41,19.23-10.57-.18-.54-23.19,9.47-23.76,7.72-.42-1.3,20.46-10,20.18-10.86-.43-1.32-17.92,6.76-18.2,5.91-.56-1.74,14.11-4.94,13.82-5.83-.34-1-3.77,1.37-3.81,1.24"/><path class="cls-3" d="M122.74,181.75c-.51-1.57-13.15,4.53-13.23,4.3-.21-.65,10.09-5.46,9.63-6.88-.22-.67-7.85,3.63-8.17,2.66s9.1-12.89,8.82-13.77c-.35-1.07-10.17,3.37-10.19,3.31-.14-.42,9.61-3.82,9.23-5-.49-1.5-18.94,6.7-19.1,6.21s11-6.56,10.75-7.2c-.31-.94-8,3.69-8.35,2.72"/><path class="cls-3" d="M149.64,151.29c-.15-.45-46.43,17.28-47.07,15.3-1.56-4.78,43.17-15.27,43.17-15.27-1.38-4.25-48.52,15.85-48.54,15.78-.25-.76,7.61-11.19,7.22-12.42-1-3.13-25.34,11.36-26.26,8.53-.06-.19,23.46-18.26,23.22-19s-15.92,6.43-16.29,5.29c-.15-.47,4.06-12,3.79-12.8s-.18,1.41-.57.19c-.34-1-5.13-8.88-5.39-9.67s-11.94,5.11-12.3,4c-.56-1.72,14.72-6.34,14-8.41-.23-.71-8.68,3.46-8.87,2.88-.3-.91,11.26-2.63,10.79-4.08-.52-1.61-25.4,9.84-25.87,8.41-1-3,25.7-9.1,24.57-12.57-.52-1.6-28.43,9.24-28.43,9.24-.67-2.05,21.74-17.16,21.74-17.16-.1-.31-5.26,3.23-5.7,1.85,0,0,8.86-3.81,8.51-4.9s-16.82,6.68-17.18,5.58c-1.39-4.28,27.16-17.18,26.19-20.17-.55-1.68-7.79,2.53-7.79,2.53S96.05,90,96,89.9c-.27-.82-18.5,8-19.1,6.21-.66-2,29.21-14.3,28.09-17.77-.54-1.66-23.48,9.13-23.92,7.77S98.69,75.8,98.54,75.35c-.22-.68-5.16,2.93-5.53,1.79"/><path class="cls-3" d="M135.23,62.06c-.51-1.58-52.3,20.81-53.42,17.36-.14-.41,31.86-20.27,31.68-20.83,0,0-106.24,42.27-108.52,35.26C3.39,89,128.63,61,123.77,46c0,0-20.61,8.07-21,6.82-.94-2.87,24.4-6.18,23.73-8.25-.17-.51-22.47,7.69-22.58,7.34"/><path class="cls-3" d="M182.57,97.12c-.18-.55-13.64,5.51-14,4.54-.15-.48-.25-7.66-.33-7.93-.14-.43-10.56,5-11,3.58-.16-.5,16.94-13.77,16.9-13.89S160.79,88,160.72,87.78c-.27-.84,5.85-8.7,5.85-8.7-.42-1.29-10.95,4.5-11.23,3.65-.08-.26,16-8.2,15.46-9.76-.16-.5-14.31,4.86-14.37,4.67"/><path class="cls-3" d="M185,67.81c-.52-1.62-25.13,11-26,8.44s21-11,20.58-12.21c-.72-2.23-22.84,8.82-23.25,7.56,0-.06-1.39-6.83-1.48-7.1-.36-1.13-16.7,9.24-17.82,5.79-.27-.83,15.89-8.54,15.57-9.53-.77-2.37-34,11-34,11s35.05-17.71,33.78-21.62c-.12-.37-21.39,7.49-21.54,7-.27-.82,10.75-7.24,10.36-8.42-.23-.73-8.51,3.05-8.59,2.79-.37-1.14,4.92-10.82,4.68-11.56-1-3.22-27.15,11.56-28,9.08-.22-.7,29.36-13.74,29.36-13.74l-30,9.74c-.17-.5,38.9-21.2,38.83-21.41-1.24-3.81-25.43,8.64-25.54,8.3,0,0,47.54-12.63,45.59-18.62-.19-.59-34.58,11.53-34.66,11.26"/><path class="cls-3" d="M183.93,147c-1.47-4.5-49.84,23.55-52,16.9-.16-.52,30.53-10.37,29.78-12.68-1.75-5.39-33.86,16.28-35.41,11.51,0,0,43.39-17.25,42.33-20.51-.33-1-20.92,8.18-21.33,6.93-.08-.25,21.26-6.3,20.46-8.78-.06-.17-11.12,4.55-11.4,3.71,0,0,19.58-6.32,18.84-8.58-.1-.32-18.39,7.19-18.75,6.09s19-11.62,18.29-13.78c-.31-1-11.16,3.63-11.16,3.63"/><path class="cls-3" d="M195.05,144.38c-2.34-7.22-67,22.72-67.31,21.87-1.68-5.18,77.84-17.86,75.51-25-.08-.23-14.33,5-14.43,4.68-.55-1.69,10.9-7.89,10.45-9.31-.3-.89-16.73,5.81-16.84,5.47-.53-1.64,4.48-12.67,4.37-13-.36-1.1-3,2.29-3.37,1.09s6.81-6.91,6.4-8.17c-.06-.18-20.59,9.44-21.4,7-.24-.75,16.78-8.1,16.16-10-.41-1.24-14.56,7.47-15.37,5-.21-.66,16.05-9.19,15.37-11.29-.14-.4-19.8,7.18-20,6.5-.94-2.9,32.12-16.75,30.88-20.59,0,0-29.2,11.85-29.9,9.71-.75-2.32,23.59-10.82,23.43-11.32,0,0-26,11.55-26.93,8.74-.57-1.74,37.21-14.25,36.38-16.8-.07-.21-18.12,6.62-18.33,6-.06-.16,10.92-7.21,10.54-8.35-.13-.41-14.88,5.25-15,4.87-.35-1.07,25.55-8.86,25-10.52-.39-1.18-20.31,7.64-20.62,6.7-.63-2,15.34-3,14.71-5-.08-.26-10.67,5-11.11,3.61"/><path class="cls-3" d="M95.59,220.47c0-.11-6,3-6.31,2.05-.2-.59,25.42-11.51,24.23-15.16-1.84-5.67-48.87,16.43-49,15.93-1.91-5.86,60.45-22.06,60-23.46-1.61-5-30.86,13.8-32,10.39"/><path class="cls-3" d="M183.09,212.37c-.18-.57-25.48,10.13-26,8.45-.42-1.27,15.42-9.7,15.4-9.77s-22.91,8.74-23.29,7.56c-.51-1.58,18.87-8.33,18.51-9.44,0-.09-24.74,8.79-25,8.11-.13-.38,21.05-10,20.63-11.32s-13.67,4.45-13.67,4.44c-.15-.46-2.28-4.34-2.3-4.41-.51-1.57-15.13,5.28-15.24,4.95,0-.1,9.81-11.3,9.19-13.2-.22-.65-17,6.06-17.17,5.58s18.34-5.71,18.07-6.54-16.29,6.27-16.58,5.38c-.07-.2,8.62-3.9,8.25-5s-12.47,4.65-12.65,4.11c0,0,8-9.94,7.85-10.48-.29-.9-11.42,7.14-12.43,4-1.41-4.34,33.08-20,32.47-21.92-.08-.25-20.66,9.14-21.38,6.95,0,0,32.89-12.29,31.41-16.82-.79-2.44-17.5,7-17.88,5.81-.09-.26,18.47-4.25,17.85-6.14-.3-.93-17.77,5.77-17.77,5.77"/><path class="cls-3" d="M219.84,147.8c-.51-1.59-23.36,11.43-24.49,7.95-1.51-4.64,36.64-13.18,36.35-14.07-.87-2.7-62.83,20.41-62.83,20.41-1.39-4.28,67.57-18,65.64-23.92-.75-2.29-76.38,24.86-76.39,24.82-3.84-11.83,93.08-20.72,89.61-31.4-1.2-3.69-113.71,44.12-115.82,37.64-3.27-10.06,113.66-42.14,112.6-45.39-.61-1.88-12.12,5-12.42,4,0,0,20.3-7.72,19.41-10.46-.22-.67-16.72,5.59-16.77,5.45-.49-1.53,18.15-14.69,17.61-16.34-.09-.26-3.89,2.74-4.32,1.4-.18-.55-.58-10.91-.69-11.23,0-.11-11.13,3.9-11.22,3.65-.19-.61,1.26-5.49,1.16-5.77-.2-.63-5.56,2.29-5.7,1.85,0,0,8.05-7.12,7.72-8.13,0-.16-8.56,4.7-9.12,3-.2-.61.73-6.65.51-7.33-.32-1-8.5,3.21-8.63,2.8s5-5.5,4.88-6c-.68-2.1-11.93,5.15-12.31,4-.25-.77,11.15-7.56,10.8-8.62,0,0-27,9.39-27.21,8.84s12.93-9.13,12.31-11C209.38,70.4,182.8,84.14,182.44,83c-.65-2,18.39-12.34,18.19-13-.78-2.39-25,9.07-25.27,8.21-.83-2.56,30.06-17.89,29.56-19.44-.27-.83-20.57,7.36-20.77,6.75C183.56,63.76,204,48.91,204,48.91c-.12-.37-6.43,3.86-7,2.26-.12-.35,7-6.79,6.71-7.57-.38-1.19-8.38,3.86-8.71,2.83-.48-1.47,16.43-9.49,15.84-11.3,0,0-10,4.26-10.3,3.35l-1.09-3.42c-.2-.61-12,4.07-12,3.91-.42-1.29,15-4,14.52-5.52-.24-.72-7.28,3.81-7.71,2.5-.7-2.17,14.76-11.11,14.18-12.89-.05-.15-16.63,5.4-16.63,5.4-.53-1.62,10.44-8,9.95-9.55-.3-.92-9.94,4.67-10.36,3.36-.65-2,14.82-3.19,14.24-5,0-.13-18.47,7.56-18.93,6.15s9.75-6.57,9.74-6.59c-.12-.38-3,1.78-3.26,1.06s4.85-4.74,4.66-5.3c-.34-1-14.88,6.13-15.26,5-.22-.7,16.07-7.23,15.67-8.46,0-.09-15.32,5-15.32,5-.54-1.69,10.12-11.14,9.5-13.07-.87-2.65-54.24,24.18-56.16,18.25-.11-.34,40.3-19.11,40-20.17C176.2-1,161.55,5.3,161.13,4"/><path class="cls-3" d="M190.09,221.57c-.32-1-4.5,1.54-4.53,1.47-.57-1.76,18.59-13.53,18.13-14.95-1.73-5.33-35.29,16.83-36.86,12-.43-1.31,39.39-13.47,39.31-13.71-1-3.14-40.55,15.93-41.36,13.44s41.87-18.71,40.59-22.63c-.29-.89-18.2,6.39-18.34,6-.48-1.47,21.46-9.88,21.07-11.09-.29-.9-19.18,7.54-19.56,6.36-.68-2.09,15.64-8.94,15.64-8.94-.16-.49-11,4.88-11.39,3.7,0-.11,12.57-8.83,12-10.75-.35-1.06-12.9,5.32-13.23,4.3-.42-1.3,8.59-8.79,8.59-8.79,0-.15-.8,1.8-1.25.41-.14-.44,11.21-3.16,11-3.89s-13.66,4.44-13.66,4.44c-.11-.32,5.11-7.27,5-7.57,0-.1-9.21,3.29-9.3,3-.59-1.83,10.53-11.25,10.39-11.66-.3-.92-7.58,3.65-7.92,2.58-.62-1.89,11.18-9.08,11.18-9.08s-16,6.08-16.29,5.29c-.08-.25,11.4-4.26,10.9-5.79-.44-1.34-10.38,3.37-10.38,3.37"/><text class="cls-4" transform="translate(61.41 319.89)"><tspan class="cls-5">R</tspan><tspan class="cls-6" x="27.67" y="0">e</tspan><tspan x="54.9" y="0">act</tspan></text><g class="cls-7"><path class="cls-8" d="M451.2,224.91c-35.81,0-71.62-.07-107.43.09-3.74,0-4.64-.9-4.63-4.64q.18-107.87,0-215.73c0-3.74.9-4.64,4.64-4.63Q451.66.18,559.53,0c3.74,0,4.64.9,4.64,4.64q-.2,107.87,0,215.72c0,3.75-.9,4.66-4.64,4.64C523.42,224.84,487.31,224.91,451.2,224.91ZM480.92,194c0,2.09-.09,4.42-.06,6.28.07,4.36,1.29,6.14,5.09,7.28,13.33,4,26.78,5,40.34,1.62,10.64-2.67,19.56-8.54,22.29-19.41,4.61-18.31.11-29.42-14.7-38.49-1.53-.93-3-1.9-4.62-2.77-6.29-3.45-12.93-6.3-18.84-10.43-2.7-1.89-5.36-3.84-5.67-7.61-.49-6.13,3.81-11,10.83-11.84,9.3-1.15,18.24,0,26.54,4.61,2.42,1.34,3.87,1.41,3.84-2-.05-5.24-.05-10.49.13-15.72.08-2.3-1-3.17-3-3.72-14.16-4-28.37-4.86-42.42.2-11.51,4.14-18.76,12.2-20.13,24.64s2.49,22.84,13.29,29.85c4.63,3,9.67,5.37,14.53,8,4.59,2.51,9.48,4.52,13.42,8.09,6.68,6.06,5,14.59-3.44,17.73a23.34,23.34,0,0,1-7.49,1.33c-9.74.31-18.68-2-26.55-7.95-.8-.6-1.65-1.71-2.71-1.16s-.67,1.87-.68,2.89C480.9,188.34,480.92,191.19,480.92,194Zm-32.49-28.46c0-14.22.07-28.44-.06-42.66,0-3,.75-4.27,4-4.11,5.23.25,10.48.06,15.72.06,9.35,0,9.35,0,9.35-9.44,0-10.79,0-10.79-10.66-10.79-22.31,0-44.62.07-66.93-.07-3.28,0-4.56.77-4.31,4.23a107.58,107.58,0,0,1,0,12.57c-.12,2.79.92,3.61,3.63,3.55,6.88-.15,13.79.22,20.66-.15,4.08-.22,4.92,1.13,4.9,5-.17,27.55,0,55.1-.2,82.64,0,4.26,1.25,5.33,5.23,5.05a102.86,102.86,0,0,1,14.37,0c3.75.28,4.4-1.23,4.36-4.57C448.33,193.13,448.43,179.36,448.43,165.58Z"/></g><path class="cls-9" d="M481,183.29c0,.27,3.12.24,3.11.38-.06.44-7.78,5.13-7.89,6-.63,5.18,67.2,3.23,66.59,8.18-.59,4.77-63.85-3.56-64.35.54-.56,4.56,64.8,5,64.44,7.91-.58,4.7-54.61-2.85-55.19,1.87-.23,1.85,25.82,1.33,25.6,3.14"/><path class="cls-9" d="M529.47,119.73c-.06.44,19.17,1.83,19.11,2.35s-6.41.51-6.45.81,3.54.21,3.51.43"/><path class="cls-9" d="M518.73,98.73c-.15,1.25,19,.87,18.81,2.31-.45,3.7-45,10-45.26,12.42-.45,3.62,56,2.52,55.5,6.81-.49,4-62-7.31-62.65-1.94-.16,1.26,23.23.92,23,2.83-.18,1.48-24-.84-24.23,1-.12,1,20.71.91,20.51,2.52-.15,1.17-26.5-1.58-26.68-.1-.22,1.74,32.29,2.24,32.08,3.94-.28,2.23-27.32,4.6-27.58,6.72-.19,1.56,36,1.68,35.65,4.38-.28,2.32-27.55,7.64-27.82,9.81-.34,2.74,49.52,1.31,48.94,6-.45,3.71-52.31-8-52.83-3.84-.34,2.82,62.68,4.24,62.26,7.64-.58,4.71-53.06-5.79-53.51-2s48,2.05,47.49,5.83c-.11.94-14.91,12.71-15.09,14.21s26.95,1.18,26.69,3.28c-.3,2.4-32.36,3.56-32.65,5.88-.21,1.73,20.61.79,20.4,2.5-.26,2.11-30.86-.15-31.19,2.47s35,1.57,34.66,4.26"/><path class="cls-9" d="M417.43,119.2c-.13,1.09,33.73,2.85,33.57,4.12-.19,1.56-25.2-1.33-25.33-.2s22.83,1.62,22.69,2.78-16,3.85-16.18,5.12c-.12.95,19.57.27,19.32,2.37-.24,1.92-25.65,3.12-25.83,4.58s22.66,1.69,22.53,2.77c-.18,1.49-28.39,11.31-28.59,12.92-.23,1.82,24.85,1.55,24.67,3s-17.33-2.64-17.49-1.37,15.21.75,15.08,1.86-12.52,13.44-12.68,14.7c-.18,1.5,14.29.13,14.09,1.73-.15,1.22-19.56,3.41-19.71,4.65-.22,1.79,29.63,2,29.43,3.61-.18,1.48-29.13,3-29.38,5-.2,1.66,29.55,2.31,29.4,3.61-.3,2.4-27.08,1.32-27.27,2.9-.17,1.35,16.69.2,16.47,2-.08.58-11.55,6.41-11.69,7.55s25.5,1.14,25.26,3.1-37.87-.34-38.09,1.43c-.14,1.17,26.44,2,26.29,3.22-.2,1.64-25.4-3.33-25.64-1.38-.08.61,12.57.86,12.49,1.53"/><path class="cls-9" d="M464.48,98.75c-.08.64,7.36.15,7.27.89-.68,5.52-69.05,5.85-69.5,9.44-.59,4.82,76,3.55,75.28,9.25-.62,5.07-78.68-10.84-79.52-4-.31,2.55,50.4,2.24,49.92,6.13-.37,3-49.13-6.26-49.59-2.51,0,.4,6.21.1,6.13.76"/><path class="cls-10" d="M536.45,100.85c-.18,1.46,29.19,2,29,3.56-.15,1.27-29.24-5.6-29.48-3.58s20.78,1.2,20.61,2.54c-.08.67-12.52,9.57-12.69,10.91-.13,1.08,23.58,2,23.48,2.88-.23,1.88-26-1.46-26.25.51-.18,1.48,27.49,2.23,27.36,3.36-.17,1.32-20.69.84-20.9,2.61-.1.81,20.67,1.1,20.49,2.52"/><path class="cls-10" d="M519.81,118.63c-.16,1.32,10.75-.09,10.58,1.3-.22,1.73-26.06,9.72-26.33,11.88-.38,3.08,55,1.72,54.39,6.68-.44,3.62-42.27,4.13-42.49,5.91-.34,2.75,48.06,2.42,47.63,5.85-.18,1.48-18.15,15.71-18.29,16.84-.12,1,22.19,1.42,22,2.71s-13.67,14.33-13.9,16.23c-.16,1.3,9.07-.16,8.92,1.09-.09.71-12.93,8.4-13.06,9.47s14,.38,13.88,1.71-16.76,2.61-16.95,4.15c-.14,1.16,14.78.44,14.61,1.79-.19,1.55-19.11-2.24-19.24-1.17s25,.89,24.76,3c-.33,2.71-32.17-4.11-32.41-2.17-.18,1.47,32.17,2.61,32,3.93-.44,3.59-55.51-.41-56,3.12-.36,3,48.08,3,47.73,5.86"/><path class="cls-10" d="M478,182.82c-.38,3.08,46.62,2.39,46.22,5.67-.23,1.91-24.53-.6-24.78,1.42-.15,1.2,9.74.18,9.62,1.18"/><path class="cls-10" d="M477.34,100.3c-.24,1.94,16.1,1,16,2s-20.3,2.61-20.53,4.46c-.12.94,14.63.87,14.52,1.78s-12.37,6-12.48,6.91c-.07.51,15.47,1.56,15.43,1.89-.45,3.64-41.87,2.68-42.32,6.34-.31,2.46,33.72,1.71,33.42,4.1-.25,2.07-39.69,3.75-39.93,5.66-.32,2.62,41.33,3.31,41.12,5-.35,2.78-31.28,4.43-31.56,6.71-.24,2,30.57,1.64,30.32,3.72-.17,1.39-28-4.88-28.18-3.29-.35,2.86,38.63,2.91,38.41,4.71-.27,2.21-43.06,4.31-43.29,6.17-.35,2.91,62.64,3.23,62.1,7.63-.48,3.89-63.38.73-63.89,4.89-.62,5,78.67,2.88,77.85,9.56-.74,6.06-75.5,3-75.9,6.23-.23,1.85,31.44,1.57,31.16,3.83-.24,1.92-31.47,2.8-31.64,4.19-.26,2.06,39.66,3.41,39.49,4.85s-35.6-1.21-35.86.87c-.29,2.4,24.64.39,24.32,3-.27,2.16-46.88,5.93-47.28,9.18-1,8.2,119.36,8,118.55,14.55"/><path class="cls-10" d="M408.3,118.17c-.05.41,18.45,1.78,18.39,2.25-.15,1.24-19.83-2.25-19.94-1.35s17.84,1.25,17.72,2.17"/><path class="cls-10" d="M553.48.14c-.07.56,5.65,0,5.57.69-1.4,11.46-144.62-7.35-145.53.1-1.17,9.47,153.8,7.51,152.42,18.72-1.6,13-201.69-36.84-203.84-19.28-1.21,9.83,203.13,9.73,201.29,24.72-1.67,13.6-219.25-40-221.31-23.2C341,10.91,564.52,14.15,562.69,29c-1.23,10-225-37.34-226.59-24.64-2,16.25,234.93,12.62,233,28.6-2.2,18-226-35-228.13-17.91-1.39,11.33,232,8.55,229.6,28.2C568.34,61.1,345.68,11.84,343.62,28.59,342.22,40,565.68,36,563.28,55.56c-2,16-223.81-43.13-226-25.1C335.84,42,571.16,45,569.45,59,567,79.31,341.17,19,339.18,35.22,337.13,51.91,561.7,45.91,559.69,62.29c-1.22,9.94-216.22-26.52-218.16-10.71-1.56,12.68,228.65,9,226.34,27.79C565.8,96.16,338.8,44.67,336.81,60.88,334.87,76.64,559.15,72.34,557.24,88,555.41,102.8,339.4,49.3,337.12,67.85c-2.24,18.28,228.19,9.65,226,27.74s-215.34-44.77-217.6-26.4c-1.93,15.69,225.88,16.87,224.57,27.57C567.54,117.24,342.8,65,340.83,81.1c-1.54,12.53,157.1,6.29,155.53,19.09-1.54,12.55-159.61-11.67-160.42-5.1-.35,2.87,66.73,5.23,66.37,8.15s-65.27.23-65.64,3.22c-.48,3.91,60,4.72,59.65,7.32-.53,4.35-51.34-3.4-51.85.72-.83,6.75,79,4.74,78.42,9.63-.51,4.18-84.54-.47-85.37,6.27-.54,4.43,84.94,4.46,84.22,10.34-.44,3.59-82.65-14.1-83.34-8.47-.43,3.51,81,5.63,80.51,9.88-.57,4.65-72.9-4.72-73.46-.17-.64,5.23,86.61,3.66,85.76,10.53-.81,6.67-85.08-14.77-85.75-9.32-.88,7.21,86.76,7.09,86.33,10.6-.79,6.45-97.37-5.18-98.06.4-.77,6.29,98,8.5,97.6,12-1,7.82-97.29-8.9-97.88-4.07-.47,3.86,90.37,4.79,89.61,11-.75,6.06-76.13,1-76.93,7.53s77.21,2.6,76.37,9.38c-.45,3.69-78.19-.46-78.88,5.11-.71,5.81,79.94,4.83,79.33,9.74-.77,6.32-88.39-16.17-89.29-8.87-.84,6.87,96.76,6.53,96.11,11.8-.47,3.89-93.69-10-94.24-5.49-1.68,13.68,181.25,8.32,179.56,22.05-.9,7.32-178.2-27.38-179.13-19.76-.85,6.85,169.69,8.56,168.21,20.65-1.74,14.17-169.9-21.92-170.8-14.53-1.07,8.67,121.34,8.59,120.57,14.8-1.2,9.77-118.65-11-119.69-2.57-.1.84,18,1.45,17.87,2.19"/><text class="cls-4" transform="translate(324.28 323.44)"><tspan class="cls-11">T</tspan><tspan class="cls-12" x="31.5" y="0">ypeScri</tspan><tspan class="cls-13" x="205.62" y="0">p</tspan><tspan x="231.35" y="0">t</tspan></text><g class="cls-1"><path class="cls-14" d="M776.8,115.76q0,16.3,0,32.61c0,.54,0,1.08-.06,1.62l-40.12,0a37.19,37.19,0,0,1-16.8-5.48c-12.43-8-18.57-19.55-17.86-34.33a37.36,37.36,0,0,1,32.2-34.82c.8-.11,1.61-.2,2.41-.3l40.22,0,0,.07q0,15.9,0,31.8c0,.56-.2,1.17.2,1.69A43.52,43.52,0,0,0,776.8,115.76Z"/><path class="cls-15" d="M776.75.06c1.45,0,2.89,0,4.33,0,11,0,22.08,0,33.12,0a37.48,37.48,0,0,1,4.06,74.75c-.44,0-.89.15-1.33.22a57,57,0,0,0-6.91.22c-.42-.41-.94-.21-1.41-.21q-9.52,0-19.05,0l-12.84.06,0-.07Q776.76,37.52,776.75.06Z"/><path class="cls-16" d="M776.75.06q0,37.47,0,74.92l-40.22,0c-2.47-.48-5-.73-7.42-1.4A37.53,37.53,0,0,1,734,.37,33.39,33.39,0,0,1,739,0Q757.49,0,776,0C776.22,0,776.49.05,776.75.06Z"/><path class="cls-17" d="M736.57,150l40.12,0c0,.45.06.9.06,1.35q0,17.85,0,35.71a37.45,37.45,0,0,1-30.26,37.2c-20.42,4.25-41-10.08-44.16-30.7a37.44,37.44,0,0,1,29.85-42.9C733.63,150.35,735.11,150.18,736.57,150Z"/><path class="cls-18" d="M810,75.21a57,57,0,0,1,6.91-.22,39,39,0,0,1,12.13,3.07c13,6.06,20.66,16.13,22.36,30.41,2.29,19.29-10.95,36.92-29.89,40.81-19.79,4.06-40-9.19-44-29-.3-1.5-.52-3-.77-4.52a43.52,43.52,0,0,1,.16-7.22C778.43,91.47,792.71,77.07,810,75.21Z"/></g><path class="cls-19" d="M771.33,75c-.07.39,5.45.41,5.36.94-.87,4.91-49.63,3.48-50,5.45-1.21,6.86,56.65,5.2,55.83,9.84-.59,3.35-83,1.86-84,7.74-1.91,10.85,75.69,3,73.92,13-1.58,9-61.58-16.53-63.06-8.14-.84,4.74,70.2,11.45,70,12.35-2,11.43-77.52-8.51-78.62-2.27-1.26,7.12,81.59,3.86,79.79,14.07-1.14,6.51-75.75-16.4-76.93-9.71-1.48,8.42,67.07,11,66.91,11.8-.23,1.35-58.43,2.65-58.81,4.82-.06.3,63.35,10.63,63.26,11.15-.55,3.09-58.83-9.55-59.3-6.88-.92,5.19,68.7,7.48,67.9,12-.73,4.16-58.49-7.83-59.13-4.21-.39,2.22,23.7,3.09,23.51,4.15"/><path class="cls-20" d="M813.88.38c-.22,1.22,8.78-.17,8.48,1.49-.68,3.88-38.76,5.82-39,7.38-1.52,8.6,71.16,6.54,70.14,12.36-.58,3.27-81.12,2.32-82.13,8.07-2,11.1,77.36,3.11,75.56,13.32-1.6,9.07-62.34-16.77-63.84-8.27-.83,4.75,70.3,11.47,70.14,12.37-2,11.27-76.48-8.25-77.57-2.09-1.16,6.58,75.8,3.63,74.13,13.07-1.07,6.06-70.5-15-71.6-8.76-1.33,7.54,59.29,9.66,59.15,10.43-.23,1.31-57.26,2.89-57.63,5,0,.22,45,7.53,44.9,7.91-.41,2.32-44.26-6.29-44.62-4.29-.57,3.27,44.58,5,44.08,7.77-.59,3.33-46.89-5-47.4-2.07-.12.67,12,1.78,12,2.11"/><path class="cls-21" d="M771.07,0c-.07.42,5.75.44,5.65,1C775.86,6,727,4.5,726.69,6.48c-1.21,6.87,56.7,5.2,55.88,9.85-.59,3.34-83,1.86-84,7.74-1.91,10.85,75.64,3.05,73.88,13-1.58,8.95-61.54-16.52-63-8.13-.84,4.73,70.09,11.43,69.93,12.33-2,11.42-77.48-8.51-78.58-2.27-1.26,7.12,81.58,3.86,79.78,14.07-1.15,6.5-75.73-16.4-76.91-9.7-1.48,8.41,67.05,10.94,66.9,11.79-.24,1.34-58.27,2.69-58.65,4.85,0,.3,63.21,10.61,63.12,11.13-.55,3.08-58.81-9.55-59.28-6.88-.91,5.15,68.23,7.43,67.45,11.89-.73,4.14-58.26-7.87-58.9-4.27-.4,2.31,24.39,3.16,24.2,4.27"/><path class="cls-22" d="M771.24,150c-.07.4,5.56.42,5.47,1-.87,4.9-49.6,3.48-49.94,5.45-1.21,6.86,56.61,5.19,55.79,9.84-.59,3.34-82.94,1.86-84,7.74-1.91,10.84,75.61,3,73.85,13-1.58,8.95-61.51-16.51-63-8.13-.83,4.73,69.9,11.4,69.74,12.3-2,11.39-77.28-8.45-78.38-2.23-1.21,6.84,78.59,3.74,76.86,13.55-1.1,6.26-72.84-15.62-74-9.18-1.39,7.89,62.41,10.18,62.27,11-.22,1.24-53.74,3.65-54.09,5.65,0,.22,46.72,7.83,46.65,8.22-.39,2.22-42.44-5.89-42.78-4-.61,3.47,47.17,5.23,46.64,8.23-.47,2.63-37.15-2.71-37.56-.42s23.28,3,23.09,4.08"/><path class="cls-23" d="M814.26,75.39c-.21,1.18,8.3-.21,8,1.41-.49,2.8-26.85,8.37-27,9.49-1.26,7.16,59.16,5.43,58.3,10.28-.57,3.25-80.59,2.45-81.6,8.16-1.94,11,76.74,3.09,75,13.21-1.59,9-62.12-16.7-63.61-8.23-.83,4.74,70.09,11.43,69.93,12.33-2,11.15-75.66-8-76.73-1.94-1.15,6.5,75,3.6,73.33,12.93-1,5.9-68.67-14.5-69.74-8.43-1.29,7.32,57.42,9.35,57.29,10.1-.18,1-43.33,5.87-43.61,7.49,0,.16,30.91,5.17,30.86,5.44-.2,1.16-22.11-1.35-22.29-.35-.25,1.45,21.93,2.57,21.71,3.82-.31,1.73-24-5.57-24.22-4.06-.38,2.16,23.36,3,23.18,4.08"/><text class="cls-4" transform="translate(704.32 323.44)">Figma</text><g class="cls-7"><path class="cls-24" d="M1142.24,166.58q-19.77,0-39.52,0c-.81,0-1,.21-1,1,.06,1.94.06,3.88,0,5.82,0,.71.2.86.88.86q18.84,0,37.68,0c5.1,0,10.21,0,15.31,0,.76,0,.91.21.9.93,0,3.76-.09,7.52,0,11.28q.18,7.19.14,14.37a15.36,15.36,0,0,1-3.18,9.13c-3.16,4.31-7.54,7-12.34,9.11a63.76,63.76,0,0,1-13.05,3.89A65.57,65.57,0,0,1,1121,224c-2.56.26-5.13.47-7.7.68-5.5.44-11,.29-16.49.26-1.86,0-3.74-.12-5.59-.31-3.07-.31-6.15-.61-9.2-1.1a87.48,87.48,0,0,1-10.13-2.21,51.87,51.87,0,0,1-6.54-2.33,39.6,39.6,0,0,1-8.75-5.13,26.77,26.77,0,0,1-6.3-7,20.43,20.43,0,0,1-2.86-8,7.73,7.73,0,0,1-.08-3.58,2.56,2.56,0,0,0,0-.83c0-17.06-.1-34.11.06-51.16a26.37,26.37,0,0,1,5.6-16.38,27.8,27.8,0,0,1,13.86-9.22,38.06,38.06,0,0,1,8.4-1.7c1-.1,2.09-.13,3.13-.13,18.36,0,36.72,0,55.08,0a31.91,31.91,0,0,0,15.3-3.68,25.82,25.82,0,0,0,8-6.73,33.61,33.61,0,0,0,6.36-14.55,39.51,39.51,0,0,0,.71-7.69c0-8.43,0-16.86,0-25.29,0-.77.22-1,1-1,5.83,0,11.65.11,17.47,0A23.84,23.84,0,0,1,1194,59.74a28.89,28.89,0,0,1,8.42,6.74,43.53,43.53,0,0,1,7.82,13.74,70.45,70.45,0,0,1,3.32,13c.45,2.73.74,5.47,1,8.22a119.44,119.44,0,0,1,.44,15.13c-.1,3.28-.38,6.56-.76,9.83a72.42,72.42,0,0,1-3.08,14.37,45.1,45.1,0,0,1-5,10.64,36.41,36.41,0,0,1-5.19,6.45,30.4,30.4,0,0,1-15.76,8.2,31.45,31.45,0,0,1-5.73.49Zm-9.29,41.1c5.37-.24,9.78-3.94,9.83-10a9.82,9.82,0,0,0-19.64-.18A9.86,9.86,0,0,0,1133,207.68Z"/><path class="cls-25" d="M1061.76,58.43h39c1.57,0,1.35.09,1.35-1.4,0-1.75,0-3.51,0-5.26,0-1.15,0-1.15-1.15-1.16h-53c-.44,0-.67-.18-.66-.64,0-.3,0-.61,0-.91,0-7.82.06-15.65,0-23.46a17.43,17.43,0,0,1,1-6.74,19.05,19.05,0,0,1,5.39-7.37c5.78-5,12.77-7.28,20-8.94a94.5,94.5,0,0,1,10.72-1.7,158.58,158.58,0,0,1,20.9-.79c3.78.09,7.56.33,11.33.75a99.39,99.39,0,0,1,12,2c6.49,1.55,12.66,3.86,18,7.89a23.5,23.5,0,0,1,9.32,13.71,16.18,16.18,0,0,1,.44,3.54c0,17.25,0,34.49,0,51.74a31,31,0,0,1-3.38,14.83,25.61,25.61,0,0,1-12.43,11.29,39.6,39.6,0,0,1-10.66,3,56.51,56.51,0,0,1-7.7.2c-3.58,0-7.15,0-10.72,0h-13l-10.39,0c-5.43,0-10.86-.12-16.29,0a38.4,38.4,0,0,0-14.51,2.66A26.31,26.31,0,0,0,1044.67,123a37,37,0,0,0-4.46,14,24.91,24.91,0,0,0-.21,3.23q0,13.4,0,26.79c0,1.06,0,1.09-1,1.09-5.76,0-11.53,0-17.29,0a25.14,25.14,0,0,1-15.72-5.38A35.21,35.21,0,0,1,995.6,149.5a63.1,63.1,0,0,1-5-16c-.65-3.57-1.07-7.16-1.37-10.77s-.48-7.24-.44-10.86a96.38,96.38,0,0,1,2.79-23.91,47.58,47.58,0,0,1,8.35-17.57,30.69,30.69,0,0,1,24.65-12C1037,58.45,1049.37,58.43,1061.76,58.43Zm9.1-41.1a9.87,9.87,0,1,0,9.9,9.81A9.83,9.83,0,0,0,1070.86,17.33Z"/></g><path class="cls-26" d="M1137.34,189.54c-.28,1.63,22.67,3.48,22.58,4-.28,1.58-18.14,13.13-18.45,14.87-.23,1.31,5.22-1,4.89.86"/><path class="cls-26" d="M1150.55,174.3c-.12.67,6,.73,5.89,1-1.08,6.12-51.09-6.43-51.94-1.6-1,5.76,47.28,7.3,47.1,8.3"/><path class="cls-26" d="M1177.69,56.65c-.32,1.81,19.6,2.4,19.42,3.43-.12.66-30.32.9-30.94,4.42-.09.5,37.56,2.88,36.92,6.51-.95,5.4-40-7.65-40.22-6.27-1.06,6,37.71,5.23,37.47,6.61-.5,2.84-36-7.1-36.23-6-.42,2.35,49,3.28,48.09,8.48,0,.13-53.62-4.52-54.85,2.47s51.14,1.86,49.92,8.8c-.61,3.42-38.69,11.52-39.1,13.84,0,.21,44.68,6.79,44.5,7.85-.77,4.33-56-7.07-57.5,1.22-.07.36,67.81,3.93,66.44,11.72-1.68,9.56-71.7-12.25-72.39-8.33-1.31,7.4,59.92,4.38,58.86,10.38,0,0-55.1-12.5-55.88-8.09-1.7,9.61,62,9.24,61.71,10.88-3.3,18.75-146-9.94-147-4.17-.15.87,142.8,11.37,140.44,24.76-2,11.67-155.47-34-159.61-10.54-.42,2.37,149.9,19.89,148.78,26.24-2.34,13.27-150.42-17.62-152.27-7.15-1.72,9.79,72.36,9.24,71.76,12.65-1.41,8-66.29,5.85-66.32,6-.87,5,110.25,9.05,108.48,19.13-.85,4.77-115-19.74-116.56-10.7-1.82,10.35,76.51,7.62,75.51,13.32-1.07,6-67-17.86-68.09-11.61-.86,4.91,76,5.32,74.66,13.17-1.54,8.77-76.79-23.77-78.68-13-1.38,7.81,74.9,9,74.18,13.08-1.46,8.3-65.6,4.72-66.31,8.78-.55,3.11,92,14.3,91.68,16.16-1.41,8-87-7.49-87.45-4.77-.21,1.17,56.12,2.6,54.87,9.67-.88,5-39.59-6.3-39.86-4.75-.23,1.29,26.06,1.77,25.58,4.51"/><path class="cls-27" d="M1154.1,74.85c0,.06,5.12.74,5.1.9-.36,2-17.41,2.75-17.51,3.37-.24,1.31,19.34,2.18,19.13,3.37-.16.91-19,2.87-19.21,3.85s7.92.21,7.71,1.36c-.55,3.13-41.18,7.25-41.85,11s30.32,4.61,30.2,5.32c-.27,1.53-32.71-1.51-33.16,1.06-.2,1.09,25.55,3.6,25.39,4.48-.83,4.73-36.63-3.7-36.83-2.55,0,.07,16.21,2.25,16.1,2.84"/><path class="cls-27" d="M1161.91,69.57a7,7,0,0,0,1.44.26c0,.06-3.92.69-3.95.91s8.38,1.37,8.37,1.47c-.07.38-11.8-.08-12,.92,0,.08,7,1.2,6.94,1.22"/><path class="cls-27" d="M1100.66,51.35c-.87,5,59.41,8.88,59.14,10.42-1.46,8.29-122.18-11.33-123.79-2.24-1.47,8.35,100.92,5.7,98.86,17.43-.36,2-122.93-32.81-125.52-18.1-2,11.27,129.64,7.63,127,22.4,0,.12-134.69-22.63-136.11-14.59-.3,1.75,116,2.59,113,19.91-.49,2.83-114.65-11.61-116.76.36-.37,2.11,99,8.46,97.48,17.19-2.08,11.79-111.13-3.33-112,1.56-.1.55,69.07,7.62,68.29,12-1.43,8.11-58.87,2.51-59.85,8.06-.73,4.17,48.35,7.86,48.24,8.5-.59,3.32-44.4,2.8-45.14,7-.93,5.24,54.31,3,53.19,9.38-.55,3.1-45.44.56-46,3.46-.86,4.89,42.32,4.61,41.83,7.37-.43,2.43-29,1.48-29.54,4.44,0,.11,4.69.12,4.57.81"/><path class="cls-27" d="M1082.36,20.11c-1.59,9,71.09,8.22,70.35,12.4-1.62,9.18-76.58-6.23-77.85,1-1.64,9.27,77.06,11.92,76.78,13.53,0,0-72.12-10.37-72.14-10.29-1.67,9.47,75.56,6.84,74.45,13.13-1.65,9.35-80-23.07-81.68-13.3-1.61,9.11,91.56,11.07,90.69,16"/><path class="cls-27" d="M1107.26-.08c-.62,3.52,32.51,3.67,32.16,5.67-.25,1.4-65.12-9.31-66.43-1.84-.18,1,78.64,6.54,77.39,13.65-2,11.1-82-16.57-82.51-13.73-2.1,11.91,80.24,11.33,79.75,14.07-1.09,6.22-78.91-16-79.33-13.61-.83,4.71,93,5.66,91.16,16.08,0,.25-111.56-22.56-114.13-8-2.7,15.28,109.1,3.68,106.44,18.77-1.42,8-96.41-1.89-97.37,3.56-.08.43,100.18,15.45,99.8,17.6-1.41,8-103.49-22.71-106.19-7.36,0,.2,40.15,2.65,39.4,7-1,5.35-40.33-4.94-40.72-2.75-.16.93,2.47-.34,2.34.42,0,0,3.16.68,3.11.93-.15.85.71,0,.69.12"/><text class="cls-4" transform="translate(1018.59 323.44)">Python</text><g class="cls-28"><path class="cls-29" d="M1539.52,225q-111.46,0-222.93,0c-1.64,0-2-.37-2-2q.06-111.46,0-222.93,111.11,0,222.23,0c2.21,0,2.73.52,2.73,2.73Q1539.48,113.84,1539.52,225Zm-52-122.81a36.74,36.74,0,0,0-9.59.73c-11.08,2.41-19.27,8.46-22.07,19.77s-.44,21.79,8.67,30c5.37,4.82,11.9,7.62,18.41,10.44,4.69,2,9.56,3.75,13.68,6.87,6.51,4.93,5.52,13.63-1.9,17.05a21.1,21.1,0,0,1-12,1.33c-7.1-1-12.15-5.09-15.9-11-.78-1.21-1.31-1.54-2.67-.71-4.69,2.85-9.43,5.59-14.22,8.26-1.24.7-1.21,1.22-.58,2.32A36.74,36.74,0,0,0,1461.09,200c11.22,7.35,23.59,8.84,36.42,6.21,21.29-4.37,27.85-21.35,23.09-38.53-2.21-8-8-13-14.84-17.15-6.1-3.67-12.75-6.16-19.19-9.08a28.48,28.48,0,0,1-7.89-4.68c-2.94-2.73-3.57-6.17-2.56-9.86s3.68-5.53,7.28-6.13c6.63-1.11,11.57,1.48,14.95,7.15.75,1.25,1.27,1.6,2.63.68q6.64-4.47,13.48-8.65c1.32-.8,1.16-1.39.48-2.5C1508.67,107.25,1499.42,102.35,1487.53,102.15Zm-50.4,39.42c0-12.08,0-24.16,0-36.23,0-1.61-.34-2.12-2-2.09-5.63.12-11.27.13-16.91,0-1.83,0-2.28.44-2.27,2.27q.09,34.14,0,68.29a37.49,37.49,0,0,1-.39,5.9c-.55,3.56-2,6.57-5.68,7.95a12.94,12.94,0,0,1-15.27-4.41,40.94,40.94,0,0,1-2.85-4.41c-.56-1-1-1.14-2-.51q-7.35,4.56-14.82,8.95c-1.07.63-1,1.17-.47,2.07a31.85,31.85,0,0,0,13.56,13.93c8.86,4.54,18.22,5.05,27.75,2.81,10.39-2.43,17-8.93,19.89-19.2a44.15,44.15,0,0,0,1.44-11.95Z"/></g><path class="cls-30" d="M1511.61,109.75c-1.34,3.88,22.8,7.48,22.68,7.81-.39,1.14-21,8.06-21.1,8.32-.24.7,21.93,4.85,21.1,7.26-.27.8-23.48-6.87-24-5.39-1.19,3.43,24.7,6.18,24,8.26-.1.31-26.24-9-27.26-6.09-1.14,3.31,28.47,5.87,27.26,9.38-.33,1-27.41-10.17-27.81-9-1.2,3.47,28.22,8.39,27.81,9.58"/><path class="cls-30" d="M1490.14,122.46s.21-.31.09,0c-.41,1.19-9.14,7.88-9.26,8.24-1.38,4,53.32,18.36,53.32,18.36-.36,1-51.65-21.9-53.38-16.89-2.66,7.74,53.78,17.23,53.38,18.38-.7,2-9.45,15.19-9.62,15.68-.25.73,9.71,3.09,9.64,3.31s-7.27,4.42-7.42,4.87c-.48,1.4,7.76,1.57,7.42,2.56-.08.24-7.37-2.23-7.38-2.21s7.47,2.3,7.38,2.54c0,0-6.94,5.66-7.26,6.58-.48,1.4,7.29,2.44,7.27,2.51-.1.29-11.8,9.15-12.14,10.15-.81,2.35,13,1.75,12.15,4.18-.55,1.6-19.09,1.73-19.38,2.56-.15.44,19.82,5.43,19.39,6.67-.95,2.77-29.11-4.8-30-2.27-1.59,4.62,30.52,8.76,30,10.32-1.28,3.71-47-11.16-47.76-9-.82,2.41,42.92,8,40.84,14.06"/><path class="cls-30" d="M1472.5,179.84c-.16.45,16.78,4.15,16.28,5.61,0,.1-10.92-.35-11.1.17-.49,1.41,3.57.33,3.3,1.13"/><path class="cls-30" d="M1442.39,106.8c-.29.84,13.39,2.62,12.78,4.4-.24.7-12.5-2.11-12.78-1.29,0,.1,12,1.25,11.09,3.82,0,0-11,14.18-11.12,14.47s7.62,1.19,7.18,2.47c-.19.54-7.18,8.79-7.18,8.8-.53,1.54,10.64,3.66,10.64,3.66s-10.16,14.39-10.64,15.77c-1.19,3.45,55.6,11.71,53.31,18.36-.21.61-53.09.34-53.33,1,0,0,7.32.55,6.72,2.31-.16.47-6.84.46-6.86.52s4.23-.31,3.69,1.27c-.14.41-4.32,3.63-4.38,3.79-.53,1.54,4.15.33,3.81,1.31,0,.09-3.9-.75-4-.53-.2.61,4.73,1.57,4.71,1.62s-7.31,5.73-7.41,6c-3.62,10.5,85.31,21.27,82.82,28.52-3.55,10.3-89.22-28.9-93-18-1.4,4.06,53.29,15,52.26,18,0,0-50.78-23.92-52.94-17.64-2.29,6.67,51.22,17.64,51.22,17.64s-69.46-20.09-71.55-14c-2,5.73,41,13.11,40.68,14"/><path class="cls-30" d="M1397.54,181.5c-.38,1.11,9.94,1.25,9.27,3.19-.2.59-5.36,1.46-5.52,1.94s.15-.42,0,0"/><path class="cls-30" d="M1500.65,1.86c-1.33,3.87,34.81,8.33,33.69,11.6C1533.62,15.55,1455-6,1452.28,1.89c-3.06,8.89,83.88,22.93,82,28.25-3.76,10.91-115.24-42.58-120.17-28.25-.47,1.35,120.16,41.38,120.16,41.38-6.64,19.28-165-61.95-172.1-41.38-4.4,12.79,173.75,54.43,172.09,59.26-4.7,13.63-214.52-57.71-214.52-57.71-9.3,27,222,52,214.51,73.87C1532.76,81.8,1321,5.49,1319.8,9.09,1312,31.84,1543,57.66,1534.31,83c-1.37,4-214.51-63.49-214.51-63.49-7.6,22.07,214.52,73.87,214.52,73.87-2.25,6.53-207.19-94-214.52-72.73-5.48,15.93,214.52,73.86,214.52,73.86-3.55,10.29-211.22-71-214.51-61.5-3.87,11.26,218.31,62.84,214.52,73.86,0,0-213.81-57.65-214.5-55.65-5.39,15.64,148.44,51.11,148.44,51.11s-144.85-51.61-148.43-41.21c-.06.18,137.75,47.43,137.75,47.43-1.08,3.14-133-51.83-137.75-38.13-3.15,9.17,94.78,21.6,91.38,31.46-2.63,7.65-88.39-38.81-91.37-30.13-2.86,8.3,92.44,26.84,90.91,31.3,0,0-90-22.07-90.91-19.28-1.16,3.38,95.22,18.74,90.9,31.3-2.79,8.08-90.51-20.41-90.9-19.27l90.92,31.3c0,.12-89.37-17-90.93-12.49-.13.39,94.45,21.09,90.93,31.31-.7,2-90.34-26.09-90.93-24.37-3.31,9.62,92.93,25.5,90.93,31.3-1.21,3.52-88.58-19.53-90.93-12.7-2.93,8.51,91.68,29.07,90.91,31.3-1.26,3.68-88.49-22.06-90.91-15s62.49,21.52,62.49,21.52c-1.54,4.48-61.91-22.19-62.49-20.49-3.07,8.89,63.41,15.35,61.42,21.15-1.44,4.18-61.43-9.3-61.43-9.3-.55,1.6,51.53,10,49.16,16.93-1.21,3.5-47.19-12.89-49.16-7.16,0,0,62.74,11.87,59.74,20.57-2.18,6.34-57.92-10.05-59.75-4.73-1,2.93,84.61,21.08,82.13,28.28-2.22,6.45-80.51-16.77-82.14-12-1.76,5.13,36.15,8.71,35,12"/><text class="cls-4" transform="translate(1397.33 323.44)">JS</text><g class="cls-1"><path class="cls-31" d="M1812.76,74c-.25-.07-.41-.1-.56-.16-4.53-1.57-9.12-3-13.77-4.17a.72.72,0,0,1-.63-.73c-.19-1.56-.38-3.11-.63-4.66a73.67,73.67,0,0,0-3.09-11.89A76.77,76.77,0,0,0,1784.37,33a48.64,48.64,0,0,0-12.13-12.32,35.15,35.15,0,0,0-14.42-5.88,33.68,33.68,0,0,0-8.15-.36A58.53,58.53,0,0,0,1724,22.68a39.78,39.78,0,0,0-11.17,10.07,80.35,80.35,0,0,0-14.53,31.5,81.46,81.46,0,0,0-1.55,9c-.29,2.7-.5,5.42-.61,8.15-.13,3.06-.19,6.13-.12,9.19.06,2.7.32,5.39.53,8.08a95.07,95.07,0,0,0,1.59,10.88,109.72,109.72,0,0,0,6.51,21.26,117,117,0,0,0,6.86,13.72c.08.15.18.29.25.44a.64.64,0,0,0,.71.36c.81-.08,1.63-.16,2.45-.16a16.79,16.79,0,1,1-16.55,20.13,16.39,16.39,0,0,1,1.59-11.1,1.59,1.59,0,0,0,0-1.77,143,143,0,0,1-12.9-29.36,122.33,122.33,0,0,1-3.94-16.67c-.45-2.78-.79-5.58-1.06-8.39-.24-2.52-.31-5-.48-7.58a78.65,78.65,0,0,1,.09-9.34c.15-3.25.49-6.49.94-9.72a117.53,117.53,0,0,1,5.39-22.09,82.5,82.5,0,0,1,8.54-17.85,71.66,71.66,0,0,1,20.88-21.31,61.73,61.73,0,0,1,20.51-8.78,57,57,0,0,1,7-1.11,54.53,54.53,0,0,1,6.64-.26,51.13,51.13,0,0,1,12.83,2,57.71,57.71,0,0,1,23.44,13.48,70.22,70.22,0,0,1,13.66,17.7,90.73,90.73,0,0,1,9.27,25.47c.73,3.45,1.26,6.93,1.69,10.42.19,1.51.3,3,.44,4.54A1.7,1.7,0,0,1,1812.76,74Z"/><path class="cls-31" d="M1768,215.78c4.61-3.53,9.13-6.95,13.36-10.75l1.77.75a77.07,77.07,0,0,0,16.46,4.65,65.49,65.49,0,0,0,13.26,1,48.37,48.37,0,0,0,19-4.36,42.63,42.63,0,0,0,17.09-14.6,43.15,43.15,0,0,0,6.14-12.24,39.71,39.71,0,0,0,1.56-8.45,40.75,40.75,0,0,0-.06-6.72,48,48,0,0,0-2.5-11.42,77.2,77.2,0,0,0-12.94-23.14,87.55,87.55,0,0,0-18.68-17.11,116.87,116.87,0,0,0-31.82-15.52,112.08,112.08,0,0,0-15.12-3.54,90.3,90.3,0,0,0-9.12-1.06c-2.7-.15-5.4-.33-8.09-.39-2,0-4,.1-6,.17l-.29,0a1,1,0,0,0-1,.71,15.43,15.43,0,0,1-2.52,3.87,16.3,16.3,0,0,1-10.42,5.59,16.79,16.79,0,1,1,12.07-25.36c.63,1,.63,1,1.83.92a6.19,6.19,0,0,1,.86,0c3.45,0,6.91,0,10.36.16,2.76.12,5.53.41,8.29.67a122.86,122.86,0,0,1,15.82,2.64,120.73,120.73,0,0,1,41,17.66,115.63,115.63,0,0,1,22.85,20.48,87,87,0,0,1,10.42,14.86,73.4,73.4,0,0,1,7.93,21.95,57.86,57.86,0,0,1,1,8.4c.07,2,.17,4,.09,5.93a47.41,47.41,0,0,1-15.45,34.81,67.25,67.25,0,0,1-30.93,16.65,72.73,72.73,0,0,1-10,1.7,74,74,0,0,1-10.84.29,89,89,0,0,1-29.1-6.44c-1.84-.73-3.65-1.54-5.46-2.32C1768.55,216.07,1768.34,216,1768,215.78Z"/><path class="cls-31" d="M1668.74,105.76c.23,1,.45,1.9.66,2.84.88,3.85,1.88,7.68,3.07,11.45,0,.12.07.23.11.35a.61.61,0,0,1-.25.75c-.56.43-1.11.87-1.64,1.32a74.53,74.53,0,0,0-17.4,20.75,50.66,50.66,0,0,0-5.83,15.89,40.33,40.33,0,0,0-.65,6.11c-.36,11.22,3.42,21,10.27,29.72a36.61,36.61,0,0,0,13.06,10.24,47.61,47.61,0,0,0,13.85,4.23,54.72,54.72,0,0,0,7.11.72c2.42.06,4.83.18,7.24.1a80,80,0,0,0,21.1-3.65,95.78,95.78,0,0,0,16.5-7,145.55,145.55,0,0,0,18.17-11.33A100.27,100.27,0,0,0,1778.4,163a98,98,0,0,0,5.59-9.55c.37-.72.37-.72-.16-1.3a16.78,16.78,0,1,1,16,5.1,2.36,2.36,0,0,1-.63.13c-.87,0-1.25.46-1.6,1.18A119.31,119.31,0,0,1,1773.13,192a114.48,114.48,0,0,1-23.93,17.56A125.15,125.15,0,0,1,1715,222.29c-2.94.64-5.91,1.18-8.89,1.61a75.59,75.59,0,0,1-13.28.64,71.81,71.81,0,0,1-27.08-6,55.11,55.11,0,0,1-18-12.51,47.58,47.58,0,0,1-9.78-15.86,62.81,62.81,0,0,1-3.47-13.34,64.25,64.25,0,0,1-.57-13.29,66.41,66.41,0,0,1,5.38-22.69,77.46,77.46,0,0,1,14.7-22.24,101,101,0,0,1,14.08-12.46l.42-.29S1668.59,105.8,1668.74,105.76Z"/></g><path class="cls-32" d="M1812.72,73c0-.12-1.42.68-1.49.48-.37-1.13-2.43-9.32-2.75-10.33-.17-.51-5,2.18-5.2,1.69-.42-1.27,4.93-11.54,4.74-12.1-.28-.87-14.5,5.21-14.64,4.76-.48-1.47,18.57-13.1,17.88-15.23-.14-.43-17.5,7.39-18,5.85-.21-.65,16.39-4.42,16.06-5.44-.13-.37-12.89,5.94-13.41,4.35-.31-1,5.4-9.83,5-10.9-.58-1.79-6.85,3.87-7.33,2.39-.35-1.07,6.3-11.09,5.78-12.7-.25-.77-13.77,4.56-13.8,4.49-.2-.62,5.27-11.21,4.7-13-.14-.4-21.07,7.48-21.25,6.91-.7-2.15,15.21-5.75,15.2-5.78s-12.48,5.08-12.78,4.15c-.9-2.76,18.94-11.38,18.59-12.45-.77-2.38-22.24,7.79-22.41,7.28-.07-.23-2.51-10.35-2.61-10.66-2.09-6.46-60,28.05-62.51,20.31-.63-1.94,49.63-18.78,47.53-25.25-1.5-4.6-41.09,16.88-42.13,13.69-1.82-5.59,40.64-15.17,40.14-16.71-.19-.58-19.24,8.5-19.9,6.47"/><path class="cls-32" d="M1731.07,173.35c-.34-1-23.39,7.63-23.4,7.6-.14-.45,31-14.44,29.73-18.37-.75-2.31-29.68,12.82-30.61,9.95s27.86-16.07,27.06-18.53c-.89-2.74-32.53,15.4-33.95,11-.31-.94,29.61-16.5,29.56-16.68-1.13-3.48-29.08,10.18-29.3,9.52s23.66-9.49,23-11.35c-.1-.3-27.52,12.4-28.54,9.27-.52-1.6,21.63-7.79,20.91-10s-9.33,4.59-9.79,3.18,5.5-8.91,5-10.55c-.07-.22-17,6.44-17.24,5.6-.43-1.33,13-12.17,12.76-12.86-.45-1.37-20.88,7-21,6.81-.55-1.69,10.4-13.34,10.34-13.49s-.72,1.92-1.22.4c0-.05,12.35-3.4,12-4.56-.61-1.86-12.88,4.94-13.1,4.26-.36-1.11,9.94-1.94,9.5-3.32-.1-.31-11.36,4.69-11.66,3.78-.46-1.41,12.81-12.69,12.28-14.3-.19-.58-23.42,9.83-24.07,7.82-.37-1.15,25.74-12.6,25.19-14.31-.1-.3-23.69,7.83-23.73,7.71-.66-2,9.26-12.64,8.66-14.49-.13-.39-8.47,4.51-9,2.92-.25-.77,15.76-12.61,15.41-13.69-.14-.42-7.42,4.62-8.07,2.62-.25-.79,12.4-12.32,12.15-13.1-.54-1.68-12.39,6.19-13,4.23-.17-.53,6.44-8.11,6.21-8.84-.07-.19-12.89,5.16-13.18,4.28s18.6-6.57,18.28-7.56-14.28,6.2-14.74,4.79c-.17-.54,18.23-6.19,17.43-8.64-.39-1.2-24.57,10.23-25.23,8.19-1-2.91,29.16-12.41,28.17-15.46-.2-.59-17.46,7.61-18,5.86-.74-2.29,22.48-6,21.56-8.87-.68-2.08-27.86,9.38-28,9.08-1.35-4.14,27.26-13.28,26.39-16-.69-2.11-17.83,8.47-18.62,6.05-.18-.57,25-9.19,23.74-13-.3-.92-27.16,9.89-27.47,8.93-1.39-4.27,38.9-16.51,37.09-22.09-1-3-32,10.5-32.06,10.42-.47-1.44,35.21-15.25,35.12-15.54-1.06-3.26-20.58,10.68-21.76,7.06"/><path class="cls-32" d="M1751.65,98.1c-.19-.58-21.8,8.29-22.16,7.2-.44-1.36,22.52-7.27,22-9-.82-2.51-26,10.77-26.71,8.67-.8-2.46,20.11-8.39,20-8.64-.29-.89-21.5,8.92-22.06,7.17"/><path class="cls-32" d="M1816.47,211.44c-.83-2.56-29.94,14.5-31.34,10.19-.44-1.34,3.37-11,3-12.2-.27-.85-13.84,5.39-14.1,4.59-.36-1.09,7.74-7.57,7.59-8.05-.06-.19-4.08,1.44-4.11,1.34"/><path class="cls-32" d="M1846.26,215c-.71-2.16-34.79,11.38-34.81,11.31-.25-.77,55.89-19.44,53.71-26.16-1.75-5.39-66.46,29-68.64,22.3s76-27.68,74-33.78c-.59-1.82-22.38,10.49-23.33,7.58-.27-.83,25.66-15.24,25.61-15.4-.71-2.17-18.84,6.58-19,6.17s17.81-8.06,17.34-9.49c-.07-.22-21.61,9.5-22.34,7.25-.5-1.55,20.92-7.63,20.23-9.76-.62-1.9-6.65,3.48-7,2.29-.64-2,11.5-10.12,10.75-12.43-.08-.23-17.28,6.56-17.56,5.7-.5-1.53,15.89-13,15.63-13.79-.44-1.38-20.91,7.05-21,6.82-.58-1.79,11.45-13.67,11.4-13.83s-.89,2-1.4.45c0,0,12.52-3.43,12.14-4.6-.61-1.89-13,5-13.27,4.31-.37-1.13,10.12-2,9.66-3.38-.1-.31-11.52,4.76-11.82,3.84-.44-1.34,11.72-12.42,11.22-14-.19-.59-23.72,10-24.39,7.93-.35-1.1,24.33-12.24,23.81-13.86-.11-.31-24,7.94-24.09,7.83-.52-1.6,4.16-11.41,3.68-12.88-.13-.4-8.86,4.69-9.39,3.06-.19-.59,10.49-11.18,10.22-12-.15-.45-8,4.92-8.71,2.83-.18-.55,5.58-10.39,5.41-10.92-.59-1.82-13.62,6.78-14.31,4.65-.11-.35,1-6.62.89-7.11-.07-.22-14.92,6-15.24,5-.27-.82,18.91-6.65,18.58-7.66-.41-1.28-16.45,7.14-17,5.52-.16-.5,17-6,16.26-8.27-.46-1.39-27,11.41-27.79,9s23.42-11.14,22.6-13.65c-.23-.71-20.54,9-21.23,6.9-.76-2.34,23.06-6.13,22.11-9-.82-2.53-31.24,10.55-31.36,10.19-1-3,18.6-11.29,18-13.23C1815,88,1794,101.09,1793,98.07c-.15-.44,18.84-8.13,17.88-11.09-.38-1.16-31.93,11.71-32.32,10.5-.75-2.3,18.15-12.62,17.17-15.62-1.27-3.93-39.33,12.9-39.36,12.8-.22-.69,11.57-14.06,11.52-14.2-1.75-5.4-39.28,19.38-41.22,13.4-1-3.13,21.06-14.82,20.21-17.45-1.15-3.53-24.73,12.25-26,8.44,0-.07,26.36-13.62,25.34-16.78-.44-1.34-20.41,9-21.09,6.85-.46-1.41,11.31-4.59,11.13-5.13-.3-1-10.32,4.12-10.55,3.42"/><path class="cls-32" d="M1804.73,154.75c-.32-1-24.46,10.48-25.2,8.19-.08-.23,25.94-11.1,25.42-12.69-1-3-27.73,10.8-28.26,9.18-1.68-5.17,40-7.9,38.34-12.85-.16-.51-27,12.83-28.19,9.16-.89-2.74,19.88-6,19.07-8.46-1.33-4.11-22.74,11.84-24,7.81-.81-2.47,38.46-15.6,38-17.12s-30.3,12-30.93,10.05c-.82-2.5,19.47-13.8,18.86-15.68-1.35-4.14-26.92,9.12-27,8.78-1.4-4.29,30.34-10.3,29.66-12.38-1.22-3.76-33.82,12.22-34.18,11.11-1.26-3.88,26.55-13,26.32-13.64-.16-.5-24.65,10-25.23,8.2-.33-1,17.1-6.88,16.3-9.32-.44-1.38-12.54,5.26-12.89,4.19"/><path class="cls-32" d="M1706.91,209.69c-.9-2.76-32.43,15.67-33.94,11-.41-1.27,2-10.66,1.68-11.77-.24-.73-10.68,4.23-10.91,3.54-.33-1-.43-9.92-.57-10.37-.33-1-16.51,5.93-16.68,5.41-.42-1.3,16-12.49,15.33-14.39-.15-.45-18,7.62-18.54,6-.22-.66,16.88-4.54,16.54-5.59-.13-.39-13.39,6.17-13.93,4.52-.3-.92,4.56-9.61,4.23-10.63-.56-1.73-6.37,3.65-6.83,2.22-.37-1.14,7.53-11.37,7-13.08-.22-.7-12.3,4.06-12.32,4-.25-.77,10.09-12.28,9.37-14.49-.11-.34-18.84,6.66-19,6.17-.63-1.92,13.6-5.22,13.59-5.25s-10.19,4.18-10.45,3.39c-1-3.22,22.69-12.4,22.28-13.65-.62-1.92-19,6.64-19.17,6.23s11-14.52,10.85-15c-.46-1.42-5.09,3.53-5.65,1.83-.24-.76,16.08-12.21,15.25-14.76-.7-2.15-18.72,7.73-19.2,6.24-2-6.2,42.19-22.65,41.64-24.36-.23-.72-23.69,10.47-24.51,8-.09-.29,24.86-12.57,23.86-15.66-.25-.76-22.74,8.63-23.11,7.51-.12-.39,18.26-9.82,17.91-10.91-.1-.29-9,2.93-9,2.91"/><path class="cls-32" d="M1748.08,211.23c-.94-2.88-42.11,13.78-42.14,13.69-.32-1,71.91-22.64,69.14-31.17-2.26-6.95-85.11,37.22-87.92,28.57-2.92-9,102-33.95,99.41-42-1-3.08-36.36,17.25-38,12.33-.45-1.37,44.69-21.31,44.61-21.57-1.09-3.35-28,9.81-28.25,9.17-.28-.87,29.7-11,29-13.25-.11-.34-29.23,13.23-30.32,9.85-.74-2.27,31.11-9.87,30.1-13-.92-2.81-13.67,6.4-14.24,4.63-.89-2.72,21.3-7.19,20.26-10.39-.11-.35-24.22,9.31-24.64,8"/><text class="cls-4" transform="translate(1680.85 323.44)"><tspan class="cls-5">R</tspan><tspan x="27.67" y="0">edux</tspan></text></g></g></svg>