<svg xmlns="http://www.w3.org/2000/svg" viewBox="0 0 225 341.13"><defs><style>.cls-1{font-size:55.45px;fill:#fff;font-family:KyoboHandwriting2019, "Kyobo Handwriting 2019";}.cls-2{letter-spacing:-0.01em;}.cls-3,.cls-4{fill:none;stroke-linecap:round;stroke-linejoin:round;stroke-width:5px;}.cls-3{stroke:#21c897;}.cls-4{stroke:#fff;}</style></defs><g id="레이어_2" data-name="레이어 2"><g id="레이어_1-2" data-name="레이어 1"><text class="cls-1" transform="translate(49.95 323.44)"><tspan class="cls-2">v</tspan><tspan x="30.89" y="0">elog</tspan></text><path class="cls-3" d="M110.52-.8c-.24,1.38,40.33,4.75,39.93,7s-76.28-4.55-77.09,0c-.09.52,117.31,16.27,116.55,20.55C189.74,27.78,65.14.36,63.4,10.26,63.11,11.88,188.85,18.85,186.54,32,185.78,36.29,53.2,7.82,52.07,14.23c0,.21,147.56,9,144.64,25.51C193.09,60.27,40.36,18.44,39.21,25,37.8,33,215.27,40.39,212.59,55.55c-1.52,8.66-177-37-179.3-23.79-3.7,21,184.72,6.69,180.29,31.79C208.89,90.16,30.36,21.65,26.7,42.42,23.93,58.15,224.23,68.55,222.74,77,222,81.34,19,33.2,15.43,53.65,10.53,81.47,223.8,86.88,223.2,90.28c-.06.3-203.91-32.66-204.38-30-.3,1.69,211.35,11.56,207,36.49C223.65,108.85,7.62,59.16,6.23,67.07c-3.88,22,215.63,37,215.46,38-5.5,31.21-210-38.63-211.71-29C6.06,98.27,229,102.75,227,114.31,221.33,146.39,5.18,55.78.23,83.85c-.78,4.43,226,17.83,222.22,39.19C221.5,128.45,3.87,83.47,2.25,92.62c-1,5.58,218.69,26.89,216.7,38.21C215.56,150,.49,86.11-1.28,96.14c-1.19,6.73,228.09,7.34,222.47,39.23-2.82,16-221.32-36.8-222.88-27.91-1.73,9.82,216.81,37.39,216.67,38.2-3,17-206.5-56.2-211.19-29.6-.35,2,214.68,7.18,209.44,36.93-5,28.56-206-50.43-210.51-24.58-.09.49,216.28,14.13,212.18,37.41C213.32,174.74,6.15,117.69,3.44,133.1c-4,22.6,207.21,34.4,206.84,36.47-.91,5.16-196.61-43.36-200.14-23.37,0,.17,196.91,27,195.59,34.49-1.19,6.75-196.11-39.83-198.08-28.62-1.86,10.52,191.14,20.73,188.92,33.32-2.7,15.31-182.84-41.56-186-23.57C6.76,183.34,195,172.42,191.26,193.69c-1.1,6.23-177.52-33.4-178.91-25.51-.58,3.31,175.12,9.23,171.41,30.23C181.61,210.6,18.68,172,17.38,179.33c-2.52,14.3,161.86,18,160.05,28.22-2.19,12.43-141.81-30.61-143.8-19.3C33,192,173.91,199.2,171.55,212.57c0,.09-128.11-26.77-130.4-13.81-2.72,15.42,111.62,16.29,111,19.58-1.6,9.09-90-7.93-90.6-4.52-1.13,6.4,56,6.38,55.36,9.76"/><path class="cls-4" d="M84.78,67.08s16.34,2.66,16.3,2.88c-.38,2.19-28.26,2.2-28.37,2.78-.38,2.18,33.72,4,33.39,5.89-.37,2.06-53.44-2.91-53.55-2.27-1,5.44,53,7.22,52.64,9.28-.78,4.39-41.95-4.19-42.53-.94-.21,1.19,5.81-.55,5.54,1"/><path class="cls-4" d="M78.89,87.5c-.1.59,23.11,2.75,22.89,4-.63,3.57-27.64-.39-27.84.73-.53,3,37.8,3.2,37.2,6.56-.11.63-27.57.3-27.79,1.55-.67,3.79,23-.11,22.26,3.93-.34,2-28.09-1-28.79,2.89-.27,1.54,32.08,4.13,31.82,5.61-.72,4-28.18,4.07-28.32,4.9-.29,1.66,27.53,3,27.23,4.8-.25,1.4-21.32,7.66-21.6,9.23-.57,3.25,29.1,4.66,29,5.12-.44,2.5-23.7,7-24.08,9.18-.57,3.24,26.19.82,25.54,4.5s-26.72-.51-26.93.67c-.39,2.21,38.68,5.35,38.43,6.77-.2,1.12-31.81,2.42-31.84,2.6-.79,4.49,24.07,2.18,23.72,4.18-.17,1-29.08,4.35-29.85,8.69-.16.93,14.08,1.24,13.87,2.44"/><path class="cls-4" d="M143.18,66.89c-.1.57,20.73,2.69,20.57,3.63S131.34,76.36,131,78.37c0,.16,42.65,6.09,42.41,7.48,0,.25-33.67-2.93-34.13-.28-.06.33,22.85,1.23,22.38,3.94-.12.69-21.17,1.2-21.35,2.21,0,0,24.13,1.72,23.69,4.18-.54,3.09-21.8,8.15-22,9.14-.14.79,22.65,2.43,22.38,3.94-.2,1.14-23.16,2-23.46,3.7s16.33.66,15.95,2.81c-.5,2.84-17.75,6.4-18.14,8.62-.2,1.12,15.79,2.16,15.68,2.76s-25.18,6-25.64,8.7c-.31,1.75,14.52,2.34,14.49,2.55,0,0-11.6,3.83-11.63,4s9.6.13,9.34,1.65c-.24,1.33-23.69,3.94-23.84,4.81-.24,1.31,12.94,2.22,12.93,2.28"/></g></g></svg>