<?xml version="1.0" encoding="UTF-8"?>
<svg id="_레이어_2" data-name="레이어 2" xmlns="http://www.w3.org/2000/svg" xmlns:xlink="http://www.w3.org/1999/xlink" viewBox="0 0 1340 741">
  <defs>
    <style>
      .cls-1 {
        fill: #19bcfd;
      }

      .cls-2 {
        fill: #222328;
      }

      .cls-3 {
        fill: #cd6799;
      }

      .cls-4 {
        fill: #fff;
      }

      .cls-5 {
        fill: #3d79aa;
      }

      .cls-6 {
        fill: url(#_무제_그라디언트_30-3);
      }

      .cls-7 {
        fill: #a259ff;
      }

      .cls-8 {
        fill: #ff9a00;
      }

      .cls-9 {
        fill: #e01e5a;
      }

      .cls-10 {
        fill: #00a9ff;
      }

      .cls-11 {
        fill: #61dafb;
      }

      .cls-12 {
        fill: #09cf84;
      }

      .cls-13 {
        fill: #2fb67e;
      }

      .cls-14 {
        fill: #f7df1e;
      }

      .cls-15 {
        fill: #007acc;
      }

      .cls-16 {
        fill: #001834;
      }

      .cls-17 {
        fill: #ecb22d;
      }

      .cls-18 {
        fill: url(#_무제_그라디언트_30-4);
      }

      .cls-19 {
        fill: url(#_무제_그라디언트_30-2);
      }

      .cls-20 {
        fill: #f24d1d;
      }

      .cls-21 {
        fill: #ffdf5a;
      }

      .cls-22 {
        fill: url(#_무제_그라디언트_30);
      }

      .cls-23 {
        fill: #36c5f1;
      }

      .cls-24 {
        fill: #ff7163;
      }

      .cls-25 {
        fill: #390000;
      }

      .cls-26 {
        fill: #1c1e23;
      }
    </style>
    <linearGradient id="_무제_그라디언트_30" data-name="무제 그라디언트 30" x1="561.4" y1="679" x2="561.4" y2="583" gradientUnits="userSpaceOnUse">
      <stop offset="0" stop-color="#9e30eb"/>
      <stop offset="1" stop-color="#fbb1fc"/>
    </linearGradient>
    <linearGradient id="_무제_그라디언트_30-2" data-name="무제 그라디언트 30" x1="652.76" y1="677.56" x2="652.76" xlink:href="#_무제_그라디언트_30"/>
    <linearGradient id="_무제_그라디언트_30-3" data-name="무제 그라디언트 30" x1="744.12" x2="744.12" xlink:href="#_무제_그라디언트_30"/>
    <linearGradient id="_무제_그라디언트_30-4" data-name="무제 그라디언트 30" x1="808.51" y1="677.56" x2="808.51" xlink:href="#_무제_그라디언트_30"/>
  </defs>
  <g id="_레이어_1-2" data-name="레이어 1">
    <image width="1720" height="920" transform="translate(455 256) scale(.25)" xlink:href="자산 2@4x-8.png"/>
    <rect class="cls-26" x="455" width="200" height="230" rx="30" ry="30"/>
    <rect class="cls-26" x="685" width="200" height="230" rx="30" ry="30"/>
    <rect class="cls-26" x="910" width="430" height="285" rx="30" ry="30"/>
    <rect class="cls-26" x="910" y="311" width="430" height="430" rx="30" ry="30"/>
    <rect class="cls-26" y="448" width="430" height="293" rx="30" ry="30"/>
    <rect class="cls-26" width="430" height="423" rx="30" ry="30"/>
    <rect class="cls-26" x="455" y="511" width="430" height="230" rx="30" ry="30"/>
    <g>
      <path class="cls-4" d="m517.05,194.46h6.38c3.89,0,5.96,2.37,5.98,5.62-.01,3.25-2.11,5.6-6.02,5.6h-3.28v5.74h-3.05v-16.97Zm5.91,8.72c2.3-.01,3.33-1.3,3.33-3.09s-1.03-3.07-3.33-3.07h-2.86v6.16h2.86Z"/>
      <path class="cls-4" d="m531.98,216.14v-2.39c.36.04.87.04,1.27.05.73-.01,1.34-.06,1.85-1.43l.26-.68-4.64-12.98h3.16l2.95,9.61h.14l2.95-9.61h3.16l-5.11,14.27c-.73,2.03-2.06,3.22-4.45,3.23-.6-.01-1.16-.02-1.55-.07Z"/>
      <path class="cls-4" d="m551.31,201h-2.51v6.61c0,1.22.61,1.46,1.36,1.48.35.01.94-.02,1.31-.05v2.44c-.35.06-.93.13-1.69.12-2.25.01-3.98-1.1-3.96-3.49v-7.1h-1.83v-2.3h1.83v-3.05h2.98v3.05h2.51v2.3Z"/>
      <path class="cls-4" d="m556.88,211.43h-3v-16.97h2.93v6.4h.16c.57-1.44,1.82-2.32,3.77-2.32,2.64,0,4.38,1.71,4.38,4.78v8.11h-2.98v-7.64c-.01-1.73-.94-2.73-2.51-2.72-1.62-.01-2.77,1.05-2.77,2.91v7.45Z"/>
      <path class="cls-4" d="m567.43,205.12c0-3.96,2.38-6.59,6.09-6.59s6.11,2.62,6.09,6.59c.01,3.93-2.37,6.56-6.09,6.56s-6.09-2.64-6.09-6.56Zm6.12,4.17c2.04,0,3.06-1.86,3.05-4.2.01-2.33-1.01-4.21-3.05-4.2-2.07-.01-3.09,1.86-3.09,4.2s1.02,4.2,3.09,4.2Z"/>
      <path class="cls-4" d="m584.94,211.43h-3v-12.73h2.86v2.16h.16c.57-1.42,1.88-2.32,3.77-2.32,2.64,0,4.37,1.73,4.36,4.78v8.11h-2.98v-7.64c0-1.71-.93-2.73-2.48-2.72-1.58-.01-2.7,1.05-2.7,2.91v7.45Z"/>
    </g>
    <g>
      <path class="cls-4" d="m752.76,194.46h10.88v2.55h-7.83v4.64h7.08v2.55h-7.08v7.22h-3.05v-16.97Z"/>
      <path class="cls-4" d="m767.6,193.64c.95,0,1.73.73,1.73,1.62s-.79,1.63-1.73,1.64c-.95-.01-1.73-.74-1.73-1.64s.79-1.62,1.73-1.62Zm-1.52,5.06h3v12.73h-3v-12.73Z"/>
      <path class="cls-4" d="m771.77,212.57h2.98c.21,1.11,1.25,1.63,2.79,1.64,1.79-.01,2.95-.79,2.95-2.65v-2.44h-.14c-.47.94-1.49,2.11-3.68,2.11-2.94,0-5.25-2.13-5.25-6.28s2.32-6.42,5.27-6.42c2.24,0,3.19,1.35,3.66,2.25h.14v-2.09h2.95v12.94c0,3.26-2.52,4.83-5.95,4.83s-5.52-1.5-5.72-3.89Zm5.72-3.68c1.93,0,3.02-1.45,3.02-3.89s-1.08-4.02-3.02-4.03c-1.99.01-3.02,1.71-3.02,4.03s1.05,3.89,3.02,3.89Z"/>
      <path class="cls-4" d="m786.3,198.7h2.86v2.16h.16c.53-1.45,1.8-2.32,3.49-2.32s2.96.88,3.45,2.32h.14c.55-1.41,1.97-2.32,3.82-2.32,2.33,0,3.97,1.5,3.96,4.34v8.55h-2.98v-8.09c0-1.58-.96-2.3-2.18-2.3-1.46,0-2.32,1-2.32,2.44v7.95h-2.91v-8.2c-.01-1.32-.88-2.18-2.16-2.18s-2.34,1.07-2.34,2.65v7.73h-3v-12.73Z"/>
      <path class="cls-4" d="m811.19,204c.89-.07,2.71-.15,3.27-.18v-1.02c-.01-1.27-.82-1.99-2.31-1.99-1.34,0-2.16.61-2.39,1.52h-2.88c.21-2.17,2.16-3.8,5.34-3.8,2.41,0,5.2,1,5.2,4.38v8.51h-2.86v-1.76h-.09c-.56,1.08-1.75,2.02-3.75,2.02-2.43,0-4.27-1.32-4.27-3.84,0-2.86,2.38-3.69,4.73-3.84Zm.3,5.48c1.82,0,2.98-1.2,2.98-2.62v-1.04c-.55.02-2.21.13-2.81.18-1.42.12-2.32.71-2.32,1.83s.9,1.66,2.16,1.66Z"/>
    </g>
    <g>
      <path class="cls-4" d="m1118.17,256.77h-9.92v-1.73h3.97v-1.77h2.18v1.77h3.77v1.73Zm-4.89.63c2.42,0,4.16,1.31,4.17,3.22,0,1.93-1.75,3.2-4.17,3.2s-4.12-1.28-4.11-3.2c0-1.92,1.68-3.21,4.11-3.22Zm0,4.83c1.26,0,2.12-.62,2.12-1.61s-.86-1.57-2.12-1.57-2.07.59-2.06,1.57c0,.99.81,1.61,2.06,1.61Zm-2.03,2.42h2.18v1.49h7.49v-1.49h2.16v6.31h-11.83v-6.31Zm9.67,4.6v-1.45h-7.49v1.45h7.49Zm-2.65-8.43h2.63v-1.73h-2.61v-1.77h2.61v-3.91h2.18v10.55h-2.18v-1.4h-2.63v-1.75Z"/>
      <path class="cls-4" d="m1135.07,257.46h3.21v-4.05h2.18v9.53h-2.18v-3.71h-3.19c-.42,2-2.25,3.34-4.57,3.34-2.72,0-4.7-1.75-4.7-4.21s1.98-4.18,4.7-4.17c2.3,0,4.11,1.32,4.55,3.26Zm-4.55,3.26c1.49,0,2.57-.93,2.58-2.36,0-1.42-1.08-2.35-2.58-2.34-1.53,0-2.61.91-2.61,2.34s1.08,2.37,2.61,2.36Zm-1.77,3.05h2.16v1.89h7.37v-1.89h2.18v7.19h-11.71v-7.19Zm9.53,5.42v-1.85h-7.37v1.85h7.37Z"/>
    </g>
    <g>
      <path class="cls-4" d="m170.14,397.06l.14,1.43c-1.09.23-2.28.38-3.48.48v2.63h-2.1v-2.51c-1.32.05-2.56.06-3.54.05l-.22-1.6c2.38,0,6.3-.04,9.2-.48Zm-4.48-5.4c2.31,0,3.89.97,3.89,2.56s-1.58,2.58-3.89,2.58-3.91-1.01-3.91-2.58,1.57-2.56,3.91-2.56Zm0,3.64c1.17,0,1.94-.37,1.95-1.09,0-.71-.78-1.09-1.95-1.09s-1.92.38-1.93,1.09c0,.72.73,1.08,1.93,1.09Zm-1.73,6.94h2.16v1.32h8.12v-1.32h2.18v5.84h-12.46v-5.84Zm10.28,4.18v-1.24h-8.12v1.24h8.12Zm-6.07-6.94h2.83v-8.12h2.06v10.3h-2.06v-.72h-2.83v-1.45Zm8.25,2.19h-2.1v-10.62h2.1v10.62Z"/>
      <path class="cls-4" d="m199.45,406.22h-16.23v-1.77h16.23v1.77Zm-14.9-13.56h13.48v1.7h-2.59v5.49h2.54v1.68h-13.36v-1.68h2.5v-5.49h-2.55v-1.7Zm8.73,7.19v-5.49h-3.99v5.49h3.99Z"/>
      <path class="cls-4" d="m216.81,402.41h-16.23v-1.72h7.04v-1.51h-4.97v-4.58h9.98v-1.45h-10.04v-1.66h12.22v4.62h-10v1.43h10.36v1.64h-5.39v1.51h7.04v1.72Zm-14.15.95h2.2v3.22h10.34v1.72h-12.54v-4.94Z"/>
      <path class="cls-4" d="m217.98,404.46h16.23v1.74h-16.23v-1.74Zm14.45-2.69h-12.46v-9.37h12.3v1.72h-10.08v2.08h9.67v1.66h-9.67v2.23h10.24v1.68Z"/>
      <path class="cls-4" d="m243.57,395.83h1.42v-4.46h2.02v12.04h-2.02v-5.84h-1.43c-.37,2.01-1.96,3.37-4.01,3.36-2.37,0-4.08-1.76-4.07-4.27,0-2.55,1.7-4.28,4.07-4.29,2.08,0,3.69,1.38,4.03,3.47Zm-4.03,3.26c1.22,0,2.12-.93,2.14-2.44-.02-1.51-.92-2.48-2.14-2.48s-2.12.97-2.1,2.48c-.02,1.51.86,2.45,2.1,2.44Zm-.88,3.17h2.18v3.99h10.2v1.72h-12.38v-5.7Zm9.81-11.2h2.08v12.86h-2.08v-12.86Z"/>
      <path class="cls-4" d="m252.74,404.35h16.23v1.75h-16.23v-1.75Zm14.43-3.51h-12.46v-8.28h12.32v1.72h-10.16v4.86h10.3v1.7Z"/>
    </g>
    <g>
      <path class="cls-4" d="m142.35,717.5c-.02,2.28-2.02,3.88-4.72,3.89-2.71,0-4.72-1.61-4.72-3.89s2-3.88,4.72-3.89c2.69,0,4.7,1.62,4.72,3.89Zm-4.72,2.17c1.49,0,2.58-.84,2.59-2.17,0-1.31-1.1-2.15-2.59-2.14-1.49,0-2.59.83-2.59,2.14s1.1,2.17,2.59,2.17Zm-2.02,2.84h11.79v4.5h-9.61v1.39h10.14v1.68h-12.28v-4.63h9.57v-1.28h-9.61v-1.66Zm9.59-9.46h2.2v8.72h-2.2v-8.72Z"/>
      <path class="cls-4" d="m150.57,714.56h8.04v6.31h-5.82v3.62c2.64,0,4.77-.1,7.15-.52l.18,1.74c-2.64.45-5.02.54-8.08.55h-1.42v-7.11h5.84v-2.88h-5.9v-1.72Zm14.29,15.75h-2.18v-9.17h-3.05v-1.74h3.05v-6.35h2.18v17.26Z"/>
      <path class="cls-4" d="m167.36,726.35h16.23v1.75h-16.23v-1.75Zm15.58-4.96l-.98,1.77c-2.98-.6-5.41-2.36-6.57-4.67-1.17,2.3-3.61,4.06-6.57,4.67l-.96-1.77c3.67-.65,6.36-3.32,6.37-5.97v-1.28h2.32v1.28c0,2.66,2.68,5.34,6.41,5.97Z"/>
      <path class="cls-4" d="m184.75,726.46h16.23v1.74h-16.23v-1.74Zm14.45-2.69h-12.46v-9.37h12.3v1.72h-10.08v2.08h9.67v1.66h-9.67v2.23h10.24v1.68Z"/>
      <path class="cls-4" d="m216.37,721.3h-8.57v-7.17h8.57v7.17Zm-1.72,4.2h-5.06v-1.6h5.11v-1.51h2.2v1.51h5.13v1.6h-5.07c.2,1.34,2.34,2.79,5.74,3.13l-.75,1.62c-2.88-.3-5.06-1.39-6.14-2.82-1.09,1.45-3.3,2.52-6.2,2.82l-.75-1.62c3.41-.29,5.59-1.75,5.79-3.13Zm-.44-5.86v-3.83h-4.25v3.83h4.25Zm5.29-6.58h2.16v9.82h-2.16v-9.82Z"/>
      <path class="cls-4" d="m239.72,724.67l-1.34,1.7c-1.93-.94-3.31-2.77-4.07-4.96-.78,2.35-2.23,4.29-4.27,5.28l-1.34-1.7c2.86-1.32,4.49-4.62,4.5-7.8v-2.75h2.18v2.75c-.02,3.08,1.57,6.19,4.32,7.48Zm1.06-11.62h2.18v6.75h2.73v1.81h-2.73v8.68h-2.18v-17.24Z"/>
      <path class="cls-4" d="m257.52,721.66l-1.12,1.66c-2.01-.63-3.48-1.93-4.29-3.57-.8,1.78-2.31,3.2-4.41,3.91l-1.12-1.68c2.86-.92,4.38-3.15,4.4-5.42v-.5h-3.83v-1.7h9.77v1.7h-3.73v.5c0,2.15,1.51,4.24,4.34,5.09Zm-8.04,2.78h2.2v3.8h10.04v1.72h-12.24v-5.51Zm9.55-11.37h2.2v12.51h-2.2v-12.51Z"/>
      <path class="cls-4" d="m265.84,721.76v-5.71h-1.55v-1.7h9.45v1.7h-1.57v5.51c.67-.05,1.32-.1,1.95-.17l.1,1.54c-3.37.52-7.31.59-10.14.59l-.24-1.75c.62,0,1.3,0,2,0Zm1.18,3.04h2.2v3.43h9.93v1.72h-12.13v-5.15Zm3.05-3.14v-5.62h-2.1v5.68c.69,0,1.4-.04,2.1-.07Zm8.63,4.13h-2.18v-4.5h-2.52v-1.75h2.52v-1.64h-2.52v-1.72h2.52v-3.13h2.18v12.74Z"/>
      <path class="cls-4" d="m291.67,715.78h-3.73c.03,2.02,1.56,3.97,4.36,4.73l-1.1,1.66c-2.05-.59-3.54-1.84-4.34-3.43-.81,1.72-2.32,3.07-4.44,3.72l-1.1-1.66c2.84-.81,4.37-2.87,4.42-5.02h-3.83v-1.7h9.77v1.7Zm-7.43,7.38h2.16v1.77h7.41v-1.77h2.18v6.92h-11.75v-6.92Zm9.57,5.21v-1.79h-7.41v1.79h7.41Zm-.02-15.32h2.2v9.35h-2.2v-9.35Z"/>
    </g>
    <g>
      <path class="cls-4" d="m950.03,451.22l6-5.79c1.71-1.71,2.6-2.72,2.6-4.15,0-1.58-1.25-2.58-2.91-2.58-1.75,0-2.87,1.09-2.86,2.81h-2.91c-.01-3.21,2.4-5.3,5.79-5.3s5.8,2.07,5.81,4.92c-.01,1.91-.93,3.46-4.27,6.61l-3.02,3v.12h7.55v2.55h-11.79v-2.2Z"/>
      <path class="cls-4" d="m964.35,444.94c-.01-5.53,2.45-8.72,6.52-8.72s6.52,3.19,6.52,8.72-2.44,8.72-6.52,8.72-6.53-3.16-6.52-8.72Zm6.52,6.16c2.12-.01,3.45-2.09,3.45-6.16-.01-4.04-1.32-6.18-3.45-6.19-2.12.01-3.43,2.14-3.45,6.19,0,4.08,1.31,6.15,3.45,6.16Z"/>
      <path class="cls-4" d="m979.8,444.94c-.01-5.53,2.45-8.72,6.52-8.72s6.52,3.19,6.52,8.72-2.44,8.72-6.52,8.72-6.53-3.16-6.52-8.72Zm6.52,6.16c2.12-.01,3.45-2.09,3.45-6.16-.01-4.04-1.32-6.18-3.45-6.19-2.12.01-3.43,2.14-3.45,6.19,0,4.08,1.31,6.15,3.45,6.16Z"/>
      <path class="cls-4" d="m995.25,445.41c0-5.8,2.64-9.19,6.8-9.19,3.27,0,5.52,2.05,5.91,4.8h-3.02c-.3-1.3-1.34-2.17-2.88-2.16-2.46-.01-3.83,2.17-3.84,5.74h.16c.87-1.46,2.5-2.33,4.36-2.32,3.05-.01,5.4,2.3,5.39,5.51.01,3.38-2.51,5.88-6.26,5.86-3.32-.02-6.62-1.99-6.61-8.25Zm6.61,5.79c1.89-.01,3.29-1.46,3.3-3.33-.01-1.8-1.37-3.26-3.26-3.26s-3.35,1.51-3.38,3.28c.02,1.77,1.41,3.29,3.33,3.3Z"/>
      <path class="cls-4" d="m1010.14,451.79c-.01-.98.82-1.79,1.83-1.8.97.01,1.8.82,1.8,1.8s-.83,1.83-1.8,1.83-1.84-.82-1.83-1.83Z"/>
      <path class="cls-4" d="m1021.55,453.43h-3.07v-13.99h-.09l-3.96,2.53v-2.79l4.2-2.72h2.93v16.97Z"/>
      <path class="cls-4" d="m1032.69,453.43h-3.07v-13.99h-.09l-3.96,2.53v-2.79l4.2-2.72h2.93v16.97Z"/>
      <path class="cls-4" d="m1036.05,451.79c-.01-.98.82-1.79,1.83-1.8.97.01,1.8.82,1.8,1.8s-.83,1.83-1.8,1.83-1.84-.82-1.83-1.83Z"/>
      <path class="cls-4" d="m1041.74,444.94c-.01-5.53,2.45-8.72,6.52-8.72s6.52,3.19,6.52,8.72-2.44,8.72-6.52,8.72-6.53-3.16-6.52-8.72Zm6.52,6.16c2.12-.01,3.45-2.09,3.45-6.16-.01-4.04-1.32-6.18-3.45-6.19-2.12.01-3.43,2.14-3.45,6.19,0,4.08,1.31,6.15,3.45,6.16Z"/>
      <path class="cls-4" d="m1057.33,448.83h3.07c.08,1.36,1.44,2.26,3.21,2.25,1.86.01,3.21-1.02,3.21-2.53s-1.31-2.61-3.52-2.62h-1.52v-2.34h1.52c1.8,0,3.06-1.01,3.05-2.48.01-1.43-1.07-2.39-2.72-2.39s-2.96.89-3.02,2.32h-2.93c.07-2.85,2.66-4.8,5.98-4.8s5.67,2.11,5.65,4.71c.02,1.9-1.24,3.27-3.09,3.66v.14c2.39.32,3.75,1.85,3.73,3.98.02,2.87-2.66,4.95-6.33,4.95s-6.21-1.97-6.28-4.83Z"/>
    </g>
    <g>
      <path class="cls-4" d="m968.66,487.72h-8.44v6.8h-2.58v-6.8h-8.34v-2.06h19.36v2.06Zm-17.02-13.55h2.58v2.6h9.47v-2.6h2.62v9.28h-14.67v-9.28Zm12.05,7.17v-2.51h-9.47v2.51h9.47Z"/>
      <path class="cls-4" d="m982.85,483.59l-1.36,2.06c-2.34-.8-4.02-2.39-4.95-4.43-.94,2.25-2.68,4.01-5.16,4.88l-1.45-2.06c3.48-1.14,5.23-3.97,5.23-6.98v-2.41h2.62v2.44c-.02,2.78,1.73,5.44,5.06,6.52Zm-9.52,3.77h2.67v4.62h11.74v2.11h-14.41v-6.73Zm10.97-14.04h2.6v6.26h2.95v2.2h-2.95v7.1h-2.6v-15.56Z"/>
      <path class="cls-4" d="m1010.41,491.89h-19.36v-2.11h8.3v-4.9h2.58v4.9h8.48v2.11Zm-11.18-15.73v-1.55h2.77v1.55c0,3.2,3.2,6.36,7.66,7.08l-1.12,2.16c-3.57-.68-6.52-2.73-7.92-5.51-1.39,2.77-4.3,4.84-7.88,5.51l-1.12-2.16c4.43-.71,7.61-3.89,7.62-7.08Z"/>
      <path class="cls-4" d="m1022.7,489.26h-10.03v-13.88h10.03v13.88Zm-2.6-2.09v-9.75h-4.88v9.75h4.88Zm5.81-13.85h2.6v8.13h3.26v2.2h-3.26v10.85h-2.6v-21.19Z"/>
      <path class="cls-4" d="m1032.78,489.64h7.12v-7.36h2.58v7.36h9.61v2.13h-19.31v-2.13Zm17.3-12.33c-.02,2.64-.02,5.58-.84,10.01l-2.62-.28c.83-4.12.83-7.14.84-9.68h-12.66v-2.09h15.28v2.04Z"/>
      <path class="cls-4" d="m1063.51,478.74v-1.01h-3.77v-2.09h9.77v2.09h-3.47v1.01c0,3.76,1.27,7.24,4.41,8.86l-1.52,1.99c-2.02-1.09-3.34-2.95-4.09-5.25-.71,2.64-2.04,4.76-4.14,6l-1.59-1.99c3.14-1.78,4.41-5.47,4.41-9.61Zm14.32,15.77h-2.48v-10.73h-2.18v9.7h-2.46v-19.78h2.46v7.92h2.18v-8.3h2.48v21.19Z"/>
      <path class="cls-4" d="m1092.9,477.43h-12.56v-2.06h4.99v-2.13h2.6v2.13h4.97v2.06Zm-6.28.82c3.06,0,5.17,1.55,5.18,3.87-.01,2.32-2.12,3.87-5.18,3.87s-5.2-1.55-5.2-3.87,2.14-3.87,5.2-3.87Zm-3.7,9.33h14.11v6.94h-2.6v-4.85h-11.51v-2.09Zm3.7-3.61c1.61.01,2.7-.66,2.7-1.85s-1.09-1.9-2.7-1.9-2.68.7-2.67,1.9c-.01,1.2,1.07,1.86,2.67,1.85Zm7.8-10.64h2.6v5.62h2.95v2.13h-2.95v5.51h-2.6v-13.27Z"/>
      <path class="cls-4" d="m1120.49,485.16h-8.39v1.78c3.79.25,6.04,1.56,6.05,3.75-.01,2.44-2.78,3.8-7.34,3.8s-7.38-1.36-7.38-3.8c0-2.19,2.25-3.52,6.09-3.76v-1.77h-8.34v-2.11h19.31v2.11Zm-11.51-8.81h-6.05v-2.09h15.82v2.09h-6.11c.42,1.75,2.94,3.32,6.93,3.68l-.91,2.06c-3.86-.4-6.7-1.93-7.85-4.08-1.15,2.14-3.96,3.68-7.8,4.08l-.89-2.06c3.89-.36,6.43-1.95,6.87-3.68Zm1.83,16.15c3.04.01,4.71-.63,4.73-1.8-.02-1.17-1.7-1.79-4.73-1.8-3.08.01-4.75.63-4.73,1.8-.01,1.17,1.65,1.82,4.73,1.8Z"/>
    </g>
    <g>
      <path class="cls-4" d="m949.54,525.08c0-4.24,2.32-6.54,5.27-6.54,2.24,0,3.18,1.35,3.63,2.25h.12v-6.33h2.98v16.97h-2.93v-2.02h-.16c-.48.94-1.45,2.24-3.66,2.25-2.99-.01-5.25-2.4-5.25-6.59Zm6.07,4.12c1.93,0,3.02-1.66,3.02-4.15s-1.08-4.07-3.02-4.08c-1.99.01-3.02,1.71-3.02,4.08s1.05,4.15,3.02,4.15Z"/>
      <path class="cls-4" d="m964.17,525.08c0-4.24,2.32-6.54,5.27-6.54,2.24,0,3.18,1.35,3.63,2.25h.12v-6.33h2.98v16.97h-2.93v-2.02h-.16c-.48.94-1.45,2.24-3.66,2.25-2.99-.01-5.25-2.4-5.25-6.59Zm6.07,4.12c1.93,0,3.02-1.66,3.02-4.15s-1.08-4.07-3.02-4.08c-1.99.01-3.02,1.71-3.02,4.08s1.05,4.15,3.02,4.15Z"/>
      <path class="cls-4" d="m978.77,525.12c0-3.96,2.38-6.59,6.09-6.59s6.11,2.62,6.09,6.59c.01,3.93-2.37,6.56-6.09,6.56s-6.09-2.64-6.09-6.56Zm6.12,4.17c2.04,0,3.06-1.86,3.05-4.2.01-2.33-1.01-4.21-3.05-4.2-2.07-.01-3.09,1.86-3.09,4.2s1.02,4.2,3.09,4.2Z"/>
      <path class="cls-4" d="m992.86,525.12c0-3.96,2.38-6.59,6.09-6.59s6.11,2.62,6.09,6.59c.01,3.93-2.37,6.56-6.09,6.56s-6.09-2.64-6.09-6.56Zm6.12,4.17c2.04,0,3.06-1.86,3.05-4.2.01-2.33-1.01-4.21-3.05-4.2-2.07-.01-3.09,1.86-3.09,4.2s1.02,4.2,3.09,4.2Z"/>
      <path class="cls-4" d="m1007.49,518.7h2.91v2.11h.14c.46-1.46,1.68-2.3,3.14-2.3.33,0,.8.04,1.08.07v2.77c-.27-.09-.89-.18-1.38-.19-1.66.01-2.88,1.16-2.88,2.77v7.5h-3v-12.73Z"/>
      <path class="cls-4" d="m1017.31,536.14v-2.39c.36.04.87.04,1.27.05.73-.01,1.34-.06,1.85-1.43l.26-.68-4.64-12.98h3.16l2.95,9.61h.14l2.95-9.61h3.16l-5.11,14.27c-.73,2.03-2.06,3.22-4.45,3.23-.6-.01-1.16-.02-1.55-.07Z"/>
      <path class="cls-4" d="m1037.28,531.43h-3.07v-13.99h-.09l-3.96,2.53v-2.79l4.2-2.72h2.93v16.97Z"/>
      <path class="cls-4" d="m1048.42,531.43h-3.07v-13.99h-.09l-3.96,2.53v-2.79l4.2-2.72h2.93v16.97Z"/>
      <path class="cls-4" d="m1052.41,522.94c-.01-5.53,2.45-8.72,6.52-8.72s6.52,3.19,6.52,8.72-2.44,8.72-6.52,8.72-6.53-3.16-6.52-8.72Zm6.52,6.16c2.12-.01,3.45-2.09,3.45-6.16-.01-4.04-1.32-6.18-3.45-6.19-2.12.01-3.43,2.14-3.45,6.19,0,4.08,1.31,6.15,3.45,6.16Z"/>
      <path class="cls-4" d="m1067.99,526.83h3.07c.08,1.36,1.44,2.26,3.21,2.25,1.86.01,3.21-1.02,3.21-2.53s-1.31-2.61-3.52-2.62h-1.52v-2.34h1.52c1.8,0,3.06-1.01,3.05-2.48.01-1.43-1.07-2.39-2.72-2.39s-2.96.89-3.02,2.32h-2.93c.07-2.85,2.66-4.8,5.98-4.8s5.67,2.11,5.65,4.71c.02,1.9-1.24,3.27-3.09,3.66v.14c2.39.32,3.75,1.85,3.73,3.98.02,2.87-2.66,4.95-6.33,4.95s-6.21-1.97-6.28-4.83Z"/>
      <path class="cls-4" d="m1087.87,524.25c-.01-3.13,1.75-4.78,3.84-4.78,1.51,0,2.27.91,2.58,1.57h.12v-1.36h2.27v6.26c.02.8.34,1.18.98,1.17,1.2.01,1.97-1.37,1.97-3.47.02-4.08-2.85-6.75-7.12-6.75-4.36.01-7.15,3.16-7.15,7.36,0,4.54,2.44,7.42,7.08,7.38,1.66-.01,2.92-.15,4.24-.49v2.16c-1.24.35-2.68.56-4.24.56-5.88,0-9.32-3.75-9.3-9.61-.02-5.55,3.87-9.59,9.38-9.59s9.38,3.77,9.38,8.91c-.01,3.56-1.82,5.6-4.43,5.6-1.57-.01-2.73-.75-2.96-1.8h-.11c-.32.66-1.09,1.69-2.67,1.69-2.17,0-3.86-1.71-3.84-4.8Zm4.55,2.65c1.32.01,2.03-1.04,2.04-2.65-.01-1.62-.7-2.64-2.04-2.65-1.29.01-2,1.1-1.99,2.65-.01,1.55.71,2.66,1.99,2.65Z"/>
      <path class="cls-4" d="m1104.4,532.58h2.98c.21,1.11,1.25,1.63,2.79,1.64,1.79-.01,2.95-.79,2.95-2.65v-2.44h-.14c-.47.94-1.49,2.11-3.68,2.11-2.94,0-5.25-2.13-5.25-6.28s2.32-6.42,5.27-6.42c2.24,0,3.19,1.35,3.66,2.25h.14v-2.09h2.95v12.94c0,3.26-2.52,4.83-5.95,4.83s-5.52-1.5-5.72-3.89Zm5.72-3.68c1.93,0,3.02-1.45,3.02-3.89s-1.08-4.02-3.02-4.03c-1.99.01-3.02,1.71-3.02,4.03s1.05,3.89,3.02,3.89Z"/>
      <path class="cls-4" d="m1119.05,518.7h2.86v2.16h.16c.53-1.45,1.8-2.32,3.49-2.32s2.96.88,3.45,2.32h.14c.55-1.41,1.97-2.32,3.82-2.32,2.33,0,3.97,1.5,3.96,4.34v8.55h-2.98v-8.09c0-1.58-.96-2.3-2.18-2.3-1.46,0-2.32,1-2.32,2.44v7.95h-2.91v-8.2c-.01-1.32-.88-2.18-2.16-2.18s-2.34,1.07-2.34,2.65v7.73h-3v-12.73Z"/>
      <path class="cls-4" d="m1144.06,524c.89-.07,2.71-.15,3.27-.18v-1.02c-.01-1.27-.82-1.99-2.31-1.99-1.34,0-2.16.61-2.39,1.52h-2.88c.21-2.17,2.16-3.8,5.34-3.8,2.41,0,5.2,1,5.2,4.38v8.51h-2.86v-1.76h-.09c-.56,1.08-1.75,2.02-3.75,2.02-2.43,0-4.27-1.32-4.27-3.84,0-2.86,2.38-3.69,4.73-3.84Zm.3,5.48c1.82,0,2.98-1.2,2.98-2.62v-1.04c-.55.02-2.21.13-2.81.18-1.42.12-2.32.71-2.32,1.83s.9,1.66,2.16,1.66Z"/>
      <path class="cls-4" d="m1154.75,513.64c.95,0,1.73.73,1.73,1.62s-.79,1.63-1.73,1.64c-.95-.01-1.73-.74-1.73-1.64s.79-1.62,1.73-1.62Zm-1.52,5.06h3v12.73h-3v-12.73Z"/>
      <path class="cls-4" d="m1162.21,531.43h-3v-16.97h3v16.97Z"/>
      <path class="cls-4" d="m1165.21,529.79c-.01-.98.82-1.79,1.83-1.8.97.01,1.8.82,1.8,1.8s-.83,1.83-1.8,1.83-1.84-.82-1.83-1.83Z"/>
      <path class="cls-4" d="m1171.31,525.12c0-3.9,2.37-6.59,6.09-6.59,3.08,0,5.25,1.8,5.46,4.55h-2.86c-.23-1.22-1.12-2.14-2.58-2.16-1.85.01-3.09,1.56-3.09,4.12s1.22,4.18,3.09,4.2c1.32-.01,2.31-.79,2.58-2.16h2.86c-.22,2.68-2.26,4.59-5.46,4.59-3.8,0-6.09-2.72-6.09-6.56Z"/>
      <path class="cls-4" d="m1184.69,525.12c0-3.96,2.38-6.59,6.09-6.59s6.11,2.62,6.09,6.59c.01,3.93-2.37,6.56-6.09,6.56s-6.09-2.64-6.09-6.56Zm6.12,4.17c2.04,0,3.06-1.86,3.05-4.2.01-2.33-1.01-4.21-3.05-4.2-2.07-.01-3.09,1.86-3.09,4.2s1.02,4.2,3.09,4.2Z"/>
      <path class="cls-4" d="m1199.32,518.7h2.86v2.16h.16c.53-1.45,1.8-2.32,3.49-2.32s2.96.88,3.45,2.32h.14c.55-1.41,1.97-2.32,3.82-2.32,2.33,0,3.97,1.5,3.96,4.34v8.55h-2.98v-8.09c0-1.58-.96-2.3-2.18-2.3-1.46,0-2.32,1-2.32,2.44v7.95h-2.91v-8.2c-.01-1.32-.88-2.18-2.16-2.18s-2.34,1.07-2.34,2.65v7.73h-3v-12.73Z"/>
    </g>
    <g>
      <path class="cls-4" d="m951.98,371.23h9.56c5.84,0,8.95,3.55,8.96,8.44-.02,4.87-3.16,8.4-9.04,8.4h-4.92v8.61h-4.57v-25.45Zm8.86,13.08c3.45-.02,4.99-1.95,4.99-4.64s-1.55-4.61-4.99-4.61h-4.29v9.25h4.29Z"/>
      <path class="cls-4" d="m973.99,377.6h4.36v3.16h.21c.69-2.2,2.51-3.45,4.71-3.45.49,0,1.2.05,1.62.11v4.15c-.4-.14-1.34-.26-2.07-.28-2.5.02-4.32,1.74-4.32,4.15v11.25h-4.5v-19.09Z"/>
      <path class="cls-4" d="m986.13,387.23c0-5.94,3.57-9.88,9.14-9.88s9.16,3.94,9.14,9.88c.02,5.89-3.55,9.84-9.14,9.84s-9.14-3.96-9.14-9.84Zm9.18,6.26c3.06,0,4.59-2.79,4.57-6.29.02-3.5-1.51-6.31-4.57-6.29-3.11-.02-4.64,2.79-4.64,6.29s1.53,6.29,4.64,6.29Z"/>
      <path class="cls-4" d="m1017.56,381.04h-3.94v15.64h-4.5v-15.64h-2.85v-3.45h2.85v-1.83c0-3.71,2.3-5.73,5.98-5.73,1.04,0,2,.11,2.85.28v3.55c-.74-.11-1.28-.12-1.62-.14-1.81.02-2.72.72-2.71,2.46v1.41h3.94v3.45Z"/>
      <path class="cls-4" d="m1023.05,370c1.42,0,2.6,1.09,2.6,2.43s-1.18,2.44-2.6,2.46c-1.42-.02-2.6-1.11-2.6-2.46s1.18-2.43,2.6-2.43Zm-2.29,7.59h4.5v19.09h-4.5v-19.09Z"/>
      <path class="cls-4" d="m1034.05,396.69h-4.5v-25.45h4.5v25.45Z"/>
      <path class="cls-4" d="m1037.53,387.26c0-5.91,3.59-9.91,9.04-9.91,4.68,0,8.72,2.94,8.72,9.63v1.41h-13.32c.07,3.25,1.99,5.19,4.89,5.17,1.97.02,3.29-.83,3.87-1.97h4.39c-.81,3.3-3.87,5.48-8.3,5.48-5.75,0-9.28-3.83-9.28-9.81Zm13.46-1.93c-.02-2.6-1.78-4.5-4.36-4.5s-4.5,2.07-4.66,4.5h9.02Z"/>
    </g>
    <rect class="cls-2" x="921" y="570" width="408" height="159" rx="20" ry="20"/>
    <g>
      <path class="cls-4" d="m954.96,624.93h-5.81v-2.09h8.34c0,5.73-1.8,10.65-7.83,14.09l-1.5-1.8c4.51-2.6,6.42-5.95,6.8-10.2Zm11.55,16.43h-2.51v-10.88h-2.27v9.89h-2.44v-19.64h2.44v7.64h2.27v-8.2h2.51v21.19Z"/>
      <path class="cls-4" d="m972.62,623.8h4.95v-2.7h2.58v9.23h-10.1v-9.23h2.58v2.7Zm-.45,8.06h13.85v5.55h-11.25v1.69h11.91v2.06h-14.48v-5.65h11.23v-1.62h-11.25v-2.04Zm5.39-3.59v-2.51h-4.95v2.51h4.95Zm5.86-8.11h2.6v4.29h2.95v2.11h-2.95v4.45h-2.6v-10.85Z"/>
      <path class="cls-4" d="m990.32,621.88h4.99v-1.88h2.6v1.88h4.97v1.99h-12.56v-1.99Zm6.28,2.65c3.14.01,5.17,1.36,5.18,3.47-.01,2.17-2.04,3.47-5.18,3.47s-5.2-1.3-5.2-3.47,2.07-3.46,5.2-3.47Zm-3.45,8.09h13.85v5.11h-11.25v1.5h11.91v1.95h-14.48v-5.25h11.23v-1.41h-11.25v-1.9Zm3.45-3.02c1.64-.01,2.7-.55,2.7-1.59s-1.05-1.61-2.7-1.59c-1.64-.01-2.68.59-2.67,1.59-.01,1.04,1.03,1.58,2.67,1.59Zm10.41-4.69h2.98v2.11h-2.98v4.66h-2.6v-11.55h2.6v4.78Z"/>
      <path class="cls-4" d="m1036.52,630.81h-8.39v1.62h5.98v5.2h-12.05v1.55h12.63v1.99h-15.19v-5.37h12.05v-1.43h-12.07v-1.95h6.07v-1.62h-8.34v-2.06h19.31v2.06Zm-11.33-7.97h-6.22v-2.02h15.82v2.02h-6.28c.57,1.56,3.15,2.91,7.1,3.19l-.82,1.97c-3.8-.3-6.67-1.58-7.95-3.47-1.28,1.89-4.11,3.16-7.88,3.47l-.82-1.97c3.9-.28,6.46-1.62,7.04-3.19Z"/>
      <path class="cls-4" d="m1055.33,629.19c-.02,4.61-2.32,7.5-5.51,7.5s-5.52-2.89-5.51-7.5c-.01-4.57,2.29-7.48,5.51-7.48s5.48,2.91,5.51,7.48Zm-5.51,5.16c1.79-.01,2.99-1.9,3-5.16-.01-3.23-1.21-5.13-3-5.13s-3.01,1.9-3,5.13c-.01,3.26,1.22,5.14,3,5.16Zm8.3-14.18h2.6v8.13h3.26v2.2h-3.26v10.85h-2.6v-21.19Z"/>
      <path class="cls-4" d="m1065.09,630.69h19.36v2.06h-19.36v-2.06Zm2.32,3.94h2.6v4.12h12.4v2.11h-15v-6.23Zm14.86-6.4h-14.67v-7.29h2.58v5.23h12.09v2.06Z"/>
      <path class="cls-4" d="m1093.34,622.09h10.22v2.13h-7.59v9.84c3.89-.02,6.34-.13,9.16-.63l.26,2.16c-3.04.56-5.77.68-10.24.68h-1.8v-14.18Zm16.31,19.29h-2.62v-21.21h2.62v21.21Z"/>
      <path class="cls-4" d="m1125.9,634.75l-1.45,2.06c-2.39-1.12-4.16-3.4-5.11-6.05-.96,2.91-2.81,5.39-5.25,6.56l-1.52-2.04c3.38-1.61,5.43-5.57,5.44-9.09v-1.78h-4.62v-2.16h11.65v2.16h-4.43v1.78c-.01,3.27,1.96,7,5.3,8.55Zm1.1-14.58h2.6v8.25h3.26v2.18h-3.26v10.76h-2.6v-21.19Z"/>
      <path class="cls-4" d="m1140.2,621.71c3.18,0,5.52,2.91,5.53,7.48-.01,4.61-2.36,7.5-5.53,7.5s-5.54-2.89-5.53-7.5c-.01-4.57,2.32-7.48,5.53-7.48Zm0,12.63c1.78-.01,3-1.9,3-5.16s-1.22-5.13-3-5.13-3.02,1.9-3.02,5.13,1.23,5.14,3.02,5.16Zm11.41,7.03h-2.62v-21.21h2.62v21.21Z"/>
      <path class="cls-4" d="m1156.1,622.49h2.6v11.68c2.85-.04,5.67-.25,8.65-.83l.3,2.13c-3.41.7-6.57.88-9.82.89h-1.73v-13.88Zm16.66,18.89h-2.6v-12.4h-6.07v-2.11h6.07v-6.7h2.6v21.21Z"/>
      <path class="cls-4" d="m1176.68,621.25h10.03v8.67h-10.03v-8.67Zm2.13,10.48h13.85v5.55h-11.25v1.76h11.91v2.06h-14.48v-5.72h11.23v-1.64h-11.25v-2.02Zm5.34-3.87v-4.55h-4.92v4.55h4.92Zm8.51-3.42h2.95v2.16h-2.95v4.22h-2.6v-10.64h2.6v4.27Z"/>
      <path class="cls-4" d="m1196.94,636.48h7.12v-7.36h2.58v7.36h9.61v2.13h-19.31v-2.13Zm17.3-12.33c-.02,2.64-.02,5.58-.84,10.01l-2.62-.28c.83-4.12.83-7.14.84-9.68h-12.66v-2.09h15.28v2.04Z"/>
      <path class="cls-4" d="m949.64,658.09h10.22v2.13h-7.59v9.84c3.89-.02,6.34-.13,9.16-.63l.26,2.16c-3.04.56-5.77.68-10.24.68h-1.8v-14.18Zm16.31,19.29h-2.62v-21.21h2.62v21.21Z"/>
      <path class="cls-4" d="m982.2,670.75l-1.45,2.06c-2.39-1.12-4.16-3.4-5.11-6.05-.96,2.91-2.81,5.39-5.25,6.56l-1.52-2.04c3.38-1.61,5.43-5.57,5.44-9.09v-1.78h-4.62v-2.16h11.65v2.16h-4.43v1.78c-.01,3.27,1.96,7,5.3,8.55Zm1.1-14.58h2.6v8.25h3.26v2.18h-3.26v10.76h-2.6v-21.19Z"/>
      <path class="cls-4" d="m996.39,657.57c3.22.01,5.71,2.21,5.7,5.3.01,3.13-2.47,5.32-5.7,5.32s-5.72-2.19-5.72-5.32,2.5-5.29,5.72-5.3Zm0,8.34c1.77,0,3.14-1.17,3.14-3.05s-1.37-3.02-3.14-3.02-3.18,1.2-3.16,3.02c-.01,1.88,1.35,3.05,3.16,3.05Zm-2.46,4.03h2.62v4.88h11.98v2.11h-14.6v-6.98Zm14.02,1.55h-2.62v-15.3h2.62v15.3Z"/>
      <path class="cls-4" d="m1029.16,659.31h-4.38c.04,2.3,1.78,4.54,5.09,5.48l-1.24,1.99c-2.41-.67-4.16-2.12-5.12-3.96-.94,2.1-2.74,3.73-5.33,4.48l-1.27-2.04c3.39-1,5.19-3.43,5.25-5.95h-4.5v-2.06h11.51v2.06Zm-9.09,8.62h13.85v5.41h-11.25v1.78h11.91v2.02h-14.48v-5.65h11.23v-1.57h-11.25v-1.99Zm11.25-11.77h2.6v4.34h2.95v2.11h-2.95v4.43h-2.6v-10.88Z"/>
      <path class="cls-4" d="m1038.08,659.43h5.02v-2.95h2.6v2.95h4.88v2.09h-12.49v-2.09Zm6.33,3.47c3.05-.01,5.31,2.06,5.32,4.99-.01,2.92-2.27,4.97-5.32,4.97s-5.37-2.05-5.34-4.97c-.02-2.93,2.25-5,5.34-4.99Zm0,7.8c1.63.01,2.81-1.09,2.84-2.81-.02-1.72-1.21-2.86-2.84-2.86s-2.87,1.14-2.86,2.86c-.01,1.72,1.2,2.82,2.86,2.81Zm10.38-6.09h3.26v2.16h-3.26v10.59h-2.58v-21.19h2.58v8.44Z"/>
      <path class="cls-4" d="m1059.15,666.69h19.36v2.06h-19.36v-2.06Zm2.32,3.94h2.6v4.12h12.4v2.11h-15v-6.23Zm14.86-6.4h-14.67v-7.29h2.58v5.23h12.09v2.06Z"/>
      <path class="cls-4" d="m1092.72,660.93h-5.81v-2.09h8.34c0,5.73-1.8,10.65-7.83,14.09l-1.5-1.8c4.51-2.6,6.42-5.95,6.8-10.2Zm11.55,16.43h-2.51v-10.88h-2.27v9.89h-2.44v-19.64h2.44v7.64h2.27v-8.2h2.51v21.19Z"/>
      <path class="cls-4" d="m1110.38,659.8h4.95v-2.7h2.58v9.23h-10.1v-9.23h2.58v2.7Zm-.45,8.06h13.85v5.55h-11.25v1.69h11.91v2.06h-14.48v-5.65h11.23v-1.62h-11.25v-2.04Zm5.39-3.59v-2.51h-4.95v2.51h4.95Zm5.86-8.11h2.6v4.29h2.95v2.11h-2.95v4.45h-2.6v-10.85Z"/>
      <path class="cls-4" d="m1140.95,670.75l-1.45,2.06c-2.39-1.12-4.16-3.4-5.11-6.05-.96,2.91-2.81,5.39-5.25,6.56l-1.52-2.04c3.38-1.61,5.43-5.57,5.44-9.09v-1.78h-4.62v-2.16h11.65v2.16h-4.43v1.78c-.01,3.27,1.96,7,5.3,8.55Zm1.1-14.58h2.6v8.25h3.26v2.18h-3.26v10.76h-2.6v-21.19Z"/>
      <path class="cls-4" d="m1157.38,660.53h-7.31v-2.16h9.96c-.01,6.22-2.59,11.7-9.63,15.16l-1.48-2.02c5.16-2.58,7.95-6.16,8.46-10.99Zm8.25,3.91h3.14v2.18h-3.14v10.69h-2.6v-21.14h2.6v8.27Z"/>
      <path class="cls-4" d="m1188.57,667.07h-4.29v3.69c1.85-.07,3.7-.2,5.46-.39l.21,1.92c-4.66.69-9.57.74-13.57.75l-.33-2.16c1.75.01,3.66,0,5.62-.04v-3.79h-4.15v-8.95h10.95v2.06h-8.37v4.78h8.46v2.11Zm2.44-10.9h2.6v21.21h-2.6v-21.21Z"/>
      <path class="cls-4" d="m1196.94,672.48h7.12v-7.36h2.58v7.36h9.61v2.13h-19.31v-2.13Zm17.3-12.33c-.02,2.64-.02,5.58-.84,10.01l-2.62-.28c.83-4.12.83-7.14.84-9.68h-12.66v-2.09h15.28v2.04Z"/>
      <path class="cls-4" d="m1229.06,658.98v-2.04h2.7v2.04c-.01,2.66,1.78,5.2,5.13,6.16l-1.24,2.09c-2.47-.76-4.24-2.33-5.2-4.36-.97,2.18-2.78,3.9-5.32,4.71l-1.27-2.06c3.42-1.07,5.21-3.75,5.2-6.54Zm-2.06,16.01h2.88v-3.94h-2.7v-2.06h14.44v2.06h-2.67v3.94h2.86v2.11h-14.81v-2.11Zm9.38,0v-3.94h-3.91v3.94h3.91Zm5.13-7.05h-2.62v-11.74h2.62v11.74Z"/>
      <path class="cls-4" d="m1244.84,665.54h19.31v2.13h-19.31v-2.13Zm8.32-8.34v-.8h2.67v.8c0,2.29,2.91,4.66,7.29,5.18l-.91,2.06c-3.55-.48-6.35-2.06-7.71-4.21-1.37,2.16-4.18,3.73-7.71,4.21l-.96-2.06c4.43-.55,7.32-2.82,7.34-5.18Zm-3.42,13.69h9.33v-2.02h2.6v8.23h-14.51v-8.23h2.58v2.02Zm9.33,4.15v-2.16h-9.33v2.16h9.33Z"/>
      <path class="cls-4" d="m1267.04,658.23h2.58v11.58c2.96-.05,6.13-.3,9.4-.96l.33,2.18c-3.73.77-7.18,1.02-10.48,1.01h-1.83v-13.8Zm16.45,19.12h-2.58v-21.19h2.58v21.19Z"/>
      <path class="cls-4" d="m1287.67,658.18h9.91v2.11h-7.31v9.73c3.29-.01,5.91-.18,8.81-.68l.3,2.2c-3.29.56-6.14.66-9.96.66h-1.76v-14.02Zm15.73,6.02h3.26v2.13h-3.26v11.04h-2.6v-21.21h2.6v8.04Z"/>
    </g>
    <g>
      <path class="cls-22" d="m582.69,643.34c0,11.95-8.23,20.44-21.29,20.51-13.06-.07-21.35-8.56-21.42-20.51v-60.34h-16.98v61.78c.07,20.31,15.22,34.22,38.4,34.22s38.33-13.91,38.4-34.22v-61.78h-17.11v60.34Z"/>
      <polygon class="cls-19" points="693.45 583 674.11 583 653.09 617.74 652.3 617.74 631.54 583 611.94 583 641.46 630.28 611.55 677.56 631.14 677.56 652.3 643.08 653.09 643.08 674.25 677.56 693.97 677.56 664.32 630.28 693.45 583"/>
      <path class="cls-6" d="m765.41,643.34c0,11.95-8.23,20.44-21.29,20.51-13.06-.07-21.35-8.56-21.42-20.51v-60.34h-16.98v61.78c.07,20.31,15.22,34.22,38.4,34.22s38.33-13.91,38.4-34.22v-61.78h-17.11v60.34Z"/>
      <rect class="cls-18" x="800.02" y="583" width="16.98" height="94.56"/>
    </g>
    <g>
      <path class="cls-4" d="m565.78,341.09v-8.3h12.55v8.3c-.09,11.37,5.99,22.46,20.1,26.99l-6.13,9.44c-9.72-3.21-16.37-9.62-20.19-17.79-3.87,8.78-10.71,15.85-20.76,19.3l-6.23-9.53c14.39-4.81,20.67-16.75,20.67-28.4Zm-6.04,43.59h12.17v18.02h47.65v9.62h-59.82v-27.65Zm57.56,6.04h-12.08v-62.65h12.08v62.65Z"/>
      <path class="cls-4" d="m628.81,370.72h78.6v9.62h-32.37v14.81h-11.89v-14.81h-34.35v-9.62Zm71.34-29.63h-23.68c1.37,7.08,10.29,14.25,27.27,16.14l-4.43,9.44c-16.09-1.79-26.8-8.45-31.33-17.36-4.53,8.87-15.19,15.57-31.23,17.36l-4.34-9.44c16.98-1.89,25.76-9.11,27.18-16.14h-23.5v-9.44h64.07v9.44Zm-62.09,46.43h11.98v15.19h48.69v9.62h-60.67v-24.82Z"/>
      <path class="cls-4" d="m765.73,385.44l-7.36,9.62c-9.53-4.62-15.95-13.21-19.53-23.83-3.68,11.28-10.29,20.52-20.1,25.33l-7.55-9.81c14.72-6.65,21.42-23.21,21.51-39.35v-12.83h12.17v12.83c.05,16.14,6.56,31.85,20.85,38.03Zm-9.62-30.48h16.89v-26.99h11.89v86.06h-11.89v-49.35h-16.89v-9.72Z"/>
    </g>
    <g>
      <path class="cls-11" d="m164.32,145.16c.08,3.66-.34,7.41-1.61,11.02-1.22,3.48-3.19,6.39-6.7,7.94-2.9,1.28-5.91,1.17-8.94.49-5.02-1.13-9.42-3.58-13.61-6.46-2.84-1.95-5.52-4.11-8.04-6.46-.62-.58-1-.56-1.66.04-4.5,4.12-9.3,7.83-14.81,10.51-3.62,1.76-7.38,3.03-11.52,2.89-3.73-.13-6.61-1.73-8.77-4.67-2.08-2.82-2.96-6.11-3.43-9.53-.93-6.76-.11-13.41,1.19-20.04.34-1.7.78-1.63-1.39-2.34-6.69-2.2-13.11-4.97-18.65-9.45-1.87-1.51-3.53-3.21-4.82-5.25-2.95-4.67-2.72-9.47.58-13.96,2.52-3.42,5.85-5.87,9.46-7.98,4.38-2.56,9.04-4.5,13.88-6.02,1.24-.39,1.24-.41.95-1.7-1.17-5.22-1.86-10.5-1.74-15.86.08-3.57.5-7.11,1.85-10.48,2.64-6.59,7.59-9.34,14.57-8.06,5.43,1,10.13,3.62,14.59,6.71,2.73,1.89,5.33,3.95,7.76,6.21.96.89.97.84,1.94-.03,4.81-4.28,9.89-8.19,15.79-10.89,2.78-1.27,5.67-2.25,8.74-2.41,4.99-.25,8.86,1.71,11.32,6.16,1.63,2.96,2.35,6.19,2.67,9.52.62,6.49-.12,12.87-1.51,19.2-.21.95.05,1.29.95,1.58,6.3,1.99,12.34,4.56,17.72,8.46,2.85,2.07,5.4,4.46,7.04,7.67,2.07,4.05,1.74,7.96-.63,11.75-2.15,3.45-5.25,5.91-8.62,8.06-4.76,3.04-9.94,5.2-15.31,6.9-.93.29-1.18.68-.98,1.66,1.03,4.83,1.78,9.69,1.71,14.8Zm-39.76-16.73c3.56.13,7.18-.12,10.79-.34.76-.05,1.24-.29,1.67-.92,4.17-6.07,7.76-12.47,10.96-19.1.25-.52.26-.95.03-1.49-1.02-2.33-2.23-4.57-3.45-6.8-2.35-4.3-4.93-8.47-7.69-12.51-.31-.45-.67-.67-1.22-.7-1.82-.09-3.64-.3-5.47-.34-5.67-.11-11.34-.1-17,.35-.48.04-.79.27-1.05.66-4.2,6.16-7.89,12.61-11.12,19.33-.28.59-.23,1.09.05,1.67,1.25,2.53,2.5,5.06,3.88,7.52,2.16,3.87,4.49,7.65,6.99,11.31.34.51.67.98,1.43,1.02,3.71.21,7.42.47,11.21.34Zm59.11-21.22c-.1-1.07-.42-2.06-.99-2.97-1.78-2.84-4.36-4.8-7.13-6.55-4.3-2.71-8.97-4.63-13.79-6.2-.79-.26-1.11-.08-1.33.69-1.43,4.95-3.25,9.76-5.32,14.48-.16.37-.19.69-.03,1.07,2.12,4.83,3.99,9.76,5.5,14.81.18.61.43.78,1.06.57,5-1.63,9.85-3.58,14.28-6.46,2.43-1.58,4.72-3.32,6.39-5.75.77-1.12,1.28-2.33,1.37-3.7Zm-92.86,37.67c0,.96-.05,1.92,0,2.88.15,2.58.57,5.11,1.6,7.5,1.25,2.91,3.31,4.28,6.2,4.05,1.52-.12,3-.44,4.44-.96,6.4-2.3,11.62-6.41,16.62-10.85.46-.41.53-.72.07-1.22-3.54-3.82-6.88-7.81-9.95-12.01-.36-.5-.82-.72-1.4-.78-5.06-.53-10.06-1.38-15.01-2.56-.66-.16-.95,0-1.09.68-.9,4.38-1.6,8.77-1.49,13.26Zm59.9-89.6c-.43.04-.86.07-1.29.13-2.91.39-5.54,1.54-8.09,2.92-4.4,2.37-8.28,5.44-11.98,8.77-.55.49-.52.83-.02,1.36,3.43,3.59,6.59,7.41,9.51,11.42.59.81,1.25,1.18,2.21,1.28,4.84.51,9.64,1.32,14.38,2.46.82.2,1.16.04,1.34-.83,1.04-5.27,1.79-10.56,1.42-15.96-.19-2.71-.63-5.35-1.77-7.84-1.12-2.45-2.96-3.75-5.7-3.71Zm-85.39,51.96c.11.85.27,1.69.67,2.49,1.25,2.49,3.29,4.24,5.49,5.83,4.86,3.5,10.31,5.77,15.97,7.6.73.24.92-.09,1.09-.68,1.36-4.78,3.11-9.42,5.1-13.96.36-.82.37-1.49.01-2.29-2.07-4.58-3.77-9.31-5.21-14.12-.22-.74-.54-.82-1.2-.6-3.3,1.08-6.55,2.32-9.66,3.88-3.54,1.77-6.9,3.8-9.64,6.72-1.36,1.45-2.38,3.09-2.62,5.14Zm93.05,37.74c.01-4.45-.64-8.83-1.55-13.17-.24-1.12-.27-1.13-1.44-.85-4.83,1.16-9.72,1.96-14.65,2.51-.67.07-1.16.32-1.56.86-3.06,4.18-6.33,8.18-9.91,11.93-.4.42-.39.71.04,1.06.92.78,1.81,1.6,2.74,2.37,4.15,3.43,8.53,6.5,13.62,8.4,1.48.55,3.02.98,4.61,1.04,3.47.15,5.24-.99,6.52-4.21,1.27-3.19,1.56-6.55,1.57-9.94Zm-67.76-75.24c-.04,1.27.08,2.54.18,3.8.24,3.19.78,6.33,1.44,9.45.13.6.41.84,1.05.69,5.03-1.22,10.14-2.04,15.28-2.64.54-.06.91-.3,1.22-.72,3.06-4.22,6.33-8.26,9.96-11.99.44-.45.38-.75-.1-1.12-.71-.55-1.36-1.17-2.04-1.76-3.65-3.15-7.55-5.93-11.93-7.99-2.69-1.26-5.46-2.2-8.5-1.98-1.23.09-2.28.5-3.17,1.35-.95.9-1.52,2.02-1.97,3.22-1.16,3.13-1.38,6.4-1.43,9.69Zm40.22,10.7c.21-.04.48-.01.61-.14.19-.19-.04-.4-.17-.56-2.03-2.54-4.17-4.99-6.38-7.37-.31-.33-.52-.39-.89,0-2.23,2.33-4.31,4.78-6.31,7.31-.13.16-.37.31-.26.55.12.25.37.14.58.13,4.27-.24,8.54-.11,12.82.08Zm-12.03,53.76c-.45.08-1.08-.2-1.25.16-.19.42.38.77.66,1.12,1.84,2.29,3.77,4.5,5.8,6.63.35.37.6.46.98.07,2.23-2.32,4.33-4.76,6.3-7.3.11-.14.27-.3.19-.49-.11-.26-.38-.17-.58-.16-.96.04-1.91.16-2.87.15-3.09-.02-6.19.16-9.24-.18Zm26.31-7.27c2.69-.44,5.38-.91,8.04-1.52,2.33-.54,1.93-.41,1.35-2.3-.03-.09-.05-.18-.07-.27-.79-2.62-1.75-5.17-2.73-7.71-.06-.16-.1-.41-.33-.37-.11.02-.22.2-.29.33-.31.57-.61,1.15-.91,1.73-1.66,3.16-3.47,6.23-5.36,9.25-.14.23-.4.45-.21.75.11.17.33.13.52.12Zm-40.49-39.17c-.33-.22-.58-.09-.81-.06-2.97.44-5.91,1.02-8.84,1.67-.85.19-1.04.53-.78,1.34.94,2.85,1.86,5.71,2.96,8.5.09.22.13.55.42.55.29,0,.35-.31.46-.53,1.44-2.85,3.01-5.62,4.66-8.34.63-1.05,1.28-2.09,1.92-3.14Zm39.74-.12c.07.21.09.37.17.49,2.34,3.66,4.52,7.4,6.54,11.24.08.15.14.39.37.34.21-.04.22-.28.29-.44,1.11-2.89,2.11-5.83,3.02-8.79.22-.7.01-.95-.65-1.08-1.88-.37-3.76-.79-5.64-1.15-1.33-.25-2.65-.58-4.1-.61Zm-40.3,39.29c.09,0,.31.07.42-.11.12-.19-.05-.35-.15-.5-.82-1.35-1.65-2.7-2.48-4.04-1.4-2.27-2.65-4.62-3.92-6.96-.21-.4-.43-.69-.69-.02-1.15,2.95-2.21,5.92-3.08,8.96-.13.47-.04.75.5.88,3.08.72,6.17,1.34,9.39,1.8Z"/>
      <path class="cls-11" d="m124.47,119.33c-6.81,0-12.09-5.27-12.09-12.07,0-6.69,5.41-12.09,12.14-12.13,6.6-.03,12.08,5.51,12.05,12.22-.03,6.93-5.79,12.19-12.1,11.98Z"/>
    </g>
    <g>
      <g>
        <path d="m1044.2,148.84c0,11.6,0,23.21,0,34.81,0,4.96-2.02,7.21-6.99,7.52-10.82.69-21.64,1.29-32.46,1.94-11.22.68-22.44,1.37-33.67,2.05-1.03.06-2.07.08-3.1.09-2.74.02-4.95-1.02-6.64-3.22-4.55-5.91-9.12-11.82-13.71-17.7-2.32-2.98-3.41-6.25-3.39-10.1.11-20.15.05-40.3.05-60.45,0-.76,0-1.54.14-2.28.56-3.22,2.43-5.04,5.69-5.32,5.69-.49,11.39-.89,17.08-1.31,10.58-.79,21.17-1.57,31.75-2.34,4.57-.33,9.15-.63,13.73-.9,2.79-.16,5.33.67,7.61,2.26,7.11,4.97,14.19,9.98,21.31,14.93,1.87,1.3,2.65,2.87,2.63,5.21-.1,11.6-.05,23.21-.05,34.81Zm-79.2,4.17c0,9.8,0,19.6,0,29.41,0,.54,0,1.08.05,1.62.17,1.82.98,2.84,2.76,3.15,1.09.19,2.24.19,3.35.13,11.81-.66,23.61-1.35,35.41-2.04,8.98-.52,17.95-1.03,26.93-1.58,2.45-.15,3.46-1.17,3.75-3.57.07-.58.09-1.16.09-1.75,0-19.6,0-39.21,0-58.81,0-.67-.05-1.35-.17-2.01-.29-1.62-1.29-2.44-2.93-2.35-6.15.34-12.3.71-18.45,1.07-11.89.69-23.79,1.38-35.68,2.08-4.04.24-8.08.46-12.11.76-1.94.14-2.8,1.08-2.96,3.01-.04.54-.04,1.08-.05,1.62,0,9.76,0,19.51,0,29.27Zm64.86-44.68c.07-.12.14-.24.21-.36-.43-.44-.8-.95-1.28-1.31-3.3-2.41-6.62-4.8-9.95-7.18-1.64-1.17-3.47-2.02-5.5-1.95-4.13.13-8.26.38-12.38.67-10.77.75-21.53,1.55-32.29,2.34-4.57.34-9.15.66-13.72,1.08-.58.05-1.12.6-1.67.91.32.5.54,1.11.98,1.47,2.43,1.99,4.95,3.88,7.37,5.89,1.98,1.65,4.21,2.31,6.75,2.15,6.1-.38,12.21-.74,18.32-1.11,11.45-.69,22.89-1.37,34.34-2.06,2.95-.18,5.89-.37,8.84-.55Z"/>
        <path class="cls-4" d="m965,153.01c0-9.76,0-19.51,0-29.27,0-.54,0-1.08.05-1.62.16-1.93,1.02-2.87,2.96-3.01,4.04-.29,8.08-.52,12.11-.76,11.89-.7,23.79-1.39,35.68-2.08,6.15-.36,12.3-.73,18.45-1.07,1.64-.09,2.63.73,2.93,2.35.12.66.17,1.34.17,2.01,0,19.6,0,39.21,0,58.81,0,.58-.02,1.17-.09,1.75-.29,2.4-1.31,3.42-3.75,3.57-8.97.55-17.95,1.06-26.93,1.58-11.8.69-23.61,1.38-35.41,2.04-1.11.06-2.26.06-3.35-.13-1.78-.31-2.59-1.32-2.76-3.15-.05-.54-.05-1.08-.05-1.62,0-9.8,0-19.6,0-29.41Zm23.9-10.6c.39.53.62.8.81,1.09,4.82,7.53,9.62,15.07,14.47,22.58,1.95,3.02,3.97,5.99,6.04,8.92,1.14,1.6,2.82,2.51,4.79,2.21,2.06-.32,4.06-.99,6.08-1.52,1.04-.27,1.27-.96,1.27-2.01-.04-13.76-.03-27.52-.03-41.28v-1.64c.99-.2,1.87-.39,2.75-.55,2.01-.37,2.75-1.82,1.94-3.77-.67,0-1.34-.03-2.01,0-3.86.21-7.73.39-11.58.69-2.46.19-3.65,1.64-3.4,3.99,1.72.22,3.46.45,5.14.67v27.59c-.36-.52-.56-.8-.75-1.1-6.43-9.76-12.85-19.52-19.3-29.26-.26-.4-.88-.84-1.31-.81-4.76.26-9.51.58-14.27.94-2.43.18-3.8,2.11-3.27,4.61,1.13.09,2.29.24,3.45.25,1.12,0,1.52.38,1.51,1.58-.05,11.47-.03,22.94-.03,34.4,0,1.25.35,2.77-.23,3.68-.47.75-2.09.76-3.19,1.12-1.45.48-2.02,1.66-1.51,3.3,5.12-.31,10.28-.56,15.43-.98,2.05-.17,3.26-1.6,3.33-3.46-2.02-.47-4.05-.95-6.11-1.43v-29.82Z"/>
        <path class="cls-4" d="m1029.86,108.33c-2.95.19-5.89.38-8.84.55-11.45.69-22.89,1.37-34.34,2.06-6.11.37-12.21.73-18.32,1.11-2.54.16-4.77-.5-6.75-2.15-2.42-2.01-4.94-3.9-7.37-5.89-.44-.36-.66-.97-.98-1.47.56-.32,1.09-.86,1.67-.91,4.57-.41,9.14-.74,13.72-1.08,10.76-.79,21.53-1.59,32.29-2.34,4.12-.29,8.25-.53,12.38-.67,2.03-.07,3.86.78,5.5,1.95,3.33,2.38,6.65,4.77,9.95,7.18.49.36.86.87,1.28,1.31-.07.12-.14.24-.21.36Z"/>
        <path d="m988.91,142.41v29.82c2.06.48,4.09.96,6.11,1.43-.06,1.87-1.28,3.3-3.33,3.46-5.15.42-10.31.67-15.43.98-.51-1.64.07-2.83,1.51-3.3,1.1-.36,2.72-.37,3.19-1.12.58-.91.23-2.43.23-3.68,0-11.47-.02-22.94.03-34.4,0-1.2-.39-1.57-1.51-1.58-1.16,0-2.32-.16-3.45-.25-.53-2.5.83-4.43,3.27-4.61,4.75-.36,9.51-.68,14.27-.94.43-.02,1.04.41,1.31.81,6.46,9.74,12.87,19.5,19.3,29.26.19.29.4.58.75,1.1v-27.59c-1.67-.22-3.42-.45-5.14-.67-.26-2.34.94-3.8,3.4-3.99,3.86-.3,7.72-.47,11.58-.69.67-.04,1.34,0,2.01,0,.82,1.96.07,3.4-1.94,3.77-.88.16-1.76.35-2.75.55v1.64c0,13.76-.01,27.52.03,41.28,0,1.05-.23,1.74-1.27,2.01-2.02.53-4.03,1.2-6.08,1.52-1.97.31-3.65-.6-4.79-2.21-2.07-2.93-4.09-5.9-6.04-8.92-4.85-7.51-9.65-15.05-14.47-22.58-.19-.29-.41-.56-.81-1.09Z"/>
      </g>
      <g>
        <path class="cls-9" d="m1120.81,169.48c0,4.43.05,8.87-.01,13.3-.09,6.53-4.77,11.23-11.09,11.22-6.34,0-11.02-4.68-11.07-11.23-.06-8.96-.07-17.93,0-26.89.05-6.26,5.15-11.28,11.22-11.19,5.96.09,10.86,5.05,10.94,11.19.06,4.53.01,9.06.01,13.59Z"/>
        <path class="cls-13" d="m1125.79,115.12c0-4.43-.06-8.86.01-13.29.1-6.32,4.79-11.12,10.87-11.23,5.65-.1,11,4.76,11.16,10.74.24,9.24.24,18.49,0,27.72-.16,6.34-5.36,11.1-11.23,10.91-6.15-.21-10.73-5.07-10.8-11.57-.05-4.43,0-8.86,0-13.29Z"/>
        <path class="cls-17" d="m1150.11,166.79c-4.53,0-9.06.06-13.59-.01-5.63-.09-10.11-4.12-10.65-9.45-.59-5.92,2.74-10.77,8.38-12.14.84-.2,1.71-.41,2.56-.41,9.06-.03,18.12-.21,27.17.04,7.67.21,12.59,7.24,10.41,14.29-1.38,4.46-5.38,7.57-10.12,7.66-4.72.09-9.44.02-14.17.02Z"/>
        <path class="cls-23" d="m1096.42,118.03c4.43,0,8.85-.04,13.28,0,6.44.07,11.05,4.67,11,10.88-.05,6.12-4.6,10.61-10.89,10.64-9.14.04-18.28.05-27.42,0-6.14-.03-10.85-4.81-10.8-10.82.05-5.85,4.75-10.6,10.69-10.69,4.71-.07,9.43-.01,14.14-.02Z"/>
        <path class="cls-13" d="m1159.48,140.03c-7.69-.04-6.86.7-6.94-7.02-.04-4.19,0-8.3,3.18-11.62,3.43-3.59,8.34-4.64,12.67-2.63,4.04,1.88,6.91,6.57,6.54,10.7-.44,4.95-3.79,8.88-8.56,10.1-2.27.58-4.58.45-6.89.47Z"/>
        <path class="cls-9" d="m1093.68,152.22c.03,3.75.35,7.54-2.39,10.69-3.38,3.9-8.76,5.16-13.35,3.02-4.43-2.06-7.07-6.86-6.36-11.54.77-5.05,4.7-9.09,9.78-9.57,3.34-.31,6.72-.1,10.09-.11,1.55,0,2.27.76,2.24,2.32-.04,1.73,0,3.46,0,5.19Z"/>
        <path class="cls-23" d="m1120.71,105.68c-.09,8.07.95,7.13-6.89,7.19-2.3.02-4.61.13-6.88-.49-5.16-1.41-8.65-6.28-8.17-11.46.52-5.51,4.87-9.78,10.41-10.22,4.96-.39,9.95,3.49,11.18,8.62.52,2.19.25,4.4.35,6.37Z"/>
        <path class="cls-17" d="m1132.93,171.93c1.63,0,3.28-.14,4.89.03,5.82.6,10.34,5.79,10.05,11.41-.3,5.87-5.35,10.64-11.19,10.57-6.03-.06-10.71-4.67-10.86-10.77-.07-2.69.11-5.39-.05-8.07-.16-2.6,1-3.46,3.42-3.26,1.24.1,2.5.02,3.74.02,0,.02,0,.05,0,.07Z"/>
      </g>
      <path class="cls-4" d="m1262.15,168.5c3.53-.92,6.99-1.55,10.25-2.73,7.97-2.89,12.08-9.02,13.35-17.16.77-4.95,1.08-9.95-1.01-14.69-.8-1.82-1.88-3.56-3.04-5.18-.63-.87-.8-1.55-.51-2.56,1.08-3.76.82-7.48-.34-11.2-.41-1.31-1.1-1.78-2.45-1.62-3.93.46-7.39,2.12-10.63,4.23-1.49.97-2.8,1.25-4.6.83-7.68-1.79-15.38-1.65-23.08.15-.79.19-1.8-.12-2.6-.46-3.47-1.47-6.81-3.27-10.36-4.5-2.76-.95-3.19-.46-3.97,2.31-.98,3.45-.94,6.89-.09,10.36.15.61.18,1.52-.16,1.93-5.07,6.01-5.55,12.97-4.39,20.31,1.21,7.64,4.83,13.66,12.1,16.78,3.55,1.52,7.42,2.28,11.17,3.4-.58,1.11-1.38,2.51-2.07,3.97-.49,1.03-.56,2.73-1.3,3.06-1.73.76-3.75,1.25-5.63,1.17-3.97-.16-7.09-2.14-9.15-5.59-1.38-2.32-3.24-4.06-5.76-5.06-.55-.22-1.14-.53-1.69-.49-1.06.08-2.11.38-3.16.58.6.8,1.05,1.8,1.82,2.35,2.58,1.84,4.73,4.04,5.7,7.08,2.17,6.83,8.69,9.18,14.65,8.61,1.18-.11,2.34-.3,3.68-.47,0,3.18.1,6.32-.04,9.44-.08,1.93-1.97,2.71-4.25,1.94-7.23-2.46-13.67-6.3-19.16-11.58-12.11-11.66-17.69-25.98-16.73-42.75,1.36-23.55,19.42-43.89,42.71-48.6,31.15-6.31,58.51,14.73,63.56,43.25,4.44,25.08-10.61,51-34.72,59.33-.5.17-1.01.36-1.53.43-2.07.3-3.19-.63-3.21-2.72-.03-4.27-.12-8.54.02-12.81.13-4.22-.44-8.15-3.39-11.32Z"/>
    </g>
    <path class="cls-3" d="m304.21,52.5c.98.1,1.97.19,2.95.32,4.09.54,8,1.61,11.48,3.92,3.49,2.31,5.62,5.48,6.13,9.68.38,3.13-.09,6.16-1.17,9.09-1.87,5.09-5.05,9.24-9.12,12.77-5.17,4.49-11.31,6.85-17.91,8.21-3.37.7-6.78,1-10.22.85-3.65-.15-7.12-.93-10.09-3.23-1.42-1.1-2.66-2.34-3.21-4.12-.06-.19-.12-.38-.15-.58-.06-.41.03-.76.43-.96.37-.19.64.03.86.27,2.86,3.16,6.6,4.13,10.66,4.17,5.36.06,10.44-1.27,15.33-3.36,3.44-1.47,6.6-3.42,9.44-5.86,3.31-2.86,6.04-6.16,7.5-10.36.78-2.24,1.03-4.53.25-6.85-.58-1.74-1.83-2.87-3.35-3.74-2.15-1.24-4.51-1.81-6.95-2.09-6.06-.7-11.95.24-17.73,2.01-9.12,2.79-17.4,7.26-25.05,12.91-3.37,2.49-6.4,5.35-8.7,8.89-1.8,2.77-2.87,5.77-2.83,9.12.04,2.81,1.11,5.23,2.75,7.44,1.78,2.4,4.03,4.33,6.34,6.18,2.81,2.26,5.75,4.36,8.47,6.75.84.74,1.71,1.45,2.42,2.32.29.35.54.36.93.15,3.53-1.94,7.02-3.95,10.61-5.77,1.53-.78,2.48-2.03,3.57-3.21,2.06-2.22,4.41-4.05,7.27-5.14,1.03-.39,2.1-.61,3.23-.43,1.55.25,2.55,1.11,3.08,2.55.61,1.66.47,3.37.29,5.09-.01.14-.11.28,0,.41.13.05.21-.03.29-.1.87-.67,1.79-.57,2.71-.17,1.09.46,1.48,1.19,1.19,2.34-.45,1.8-.96,3.59-1.42,5.39-.68,2.68-1.41,5.34-1.84,8.07-.13.86-.08,1.73-.05,2.59,0,.14,0,.32.17.36.17.03.24-.14.32-.25.21-.33.43-.67.61-1.02,2.45-4.67,4.51-9.53,6.66-14.34,1.54-3.44,3.09-6.88,4.53-10.37.46-1.12.75-2.3,1.01-3.48.18-.84.62-1.33,1.46-1.54,1.66-.41,3.33-.61,5.04-.38.4.05.77.18,1.12.38.63.37.79.8.57,1.49-.52,1.6-1.15,3.16-1.34,4.84-.35,3.01,0,5.91,1.45,8.61.16.3.23.82.51.84.35.02.44-.5.62-.8,1.7-2.81,3.3-5.68,4.84-8.58,1.28-2.41,2.43-4.88,2.96-7.59.11-.55.34-1.07.49-1.6.13-.46.43-.74.87-.89,1.9-.66,3.84-.79,5.82-.47.32.05.62.19.89.38.56.37.7.74.48,1.38-.47,1.44-1.04,2.86-1.28,4.36-.47,2.95-.22,5.83,1.08,8.56.44.93.94,1.83,1.37,2.77.19.41.4.46.79.28,2.15-1.01,4.4-1.72,6.75-2.1,5.19-.83,10.24-.49,14.95,2.07,3.77,2.05,6.4,5.06,7.38,9.34.15.65.19,1.32.29,1.97v.22c-.18.51-.05,1.04-.15,1.56-.62,3.3-2.62,5.45-5.63,6.77-.27.12-.56.15-.84.18-.31.03-.59,0-.72-.34-.13-.34.03-.59.31-.78.43-.29.88-.58,1.29-.89,1.99-1.53,3.16-3.47,2.87-6.06-.23-2.06-1.2-3.81-2.62-5.3-2.05-2.15-4.65-3.32-7.5-3.99-3.28-.77-6.6-.96-9.94-.54-1.74.22-3.44.64-5.09,1.25-.38.14-.46.31-.3.68.18.43.31.89.43,1.34.6,2.14.77,4.26-.24,6.34-.75,1.54-1.88,2.76-3.18,3.86-2.15,1.83-4.64,2.98-7.35,3.65-2.29.56-4.03-.88-4.04-3.22-.01-1.61.43-3.11,1.11-4.54,1.38-2.88,3.45-5.23,5.82-7.33.64-.56.68-.55.29-1.27-1.51-2.77-2.43-5.74-3.03-8.82-.03-.18,0-.4-.2-.53-.21.15-.27.39-.37.6-2.04,3.95-4.22,7.82-6.76,11.47-.44.63-.49,1.12-.2,1.82.76,1.79,1.17,3.67,1.1,5.64-.1,2.73-1.21,4.97-3.28,6.69-2.68,2.23-5.83,3.42-9.29,3.78-.91.1-1.84.11-2.74-.18-1.07-.34-1.72-1.23-1.59-2.17.08-.56.27-1.08.6-1.55.59-.86,1.25-1.68,1.92-2.49,2.24-2.76,4.66-5.37,6.71-8.28.3-.42.33-.72.09-1.16-1.46-2.73-2.65-5.57-3.26-8.63-.12-.59-.25-1.17-.4-1.85-.09.19-.13.27-.16.35-2.68,6.75-5.72,13.34-9.22,19.71-.99,1.8-1.86,3.67-3.14,5.31-.79,1.02-1.66,1.96-2.86,2.52-1.16.55-2.38.33-3.29-.57-.43-.43-.74-.93-.95-1.5-.69-1.9-.67-3.86-.55-5.83.03-.56.1-1.11.15-1.67-.12.07-.16.15-.19.23-.83,2.04-1.73,4.05-2.71,6.02-.61,1.23-1.25,2.44-2.08,3.55-1.56,2.08-4.13,2.19-5.94,1.36-.36-.17-.66-.43-.94-.72-1.25-1.31-1.98-2.92-2.59-4.59-1.41-3.87-1.39-7.81-.66-11.8.27-1.49.62-2.95,1.13-4.45-.14.04-.21.05-.26.08-2.22,1.16-4.37,2.46-6.54,3.72-.28.16-.31.34-.18.63,1.47,3.3,1.73,6.76,1.34,10.29-.49,4.5-2.15,8.51-5.18,11.92-3.13,3.52-6.95,5.87-11.58,6.86-.83.18-1.67.27-2.5.4h-2.49c-.5-.07-1-.14-1.49-.21-1.73-.24-3.34-.72-4.51-2.17-1.91-2.37-2.51-5.09-2.18-8.03.39-3.57,2.02-6.54,4.53-9.07,1.94-1.96,4.1-3.64,6.37-5.19,3.06-2.1,6.27-3.92,9.58-5.59.69-.35.69-.42.11-.89-1.35-1.09-2.76-2.09-4.18-3.08-4.29-2.99-8.68-5.86-12.55-9.41-2.73-2.51-5.15-5.26-6.77-8.64-.62-1.29-.99-2.67-1.36-4.05,0-.9,0-1.81,0-2.71.03-.07.06-.13.07-.2.43-2.9,1.53-5.55,3.01-8.06,2.53-4.31,5.89-7.91,9.66-11.16,5.1-4.4,10.81-7.88,16.81-10.88,3.86-1.93,7.83-3.6,11.9-5.04,3.94-1.4,7.98-2.37,12.15-2.81.98-.1,1.97-.2,2.95-.3,1.55,0,3.11,0,4.66,0Zm-31.97,74.17c-.04-1.21-.18-2.59-.5-3.94-.15-.63-.16-.64-.7-.33-3.13,1.81-6.15,3.77-8.97,6.04-1.9,1.53-3.74,3.12-5.01,5.26-1.07,1.81-1.85,3.71-1.79,5.87.05,2.02,1.1,3.04,3.13,3.06,1.16.01,2.26-.23,3.33-.64,2.57-.98,4.7-2.57,6.47-4.66,2.57-3.02,3.98-6.49,4.05-10.66Zm26.11-18.36c.02-1.13-.32-1.43-1.22-1.28-.38.06-.73.19-1.07.38-1.04.57-1.95,1.3-2.7,2.22-1.4,1.74-2.47,3.69-3.39,5.71-1.65,3.63-2.34,7.45-1.99,11.43.08.92.25,1.83.65,2.67.43.9,1.06.97,1.7.19.48-.59.87-1.24,1.19-1.93,2.33-5.07,4.31-10.28,5.95-15.61.4-1.31.76-2.63.87-3.78Zm41.81,10.79c0-.43-.1-.94-.22-1.45-.14-.58-.19-.6-.62-.19-2.1,1.97-3.53,4.36-4.39,7.1-.11.34-.18.7-.17,1.06,0,.39.14.54.53.37,3.11-1.29,4.76-3.38,4.87-6.89Zm-17.57,3.92c-.25.1-.33.25-.42.38-1.64,2.18-3.44,4.22-5.3,6.21-.21.23-.68.49-.5.74.24.31.68,0,.96-.17,1.83-1.07,3.43-2.4,4.49-4.28.5-.87.74-1.82.76-2.88Z"/>
    <g>
      <path class="cls-15" d="m50,344c0-46.67,0-93.33,0-140,46.67,0,93.33,0,140,0,0,46.67,0,93.33,0,140-46.67,0-93.33,0-140,0Zm106.48-76.35c-1.08.05-2.18.03-3.25.16-.99.12-1.97.35-2.93.62-10.38,2.93-14.78,11.89-12.23,22.26,1,4.04,3.57,7.17,6.94,9.61,3.13,2.27,6.67,3.73,10.14,5.35,2.66,1.24,5.34,2.49,7.86,3.99,3.67,2.18,3.4,7.76-.17,9.81-3.72,2.13-9.94,1.87-13.37-.71-1.89-1.42-3.5-3.12-4.78-5.11-.32-.5-.6-.62-1.17-.28-3.05,1.8-6.13,3.56-9.19,5.34-.92.54-.93.63-.38,1.61,3.35,5.93,8.46,9.6,14.94,11.36,5.01,1.36,10.11,1.51,15.18.36,7.42-1.68,13.78-6.43,14.78-14.96.47-4.05-.02-7.93-1.81-11.59-1.79-3.67-4.81-6.17-8.31-8.04-3.55-1.89-7.25-3.49-10.86-5.29-1.81-.9-3.65-1.8-5.27-2.98-1.82-1.32-2.29-3.35-1.93-5.53.34-2.02,1.55-3.4,3.5-3.94,3.1-.86,6.62-.36,8.91,2.57.49.63.96,1.28,1.45,1.91.29.38.62.57,1.09.25,2.95-1.97,5.9-3.93,8.85-5.89.48-.32.65-.68.3-1.22-2.37-3.6-5.26-6.6-9.38-8.23-2.88-1.14-5.88-1.32-8.91-1.43Zm-57.79,38.44c0,8.18,0,16.35,0,24.53,0,1.35.01,1.37,1.4,1.37,3.46,0,6.92,0,10.38,0q1.5,0,1.5-1.53c0-16.26,0-32.53,0-48.79q0-1.46,1.42-1.46c5.2,0,10.41,0,15.61,0,1.1,0,1.18-.08,1.16-1.17-.04-3.2-.11-6.4-.11-9.6,0-.8-.27-1.01-1.04-1.01-6.57,0-13.15-.08-19.72-.08-9.09,0-18.18.06-27.27.09-1.44,0-1.48.01-1.5,1.49-.03,2.97-.03,5.95-.04,8.92,0,1.33.02,1.36,1.33,1.36,5.23,0,10.46,0,15.69,0,1.17,0,1.18,0,1.18,1.19,0,8.23,0,16.47,0,24.7Z"/>
      <path class="cls-4" d="m156.48,267.65c3.03.11,6.04.29,8.91,1.43,4.12,1.64,7,4.63,9.38,8.23.35.54.18.9-.3,1.22-2.95,1.96-5.9,3.92-8.85,5.89-.48.32-.8.13-1.09-.25-.49-.63-.96-1.28-1.45-1.91-2.29-2.93-5.81-3.43-8.91-2.57-1.95.54-3.16,1.92-3.5,3.94-.37,2.18.1,4.21,1.93,5.53,1.63,1.18,3.47,2.08,5.27,2.98,3.6,1.8,7.31,3.4,10.86,5.29,3.51,1.86,6.52,4.37,8.31,8.04,1.79,3.67,2.29,7.54,1.81,11.59-1,8.52-7.36,13.27-14.78,14.96-5.07,1.15-10.17,1-15.18-.36-6.49-1.76-11.59-5.43-14.94-11.36-.55-.98-.54-1.07.38-1.61,3.06-1.78,6.14-3.53,9.19-5.34.57-.34.85-.21,1.17.28,1.28,1.99,2.89,3.69,4.78,5.11,3.43,2.58,9.66,2.84,13.37.71,3.57-2.05,3.84-7.63.17-9.81-2.52-1.5-5.2-2.75-7.86-3.99-3.47-1.62-7.01-3.08-10.14-5.35-3.37-2.45-5.95-5.58-6.94-9.61-2.56-10.37,1.85-19.33,12.23-22.26.96-.27,1.94-.5,2.93-.62,1.07-.13,2.17-.11,3.25-.16Z"/>
      <path class="cls-4" d="m98.69,306.09c0-8.23,0-16.47,0-24.7,0-1.19,0-1.19-1.18-1.19-5.23,0-10.46,0-15.69,0-1.3,0-1.33-.03-1.33-1.36,0-2.97,0-5.95.04-8.92.02-1.47.06-1.48,1.5-1.49,9.09-.03,18.18-.09,27.27-.09,6.57,0,13.15.07,19.72.08.77,0,1.04.21,1.04,1.01,0,3.2.08,6.4.11,9.6.01,1.09-.06,1.17-1.16,1.17-5.2,0-10.41,0-15.61,0q-1.42,0-1.42,1.46c0,16.26,0,32.53,0,48.79q0,1.53-1.5,1.53c-3.46,0-6.92,0-10.38,0-1.39,0-1.4-.02-1.4-1.37,0-8.18,0-16.35,0-24.53Z"/>
    </g>
    <text/>
    <g>
      <path class="cls-14" d="m238,344v-140h140v140h-140Zm83.24-24.46c1.92,3.79,4.46,6.75,7.79,8.97,6.76,4.51,14.27,5.47,22.06,4.09,14.03-2.48,18.28-13.53,15.22-24.27-1.48-5.2-5.26-8.56-9.83-11-3.67-1.96-7.56-3.51-11.3-5.36-1.77-.87-3.54-1.85-5.08-3.07-1.79-1.44-2.06-3.56-1.54-5.72.51-2.1,1.97-3.37,4-3.81,3.56-.77,6.64.11,8.91,3.14.52.69,1,1.41,1.58,2.22,3.45-2.22,6.82-4.38,10.29-6.61-1.81-3.29-4.07-5.94-7.17-7.84-4.39-2.69-9.26-3.18-14.2-2.69-6.91.68-12.45,3.72-15.37,10.36-3.36,7.64-1.09,16.83,5.64,21.84,2.81,2.09,6.09,3.57,9.23,5.19,2.84,1.46,5.83,2.65,8.67,4.12,1.91.99,3.37,2.49,3.6,4.81.36,3.57-1.66,6.12-5.53,7-5.96,1.36-11.37-.78-15-5.93-.38-.54-.75-1.09-1.17-1.7-3.65,2.12-7.17,4.17-10.81,6.28Zm-46.48,1.41c2,4.27,4.87,7.5,8.91,9.65,4.45,2.37,9.24,2.75,14.15,2.35,7.9-.65,13.7-5.27,15.61-12.68.58-2.23.89-4.6.9-6.9.08-14.58.03-29.15.07-43.73,0-1.27-.48-1.54-1.63-1.52-3.3.06-6.61.02-9.91.02q-1.9,0-1.9,1.91c0,13.94,0,27.89,0,41.83,0,.92.02,1.85-.04,2.77-.25,4.07-2.18,6.21-5.86,6.51-2.99.24-5.44-.75-7.2-3.24-.8-1.13-1.55-2.3-2.35-3.5-3.64,2.21-7.15,4.34-10.75,6.52Z"/>
      <path d="m321.24,319.54c3.64-2.12,7.16-4.16,10.81-6.28.42.61.79,1.16,1.17,1.7,3.63,5.15,9.04,7.29,15,5.93,3.87-.88,5.89-3.43,5.53-7-.23-2.32-1.69-3.82-3.6-4.81-2.84-1.47-5.83-2.66-8.67-4.12-3.14-1.62-6.42-3.1-9.23-5.19-6.73-5.01-9-14.19-5.64-21.84,2.92-6.64,8.46-9.68,15.37-10.36,4.94-.49,9.81,0,14.2,2.69,3.1,1.89,5.36,4.54,7.17,7.84-3.47,2.23-6.84,4.4-10.29,6.61-.57-.81-1.06-1.52-1.58-2.22-2.27-3.03-5.35-3.91-8.91-3.14-2.03.44-3.49,1.71-4,3.81-.53,2.17-.26,4.28,1.54,5.72,1.53,1.23,3.3,2.2,5.08,3.07,3.74,1.85,7.63,3.4,11.3,5.36,4.57,2.44,8.35,5.8,9.83,11,3.06,10.74-1.19,21.79-15.22,24.27-7.79,1.38-15.3.42-22.06-4.09-3.34-2.23-5.88-5.19-7.79-8.97Z"/>
      <path d="m274.76,320.95c3.59-2.18,7.11-4.31,10.75-6.52.8,1.2,1.55,2.37,2.35,3.5,1.76,2.48,4.21,3.48,7.2,3.24,3.68-.3,5.61-2.43,5.86-6.51.06-.92.04-1.85.04-2.77,0-13.94,0-27.89,0-41.83q0-1.91,1.9-1.91c3.3,0,6.61.04,9.91-.02,1.15-.02,1.64.26,1.63,1.52-.04,14.58.01,29.15-.07,43.73-.01,2.31-.32,4.67-.9,6.9-1.91,7.41-7.72,12.03-15.61,12.68-4.91.4-9.71.02-14.15-2.35-4.04-2.15-6.91-5.39-8.91-9.65Z"/>
    </g>
    <g>
      <path class="cls-25" d="m48.56,637.19v-96.09c.71-2.12.99-4.33,1.89-6.43,2.38-5.59,6.24-9.7,11.52-12.65,4.44-2.48,9.25-2.94,14.15-2.95,29.07-.04,58.15-.02,87.22-.02,2.26,0,4.51.11,6.76.45,6.22.93,11.32,3.77,15.45,8.52,4.17,4.8,6.1,10.46,6.12,16.68.08,29.55.05,59.11,0,88.66,0,1.91-.26,3.85-.68,5.72-.95,4.23-2.88,7.96-5.77,11.27-2.43,2.78-5.34,4.82-8.56,6.4-3.77,1.84-7.88,2.22-12.06,2.22-29.87-.04-59.73-.02-89.6-.02-1.06,0-2.15.2-3.19.06-3.83-.52-7.5-1.51-10.84-3.59-4.81-2.98-8.38-6.95-10.56-12.22-.81-1.96-1.11-4.04-1.84-6.01Zm81.21-19.32c1.96,0,3.91-.02,5.87,0,1.07.02,1.45-.29,1.04-1.41-1.54-4.2-3.04-8.41-4.52-12.62-2.53-7.18-5.04-14.38-7.58-21.56-1.69-4.77-3.43-9.52-5.13-14.28-1.43-4.02-2.84-8.05-4.22-12.1-.22-.64-.45-1.06-1.22-1.05-4.89.02-9.78.01-14.67,0-.61,0-.98.23-.98.89-.01,3.14-1.12,6.03-2.13,8.93-3.07,8.79-6.17,17.56-9.24,26.35-1.91,5.47-3.8,10.94-5.68,16.42-.97,2.84-1.92,5.7-2.86,8.55-.57,1.72-.47,1.86,1.23,1.86,3.17,0,6.34-.04,9.5.02,1.28.03,1.87-.43,2.2-1.68,1.05-3.92,2.62-7.67,3.64-11.6.27-1.03.72-1.69,2.16-1.66,6.52.13,13.04.07,19.56.04.83,0,1.19.25,1.46,1.05,1.43,4.24,2.96,8.44,4.38,12.67.29.87.73,1.19,1.59,1.17,1.86-.03,3.73,0,5.59,0Zm13.3-24.12s.04,0,.06,0c0,7.37,0,14.74,0,22.11q0,2.05,2.09,2.05c3.16,0,6.33-.07,9.49.03,1.42.04,1.82-.4,1.82-1.82-.06-10.17-.03-20.33-.03-30.5,0-4.71-.02-9.42-.01-14.13,0-.83-.18-1.35-1.14-1.34-3.72.02-7.45,0-11.17,0-.82,0-1.13.37-1.12,1.21.02,7.46.01,14.92.01,22.38Zm6.84-43.4c-3.76-.43-7.54,2.96-7.48,7.2.07,4.46,3.53,7.74,7.36,7.64,4.49-.12,7.44-3.01,7.54-7.77.08-3.79-2.98-7.43-7.41-7.08Z"/>
      <path class="cls-8" d="m129.76,617.87c-1.86,0-3.73-.02-5.59,0-.86.01-1.3-.3-1.59-1.17-1.42-4.24-2.95-8.44-4.38-12.67-.27-.8-.62-1.05-1.46-1.05-6.52.03-13.05.09-19.56-.04-1.44-.03-1.89.63-2.16,1.66-1.03,3.93-2.59,7.69-3.64,11.6-.34,1.25-.93,1.71-2.2,1.68-3.17-.07-6.34-.02-9.5-.02-1.7,0-1.8-.14-1.23-1.86.94-2.85,1.88-5.71,2.86-8.55,1.88-5.48,3.77-10.95,5.68-16.42,3.07-8.79,6.17-17.56,9.24-26.35,1.01-2.9,2.12-5.79,2.13-8.93,0-.66.37-.89.98-.89,4.89,0,9.78.01,14.67,0,.77,0,1,.41,1.22,1.05,1.38,4.04,2.79,8.07,4.22,12.1,1.69,4.77,3.44,9.51,5.13,14.28,2.54,7.18,5.04,14.37,7.58,21.56,1.49,4.21,2.98,8.43,4.52,12.62.41,1.12.03,1.43-1.04,1.41-1.96-.03-3.91,0-5.87,0Zm-22.95-51.32c-.49.37-.58.76-.7,1.16-.58,1.97-1.2,3.93-1.8,5.9-1.62,5.33-3.24,10.66-4.85,16-.3,1,0,1.33,1.1,1.31,4.14-.07,8.28-.02,12.43-.04.39,0,.83.15,1.2-.19-2.45-8.01-4.89-16.01-7.37-24.13Z"/>
      <path class="cls-8" d="m143.06,593.75c0-7.46,0-14.92-.01-22.38,0-.84.3-1.21,1.12-1.21,3.72,0,7.45.01,11.17,0,.96,0,1.14.52,1.14,1.34-.01,4.71,0,9.42.01,14.13,0,10.17-.02,20.33.03,30.5,0,1.42-.4,1.86-1.82,1.82-3.16-.1-6.33-.03-9.49-.03q-2.09,0-2.09-2.05c0-7.37,0-14.74,0-22.11-.02,0-.04,0-.06,0Z"/>
      <path class="cls-8" d="m149.9,550.35c4.44-.36,7.49,3.28,7.41,7.08-.1,4.75-3.05,7.65-7.54,7.77-3.82.1-7.29-3.18-7.36-7.64-.06-4.24,3.72-7.63,7.48-7.2Z"/>
      <path class="cls-25" d="m106.81,566.55c2.48,8.12,4.92,16.12,7.37,24.13-.37.35-.81.19-1.2.19-4.14.01-8.29-.04-12.43.04-1.11.02-1.4-.3-1.1-1.31,1.62-5.33,3.23-10.66,4.85-16,.6-1.97,1.22-3.93,1.8-5.9.12-.4.2-.79.7-1.16Z"/>
    </g>
    <g>
      <path class="cls-16" d="m382.48,541.43v95.85c-.4.13-.54.41-.57.83-.06.81-.26,1.59-.49,2.37-1.26,4.23-3.34,7.92-6.51,11.05-2.16,2.13-4.56,3.79-7.25,5.11-4.07,2-8.39,2.43-12.86,2.42-29.73-.04-59.47-.02-89.2-.02-2.29,0-4.61.06-6.82-.53-7.09-1.92-12.64-5.97-16.32-12.4-1.79-3.13-3.12-6.54-3.13-10.16-.08-30.31-.04-60.62-.05-90.93,0-2.12.05-4.23.58-6.3,1.92-7.48,6.22-13.04,13.04-16.75,4.26-2.31,8.83-2.86,13.5-2.85,30.98.07,61.97-.28,92.95.19,2.68.04,5.33.77,7.74,1.88,2.4,1.11,4.69,2.49,6.72,4.31,3.21,2.88,5.47,6.28,7.04,10.27.72,1.85.75,3.87,1.64,5.65Zm-111,44.98s-.02,0-.03,0c0,10.08.02,20.17-.02,30.25,0,1.1.44,1.35,1.41,1.34,3.31-.03,6.62-.06,9.92.01,1.3.03,1.7-.45,1.69-1.72-.05-5.65,0-11.3-.04-16.95,0-1.02.24-1.34,1.31-1.34,4.52.03,9.03.18,13.54-.75,9.84-2.03,16.6-8.95,17.22-19.11.25-4.09-.24-8.07-2.21-11.8-2.29-4.35-5.65-7.4-10.18-9.26-4.64-1.91-9.51-2.42-14.44-2.39-5.47.04-10.94.35-16.42.43-1.36.02-1.8.26-1.78,1.73.07,9.85.04,19.7.04,29.55Zm51.49,23.83c0,1.59.01,3.18,0,4.76-.01.95.39,1.48,1.3,1.88,2.98,1.29,6.1,1.88,9.31,2.21,3.94.4,7.84.37,11.68-.62,5.88-1.52,10.41-4.64,11.95-10.95,1.31-5.39-.31-11.03-5.33-14.32-3.47-2.27-7.29-3.71-11.09-5.23-1.66-.67-3.21-1.47-4.49-2.77-.92-.93-.94-1.9-.46-3.03.68-1.59,2.15-1.67,3.49-1.79,4.67-.41,9.16.42,13.47,2.24,1.81.77,2.46.41,2.46-1.49,0-2.57-.05-5.14.02-7.7.04-1.27-.42-1.97-1.65-2.3-5.49-1.47-11.01-2.03-16.67-1.13-5.8.93-10.31,3.57-12.82,9.09-2.25,4.95-.99,10.52,2.35,14.19,2.69,2.96,6.22,4.71,9.88,6.15,2.14.84,4.29,1.67,6.31,2.79,1.16.64,2.26,1.53,2.06,3.05-.19,1.47-1.23,2.19-2.63,2.67-2.28.77-4.63.62-6.87.39-3.87-.4-7.63-1.51-11.05-3.51-1.01-.59-1.19-.07-1.18.8,0,1.54,0,3.08,0,4.62Z"/>
      <path class="cls-10" d="m271.48,586.4c0-9.85.04-19.7-.04-29.55-.01-1.47.43-1.71,1.78-1.73,5.47-.07,10.94-.39,16.42-.43,4.93-.03,9.8.48,14.44,2.39,4.52,1.86,7.88,4.91,10.18,9.26,1.97,3.74,2.46,7.72,2.21,11.8-.62,10.16-7.37,17.08-17.22,19.11-4.51.93-9.01.78-13.54.75-1.07,0-1.32.31-1.31,1.34.05,5.65,0,11.3.04,16.95.01,1.27-.39,1.74-1.69,1.72-3.31-.07-6.62-.04-9.92-.01-.97,0-1.41-.24-1.41-1.34.04-10.08.02-20.17.02-30.25,0,0,.02,0,.03,0Zm13.06-9.71c0,3.03,0,6.07,0,9.1,0,.62,0,1.08.86,1.03,2.68-.16,5.37.07,8.06-.25,5.48-.64,8.97-3.37,10.01-8.56.58-2.93-.09-5.73-2.25-8.08-2.1-2.28-4.84-2.82-7.66-3.31-2.65-.46-5.28.07-7.92,0-.87-.02-1.11.24-1.1,1.1.05,2.99.02,5.98.02,8.96Z"/>
      <path class="cls-10" d="m322.97,610.23c0-1.54,0-3.08,0-4.62,0-.88.17-1.39,1.18-.8,3.42,2,7.17,3.1,11.05,3.51,2.24.23,4.59.38,6.87-.39,1.4-.47,2.44-1.2,2.63-2.67.2-1.52-.9-2.41-2.06-3.05-2.01-1.12-4.16-1.95-6.31-2.79-3.67-1.44-7.19-3.19-9.88-6.15-3.34-3.67-4.6-9.25-2.35-14.19,2.51-5.52,7.01-8.16,12.82-9.09,5.66-.9,11.19-.34,16.67,1.13,1.23.33,1.69,1.03,1.65,2.3-.07,2.57-.02,5.14-.02,7.7,0,1.9-.65,2.25-2.46,1.49-4.31-1.82-8.8-2.65-13.47-2.24-1.33.12-2.81.2-3.49,1.79-.48,1.14-.45,2.11.46,3.03,1.28,1.3,2.83,2.1,4.49,2.77,3.8,1.53,7.62,2.96,11.09,5.23,5.03,3.28,6.65,8.93,5.33,14.32-1.53,6.3-6.06,9.43-11.95,10.95-3.83.99-7.74,1.02-11.68.62-3.21-.33-6.33-.92-9.31-2.21-.91-.4-1.31-.93-1.3-1.88.02-1.59,0-3.18,0-4.76Z"/>
      <path class="cls-16" d="m284.53,576.69c0-2.99.03-5.98-.02-8.96-.01-.86.24-1.12,1.1-1.1,2.64.07,5.28-.46,7.92,0,2.83.49,5.56,1.03,7.66,3.31,2.16,2.35,2.83,5.15,2.25,8.08-1.03,5.2-4.53,7.92-10.01,8.56-2.69.32-5.38.09-8.06.25-.86.05-.86-.41-.86-1.03.01-3.03,0-6.07,0-9.1Z"/>
    </g>
    <g>
      <path class="cls-20" d="m765.49,82.14c-1.89-.03-3.71-.44-5.47-1.11-4.34-1.65-7.62-4.53-9.89-8.58-1.6-2.87-2.21-5.96-2.23-9.22-.03-3.96,1.28-7.5,3.59-10.6,3.69-4.97,8.72-7.54,14.93-7.6,5.98-.06,11.96-.01,17.94-.01.21,0,.41.02.62.03.01.21.03.41.03.62,0,12.16,0,24.31,0,36.47h-19.53Z"/>
      <path class="cls-24" d="m785.02,82.13c0-12.16,0-24.31,0-36.47,0-.21-.02-.41-.03-.62.23,0,.46-.03.69-.03,6.04,0,12.09-.05,18.13,0,8.84.09,16.5,6.32,17.98,15.17,1.28,7.63-1.23,13.99-7.58,18.62-2.78,2.03-5.96,3.06-9.38,3.35-.95,0-1.91,0-2.87.01-3.51,0-7.02,0-10.52,0-2.13,0-4.26-.02-6.39-.03l-.02-.02Z"/>
      <path class="cls-7" d="m764.61,119.39c-.53-.26-1.12-.25-1.68-.37-1.65-.36-3.24-.86-4.74-1.63-5.82-3-9.1-7.81-10.15-14.22-.27-1.63-.11-3.24.02-4.87.23-3.04,1.45-5.74,3.15-8.15,2.66-3.78,6.27-6.31,10.81-7.43,1.14-.28,2.28-.5,3.46-.48.32,0,.64.02.96.02,6.18,0,12.36.02,18.54.02.01.14.04.27.04.41,0,5.36,0,10.72,0,16.08,0,1.3,0,2.6.01,3.9,0,5.35,0,10.69,0,16.04,0,.21-.03.41-.05.61-.23-.01-.46-.03-.68-.03-6.56.05-13.12-.12-19.68.09Z"/>
      <path class="cls-12" d="m764.61,119.39c6.56-.21,13.12-.04,19.68-.09.23,0,.46.02.68.03.02.21.05.41.05.61,0,6.07,0,12.14,0,18.2,0,1.2-.07,2.42-.34,3.55-.74,3.15-2.09,6.04-4.29,8.49-3.15,3.51-7.06,5.6-11.73,6.19-8.06,1.01-15.73-3.47-19.02-10.58-4.68-10.11.32-21.81,10.88-25.49,1.33-.46,2.71-.68,4.08-.92Z"/>
      <path class="cls-1" d="m785.03,102.68c0-1.3,0-2.6-.01-3.9.17-.79.33-1.59.52-2.38.71-2.96,2.06-5.6,4.08-7.88,2.18-2.46,4.8-4.26,7.94-5.3,1.43-.47,2.86-.86,4.37-.96.97,0,1.94,0,2.92,0,5.88.41,10.5,3.1,13.92,7.84,1.94,2.69,2.98,5.72,3.26,9.04.26,3-.11,5.9-1.27,8.66-1.95,4.63-5.21,8.02-9.83,10.05-2.09.92-4.29,1.4-6.57,1.47-.37-.08-.73-.09-1.1,0-4.71-.07-8.77-1.76-12.26-4.89-1.41-1.27-2.62-2.74-3.54-4.37-1.2-2.14-2.02-4.46-2.31-6.93-.02-.16-.07-.31-.11-.46Z"/>
      <path class="cls-24" d="m784.99,82.29c-6.18,0-12.36-.02-18.54-.02-.32,0-.64-.01-.96-.02-.03-.03-.03-.07,0-.1,6.51,0,13.02,0,19.53,0,0,0,.02.02.02.02-.02.05-.03.09-.05.14Z"/>
      <path class="cls-12" d="m804.84,82.26c-.97,0-1.94,0-2.92,0,0-.03.01-.05.03-.08.96,0,1.91,0,2.87-.01.03.02.04.05.02.09Z"/>
      <path class="cls-12" d="m803.25,119.32c.37-.09.73-.09,1.1,0-.37.09-.73.09-1.1,0Z"/>
    </g>
    <g>
      <path class="cls-5" d="m556.18,45.52c.26.01.52.03.78.04,1.1.05,2.21.06,3.31.16.43.04.86.03,1.29.08.81.09,1.63.2,2.45.25.65.04,1.29.2,1.94.23.43.02.84.18,1.27.2.53.02,1.06.13,1.57.24.64.14,1.28.33,1.91.55,1.16.41,2.27.9,3.35,1.49.85.46,1.58,1.06,2.34,1.64.82.63,1.55,1.37,2.17,2.18.86,1.13,1.57,2.35,2,3.73.24.76.41,1.53.54,2.32.1.62.13,1.24.14,1.87,0,8.24,0,16.49,0,24.73,0,2.7-.66,5.2-2.13,7.47-1.89,2.91-4.5,4.83-7.87,5.7-.54.14-1.09.23-1.64.31-.6.09-1.19.09-1.79.09-8.63,0-17.25,0-25.88,0-.75,0-1.51.01-2.25.14-.77.14-1.55.24-2.3.47-1.05.33-2.1.7-3.07,1.22-.53.28-1.03.61-1.54.94-1.16.74-2.18,1.65-3.11,2.65-1.33,1.43-2.34,3.06-3.13,4.84-.23.51-.41,1.04-.56,1.58-.22.77-.4,1.55-.51,2.35-.11.82-.17,1.64-.16,2.47.01,3.8,0,7.6.01,11.4,0,.27-.05.36-.34.35-3.1-.02-6.21-.01-9.31-.03-1.39,0-2.74-.28-4.05-.77-1.4-.52-2.64-1.28-3.77-2.25-1.35-1.16-2.39-2.57-3.26-4.11-.74-1.31-1.28-2.71-1.77-4.13-.12-.35-.28-.71-.35-1.06-.1-.49-.26-.96-.32-1.46-.04-.35-.22-.68-.3-1.01-.09-.42-.17-.84-.23-1.26-.08-.55-.21-1.1-.32-1.65-.1-.52-.2-1.04-.29-1.56-.03-.19-.11-.38-.13-.56-.01-.21-.05-.44-.09-.64-.06-.35.03-.73-.12-1.04-.14-.31-.02-.61-.08-.91-.08-.39-.06-.8-.13-1.2-.02-.12-.01-.24-.01-.36,0-.16.06-.34-.07-.48v-4.17c.09-.06.05-.14.06-.22.06-1.13.15-2.26.3-3.39.23-1.81.54-3.6.93-5.38.38-1.74.74-3.48,1.39-5.15,1.21-3.1,3.07-5.7,5.78-7.66.39-.28.75-.65,1.16-.83.54-.23,1.04-.54,1.58-.77.8-.35,1.64-.6,2.47-.86.51-.16,1.05-.32,1.55-.38.57-.06,1.14-.2,1.73-.16.4.02.81-.08,1.23-.07,1.61.04,3.22.02,4.84.02,10.4,0,20.8,0,31.2,0,.25,0,.35-.04.34-.32-.02-.89,0-1.77,0-2.66q0-.38-.39-.38c-8.54,0-17.07,0-25.61,0-.27,0-.36-.06-.35-.34.05-3.91-.06-7.82.06-11.74.02-.64.06-1.29.19-1.91.18-.83.31-1.66.66-2.45.33-.76.7-1.48,1.16-2.16.46-.67,1.07-1.22,1.71-1.7,1.21-.9,2.55-1.59,3.98-2.07,1.33-.45,2.69-.82,4.07-1.1.23-.05.45-.18.67-.18.67,0,1.3-.24,1.95-.33.33-.04.66-.13.99-.17.38-.05.75-.05,1.13-.09.46-.05.91-.15,1.36-.18.58-.04,1.17-.1,1.76-.13.12,0,.2-.16.26-.12.31.21.63.05.93.04.96-.03,1.93-.12,2.89-.13.04,0,.07-.03.11-.04,1.25,0,2.5,0,3.75,0Zm-16.08,8.08c-2.52-.06-5.23,2.12-4.95,5.59.16,2.05,1.96,4.42,4.92,4.45,2.72.03,4.96-2.24,4.97-4.99.01-2.77-2.21-5.04-4.94-5.05Z"/>
      <path class="cls-21" d="m554.82,102.11c4.61,0,9.21.03,13.82-.01,2.1-.02,4.1-.58,6-1.46,1.47-.69,2.83-1.56,4.05-2.64,1.59-1.41,2.91-3.03,3.9-4.9.58-1.1,1.06-2.25,1.38-3.47.38-1.46.58-2.95.58-4.46,0-3.71,0-7.42,0-11.13,0-.24.03-.35.32-.35,3.34.01,6.67,0,10.01.02.71,0,1.41.09,2.11.21.7.12,1.39.32,2.03.6.84.37,1.66.79,2.4,1.37,2.06,1.59,3.4,3.7,4.46,6.03.83,1.82,1.35,3.73,1.82,5.66.29,1.15.55,2.31.78,3.48.23,1.18.44,2.37.61,3.57.11.77.19,1.54.26,2.31.17,1.78.32,3.56.26,5.34-.02.71-.13,1.41-.15,2.12-.02.7-.14,1.38-.19,2.08-.02.32-.09.63-.13.94-.07.67-.28,1.32-.38,1.99-.13.84-.39,1.66-.61,2.48-.36,1.34-.82,2.65-1.28,3.96-.58,1.65-1.25,3.25-2.07,4.79-.85,1.59-1.9,3.01-3.26,4.19-.68.59-1.45,1.02-2.26,1.41-.76.37-1.57.6-2.38.76-.88.17-1.78.2-2.68.2-12.96,0-25.92,0-38.88,0-.49,0-.43-.05-.43.44,0,.86.01,1.71,0,2.57,0,.27.07.33.33.33,7.16,0,14.31,0,21.47,0,1.42,0,2.84,0,4.26,0,.22,0,.3.05.3.28,0,3.15,0,6.31,0,9.46,0,1.27-.11,2.53-.49,3.74-.26.85-.63,1.69-1.12,2.45-.4.62-.83,1.2-1.3,1.76-.27.32-.56.64-.86.9-.6.52-1.22,1.03-1.88,1.48-1.09.74-2.26,1.35-3.44,1.91-.56.27-1.16.48-1.75.69-1.72.63-3.49,1.12-5.27,1.53-1.32.31-2.65.57-3.99.78-.92.14-1.85.25-2.78.34-.51.05-1.04.06-1.55.08-.78.03-1.56.05-2.34.05-.81,0-1.63.01-2.43-.06-1.31-.12-2.61-.24-3.91-.47-1.3-.22-2.58-.48-3.86-.78-2-.47-3.96-1.05-5.86-1.85-1.85-.77-3.57-1.76-5.16-3.01-1.67-1.31-2.95-2.91-3.83-4.83-.4-.89-.66-1.83-.78-2.8-.11-.89-.1-1.77-.1-2.66,0-3.06-.02-6.13,0-9.19.05-5.11,0-10.22.04-15.33,0-.12,0-.24-.07-.35-.02-.04-.05-.12-.03-.14.22-.25.12-.56.16-.83.16-1.04.51-2.01.82-3,.16-.52.45-.97.68-1.46.49-1.03,1.2-1.9,1.93-2.76,1.06-1.23,2.35-2.15,3.77-2.91,1.44-.77,2.98-1.22,4.6-1.39.52-.06,1.04-.06,1.57-.06,4.26,0,8.53,0,12.79,0h0Zm14.92,45.17c2.7,0,4.94-2.28,4.93-5.04-.02-2.75-2.15-4.99-4.98-4.99-2.8,0-4.91,2.23-4.91,4.98,0,2.77,2.24,5.05,4.96,5.04Z"/>
    </g>
  </g>
</svg>