<svg xmlns="http://www.w3.org/2000/svg" viewBox="0 0 243.68 335.86"><defs><style>.cls-1{fill:#fff;}.cls-10,.cls-11,.cls-12,.cls-13,.cls-14,.cls-15,.cls-2,.cls-3,.cls-4,.cls-5,.cls-6,.cls-7,.cls-8,.cls-9{fill:none;stroke-linecap:round;stroke-linejoin:round;stroke-width:4.37px;}.cls-2{stroke:#9101db;}.cls-3{stroke:#fdcf1d;}.cls-4{stroke:#cc13aa;}.cls-5{stroke:#fd9941;}.cls-6{stroke:#de209f;}.cls-7{stroke:#b10bc0;}.cls-8{stroke:#fd7455;}.cls-9{stroke:#ef1e8d;}.cls-10{stroke:#fdb82b;}.cls-11{stroke:#f92184;}.cls-12{stroke:#fd4170;}.cls-13{stroke:#fd635c;}.cls-14{stroke:#fd5067;}.cls-15{stroke:#a709c8;}</style></defs><g id="레이어_2" data-name="레이어 2"><g id="레이어_1-2" data-name="레이어 1"><path class="cls-1" d="M1.52,290.72a2,2,0,0,1-1.14-.61A1.65,1.65,0,0,1,0,288.72a1.82,1.82,0,0,1,.64-1.24,1.64,1.64,0,0,1,1.3-.31l2,.22q3,.28,6.4.47t6.57.09q.45,0,1.11-.06c.45,0,.82-.05,1.11-.05a2.07,2.07,0,0,1,1.36.47,1.51,1.51,0,0,1,.58,1.25,2.61,2.61,0,0,1-.38,1.49,1.59,1.59,0,0,1-1.39.56,9.46,9.46,0,0,1-1.58-.14,8.8,8.8,0,0,0-1.42-.14H13.16c-1.07,0-2.14,0-3.21-.05v2.66c0,.66,0,1.31,0,1.94s0,1.26.08,1.91.09,1.38.16,2.19q.12,3.33.12,6.71t-.12,6.43c-.07.71-.12,1.36-.13,2s0,1.22,0,1.83v4.19c1.59.07,3.16.12,4.71.14l4.22,0a2.43,2.43,0,0,1,1.44.47,1.45,1.45,0,0,1,.66,1.24,2.72,2.72,0,0,1-.38,1.45,1.54,1.54,0,0,1-1.39.61,6.64,6.64,0,0,1-1.58-.2,6.12,6.12,0,0,0-1.42-.19H12.66c-1.29,0-2.58,0-3.88-.09s-2.55-.12-3.77-.22a31.69,31.69,0,0,1-3.32-.41,2.59,2.59,0,0,1-1.23-.58A1.47,1.47,0,0,1,0,322a1.58,1.58,0,0,1,.72-1.17,2,2,0,0,1,1.39-.28c1,.15,2.23.26,3.6.34,0-1.07,0-2,0-2.86s0-1.62.08-2.36.09-1.47.14-2.19.1-1.52.14-2.41c0-1.44,0-3.07,0-4.88s-.05-3.49-.08-5c0-.78-.1-1.6-.17-2.47s-.15-1.72-.22-2.55-.14-1.63-.2-2.39-.08-1.43-.08-2v-.67l-1-.08a4.62,4.62,0,0,1-.94-.14,5.86,5.86,0,0,0-.94-.05A6.77,6.77,0,0,1,1.52,290.72Z"/><path class="cls-1" d="M26.64,306.25a12.64,12.64,0,0,0-.28-2.55c-.07-.34-.14-.69-.19-1.06a2.7,2.7,0,0,1,0-.88,5,5,0,0,1,.25-1,1.82,1.82,0,0,1,.64-.89,2.67,2.67,0,0,1,1.44-.69,1.58,1.58,0,0,1,1.22.3,1.9,1.9,0,0,1,.64,1,11.17,11.17,0,0,1,.3,1.28,7.74,7.74,0,0,1,.17.8c0,.24.07.51.11.8.07.89.16,1.8.25,2.72a17.24,17.24,0,0,1,0,2.88,12.92,12.92,0,0,1,2.08-3.13,20.51,20.51,0,0,1,2.85-2.66,21.5,21.5,0,0,1,3.16-2,15.14,15.14,0,0,1,3-1.22,9.8,9.8,0,0,1,2.44-.31,5.19,5.19,0,0,1,2.44.47,6.25,6.25,0,0,1,3.11,3.36A18.06,18.06,0,0,1,51.76,309a38.49,38.49,0,0,1,.36,4.94c0,1.74.05,3.44.08,5.1,0,.7.1,1.41.2,2.11s.15,1.26.19,1.66a2.94,2.94,0,0,1-.39,1.8,1.8,1.8,0,0,1-1.66.7,2.13,2.13,0,0,1-2-.86,5.64,5.64,0,0,1-.64-2.47c-.07-1-.1-2-.08-3.13s0-2.28,0-3.44,0-2.33-.06-3.49a30.1,30.1,0,0,0-.28-3.3,9,9,0,0,0-1-3.44,2.41,2.41,0,0,0-2.22-1.22,5.33,5.33,0,0,0-1.08.14,10.31,10.31,0,0,0-1.14.3,17.21,17.21,0,0,0-2.66,1.36,18.36,18.36,0,0,0-2.75,2.11,21.23,21.23,0,0,0-2.55,2.83,17.42,17.42,0,0,0-2,3.46c0,.45,0,1,0,1.69s0,1.39.05,2.11,0,1.42.06,2.11,0,1.25,0,1.69a4.17,4.17,0,0,1-.33,1.66,3.11,3.11,0,0,1-1.38,1.39,3,3,0,0,1-1.36.5,1.39,1.39,0,0,1-1.14-.39,2.29,2.29,0,0,1-.58-.83,4.39,4.39,0,0,1-.2-1v-5.43Q27.3,315,27,312c-.08-1.29-.16-2.41-.25-3.35A23.07,23.07,0,0,1,26.64,306.25Z"/><path class="cls-1" d="M63.4,300.48a12.64,12.64,0,0,1,5-.83,16.39,16.39,0,0,1,2.31.33,5.55,5.55,0,0,1,2.13.89,1.9,1.9,0,0,1,.94,2.33,1.41,1.41,0,0,1-1.16,1.05,4.21,4.21,0,0,1-1.66,0,9.77,9.77,0,0,1-1-.44,3.76,3.76,0,0,0-1.3-.39,9.6,9.6,0,0,0-1.52,0,6.74,6.74,0,0,0-1.42.22,3.3,3.3,0,0,0-1.3.83,2.1,2.1,0,0,0-.53,1.5,2.29,2.29,0,0,0,1.25,1.83,26.74,26.74,0,0,0,4.08,2.05c.88.37,1.77.79,2.66,1.25a10.59,10.59,0,0,1,2.35,1.64,7.78,7.78,0,0,1,1.67,2.16,6.18,6.18,0,0,1,.64,2.88,5.56,5.56,0,0,1-.78,2.91,7.2,7.2,0,0,1-2.08,2.22,9.81,9.81,0,0,1-3,1.39,14.46,14.46,0,0,1-3.74.47,12.53,12.53,0,0,1-2.78-.33,11.87,11.87,0,0,1-2.71-1,7.82,7.82,0,0,1-2.19-1.69,5.16,5.16,0,0,1-1.2-2.47A2.93,2.93,0,0,1,58,318,1.61,1.61,0,0,1,58.8,317,1.21,1.21,0,0,1,60,317a2.18,2.18,0,0,1,.94,1,5,5,0,0,0,.92,1.47,5.69,5.69,0,0,0,1.25.91,13,13,0,0,0,1.63.58,7.18,7.18,0,0,0,2,.25,7,7,0,0,0,4.18-1,3.27,3.27,0,0,0,1.36-2.75,3,3,0,0,0-1.14-2.3A14.63,14.63,0,0,0,67.06,313a25.7,25.7,0,0,1-2.91-1.24,11.11,11.11,0,0,1-2.35-1.59,7,7,0,0,1-1.59-2,5.39,5.39,0,0,1-.58-2.5,4.74,4.74,0,0,1,1.14-3.44A7.92,7.92,0,0,1,63.4,300.48Z"/><path class="cls-1" d="M87.58,289.39a2.53,2.53,0,0,1,.69-1.53,1.92,1.92,0,0,1,1.53-.52,1.82,1.82,0,0,1,1.52.72,2.69,2.69,0,0,1,.42,1.77,12.55,12.55,0,0,1-.14,2c-.09.53-.17,1.25-.25,2.13-.07.59-.13,1.22-.16,1.89s-.08,1.38-.12,2.16l2.72,0c1,0,1.87,0,2.72,0a3,3,0,0,1,1.88.33,1.58,1.58,0,0,1,.73,1.45,1.27,1.27,0,0,1-.59,1.21,4.58,4.58,0,0,1-1.8.45c-1,.07-2,.12-3,.14s-2,0-2.91.08c-.08,2.88-.1,5.93-.06,9.12s.09,6.26.17,9.18a2.28,2.28,0,0,1,.72,1.47,2.64,2.64,0,0,1-.78,2.13q-1.83,2.28-3.32.12a3.8,3.8,0,0,1-.64-1.89c-.1-.81-.16-1.66-.2-2.55q-.1-4-.14-8.54c0-3,0-5.95.09-8.87-1.41,0-2.85-.06-4.33-.06H78a2.55,2.55,0,0,1-1.61-.5,1.58,1.58,0,0,1-.67-1.33,1.54,1.54,0,0,1,.67-1.38,3.09,3.09,0,0,1,1.77-.45l4,0c1.57,0,3.15,0,4.74.09A25.75,25.75,0,0,1,87,295.6c.07-.66.13-1.35.17-2.05s.09-1.38.16-2S87.47,290.17,87.58,289.39Z"/><path class="cls-1" d="M110.37,298.6a13.61,13.61,0,0,1,4.3.8,8.88,8.88,0,0,1,3.3,2.3,13.86,13.86,0,0,1,3.33,7.1,36.9,36.9,0,0,1,.33,8.59,7.33,7.33,0,0,0-.08,1.33,2.82,2.82,0,0,0,.52,1.34,4.4,4.4,0,0,0,.81,1.27c.31.33.69.7,1.13,1.11a2.41,2.41,0,0,0,.53.28,1.49,1.49,0,0,1,.58.39,1.33,1.33,0,0,1,.56,1.16,2.62,2.62,0,0,1-.5,1.28,1.64,1.64,0,0,1-1.3.58,2.66,2.66,0,0,1-1.36-.42,9.08,9.08,0,0,1-2.39-2,6.28,6.28,0,0,1-1.27-2.22,8.67,8.67,0,0,1-2.11,1.89,12.79,12.79,0,0,1-2.66,1.27,11.94,11.94,0,0,1-2.75.72,19.87,19.87,0,0,1-3,.23,8.65,8.65,0,0,1-3.13-.59,4.75,4.75,0,0,1-2.3-1.69,6.56,6.56,0,0,1-1.28-4.21,6.86,6.86,0,0,1,.58-2.72,7.16,7.16,0,0,1,1.47-2.22,12.9,12.9,0,0,1,3.91-2.72,14,14,0,0,1,5.3-1.16,10.76,10.76,0,0,1,2.74.31,5.09,5.09,0,0,1,2.14,1.13,10.49,10.49,0,0,0-.22-2,17.7,17.7,0,0,0-.59-2.13,13.24,13.24,0,0,0-.86-2,6.14,6.14,0,0,0-1-1.5,6.59,6.59,0,0,0-2.63-1.52,11.1,11.1,0,0,0-3.25-.47,9.88,9.88,0,0,0-2.22.25,6.67,6.67,0,0,0-2.21,1,2.32,2.32,0,0,1-1.28.47,1.23,1.23,0,0,1-1.11-.69,1.51,1.51,0,0,1-.14-1.44,2.79,2.79,0,0,1,1-1.28,8.75,8.75,0,0,1,3.19-1.41A13,13,0,0,1,110.37,298.6Zm6.71,18.29a2.63,2.63,0,0,0-1.11-2.38,5.35,5.35,0,0,0-2.77-.78,9,9,0,0,0-3.85.72,9.75,9.75,0,0,0-3,2,4.6,4.6,0,0,0-.8,1.14,3,3,0,0,0-.36,1.47,3.31,3.31,0,0,0,.72,2.16,3.76,3.76,0,0,0,1,.64,4.65,4.65,0,0,0,1.53.3,12.73,12.73,0,0,0,5-.83,7.72,7.72,0,0,0,2.47-1.52A3.77,3.77,0,0,0,117.08,316.89Z"/><path class="cls-1" d="M134.88,302.09a16.08,16.08,0,0,1,2.89-1.89,7.78,7.78,0,0,1,3.71-.94,7.54,7.54,0,0,1,1.61.19,6,6,0,0,1,1.33.42,7.43,7.43,0,0,1,3.49,3,8.91,8.91,0,0,1,1.28,4.74q0,1.23,0,2.28c0,.7-.06,1.51-.14,2.44a1.73,1.73,0,0,1,.34.64,9.63,9.63,0,0,1,.3,1.05,10.78,10.78,0,0,1,.22,1.25,8.76,8.76,0,0,1,.09,1.16c0,.44,0,.91-.06,1.39a8.54,8.54,0,0,1-.17,1.22,53.1,53.1,0,0,1-1.05,5.54,20.58,20.58,0,0,1-1.94,5,17.07,17.07,0,0,1-2.8,3.94,7.4,7.4,0,0,1-3.47,2.05,10.79,10.79,0,0,1-4.82-.11,16.67,16.67,0,0,1-3.13-1.14,18,18,0,0,1-2.91-1.8,11.56,11.56,0,0,1-1.25-1.06,7,7,0,0,1-1.14-1.38,6,6,0,0,1-.64-1.44,2.31,2.31,0,0,1,.14-1.67,1.67,1.67,0,0,1,.67-.94,1.36,1.36,0,0,1,1.16-.28,1.84,1.84,0,0,1,1.17.67,6.34,6.34,0,0,1,.58.91,5.14,5.14,0,0,0,.91,1.2,21.81,21.81,0,0,0,3.14,2.27,7.22,7.22,0,0,0,3.79,1.05A4.56,4.56,0,0,0,141,331a7.09,7.09,0,0,0,2-2.36,22.86,22.86,0,0,0,1.88-4.55,25.22,25.22,0,0,0,1-4.65c-.74.62-1.48,1.2-2.22,1.71a8.68,8.68,0,0,1-2.6,1.22,17,17,0,0,1-4.33.67,10.14,10.14,0,0,1-2.58-.33,7.43,7.43,0,0,1-2.27-1,7,7,0,0,1-1.8-1.8,7.19,7.19,0,0,1-1.11-2.66,15.46,15.46,0,0,1,.67-8.27A15.67,15.67,0,0,1,134.88,302.09Zm10.43,6.76a10,10,0,0,0-.22-2.05,5.34,5.34,0,0,0-.7-1.74,3.71,3.71,0,0,0-1.24-1.22,3.42,3.42,0,0,0-1.83-.48,5.19,5.19,0,0,0-2.17.48,9.88,9.88,0,0,0-2,1.22,10.11,10.11,0,0,0-1.75,1.71,12.87,12.87,0,0,0-1.33,2,10.22,10.22,0,0,0-.66,1.36,9.08,9.08,0,0,0-.53,1.72,15.94,15.94,0,0,0-.28,1.91,7.27,7.27,0,0,0,.08,1.88,4.66,4.66,0,0,0,1.31,2.61,3.8,3.8,0,0,0,2.85,1.11,9.64,9.64,0,0,0,2.17-.25,11.74,11.74,0,0,0,2.1-.69,8,8,0,0,0,1.78-1.08A4.38,4.38,0,0,0,144,316a3.9,3.9,0,0,1,0-.75c0-.2,0-.45.08-.75a4,4,0,0,0,.19-.63,1.94,1.94,0,0,1,.64-.86,4,4,0,0,0,.33-1.53Q145.31,310.47,145.31,308.85Z"/><path class="cls-1" d="M171.09,306.64a8.75,8.75,0,0,0-2.44,1.19,15.63,15.63,0,0,0-2.19,1.83,22.6,22.6,0,0,0-2,2.24,21.33,21.33,0,0,0-1.67,2.5,7.83,7.83,0,0,0-.8,1.88,15.81,15.81,0,0,0-.47,2.17c-.11.74-.2,1.48-.25,2.22s-.11,1.42-.14,2.05a2.25,2.25,0,0,1-.61,1.69A2.16,2.16,0,0,1,159,325a2,2,0,0,1-1.64-.61,2.26,2.26,0,0,1-.47-1.66q0-2,0-3.33t0-2.94c-.07-2.36-.19-4.64-.36-6.82s-.28-4.05-.36-5.6a12.2,12.2,0,0,1,0-2.27,3,3,0,0,1,.61-1.56,1.65,1.65,0,0,1,1.33-.61c1.26,0,1.94.69,2.05,2.06a2.44,2.44,0,0,1,0,.66q0,.33,0,.78c0,1.18,0,2.55.14,4.1a46.45,46.45,0,0,1,0,4.88,22.48,22.48,0,0,1,1.83-3.19,13.86,13.86,0,0,1,2.33-2.63,13.5,13.5,0,0,1,3.19-2.25,28.54,28.54,0,0,1,2.91-1.25l1.41-.5a4,4,0,0,1,1.25-.22,1.84,1.84,0,0,1,1.36.53A1.73,1.73,0,0,1,175,304a2.35,2.35,0,0,1-.39,1,2.68,2.68,0,0,1-.88.86,2.35,2.35,0,0,1-1.2.44A6.6,6.6,0,0,0,171.09,306.64Z"/><path class="cls-1" d="M185.79,298.6a13.67,13.67,0,0,1,4.3.8,8.88,8.88,0,0,1,3.3,2.3,13.77,13.77,0,0,1,3.32,7.1,36.35,36.35,0,0,1,.34,8.59,6.62,6.62,0,0,0-.09,1.33,3,3,0,0,0,.53,1.34,4.38,4.38,0,0,0,.8,1.27q.48.5,1.14,1.11a2.2,2.2,0,0,0,.53.28,1.56,1.56,0,0,1,.58.39,1.29,1.29,0,0,1,.55,1.16,2.51,2.51,0,0,1-.49,1.28,1.65,1.65,0,0,1-1.31.58,2.69,2.69,0,0,1-1.36-.42,9,9,0,0,1-2.38-2,6.32,6.32,0,0,1-1.28-2.22,8.62,8.62,0,0,1-2.1,1.89,12.88,12.88,0,0,1-2.67,1.27,11.85,11.85,0,0,1-2.74.72,20,20,0,0,1-3,.23,8.7,8.7,0,0,1-3.14-.59,4.84,4.84,0,0,1-2.3-1.69,6.56,6.56,0,0,1-1.27-4.21,6.69,6.69,0,0,1,.58-2.72,7.16,7.16,0,0,1,1.47-2.22A12.78,12.78,0,0,1,183,311.4a14,14,0,0,1,5.29-1.16,10.85,10.85,0,0,1,2.75.31,5.06,5.06,0,0,1,2.13,1.13,9.72,9.72,0,0,0-.22-2,17.66,17.66,0,0,0-.58-2.13,14.34,14.34,0,0,0-.86-2,6.14,6.14,0,0,0-1.05-1.5,6.56,6.56,0,0,0-2.64-1.52,11,11,0,0,0-3.24-.47,9.88,9.88,0,0,0-2.22.25,6.72,6.72,0,0,0-2.22,1,2.26,2.26,0,0,1-1.27.47,1.21,1.21,0,0,1-1.11-.69,1.48,1.48,0,0,1-.14-1.44,2.67,2.67,0,0,1,1-1.28,8.78,8.78,0,0,1,3.18-1.41A13.11,13.11,0,0,1,185.79,298.6Zm6.71,18.29a2.63,2.63,0,0,0-1.11-2.38,5.35,5.35,0,0,0-2.77-.78,9,9,0,0,0-3.86.72,9.83,9.83,0,0,0-3,2,4.62,4.62,0,0,0-.81,1.14,3.13,3.13,0,0,0-.36,1.47,3.31,3.31,0,0,0,.72,2.16,4,4,0,0,0,1,.64,4.58,4.58,0,0,0,1.52.3,12.7,12.7,0,0,0,5-.83,7.72,7.72,0,0,0,2.47-1.52A3.74,3.74,0,0,0,192.5,316.89Z"/><path class="cls-1" d="M238.36,305.47c0-.92-.25-1.44-.75-1.55s-1,.18-1.64.89a20.74,20.74,0,0,0-1.74,2.27,26.23,26.23,0,0,0-1.58,2.66,28.27,28.27,0,0,0-1.22,2.66c-.41,1-.8,2-1.17,3.11s-.7,2.12-1,3.16-.53,2-.72,2.77a7.93,7.93,0,0,1-1.27,3.16,2.63,2.63,0,0,1-2.11.83c-1.15,0-1.77-.75-1.88-2.27a23.88,23.88,0,0,1-.12-2.44c0-.85,0-1.53,0-2.05-.08-1.78-.14-3.57-.19-5.38a46.45,46.45,0,0,0-.37-4.77c-.07-.55-.17-1.13-.3-1.72a7.41,7.41,0,0,0-.64-1.77A2.53,2.53,0,0,0,220,303.5a1.84,1.84,0,0,0-1.89.75,8.53,8.53,0,0,0-.83,1.19c-.29.5-.58,1-.86,1.61s-.54,1.16-.8,1.75-.48,1.16-.67,1.72a27.78,27.78,0,0,0-1.3,4.07,32.49,32.49,0,0,0-.86,5.69c-.22,2.84-1.39,4.27-3.49,4.27a2.12,2.12,0,0,1-1.64-.64,2.41,2.41,0,0,1-.58-1.69,1.86,1.86,0,0,1,.16-.83,2.07,2.07,0,0,0,.17-.95,12.75,12.75,0,0,0-.11-1.47c-.07-.57-.15-1.17-.22-1.8q-.22-1.83-.45-3.33c-.14-1-.28-1.94-.41-2.85s-.27-1.81-.42-2.72-.29-1.86-.44-2.85a9.44,9.44,0,0,0-.44-1.64,6.42,6.42,0,0,1-.39-2c-.08-1.37.46-2.19,1.6-2.44a2.07,2.07,0,0,1,1.47,0,2.31,2.31,0,0,1,1.14.86,3.31,3.31,0,0,1,.56,2.08,20.9,20.9,0,0,0,0,2.24c.29,1.41.53,2.84.72,4.3s.37,2.93.55,4.41a25.17,25.17,0,0,1,3.94-10.09,6.74,6.74,0,0,1,6-3.66,4.45,4.45,0,0,1,3.1,1.16,7.49,7.49,0,0,1,1.94,2.89,17.06,17.06,0,0,1,.53,2c.17.81.31,1.71.42,2.69s.19,2,.25,3,.06,2.05,0,3.05a27.56,27.56,0,0,1,4.94-9.93,28.65,28.65,0,0,1,2.11-2.41,19.59,19.59,0,0,1,2.38-2.08,6.12,6.12,0,0,1,1.66-1,4.36,4.36,0,0,1,1.95-.19c1.33.18,2.1,1.4,2.32,3.66,0,.77.09,1.74.14,2.91s.1,2.39.14,3.68.07,2.59.09,3.89,0,2.47,0,3.55a20.22,20.22,0,0,0,.31,3.18,6.44,6.44,0,0,0,.41,1.58,3.93,3.93,0,0,1,.5,1.89,3,3,0,0,1-.52,1.83,1.84,1.84,0,0,1-1.58.72,1.67,1.67,0,0,1-.81-.19,6.45,6.45,0,0,1-.8-.53,1.57,1.57,0,0,1-.81-1.3c-.09-.65-.17-1.42-.25-2.3s-.14-1.69-.19-2.72-.11-2.12-.17-3.25-.1-2.27-.14-3.43,0-2.27,0-3.3Z"/><path class="cls-2" d="M204.48,43.32c-3.34,3.34,32.1,24.28,28.19,28.19-1.58,1.58-21.23-20.59-23.74-18.08-3.22,3.22,26.94,21.86,24.4,24.4-2.37,2.37-22.46-18.47-23.92-17-.22.21,2,1.49,1.75,1.75"/><path class="cls-2" d="M203.63,8.78c-2,2,22.18,20.09,21.13,21.13-2,2-17.87-21.21-20.4-18.68-1.69,1.69,22.87,20.21,21.54,21.54-4.63,4.63-47.38-38.7-51.24-34.84-6.23,6.22,61.34,50.9,56.12,56.12-4.29,4.29-53.34-60.7-60.71-53.32-6.32,6.32,67,55.57,61.28,61.28-6.13,6.13-55.1-65.64-61.4-59.34-8.8,8.81,68,57.49,62.74,62.74C228.8,69.31,168.07-8.21,160.6-.73c-3.32,3.31,35.86,31.6,33.73,33.73S163-2,159.94,1c-2.64,2.63,32.65,26,29.33,29.33-4.8,4.8-38.76-34.6-41.2-32.16-3.15,3.14,29.87,25.1,27.48,27.49"/><path class="cls-3" d="M64.12,197.79C61.91,200,92.93,221.4,90.33,224,85.75,228.58,54,188.79,50.1,192.7c-3.11,3.11,32.56,28.62,30.59,30.59"/><path class="cls-3" d="M9.72,144.25C7,147,35.57,163.72,32.38,166.92c-1.51,1.51-20.47-19.64-22.88-17.23C6,153.17,38.65,173.35,35.91,176.1c-2.31,2.31-25.69-10.84-27.12-9.41C3.19,172.3,71.73,216.31,65.07,223c-4.46,4.46-47.87-46-52.45-41.4-5,5,39.53,35.14,37.34,37.33-2.64,2.64-25.46-23-27.85-20.59-1,1,17.4,15.21,16.31,16.31"/><path class="cls-4" d="M211.12,120c-2.59,2.58,24.43,18.37,21.4,21.4-1.45,1.45-19.71-18.67-22-16.36-3,3,25.25,20.47,22.86,22.86-2,2-22.63-7.38-23.86-6.15-2.32,2.32,25.8,20.29,23.05,23-1.69,1.69-20.81-13.22-22.54-11.48-2.79,2.79,21.17,18.72,19.94,19.94-1.65,1.65-16.66-13.42-18.16-11.92-1.12,1.12,19.46,17,18.24,18.25"/><path class="cls-5" d="M116.61,198.19c-2.6,2.6,27.09,24.42,25.76,25.76-2.19,2.18-19.44-23.25-22.21-20.49-1.67,1.67,22.57,19.94,21.25,21.25-3.79,3.8-40-30-43.2-26.8-2.65,2.65,26.17,21.73,24,24-1.85,1.85-24.85-23.81-28-20.63-2.33,2.33,22.82,18.6,20.71,20.71S96.17,201.2,94.11,203.26c-3.14,3.14,21.85,18.1,20,20-1.36,1.36-22.48-25.72-25.08-23.11s29.35,26,27.66,27.65"/><path class="cls-6" d="M61.21-2C58.52.7,89.15,23.16,87.76,24.55,85.52,26.79,67.85.68,65,3.52c-1.61,1.6,21.54,19,20.28,20.28C82,27.13,49.48-1.16,46.71,1.62,44.53,3.8,68.25,19.5,66.42,21.33,65.05,22.69,47.23,4.83,44.88,7.18,43.08,9,61.82,20.86,60.19,22.49,58.8,23.88,47,8.47,45.54,9.89c-2.4,2.4,15.75,12.9,14.32,14.33C58.82,25.26,40.65,7,38.66,9S61.26,29.08,60,30.32,41,9.87,39.22,11.68,60.67,28.93,58.57,31"/><path class="cls-4" d="M91.75-2.77C89.15-.17,118.87,21.68,117.54,23,115.35,25.2,98.07-.27,95.3,2.49c-1.67,1.67,22.51,19.89,21.2,21.2C112.72,27.47,76.66-6,73.51-2.89c-2.64,2.63,26,21.57,23.78,23.78C95.47,22.71,72.78-2.49,69.65.64,67.36,2.94,92.05,18.89,90,21S71.73.76,69.72,2.77C66.64,5.85,91.05,20.42,89.21,22.26,87.9,23.57,67.65-2.84,65.13-.32S93.9,25.14,92.25,26.8"/><path class="cls-7" d="M210.7,89.45c-2.63,2.64,24.91,18.74,21.82,21.82-1.44,1.45-19.7-18.65-22-16.35-3,3,25.15,20.39,22.77,22.77-2,2-22.54-7.27-23.76-6-2.33,2.34,26,20.46,23.25,23.24-1.9,1.9-20.78-19.14-22.73-17.19-.27.26.21,0,.1.1"/><path class="cls-7" d="M119.92-2.73C117.32-.13,147,21.7,145.68,23,143.5,25.21,126.27-.18,123.51,2.58c-1.66,1.66,22.42,19.81,21.11,21.11C140.85,27.46,104.82-6,101.67-2.85c-2.63,2.63,26,21.54,23.75,23.74C123.58,22.73,100.66-2.8,97.5.36,95.17,2.68,120.21,18.87,118.11,21,116.17,22.91,100.58.36,98.59,2.35c-3.14,3.13,21.79,18,19.92,19.92"/><path class="cls-8" d="M9.7,72.29c-2.64,2.64,25,18.81,21.91,21.9C30.15,95.65,11.83,75.45,9.52,77.76c-3,3,25.34,20.55,22.94,22.95-2,2-22.7-7.46-23.93-6.23-2.32,2.33,25.85,20.33,23.09,23.09C29.54,119.65,11.18,94,9,96.08c-2.69,2.7,20.35,18,19.17,19.17"/><path class="cls-5" d="M9.71,98.44c-2.65,2.64,25,18.81,21.9,21.91-1.45,1.45-19.77-18.75-22.09-16.44-3,3,25.36,20.56,23,23-2,2-22.71-7.64-23.94-6.41-.17.17,1.41,1,1.22,1.23"/><path class="cls-9" d="M206.05,171.09c-2.11,2.11,22.86,20.69,21.77,21.77-1.7,1.71-15.33-17.93-17.49-15.77-1.24,1.24,16.2,14.24,15.22,15.22-2.13,2.12-24.83-12-26.61-10.21s18.64,15.48,17.06,17.06c-1.05,1.05-15.41-11.64-17.22-9.83-1.64,1.65,15.16,12.19,13.68,13.68-1.19,1.19-11.47-11.85-12.69-10.63-2.21,2.2,14.24,11.61,12.93,12.93-.91.9-14.48-17.77-16.22-16s21.85,19.46,20.66,20.66"/><path class="cls-10" d="M10.26,123.19c-2.57,2.58,24.31,18.28,21.29,21.3-1.45,1.44-19.72-18.68-22-16.38-3,3,25.21,20.45,22.82,22.83C30.29,153,9.82,140.13,8.54,141.41c-2.06,2.06,23,18,20.5,20.5"/><path class="cls-10" d="M85.22,198.21c-2.58,2.58,27,24.31,25.64,25.64-2.17,2.17-19.32-23.1-22.06-20.35-1.67,1.66,22.45,19.84,21.14,21.15-3.79,3.79-40-29.94-43.17-26.77-2.65,2.65,26.21,21.76,24,24-1.6,1.6-19-23.52-21.71-20.78-2.35,2.35,23,18.73,20.85,20.85"/><path class="cls-8" d="M136.87,198.17c-.22.23,6.47,6.25,6.36,6.36s-2.55-1.39-2.83-1.11c-1.67,1.67,22.54,19.92,21.23,21.23-3.77,3.77-39.82-29.71-43-26.56-2.63,2.63,26,21.56,23.77,23.77-1.55,1.55-18.17-23.22-20.85-20.55-2.32,2.32,22.72,18.52,20.62,20.62"/><path class="cls-11" d="M23.75,17.86C21.71,19.9,46,38,45,39.05,43.32,40.68,30.27,22,28.21,24,27,25.21,43.4,37.37,42.47,38.3,40.33,40.43,17.54,26.2,15.75,28,13.8,29.93,35,44,33.39,45.62c-1,1.05-14.12-13.35-15.92-11.55S33.51,47,32,48.56"/><path class="cls-11" d="M196.35,191.79c-1.86,1.86,17.06,12.7,14.88,14.87-1.18,1.18-16.48-14.57-18.36-12.7-2.16,2.17,17.85,14.42,16.13,16.13-2.41,2.41-26.05-13.18-27.53-11.69-1.76,1.76,19.46,15.29,17.37,17.38"/><path class="cls-12" d="M177.77,196.89c-2.12,2.12,22.9,20.73,21.81,21.82-1.75,1.75-15.73-18.45-18-16.24-1.29,1.3,16.94,14.9,15.92,15.92-3,3-32.47-22.44-35-19.93-2.34,2.34,23.13,19.2,21.17,21.16"/><path class="cls-12" d="M13.68,32.7c-1.79,1.79,24.13,19.92,22,22-2.59,2.59-22.38-17.2-24.58-15S33.05,59,31.74,60.35c-2.09,2.09-15.06-19.1-17.32-16.84-1.74,1.73,20.34,17.87,19.11,19.11C31.26,64.88,12.1,44.71,10.81,46,9.19,47.62,33.05,63.93,30.89,66.09"/><path class="cls-9" d="M34.16,8.79c-2,2,22.23,20.14,21.19,21.19C53.7,31.62,40.51,12.7,38.43,14.78,37.23,16,54,28.42,53,29.37c-2.32,2.31-26.18-14.91-28.1-13s18.35,15.25,16.79,16.8"/><path class="cls-13" d="M10.23,59.72C7.64,62.32,34.7,78.13,31.67,81.17c-1.47,1.47-20-19-22.3-16.65-3,3.06,25.5,20.68,23.08,23.09S10,67.91,8.5,69.4C6.32,71.58,32.74,88.45,30.14,91"/><path class="cls-13" d="M149.27,198.14c-2.64,2.64,27.45,24.74,26.09,26.09-2.22,2.22-19.76-23.66-22.57-20.85-1.66,1.66,22.45,19.83,21.14,21.14-3.29,3.29-32.82-28.82-35.56-26.07s25.66,21.31,23.48,23.49"/><path class="cls-14" d="M8.58,46.2C6.39,48.39,37.21,69.67,34.64,72.25c-2.89,2.89-24.56-19.89-27-17.42s24.79,21.81,23.3,23.3c-2.41,2.4-17.3-22-19.91-19.43-1.9,1.9,22.39,19.67,21,21C29.43,82.35,10.28,55.39,8.79,56.89c-.15.15,1.29.89,1.09,1.09"/><path class="cls-6" d="M210.67,162c-2.24,2.24,20.9,15.66,18.28,18.28-1.23,1.23-17.09-15.36-19-13.4-2.44,2.44,20.2,16.35,18.27,18.28s-19.32-14.58-20.54-13.36c-.14.13,1.12.8,1,1"/><path class="cls-14" d="M161,198.14c-.23.23,6.54,6.31,6.42,6.42s-2.61-1.46-2.9-1.18c-1.55,1.56,20.85,18.4,19.62,19.62-3.09,3.1-30.52-27.49-33.1-24.91s25.51,21.18,23.34,23.35"/><path class="cls-4" d="M151.63,96.26c-3.07,3.06,29.31,22.13,25.72,25.72-1.48,1.47-19.85-19.31-22.2-17-.35.35,2.13,1.58,1.86,1.85"/><path class="cls-4" d="M151.91,62.65c-1.86,1.86,20.63,18.73,19.68,19.69-1.82,1.82-16.34-19.24-18.65-16.93C151.39,67,173.7,83.73,172.48,85c-4.35,4.35-45-35.85-48.61-32.21-5.89,5.89,58,48.17,53.11,53.11-4,4-50.41-56.91-57.36-50-5.94,5.95,62.88,52.13,57.51,57.51C171.4,119.11,125.6,52.15,119.72,58c-8.25,8.25,63.47,53.61,58.54,58.54-3.6,3.6-60-67.83-66.86-60.92-3.14,3.14,34.09,30.08,32.08,32.09S114.13,55.12,111.29,58c-2.44,2.44,30.29,24.17,27.23,27.24-4,4-29.27-31.71-31.29-29.7-3.11,3.11,29.61,24.89,27.25,27.25"/><path class="cls-13" d="M65.6,112.49C59.13,119,129.54,161.26,122,168.84c-4,4-50.18-57.31-56.57-50.92-6.69,6.69,56.9,46.35,51.62,51.63-5.5,5.5-48-48.37-51.4-45-4.31,4.3,48.25,38,43.14,43.14"/><path class="cls-14" d="M66.57,103.61c-2.52,2.52,29.16,23.19,26.18,26.17-2.21,2.21-23.59-20.13-25.76-18-4.86,4.86,62.87,49.53,56.2,56.2"/><path class="cls-14" d="M105.76,140.78c-2.9,2.9,29.72,26.74,28.23,28.23-2.58,2.58-22.66-27.77-25.92-24.51-1.92,1.92,26.28,23.27,24.77,24.78"/><path class="cls-9" d="M92.91,59.59C90.7,61.8,116.62,81,115.48,82.16c-1.79,1.8-16.12-18.95-18.4-16.68-1.26,1.26,16.42,14.44,15.43,15.43C110,83.42,84.06,64.66,82,66.76c-1.88,1.88,18.6,15.44,17,17-1.07,1.08-15.67-12-17.52-10.13C79.82,75.29,96.6,85.82,95.11,87.31c-1.18,1.18-11.19-12-12.41-10.81C80.49,78.7,97,88.1,95.63,89.42"/><path class="cls-9" d="M155.4,121.78c-2,2,18.68,13.95,16.31,16.32-1.15,1.15-16.13-14.14-18-12.31-2.24,2.25,18.5,15,16.73,16.73-2.07,2.07-23.42-8.26-24.69-7-1.66,1.66,18.31,14.38,16.34,16.35-1.5,1.49-15.62-16-17.16-14.45-2.13,2.13,15.67,13.81,14.74,14.74"/><path class="cls-11" d="M76.37,72.79c-2.05,2,22.31,20.21,21.26,21.26C96,95.68,82.92,76.94,80.86,79c-1.19,1.19,15.32,13.45,14.38,14.38-2.11,2.12-24.68-11.79-26.44-10-2,2,20,16.6,18.3,18.3C86,102.73,72.64,87.45,70.77,89.32s16.58,13.38,15,15"/><path class="cls-11" d="M141.05,136.2c-2.05,2.05,22.3,20.2,21.24,21.25-1.64,1.65-14.84-17.29-16.92-15.21-1.19,1.19,15.28,13.42,14.35,14.35-2.53,2.53-28.57-16.37-30.67-14.27s19.81,16.46,18.13,18.14c-1.19,1.18-15.21-16.32-17.26-14.27-1.8,1.8,17,13.69,15.33,15.33"/><path class="cls-8" d="M67.39,128c-4.53,4.53,44.2,33.58,38.89,38.89-2.47,2.47-31.9-34.12-35.84-30.19-3.64,3.65,30.62,24.86,27.74,27.74-2.51,2.52-22.42-21.5-24-19.94s16.42,12.87,14.65,14.64"/><path class="cls-12" d="M125.34,143.3c-2,2,21.64,19.62,20.62,20.63-1.64,1.64-14.78-17.22-16.86-15.14-1.34,1.34,17.69,15.57,16.63,16.62-3.28,3.28-34.35-26.22-37.09-23.48s26.3,21.83,24.07,24.06"/><path class="cls-12" d="M70.2,90.89C68.07,93,90,105.73,87.55,108.23c-1.25,1.25-17.28-15.57-19.26-13.59-2.66,2.66,22.09,17.89,20,20S66.9,99.06,65.56,100.39c-2.32,2.32,25.85,20.32,23.09,23.08"/><path class="cls-6" d="M104.5,55c-2.52,2.51,26.38,23.8,25.09,25.09-2.08,2.08-18.54-22.08-21.17-19.45-1.52,1.52,20.34,17.94,19.14,19.14-2.93,2.93-30.55-23.66-33-21.21-2.06,2.06,20.38,16.92,18.65,18.65"/><path class="cls-6" d="M156.14,107.52c-2.42,2.42,22.77,17.1,19.94,19.93-1.3,1.3-17.94-16.42-20-14.35-2.59,2.59,21.47,17.38,19.42,19.43s-19.64-15-20.88-13.77c-1.8,1.8,19.95,15.67,17.81,17.81"/><path class="cls-7" d="M169.58,47.25c-2.09,2.08,19.34,14.45,16.89,16.89-1.25,1.25-17.36-15.69-19.35-13.7-2.25,2.25,18.55,15,16.77,16.78-1.58,1.58-17.15-8.46-18.12-7.49-.76.76,8.13,6.33,7.23,7.23"/><path class="cls-15" d="M211.12,63.74c-2.59,2.58,24.43,18.37,21.4,21.4-1.45,1.45-19.71-18.67-22-16.36-3,3,25.15,20.39,22.77,22.77-2,2-22.53-7.26-23.75-6-2.25,2.25,25,19.66,22.34,22.33-2,2-19.76-23-21.84-20.89-2.72,2.73,20.58,18.2,19.39,19.39"/><path class="cls-15" d="M145.44-2.73C143-.28,171.3,20.61,170,21.87,168,23.93,151.64,0,149,2.58c-1.66,1.66,22.39,19.78,21.08,21.08C166.35,27.43,130.34-6,127.19-2.85c-2.62,2.63,26,21.54,23.75,23.75C149.18,22.66,127.76-2.68,124.72.36,122.4,2.68,147.44,18.87,145.34,21"/><path class="cls-15" d="M181.32,40.34c-.94.94,12.72,11.75,12.24,12.23-.88.87-8.25-8.74-9.35-7.63-.76.76,8.9,7.71,8.3,8.31-2,2-23.23-12.3-24.91-10.61-2.08,2.07,20.51,17,18.77,18.77"/></g></g></svg>