<svg xmlns="http://www.w3.org/2000/svg" viewBox="0 0 915.44 514.54"><defs><style>.cls-1{font-size:84.57px;font-family:UhBeeHeeyom, UhBee Heeyom;}.cls-1,.cls-2{fill:#fff;}.cls-3{fill:none;stroke:#56ff5d;stroke-linecap:round;stroke-linejoin:round;stroke-width:20px;}.cls-4{fill:#56ff5d;}</style></defs><g id="레이어_2" data-name="레이어 2"><g id="레이어_1-2" data-name="레이어 1"><text class="cls-1" transform="translate(0 466.97)">Developer &amp; Designer</text><path class="cls-2" d="M314.74,187.93q-17-1.55-54.57-32.72h-1.54q-4.53,16.31-21.84,32.72h-4.62q-11,0-11-12.42,41.24-85.2,49.85-85.74h4.71q2.44,0,6.26,6.25,0,9.44-12.51,39,52.38,31.37,54.56,35.81a12.43,12.43,0,0,1,1.54,6.25Q323.35,187.93,314.74,187.93ZM310,261.16h-6.25q-37.53,0-46.68-40.51V216q0-8.16,7.8-12.51H268q10.42,0,18.67,26.47,8.34,6.25,14.05,6.25h15.59q7.89,0,48.31-4.71,9.33,0,12.42,11Q377,258.9,310,261.16Zm49.86-60.72H356.8q-6.81,0-7.8-57.65-9.33-30.63-9.34-42.06c.55,0,3.14-2.08,7.8-6.25h3.08q18.68,0,24.93,71.7Q375.47,191.19,359.88,200.44Z"/><path class="cls-2" d="M467.54,223.33l-5.85-.4q-8.42-5.18-7.63-16.62.54-7.87,4.58-24.55-37.23-1.11-43.75-1.56-33.57-2.3-33.07-9.59l.5-7.29q.39-5.5,148.05-3,6.81,7.29,6.59,10.68-.86,12.45-57.79,10.68l-1.44-.1-1.3,18.9Q473.9,223.77,467.54,223.33ZM408.05,152q-6.49-3.34-6.88-6.35l.09-1.44q.83-12,11.28-15.32,23.74-16,41.29-47Q429.65,81.75,410,80.4q-21.87-1.5-21.07-13.2l.1-1.44q.6-8.73,66.2-4.23.11-1.44,19-.14,8.5,4,8,10.77-.37,5.43-15.56,35.55l37.93,23,2.48,6.05q-1.8,11.53-12.4,10.81l-3-.2q-12.54-.85-37.83-24.48l-1.45-.1Q429.24,153.43,408.05,152Zm56.09,121-10.17-.7q-46.26-8.46-43.72-45.5l1.1-16q.52-7.8,6.46-9.77l7.29.5q6.43.44,5.29,29.66,8.37,18.1,32.37,19.76A403.43,403.43,0,0,0,510,245.32l1.44.1q13.05.89,12.26,12.51Q522.74,271.4,464.14,272.92Z"/><path class="cls-2" d="M603.71,235.15q-9.09,0-40.87-32.12-14.19,30.58-21.92,30.59h-5.86q-2.29,0-5.78-5.78v-7.31q0-2.46,19-40.86,7.31-21.67,18.95-64.32l3-1.44h1.44q10.2,0,10.2,11.72V130q0,19.11-8.75,51.14,22.85,23.79,43.84,38v7.31Q611.35,235.15,603.71,235.15Zm58.45,0q-10.27-4.93-10.28-20.48V185.45q-28,3-43.75,3-5.86-2.38-5.87-10.28,0-12.06,43.84-16.06h4.34V150.44A75.15,75.15,0,0,0,649,137.27q0-9.09,7.31-13.17h5.86q13.08,7.65,13.09,74.51v16.06Q675.25,235.15,662.16,235.15Z"/><path class="cls-3" d="M721.22,137.91c-1.8-10.26-7.28-41.46-33.83-57a49.93,49.93,0,0,0-25.23-6.84H656.3a50.09,50.09,0,0,0-24.37,6.34,65.45,65.45,0,0,0-11.42,8.09c-1.19-1.67-2.38-3.17-3.54-4.5-11.28-13-27.4-20.12-45.38-20.12h-1.44a50.11,50.11,0,0,0-21.85,5l-3,1.45a49.81,49.81,0,0,0-13.68,9.81c.23-1.57.38-3.08.49-4.61,1.73-25.23-12.31-48-36.66-59.45a50.25,50.25,0,0,0-17.83-4.63c-7.28-.49-12.71-.73-17.11-.73a81.75,81.75,0,0,0-8.86.43c-13.07-.81-24.1-1.2-33.57-1.2-13.14,0-23.09.76-31.33,2.39A66.9,66.9,0,0,0,366,20a54.07,54.07,0,0,0-22.36,24.68,50,50,0,0,0-28.93,12.1L313.9,56a53.8,53.8,0,0,0-38.14-16.2h-4.71c-1.05,0-2.1,0-3.15.1a54.1,54.1,0,0,0-32.48,13.76,78.4,78.4,0,0,0-10.28,11.13,199,199,0,0,0-14.08,21.58c-9,15.53-20.43,37.57-34.87,67.39a50.09,50.09,0,0,0-5,21.78c0,20.77,8.3,34.53,15.26,42.41a58.26,58.26,0,0,0,22.31,15.66c11.72,48.62,47.11,77.58,95,77.58H310c.57,0,1.13,0,1.7,0,26.55-.9,46.82-3.39,62-7.61a100.61,100.61,0,0,0,16.67-6.18c14,11.9,32.35,20,54.61,24a49.57,49.57,0,0,0,5.57.7l10.17.7c1.14.08,2.28.12,3.43.12l1.29,0c23.77-.61,41.28-2.52,55.1-6,10.83-2.73,19.75-6.55,27.28-11.7a59.17,59.17,0,0,0,23-29.9c9.17,5.48,20.15,9.85,33,9.85A62.15,62.15,0,0,0,634.58,277c1.92,1.17,3.92,2.25,6,3.24a50.06,50.06,0,0,0,21.61,4.91c30.38,0,63.09-22.06,63.09-70.48V198.61C725.25,173.19,723.93,153.33,721.22,137.91Z"/><ellipse class="cls-4" cx="907.83" cy="455.94" rx="7.62" ry="8.33"/></g></g></svg>