<svg xmlns="http://www.w3.org/2000/svg" viewBox="0 0 909.12 493.98"><defs><style>.cls-1{fill:#fff;}.cls-2{fill:none;stroke:#56ff5d;stroke-linecap:round;stroke-linejoin:round;stroke-width:20px;}.cls-3{fill:#56ff5d;}</style></defs><g id="레이어_2" data-name="레이어 2"><g id="레이어_1-2" data-name="레이어 1"><path class="cls-1" d="M4.25,468.42Q0,466.77,0,463.46,0,391,10.65,391l3.56,2.15a19,19,0,0,1,9.2-2.15q17.88,0,29.11,28.41a99.2,99.2,0,0,1,2.15,14.9q0,23.08-26.26,31.92Q5.75,468.42,4.25,468.42Zm9.25-12.06q29.82,0,29.82-22.71T23.41,401q-6.81,0-9.2-.7Q12,417.18,11.36,456.36Z"/><path class="cls-1" d="M87.33,467.72q-17,0-23.41-14.91v-5q0-18,17.71-25.51l5-.75q21.27,3,21.27,14.21,0,9.54-11.36,13.5a17.52,17.52,0,0,1-7.8,1.4q-10.41,0-13.46-1.4v.7q2.67,6.41,12,6.4,13.17-3.56,16.31-3.55c1.9,2.09,2.85,3.28,2.85,3.55v1.41Q106.49,465.32,87.33,467.72ZM90.18,440q6.36-1.41,6.36-3.55c0-1.62-2.6-2.81-7.8-3.55H85.93q-4.5,0-8.55,6.4v.7Z"/><path class="cls-1" d="M135.64,467H134.2q-13.3,0-19.86-35.47,1.44-5,5.7-4.95h.7q2.55,0,9.21,21.26,2.6,5.7,3.55,5.7h.7a264.3,264.3,0,0,0,8.55-26.26l2.8-2.15h3.55a5.09,5.09,0,0,1,3.56,5q0,11.61-12.06,34.07Q139.19,464.17,135.64,467Z"/><path class="cls-1" d="M182.8,467.72q-17,0-23.41-14.91v-5q0-18,17.71-25.51l5-.75q21.26,3,21.26,14.21,0,9.54-11.35,13.5a17.57,17.57,0,0,1-7.81,1.4q-10.39,0-13.46-1.4v.7q2.69,6.41,12.06,6.4,13.17-3.56,16.31-3.55c1.9,2.09,2.85,3.28,2.85,3.55v1.41Q202,465.32,182.8,467.72ZM185.65,440q6.36-1.41,6.36-3.55c0-1.62-2.6-2.81-7.81-3.55h-2.81q-4.5,0-8.54,6.4v.7Z"/><path class="cls-1" d="M218.85,462.72c-3.78,0-5.66-1.88-5.66-5.66q0-50.42,6.36-50.41,5.7,0,5.7,7.1-.7,29.47-.71,44Q223.1,462.72,218.85,462.72Z"/><path class="cls-1" d="M257.29,467.72H253q-12.48,0-18.46-17.06V445q0-9.47,11.35-17.76a26.73,26.73,0,0,1,9.95-2.85q19.17,3.84,19.16,17.06-4.17,24.81-14.2,24.81C260.84,467.24,259.66,467.72,257.29,467.72Zm-2.11-11.36q8.51-1.53,8.51-16.35-4-4.25-11.36-4.25-7.1,5.44-7.1,11.35,2.57,9.25,8.51,9.25Z"/><path class="cls-1" d="M289.74,482.62c-2.69,0-4.35-2.6-4.95-7.8v-9.25q0-44.71,4.95-44.72l1.45-.7c.36,0,1.77.23,4.25.7a31.68,31.68,0,0,1,7.81-1.4Q321,422,321,438.61q0,17.55-24.15,20.56h-.71v17.05Q296.14,482.63,289.74,482.62Zm8.55-34.81q9.33,0,11.36-9.2v-2.15c-.64-4.71-3-7.06-7.11-7.06h-4.25c-1,.14-1.44.6-1.44,1.4v1.41q0,5-.71,15.6Z"/><path class="cls-1" d="M351.72,467.72q-17,0-23.41-14.91v-5q0-18,17.71-25.51l5-.75q21.27,3,21.27,14.21,0,9.54-11.36,13.5a17.52,17.52,0,0,1-7.8,1.4q-10.41,0-13.46-1.4v.7q2.67,6.41,12.05,6.4,13.17-3.56,16.31-3.55c1.9,2.09,2.85,3.28,2.85,3.55v1.41Q370.88,465.32,351.72,467.72ZM354.57,440q6.36-1.41,6.36-3.55c0-1.62-2.6-2.81-7.8-3.55h-2.81q-4.5,0-8.55,6.4v.7Z"/><path class="cls-1" d="M389.83,462H387q-4,0-5.7-26.26-.71,0-.71-11.36,0-3.79,2.85-4.95h2.85c1.74,0,3.15,3.55,4.26,10.65q5.82-5.7,15.6-5.7,8.52,0,8.51,6.4v2.11c-1.4,2.37-3.06,3.55-4.95,3.55l-6.41-.7q-8.51,0-8.5,15.61v5.69Q394.79,462,389.83,462Z"/><path class="cls-1" d="M465.4,472.67h-9.25Q444.09,470.9,444.09,462v-5.66q0-9.66,11.36-19.9L453.3,428q0-16.14,16.35-23.41a17.71,17.71,0,0,1,7.81-1.4q9.9,0,12.05,16.31,0,13.38-17.75,20.56,0,.66,7.8,7.1h.7q2.69-8.5,7.85-8.5a7.27,7.27,0,0,1,4.25,3.55q0,4.71-3.55,12.76a14.69,14.69,0,0,1,5.66,5v.7q0,5-4.26,5a18.48,18.48,0,0,1-6.4-3.55h-.7Q472.58,472.67,465.4,472.67Zm-6.4-9.95q9.57,0,14.9-7.1,0-.71-12-9.91Q454,451.86,454,459.17q1.36,3.27,2.81,3.55Zm5.66-31.22q14.19-4,14.2-13.46,0-3.71-2.11-4.29h-1.44Q464,416.39,464,428.66A21.48,21.48,0,0,0,464.66,431.5Z"/><path class="cls-1" d="M532.87,468.42c-2.84-1.1-4.25-2.75-4.25-5q0-72.42,10.65-72.42l3.55,2.15A19.09,19.09,0,0,1,552,391q17.88,0,29.11,28.41a99.2,99.2,0,0,1,2.15,14.9q0,23.08-26.26,31.92Q534.35,468.42,532.87,468.42Zm9.25-12.06q29.8,0,29.81-22.71T552,401q-6.81,0-9.21-.7-2.15,16.89-2.85,56.07Z"/><path class="cls-1" d="M616,467.72q-17,0-23.41-14.91v-5q0-18,17.71-25.51l5-.75q21.25,3,21.26,14.21,0,9.54-11.35,13.5a17.57,17.57,0,0,1-7.81,1.4q-10.4,0-13.46-1.4v.7q2.68,6.41,12.06,6.4,13.17-3.56,16.31-3.55c1.9,2.09,2.85,3.28,2.85,3.55v1.41Q635.11,465.32,616,467.72ZM618.8,440q6.36-1.41,6.36-3.55c0-1.62-2.6-2.81-7.81-3.55h-2.81q-4.5,0-8.54,6.4v.7Z"/><path class="cls-1" d="M658.93,465.57h-1.4q-14.21-1.2-14.2-8.51c0-3.8,1.89-5.69,5.69-5.69h1.41a20.1,20.1,0,0,0,7.1,3.55q7.8,0,7.8-5.66-.2-1.58-12.76-4.25-6.39-5-6.4-10.66,1.65-14.89,14.21-14.9,13.46.41,13.46,5.65c-.91,2.18-1.86,3.36-2.85,3.56h-7.8q-6.36,0-6.36,5v.7q0,1.62,12,3.55,7.11,4.38,7.11,9.91v3.56Q676,464,658.93,465.57Z"/><path class="cls-1" d="M690.85,413.75q-7.68-2.07-8.55-5v-3.55q0-8.5,10.66-8.5,7.1,0,7.1,8.5Q700.06,412.35,690.85,413.75Zm1.41,47.57h-2.85q-1.83,0-3.55-5.7,0-32.37,5-34.07h2.81q2.85,0,2.85,8.55v24.82C696.51,457.53,695.09,459.67,692.26,461.32Z"/><path class="cls-1" d="M724.05,494q-11.31,0-13.5-10.65a35.35,35.35,0,0,1,.7-4.26q10.37,3.56,16.35,3.55,12.06,0,12.06-14.9v-8.55H739q-8.18,5.7-16.35,5.7-14.46,0-16.32-13.5V450q0-15.81,16.32-22h1.44a23.45,23.45,0,0,1,11.36,2.85,36.33,36.33,0,0,1,6.35-.7q4.75,0,8.55,34.07v7.1q0,16.35-17,22A82.61,82.61,0,0,1,724.05,494Zm-.74-39.06q10.16,0,11.35-12.06v-1.4c0-1.66-2.6-2.84-7.8-3.56h-3.55q-5.62,3.27-7.81,12.76Q717,454.92,723.31,454.92Z"/><path class="cls-1" d="M790,465.57h-3.56q-3,0-4.25-8.51a.62.62,0,0,1,.7-.7l-.7-3.55q0-16.89-5-19.16-7.05,8.22-7.06,27.67c-1.54,2.36-3.44,3.55-5.69,3.55-3.78,0-5.66-1.9-5.66-5.7q.95-31.21,4.95-31.22,3.76,0,8.51-4.25a11.74,11.74,0,0,1,5.7-1.4h1.4q14.21,3.92,14.21,27.66V462C793.59,462.65,792.4,463.84,790,465.57Z"/><path class="cls-1" d="M826,467.72q-17,0-23.41-14.91v-5q0-18,17.71-25.51l5-.75q21.27,3,21.26,14.21,0,9.54-11.35,13.5a17.57,17.57,0,0,1-7.81,1.4q-10.4,0-13.46-1.4v.7q2.68,6.41,12.06,6.4,13.17-3.56,16.31-3.55c1.9,2.09,2.85,3.28,2.85,3.55v1.41Q845.2,465.32,826,467.72ZM828.89,440q6.36-1.41,6.36-3.55c0-1.62-2.6-2.81-7.81-3.55h-2.8q-4.5,0-8.55,6.4v.7Z"/><path class="cls-1" d="M864.15,462H861.3q-4,0-5.69-26.26-.71,0-.71-11.36,0-3.79,2.85-4.95h2.85q2.61,0,4.25,10.65,5.83-5.7,15.61-5.7,8.5,0,8.51,6.4v2.11c-1.4,2.37-3.06,3.55-5,3.55l-6.4-.7q-8.5,0-8.5,15.61v5.69Q869.11,462,864.15,462Z"/><path class="cls-1" d="M308.42,187.93q-16.95-1.55-54.56-32.72h-1.55q-4.53,16.31-21.84,32.72h-4.62q-11,0-11-12.42,41.24-85.2,49.85-85.74h4.72q2.44,0,6.25,6.25,0,9.44-12.51,39,52.4,31.37,54.57,35.81a12.53,12.53,0,0,1,1.54,6.25Q317,187.93,308.42,187.93Zm-4.71,73.23h-6.26q-37.51,0-46.68-40.51V216q0-8.16,7.8-12.51h3.08q10.43,0,18.67,26.47,8.34,6.25,14.05,6.25H310q7.89,0,48.31-4.71,9.35,0,12.42,11Q370.69,258.9,303.71,261.16Zm49.85-60.72h-3.08q-6.8,0-7.8-57.65-9.33-30.63-9.33-42.06.81,0,7.79-6.25h3.08q18.67,0,24.93,71.7Q369.15,191.19,353.56,200.44Z"/><path class="cls-1" d="M461.22,223.33l-5.85-.4q-8.42-5.18-7.63-16.62.54-7.87,4.58-24.55-37.21-1.11-43.75-1.56-33.57-2.3-33.06-9.59l.5-7.29q.38-5.5,148-3,6.83,7.29,6.59,10.68-.85,12.45-57.79,10.68l-1.44-.1-1.3,18.9Q467.58,223.77,461.22,223.33ZM401.74,152q-6.51-3.34-6.89-6.35l.1-1.44q.81-12,11.27-15.32,23.75-16,41.29-47-24.18-.12-43.84-1.47Q381.8,78.9,382.6,67.2l.1-1.44q.6-8.73,66.2-4.23.11-1.44,19-.14,8.49,4,8,10.77-.37,5.43-15.56,35.55l37.94,23,2.48,6.05q-1.82,11.53-12.41,10.81l-3-.2q-12.54-.85-37.83-24.48l-1.44-.1Q422.93,153.43,401.74,152Zm56.08,121-10.17-.7q-46.26-8.46-43.72-45.5l1.1-16q.54-7.8,6.46-9.77l7.29.5q6.44.44,5.29,29.66,8.39,18.1,32.37,19.76a403.84,403.84,0,0,0,47.22-5.53l1.44.1q13,.89,12.25,12.51Q516.43,271.4,457.82,272.92Z"/><path class="cls-1" d="M597.39,235.15q-9.09,0-40.87-32.12-14.19,30.58-21.92,30.59h-5.86q-2.29,0-5.77-5.78v-7.31q0-2.46,18.94-40.86,7.3-21.67,19-64.32l3-1.44h1.45q10.19,0,10.19,11.72V130q0,19.11-8.75,51.14,22.86,23.79,43.84,38v7.31Q605,235.15,597.39,235.15Zm58.45,0q-10.27-4.93-10.28-20.48V185.45q-28,3-43.75,3Q595.94,186,596,178.14q0-12.06,43.84-16.06h4.33V150.44a76,76,0,0,0-1.44-13.17q0-9.09,7.3-13.17h5.86q13.1,7.65,13.09,74.51v16.06Q668.93,235.15,655.84,235.15Z"/><path class="cls-2" d="M714.9,137.91c-1.8-10.26-7.28-41.46-33.83-57a49.93,49.93,0,0,0-25.23-6.84H650a50.06,50.06,0,0,0-24.36,6.34,65.16,65.16,0,0,0-11.43,8.09c-1.19-1.67-2.38-3.17-3.54-4.5-11.28-13-27.4-20.12-45.37-20.12h-1.45a50,50,0,0,0-21.84,5l-3,1.45a49.81,49.81,0,0,0-13.68,9.81c.23-1.57.39-3.08.49-4.61,1.74-25.23-12.31-48-36.66-59.45a50.2,50.2,0,0,0-17.83-4.63c-7.28-.49-12.71-.73-17.11-.73a81.75,81.75,0,0,0-8.86.43c-13.07-.81-24.1-1.2-33.57-1.2-13.13,0-23.09.76-31.33,2.39A66.93,66.93,0,0,0,359.64,20a54.1,54.1,0,0,0-22.37,24.68,50,50,0,0,0-28.93,12.1l-.75-.77a53.83,53.83,0,0,0-38.14-16.2h-4.72c-1.05,0-2.1,0-3.15.1a54.1,54.1,0,0,0-32.47,13.76,77.85,77.85,0,0,0-10.29,11.13,200.53,200.53,0,0,0-14.08,21.58c-9,15.53-20.43,37.57-34.86,67.39a50,50,0,0,0-5,21.78c0,20.77,8.3,34.53,15.27,42.41a58.15,58.15,0,0,0,22.3,15.66c11.72,48.62,47.11,77.58,95,77.58h6.26c.56,0,1.12,0,1.69,0,26.56-.9,46.83-3.39,62-7.61A100.28,100.28,0,0,0,384,297.35c14,11.9,32.35,20,54.62,24a49.68,49.68,0,0,0,5.56.7l10.17.7c1.14.08,2.29.12,3.43.12l1.29,0c23.78-.61,41.29-2.52,55.11-6,10.82-2.73,19.74-6.55,27.27-11.7a59.17,59.17,0,0,0,23-29.9c9.18,5.48,20.15,9.85,32.95,9.85A62.15,62.15,0,0,0,628.26,277q2.9,1.75,6,3.24a50,50,0,0,0,21.6,4.91c30.39,0,63.09-22.06,63.09-70.48V198.61C718.93,173.19,717.61,153.33,714.9,137.91Z"/><ellipse class="cls-3" cx="901.51" cy="455.94" rx="7.62" ry="8.33"/></g></g></svg>