<svg xmlns="http://www.w3.org/2000/svg" viewBox="0 0 225 335.86"><defs><style>.cls-1{fill:#fff;}.cls-2,.cls-3{fill:none;stroke-linecap:round;stroke-linejoin:round;stroke-width:5px;}.cls-2{stroke:#21c897;}.cls-3{stroke:#fff;}</style></defs><g id="레이어_2" data-name="레이어 2"><g id="레이어_1-2" data-name="레이어 1"><path class="cls-1" d="M59.43,318.78A30,30,0,0,1,58,316.12c-.39-.81-.88-1.76-1.47-2.83q-1.27-2.39-2.41-5a24.13,24.13,0,0,1-1.63-5.08,6.71,6.71,0,0,1-.2-2.16,2.05,2.05,0,0,1,1.36-1.66,2.1,2.1,0,0,1,1.86,0,2.5,2.5,0,0,1,1.24,1.52c.41,1.26.78,2.54,1.11,3.83a32.58,32.58,0,0,0,1.28,3.88c.52,1.15,1.1,2.36,1.75,3.63s1.32,2.51,2,3.69l1.5,2.72a32.24,32.24,0,0,1,1.83-3.38c.7-1.15,1.44-2.29,2.22-3.41s1.54-2.2,2.3-3.22,1.45-2,2.08-2.8a7.16,7.16,0,0,0,.8-1.11c.24-.41.47-.83.69-1.27A15,15,0,0,1,75,302a5.65,5.65,0,0,1,.92-1.22,2.16,2.16,0,0,1,1.44-.67,2.08,2.08,0,0,1,1.55.61,2.32,2.32,0,0,1,.92,1.28,2.43,2.43,0,0,1-.11,1.33,5.08,5.08,0,0,1-.75,1.3A12.29,12.29,0,0,1,78,305.8l-.86.89a3.75,3.75,0,0,0-.63.89c-.6,1-1.25,2-2,3.1s-1.44,2.17-2.16,3.28-1.44,2.22-2.14,3.35-1.33,2.23-1.89,3.3c-.4.74-.77,1.41-1.1,2a11.35,11.35,0,0,1-.78,1.22,3.57,3.57,0,0,1-1.17.83,4.08,4.08,0,0,1-1.71.33,1.74,1.74,0,0,1-1.47-.69,6.4,6.4,0,0,1-.81-1.36c-.22-.67-.45-1.3-.69-1.91A17,17,0,0,0,59.43,318.78Z"/><path class="cls-1" d="M84.94,306.3a12.38,12.38,0,0,1,1.86-2.63,12.76,12.76,0,0,1,2.58-2.16,13.2,13.2,0,0,1,3.16-1.45,12.41,12.41,0,0,1,3.66-.52,13.15,13.15,0,0,1,4.1.61,10.32,10.32,0,0,1,3.25,1.69,7.76,7.76,0,0,1,2.1,2.55,6.91,6.91,0,0,1,.75,3.19,6.5,6.5,0,0,1-.91,3.58,7.76,7.76,0,0,1-2.8,2.46A10.29,10.29,0,0,1,98.94,315a25.44,25.44,0,0,1-4.18.34,15.26,15.26,0,0,1-4.25-.59,8.43,8.43,0,0,1-3.3-1.69A8.14,8.14,0,0,0,88,316.7a8,8,0,0,0,2,2.69,9.45,9.45,0,0,0,6.27,2,21.87,21.87,0,0,0,2.63-.17,11,11,0,0,0,2.3-.5,2.71,2.71,0,0,1,1.44-.14,1.4,1.4,0,0,1,1,.86,1.6,1.6,0,0,1,.09,1.22,1.76,1.76,0,0,1-.92,1.06,11,11,0,0,1-2.91.88,21.65,21.65,0,0,1-3.69.28,16.62,16.62,0,0,1-5.24-.78,11.06,11.06,0,0,1-4.05-2.3,10.14,10.14,0,0,1-2.6-3.77,13.82,13.82,0,0,1-.92-5.24,13,13,0,0,1,.47-3.46A17.75,17.75,0,0,1,84.94,306.3Zm17.75,1.45a3.77,3.77,0,0,0-1.67-3.17,7.78,7.78,0,0,0-4.66-1.22q-6.44,0-8.37,5.66a10.66,10.66,0,0,0,7,2.44,12.75,12.75,0,0,0,5.74-1A3,3,0,0,0,102.69,307.75Z"/><path class="cls-1" d="M113.28,288.89a1.68,1.68,0,0,1,.75-1.41,2.25,2.25,0,0,1,1.63-.36q1.89.21,1.83,2.55c-.07,1.29-.12,2.57-.14,3.82s0,2.67,0,4.22v2.63c0,1,0,2.08,0,3.19s0,2.22,0,3.33v3q0,2.83.06,5.22c0,1.59,0,3,0,4.26V322q0,.48,0,.84c0,.24,0,.49-.08.74a1.58,1.58,0,0,1-1.83,1.39,2.77,2.77,0,0,1-1-.19,2.14,2.14,0,0,1-1-.81,4.17,4.17,0,0,1-.53-1.72,2.8,2.8,0,0,1,.2-1.49c0-.23,0-.59,0-1.11s0-.87,0-1.06c0-1.55,0-3.46,0-5.74s0-4.79,0-7.57q-.06-4.87-.09-9.06T113.28,288.89Z"/><path class="cls-1" d="M145.5,315.56a13,13,0,0,1-1.31,3.08,11.72,11.72,0,0,1-2.16,2.69,13.67,13.67,0,0,1-3,2.11,13.3,13.3,0,0,1-3.85,1.27,8.36,8.36,0,0,1-5.71-.75,8.18,8.18,0,0,1-3.77-4.35,12.81,12.81,0,0,1-1-3.46,22.84,22.84,0,0,1-.22-3,20.33,20.33,0,0,1,.75-5.93A9.3,9.3,0,0,1,128,303a5.93,5.93,0,0,1,2.69-2.64,8.74,8.74,0,0,1,4-.91,12.35,12.35,0,0,1,4.1.72,9.36,9.36,0,0,1,3.44,2.05A11.37,11.37,0,0,1,144.5,305a11.69,11.69,0,0,1,1.27,3.77,17.55,17.55,0,0,1,.25,3.36A13.24,13.24,0,0,1,145.5,315.56Zm-11.76,5.6a7.28,7.28,0,0,0,3.19-.74,8.41,8.41,0,0,0,2.63-2,10.36,10.36,0,0,0,1.78-2.94A9.37,9.37,0,0,0,142,312a10.82,10.82,0,0,0-.36-2.72,9.85,9.85,0,0,0-1.14-2.66,7.87,7.87,0,0,0-2.35-2.19,5.84,5.84,0,0,0-3.14-.91,5.07,5.07,0,0,0-2.38.52q-1,.53-1.11,1.14a2,2,0,0,1-.42.69,1.48,1.48,0,0,1-.58.47,1.53,1.53,0,0,0-.75.89,12.53,12.53,0,0,0-.55,1.72,13.9,13.9,0,0,0-.36,2.16,21.15,21.15,0,0,0-.11,2.17,10.9,10.9,0,0,0,1.33,5.73A4.09,4.09,0,0,0,133.74,321.16Z"/><path class="cls-1" d="M157.47,302.09a16.08,16.08,0,0,1,2.89-1.89,7.89,7.89,0,0,1,3.71-.94,8.24,8.24,0,0,1,1.61.19,6,6,0,0,1,1.33.42,7.43,7.43,0,0,1,3.49,3,8.91,8.91,0,0,1,1.28,4.74q0,1.23,0,2.28c0,.7-.06,1.51-.14,2.44a1.73,1.73,0,0,1,.34.64,9.63,9.63,0,0,1,.3,1.05,10.78,10.78,0,0,1,.22,1.25,8.76,8.76,0,0,1,.09,1.16c0,.44,0,.91-.06,1.39a8.54,8.54,0,0,1-.17,1.22,53.1,53.1,0,0,1-1.05,5.54,20.58,20.58,0,0,1-1.94,5,17.07,17.07,0,0,1-2.8,3.94,7.4,7.4,0,0,1-3.47,2.05,10.79,10.79,0,0,1-4.82-.11,16.67,16.67,0,0,1-3.13-1.14,18.5,18.5,0,0,1-2.92-1.8,13.88,13.88,0,0,1-1.24-1,7.35,7.35,0,0,1-1.14-1.39,6,6,0,0,1-.64-1.44,2.31,2.31,0,0,1,.14-1.67,1.7,1.7,0,0,1,.67-.94,1.36,1.36,0,0,1,1.16-.28,1.84,1.84,0,0,1,1.17.67,6.34,6.34,0,0,1,.58.91,5.14,5.14,0,0,0,.91,1.2,21.81,21.81,0,0,0,3.14,2.27,7.22,7.22,0,0,0,3.79,1.05,4.56,4.56,0,0,0,2.83-.91,7.21,7.21,0,0,0,2-2.36,22.86,22.86,0,0,0,1.88-4.55,25.22,25.22,0,0,0,1-4.65,27.54,27.54,0,0,1-2.22,1.71,8.68,8.68,0,0,1-2.6,1.22,17,17,0,0,1-4.33.67,10.14,10.14,0,0,1-2.58-.33,7.43,7.43,0,0,1-2.27-1,7,7,0,0,1-1.8-1.8,7.19,7.19,0,0,1-1.11-2.66,15.56,15.56,0,0,1,.66-8.27A15.77,15.77,0,0,1,157.47,302.09Zm10.43,6.76a10,10,0,0,0-.22-2.05,5.34,5.34,0,0,0-.7-1.74,3.65,3.65,0,0,0-1.25-1.22,3.36,3.36,0,0,0-1.82-.48,5.19,5.19,0,0,0-2.17.48,9.62,9.62,0,0,0-2,1.22,10.11,10.11,0,0,0-1.75,1.71,12.87,12.87,0,0,0-1.33,2,11.52,11.52,0,0,0-.67,1.36,9.86,9.86,0,0,0-.52,1.72,15.94,15.94,0,0,0-.28,1.91,7.27,7.27,0,0,0,.08,1.88,4.66,4.66,0,0,0,1.31,2.61,3.8,3.8,0,0,0,2.85,1.11,9.64,9.64,0,0,0,2.17-.25,12,12,0,0,0,2.1-.69,8,8,0,0,0,1.78-1.08,4.51,4.51,0,0,0,1.16-1.42,5.08,5.08,0,0,1,0-.75q0-.3.09-.75a4,4,0,0,0,.19-.63,1.94,1.94,0,0,1,.64-.86,4.15,4.15,0,0,0,.33-1.53Q167.9,310.47,167.9,308.85Z"/><path class="cls-2" d="M110.52-.8c-.24,1.38,40.33,4.75,39.93,7s-76.28-4.55-77.09,0c-.09.52,117.31,16.27,116.55,20.55C189.74,27.78,65.14.36,63.4,10.26,63.11,11.88,188.85,18.85,186.54,32,185.78,36.29,53.2,7.82,52.07,14.23c0,.21,147.56,9,144.64,25.51C193.09,60.27,40.36,18.44,39.21,25,37.8,33,215.27,40.39,212.59,55.55c-1.52,8.66-177-37-179.3-23.79-3.7,21,184.72,6.69,180.29,31.79C208.89,90.16,30.36,21.65,26.7,42.42,23.93,58.15,224.23,68.55,222.74,77,222,81.34,19,33.2,15.43,53.65,10.53,81.47,223.8,86.88,223.2,90.28c-.06.3-203.91-32.66-204.38-30-.3,1.69,211.35,11.56,207,36.49C223.65,108.85,7.62,59.16,6.23,67.07c-3.88,22,215.63,37,215.46,38-5.5,31.21-210-38.63-211.71-29C6.06,98.27,229,102.75,227,114.31,221.33,146.39,5.18,55.78.23,83.85c-.78,4.43,226,17.83,222.22,39.19C221.5,128.45,3.87,83.47,2.25,92.62c-1,5.58,218.69,26.89,216.7,38.21C215.56,150,.49,86.11-1.28,96.14c-1.19,6.73,228.09,7.34,222.47,39.23-2.82,16-221.32-36.8-222.88-27.91-1.73,9.82,216.81,37.39,216.67,38.2-3,17-206.5-56.2-211.19-29.6-.35,2,214.68,7.18,209.44,36.93-5,28.56-206-50.43-210.51-24.58-.09.49,216.28,14.13,212.18,37.41C213.32,174.74,6.15,117.69,3.44,133.1c-4,22.6,207.21,34.4,206.84,36.47-.91,5.16-196.61-43.36-200.14-23.37,0,.17,196.91,27,195.59,34.49-1.19,6.75-196.11-39.83-198.08-28.62-1.86,10.52,191.14,20.73,188.92,33.32-2.7,15.31-182.84-41.56-186-23.57C6.76,183.34,195,172.42,191.26,193.69c-1.1,6.23-177.52-33.4-178.91-25.51-.58,3.31,175.12,9.23,171.41,30.23C181.61,210.6,18.68,172,17.38,179.33c-2.52,14.3,161.86,18,160.05,28.22-2.19,12.43-141.81-30.61-143.8-19.3C33,192,173.91,199.2,171.55,212.57c0,.09-128.11-26.77-130.4-13.81-2.72,15.42,111.62,16.29,111,19.58-1.6,9.09-90-7.93-90.6-4.52-1.13,6.4,56,6.38,55.36,9.76"/><path class="cls-3" d="M84.78,67.08s16.34,2.66,16.3,2.88c-.38,2.19-28.26,2.2-28.37,2.78-.38,2.18,33.72,4,33.39,5.89-.37,2.06-53.44-2.91-53.55-2.27-1,5.44,53,7.22,52.64,9.28-.78,4.39-41.95-4.19-42.53-.94-.21,1.19,5.81-.55,5.54,1"/><path class="cls-3" d="M78.89,87.5c-.1.59,23.11,2.75,22.89,4-.63,3.57-27.64-.39-27.84.73-.53,3,37.8,3.2,37.2,6.56-.11.63-27.57.3-27.79,1.55-.67,3.79,23-.11,22.26,3.93-.34,2-28.09-1-28.79,2.89-.27,1.54,32.08,4.13,31.82,5.61-.72,4-28.18,4.07-28.32,4.9-.29,1.66,27.53,3,27.23,4.8-.25,1.4-21.32,7.66-21.6,9.23-.57,3.25,29.1,4.66,29,5.12-.44,2.5-23.7,7-24.08,9.18-.57,3.24,26.19.82,25.54,4.5s-26.72-.51-26.93.67c-.39,2.21,38.68,5.35,38.43,6.77-.2,1.12-31.81,2.42-31.84,2.6-.79,4.49,24.07,2.18,23.72,4.18-.17,1-29.08,4.35-29.85,8.69-.16.93,14.08,1.24,13.87,2.44"/><path class="cls-3" d="M143.18,66.89c-.1.57,20.73,2.69,20.57,3.63S131.34,76.36,131,78.37c0,.16,42.65,6.09,42.41,7.48,0,.25-33.67-2.93-34.13-.28-.06.33,22.85,1.23,22.38,3.94-.12.69-21.17,1.2-21.35,2.21,0,0,24.13,1.72,23.69,4.18-.54,3.09-21.8,8.15-22,9.14-.14.79,22.65,2.43,22.38,3.94-.2,1.14-23.16,2-23.46,3.7s16.33.66,15.95,2.81c-.5,2.84-17.75,6.4-18.14,8.62-.2,1.12,15.79,2.16,15.68,2.76s-25.18,6-25.64,8.7c-.31,1.75,14.52,2.34,14.49,2.55,0,0-11.6,3.83-11.63,4s9.6.13,9.34,1.65c-.24,1.33-23.69,3.94-23.84,4.81-.24,1.31,12.94,2.22,12.93,2.28"/></g></g></svg>